<?xml version="1.0" encoding="utf-8"?><!DOCTYPE svg PUBLIC "-//W3C//DTD SVG 1.1//EN" "http://www.w3.org/Graphics/SVG/1.1/DTD/svg11.dtd"><svg version="1.1" id="svgMap" xmlns="http://www.w3.org/2000/svg" xmlns:xlink="http://www.w3.org/1999/xlink" x="0px" y="0px" width="450px" height="450px" viewbox="29.919 -41.623 450 450" enable-background="new 29.919 -41.623 450 450" xml:space="preserve"><g id="perspective"><g id="svgMapBj"><path id="青海" fill="none" stroke="#C12E20" stroke-width="0.25" stroke-miterlimit="10" d="M420.361,165.472 c0.92-0.276,0.73-2.026,1.648-2.854c0.92-0.829-0.093-1.381-1.472-1.564c-1.379-0.186-2.94-1.566-3.217-3.315 c-0.274-1.75-2.207-4.146-2.574-4.973c-0.366-0.829-0.274-2.026-1.563-2.026c-1.287,0-2.11-0.46-2.205-1.934 c-0.096-1.475,1.284-2.026,2.302-2.118c1.011-0.092,0.918-0.829,0-1.842c-0.922-1.014-4.968-4.514-5.521-4.789 c-0.555-0.276-0.729-1.198-0.729-1.198s0.646-1.842,0.092-2.67c-0.141-0.207-0.178-0.393-0.143-0.551l0.117-0.291 c0,0-0.255-0.177-0.615-0.273c0.379,0.085,0.615,0.273,0.615,0.273l2.385-0.486c0.762-0.146,0.451-0.686-0.244-1.619 c-0.828-1.104-3.033-2.118-4.873-2.487c-1.842-0.367-1.475-1.564-2.393-3.039c-0.923-1.474-3.857-2.578-5.24-2.578 c-1.379,0-2.021-0.736-1.474-1.658c0.556-0.921,1.015-0.921,1.104-2.579c0.092-1.658-1.656-1.658-2.207-2.026 c-0.557-0.368-0.273-0.921-0.273-2.21s-2.021,0.829-2.852,1.842c-0.828,1.014-0.367,1.566-0.367,3.039 c0,1.475,0.188,2.396-0.825,2.487c-1.015,0.092-1.747-1.474-2.111-2.487c-0.367-1.013-0.92-1.656-2.207-1.656 c-1.285,0-5.236-2.855-6.709-3.961c-1.475-1.104-2.021-1.474-3.492-1.474c-1.471,0-2.854-3.039-3.858-3.591 c-1.013-0.553-2.207-1.565-4.412-1.565c-2.207,0-1.748-0.645-5.058-2.303c-3.313-1.658-2.205-2.487-2.481-3.408 c-0.273-0.921-0.551-2.579-3.769-2.946c-3.221-0.368-3.401-2.304-3.953-2.304c-0.553,0-1.475,1.014-1.653-0.092 c-0.185-1.104-0.367-1.381-1.379-2.579c-1.013-1.198-2.3-0.275-2.48,0.553c-0.186,0.829,0.922,2.026,1.652,2.764 c0.735,0.736,1.014,3.039,1.014,4.052c0,1.013-2.393-1.198-4.229-2.395c-1.837-1.197-5.06-2.579-7.354-3.408 c-2.301-0.829-3.03-2.303-3.857-3.407c-0.826-1.104-0.733-2.119-1.839-2.119c-1.104,0-2.302-2.486-2.939-3.684 c-0.646-1.198-0.826-0.737-1.839-0.737s-1.379-1.474-3.032-2.21c-1.654-0.736-1.933-1.197-1.933-2.394 c0-1.197-0.272-0.922-1.287-0.829c-1.011,0.092-0.459-0.737-1.743-0.829c-1.287-0.092-0.923-0.092-2.115-1.014 c-1.188-0.921-0.828-0.921-2.021-1.474c-1.194-0.552-1.936,0-2.021,0.921c-0.095,0.92-0.461,0.46-1.287,2.118 c-0.824,1.658-2.479,1.013-3.952,1.013c-1.472,0-0.824-0.275-1.745-1.29c-0.918-1.014-0.555-0.736-2.393-0.645 c-1.838,0.092-0.826,1.381-0.732,2.118c0.074,0.622-2.596,3.013-3.813,4.132l-0.938,0.68v-0.121 c-0.794,0.15-2.237-1.221-3.793-2.203c-1.743-1.104-4.317-2.946-5.79-3.313c-1.474-0.368-2.761-1.105-3.771-1.938 c-1.012-0.828-4.32-3.592-6.063-4.328c-1.744-0.737-4.139-1.197-5.604-0.369c-1.472,0.829-1.654,1.842-1.195,2.946 c0.462,1.104,0.188,2.21,0.277,3.314c0.09,1.104,0.825,2.21,0,2.854c-0.828,0.646-0.646,1.197,0.459,1.75 c1.104,0.554-0.188,2.303-0.095,3.224c0.095,0.921-0.272,0.645-0.918,1.104c-0.646,0.459-0.826,1.75,0.092,2.486 c0.921,0.737,0.733,1.104,0.367,2.67c-0.367,1.566,0,2.763,0,3.96c0,1.197-1.104,1.381-1.934,1.013 c-0.825-0.367-1.563-0.736-3.127-1.474c-1.563-0.737-1.283-1.197-3.125-1.566c-1.838-0.367-2.111-0.646-2.391-2.117 c-0.273-1.475-0.188-1.197-1.193-1.566c-1.014-0.368-2.021-0.921-3.033-1.934c-1.012-1.014-0.919-0.554-2.021-0.185 c-1.104,0.369-1.747-0.092-2.299-1.196c-0.553-1.104-0.735-0.737-1.839-0.185c-1.104,0.553-0.826-0.829-1.286-2.21 c-0.461-1.382-0.274-1.563-1.747-1.563s-2.021-1.105-2.941-2.211c-0.919-1.104-1.103-1.196-2.665-1.381 c-1.562-0.184-2.391-2.21-3.399-3.96c-1.013-1.75-3.313-3.04-5.147-3.96c-1.838-0.921-5.976-1.013-7.997-1.382 c-2.021-0.369-7.262-3.313-8.641-3.868c-1.38-0.553-3.861-1.104-5.058-0.736c-1.193,0.368-4.965-0.276-4.965-0.276 s-1.746-0.829-3.217,0s-3.4,0.368-6.619,0.552c-3.217,0.186-5.423,1.014-7.17,0c-1.747-1.013-1.194-0.092-1.93,0.829 c-0.735,0.921-1.195,1.29-2.482,1.105c-1.286-0.185-1.654-0.553-2.941,0.092s-3.125,1.197-4.964,1.197s-6.25,0.828-9.561,0.828 c-3.31,0-6.985,3.04-7.998,3.225c-1.012,0.184-2.021,0.184-3.677,1.197c-1.655,1.013-4.044-0.185-5.516,1.197 c-1.472,1.381-6.344,2.303-7.17,2.303c-0.827,0-3.125,0.092-4.597,0.921c-1.471,0.829-4.688,2.025-5.699,2.025 s-5.516,0.921-6.895,1.014c-1.379,0.092-3.125,0.736-4.964,0.275c-1.838-0.461-2.206-0.368-2.39,0.46 c-0.185,0.829-1.012,1.381-2.391,1.658c-1.378,0.276-2.48,0.829-3.86,2.396c-1.379,1.563-2.206,0.921-4.78,1.196 c-2.574,0.276-0.275,4.514,0.735,5.341c1.012,0.829,0.92,1.75,0.92,3.04c0,1.289,2.113,4.328,3.033,6.078 c0.919,1.75,0.093,2.118-1.194,2.947s0,3.408,1.104,4.881c1.104,1.474,3.493,1.105,3.953,1.105s3.677,2.946,3.677,2.946 s0.276,0.185,1.104,0.553c0.827,0.369,0.552,0.736,0.644,2.025s1.655,1.289,2.666,2.118c1.011,0.829,2.022,0.553,2.482,0.737 s1.103,0.46,1.011,1.842c-0.092,1.382,0.644,1.658,1.011,2.854c0.367,1.196,1.195,0.646,1.195,1.842 c0,1.196,0.184,2.486,1.563,3.314c1.38,0.829,0.276,2.026,0.276,3.039c0,1.014-1.104,1.75-2.207,1.014 c-1.103-0.737-1.563-0.368-2.206,0.828c-0.644,1.197-0.919,0.185-1.747,1.197c-0.828,1.012-2.758,0.552-4.137,0.552 s-3.769,1.75-4.78,3.039c-1.011,1.289-0.184,1.843,0.276,2.671c0.46,0.829,0.459,0.829-0.551,1.383 c-1.012,0.553-0.276,0.46-0.093,1.657c0.185,1.197,0.828,1.197,3.034,2.118c2.207,0.921,2.482,0.646,3.217,0.646 c0.736,0,1.472,2.21,1.38,3.131c-0.093,0.921,0.275,4.236,0.275,5.709c0,1.242,0.587,2.482,1.104,3.67l0.248,0.482l0.107,1.099 c-0.228,0.675-1.208,0.864-2.287,0.459c-1.471-0.553-1.838,0.368-2.021,1.473c-0.186,1.105-0.828,0.829-2.206,0.829 c-1.379,0-2.39-2.119-4.137-3.408s-4.045-1.29-6.251-1.29c-2.207,0-2.941-1.196-4.872-1.473c-1.931-0.276-3.493-1.198-4.688-2.671 c-1.195-1.474-1.103,0.184-1.287,1.381c-0.184,1.198-1.287,0.921-2.298,2.487c-1.011,1.564-4.78,1.381-6.71,1.381 c-1.931,0-2.39,1.381-4.137,0.645c-1.747-0.735-1.932,0.093-2.114,1.658c-0.184,1.565,1.011,2.21,1.563,2.303 c0.552,0.093,0.552,0.368,1.563,1.382c1.011,1.013,4.136,0.275,5.332,0.275s0.459,2.118-0.276,2.947 c-0.734,0.829-0.734,2.302-0.734,3.407c0,1.104-0.368,1.934-1.472,2.025c-1.103,0.093,0.276,2.855,0.093,4.053 c-0.186,1.196-0.646,1.563-2.114,1.381c-1.471-0.186-2.114,0.828-3.585,0.735c-1.471-0.092,0,1.843,0.092,3.039 s-1.655,1.476-1.655,2.487s1.747,2.486,2.391,3.591s-0.827,4.146-0.459,5.342s1.103,1.75,1.838,1.015 c0.734-0.736,1.563-0.275,2.85-0.275c0.477,0,0.799,0.15,1.063,0.414l0.738,0.195c0,0,1.361-0.914,2.307-0.306 c-0.945-0.608-2.318,0.404-2.318,0.404l-0.229,0.428c0.218,0.406,0.435,0.897,0.739,1.44c0.827,1.476-2.206,2.765-3.585,4.054 c-1.378,1.289,0.093,2.208,1.287,3.039c1.195,0.827,0.276,3.313,0.276,4.327c0,1.015-0.919,2.947-0.092,2.947 s0.275,0.461,1.011,1.476c0.735,1.014-0.735,1.196-0.828,2.209c-0.093,1.014-0.276,0.461-1.379,2.118 c-1.103,1.656-2.574,2.671-3.953,2.671s0.092,2.024,1.104,4.233c1.011,2.211,2.298,3.406,4.137,3.867 c1.838,0.463,0.644,2.211,1.655,3.961c1.011,1.75-0.553,1.656,0.551,3.865c1.104,2.211,3.034,1.197,4.229,1.477 c1.195,0.273,0.919,3.961,1.012,5.437c0.092,1.479,3.4,4.517,5.056,4.883c1.655,0.367,3.217,1.656,4.045,2.209 c0.828,0.556,5.24,2.947,6.802,3.228c1.563,0.272,2.851-2.211,3.401-3.314c0.552-1.104,1.011-1.104,1.747-0.553 c0.735,0.553,1.655,0.461,3.309,0.461c1.655,0,1.195-1.289,1.379-2.119c0.185-0.828,1.838-0.271,3.125,0.188 c1.287,0.461,0.553,1.75,1.287,2.944c0.735,1.195,2.206,0.925,2.298,1.845c0.093,0.922,0.275,1.381,1.471,2.114 c1.194,0.736,2.481,2.765,3.218,4.054c0.735,1.291,3.033,1.104,4.136,1.194c1.104,0.095,3.125,2.947,3.953,3.687 c0.827,0.738,2.39,0.188,3.217-0.459c0.827-0.646,1.747-1.291,2.758-0.461c1.012,0.828,0.093,1.846,0.185,3.227 s2.481,0.732,4.413,0.369c1.93-0.369,1.747-0.188,3.4,0.732c0.847,0.475,1.564,0.914,2.269,0.918l0.349-0.104l0.032-0.355 c-0.398-1.264,0.373-4.418,1.434-5.352c-1.061,0.934-1.791,4.246-1.393,5.506l-0.074,0.201c0.655-0.004,1.002-0.313,1.703-0.537 c1.471-0.459,2.666-0.092,4.321,0.83c1.654,0.92,2.39,0.459,3.769,0c1.379-0.461,1.287,0.369,1.93,1.564 c0.644,1.192,2.851,0.646,4.138,0.646s2.021,2.021,3.125,3.039c1.103,1.015,1.654,0.459,2.481,0.092 c0.828-0.364,1.379,0.095,1.655,1.658s2.482,0,3.125-0.556c0.643-0.555,2.666-0.555,3.861-0.463 c1.194,0.097,2.206,0.463,2.85,1.564c0.645,1.104,1.287,0.646,2.298,0.367c1.012-0.273,1.379,1.381,2.206,1.016 c0.828-0.369,1.379-0.273,2.115,0.273c0.735,0.553,1.838,0,2.206-0.922s0.368-1.197,1.195-0.922 c0.826,0.274,1.286,1.195,2.39,0.369c1.103-0.83,0.459-0.461,1.103-0.275c0.646,0.188,1.012-0.732,0.46-1.844 c-0.552-1.104,2.482-0.826,3.952-0.826c1.472,0,1.655-0.646,1.839-1.844c0.186-1.195,2.022,1.381,3.313,2.396 c1.286,1.016,1.378,0.828,1.471,2.023c0.092,1.197,1.563,1.385,2.48,2.024c0.918,0.646,0.919,1.563,0.919,2.765 c0,1.199,0.186,1.104,1.654,1.383c1.47,0.273,1.839,1.289,2.39,2.303c0.554,1.016,2.853,0.734,4.229,1.016 c1.379,0.273,1.932,0,2.574,0.734c0.644,0.734,0.826,1.289,2.112,1.846c1.287,0.553,0.92,0.365,1.014,1.842 c0.092,1.478-0.828,3.228-1.839,4.232c-1.014,1.016,1.652,2.486,1.652,3.5c0,1.018,1.563,2.674,2.393,3.688 c0.826,1.017,1.652-0.461,2.479-1.192c0.828-0.735,3.678,0.459,4.229,1.289c0.551,0.825,1.471,1.653,1.931,0.825 c0.459-0.825,1.287-0.553,1.934-0.094c0.645,0.461,1.838,0.734,3.678-0.188c1.84-0.92,3.312,3.596,3.771,4.883 c0.459,1.289,1.932,0.828,2.112,0c0.187-0.826,0-1.014-0.645-1.195c-0.646-0.188-1.012-1.192-0.273-1.938 c0.733-0.732,0-1.193,0.093-2.396c0.094-1.195-1.287-1.563-2.021-2.396c-0.733-0.828-0.733-1.654,0.093-1.843 c0.828-0.186,1.748-1.844,2.666-2.396c0.92-0.555,1.563,0.462,1.563,1.843c0,1.383,1.013,1.563,2.021,2.578 c1.015,1.016,2.574,1.383,4.045,1.657c1.474,0.274,3.033,0.646,3.771,1.382c0.733,0.735,0.731,1.381,2.3,0.368 c1.563-1.017,0.459-1.75-0.459-2.672c-0.92-0.922-1.194-2.117-0.646-2.209c0.553-0.095,0.918-1.476,1.104-2.854 c0.188-1.381-1.104-1.935-1.193-2.576c-0.094-0.646,1.381-1.017,2.021-0.924c0.646,0.098,0.461,1.291,1.286,1.196 c0.828-0.092,1.933-0.187,1.933-1.288c0-1.104,3.222-0.369,4.871-0.736c1.653-0.365,1.476-0.273,1.653-1.287 c0.188-1.016,0-0.736,1.19-0.557c1.193,0.188,0.646-1.382-0.092-1.843c-0.734-0.461,0.187-3.133,0.367-4.235 c0.184-1.104,0.365-0.646,1.652-0.187c1.286,0.46,0.271-0.735,0.271-0.735s-1.283-0.828-0.188-1.563 c1.104-0.734,0.554-0.83-0.095-1.289c-0.645-0.461-0.461-1.75,0.188-2.854c0.646-1.104,0.73-1.563,1.65-1.563 c0.921,0,1.563-0.555,2.479,0.828c0.921,1.381,2.394,1.473,2.938,0.273c0.557-1.197-0.092-1.658-1.471-2.486 c-1.381-0.826-1.935-2.115-2.938-3.039c-1.014-0.922-1.104-0.826-1.746-1.381c-0.646-0.556-1.287-4.695-1.287-5.896 c0-1.194,0.185-2.765,2.112-2.854c1.933-0.092,0.554-2.486-0.272-3.961c-0.827-1.474,1.285-3.224,1.285-3.224 s1.84,0.826,2.3-0.463c0.459-1.287,1.104-2.396,2.852-2.854c1.746-0.463-1.104-2.117-2.393-2.117c-1.287,0-1.38-0.735-2.298-1.563 c-0.92-0.83-0.827-1.75-0.272-2.674c0.553-0.922-0.366-1.656-0.825-1.195c-0.462,0.461-2.302-0.734-1.747-2.396 c0.554-1.656,0.188-2.212-0.188-3.132c-0.365-0.92-0.918-0.83-0.459-2.764c0.459-1.938,3.221-1.289,4.229-0.367 c1.014,0.922,2.301-1.938,2.479-2.854c0.09-0.444,0.266-0.541,0.598-0.526l0,0l1.396,2.446c-0.05,0.806-0.156,1.593-0.156,1.854 c0,0.554,0,0.461,1.653,0.646c1.65,0.185,3.125-2.211,3.679-2.767c0.553-0.555,3.678,0.734,5.424,0.828 c1.746,0.093,1.563,1.843,1.563,2.672c0,0.828,1.746,0,2.853-0.461c1.104-0.461,2.571,0.734,3.492,1.656 c0.92,0.922,2.391,3.313,3.313,4.234c0.921,0.924,0.096,1.195,0.273,2.211c0.186,1.016,0.092,2.021,1.284,2.945 c1.192,0.922,1.474,1.193,1.474,2.115s0.459,1.287,0.554,2.578c0.095,1.289,0.364,2.396,0.923,3.405 c0.552,1.017,0.361,2.024,1.013,2.673c0.646,0.646,3.032,1.75,3.856,2.396s0.921,0.732,1.104,0 c0.188-0.734,2.573,0.732,3.857,1.193c1.286,0.461,1.651,3.229,1.934,4.33c0.273,1.104,1.473,1.104,2.206,0.825 c0.733-0.271,0.093,0.188,1.285,0.556c1.191,0.369,2.114,0.096,3.127,0.646c1.011,0.557,1.191,1.658,2.666,1.75 c1.472,0.096,2.021,0,2.938,0.922c0.92,0.924,1.477-1.014,1.654-2.576c0.186-1.564-0.826-1.564-1.015-2.486 c-0.188-0.92,0.646-1.194,1.648-0.92c1.018,0.271,1.383-1.104,1.843-2.307c0.461-1.193,1.474,0.557,1.563,1.564 c0.092,1.014,0.918,0.646,1.745,0.646c0.825,0,1.286,0.369,2.394,1.656c1.104,1.289,1.38,5.344,0.824,6.633 c-0.552,1.289,0.463,0.733,1.748,1.563c1.283,0.828,1.377-0.094,1.377-1.104c0-1.016,0.275-1.104,0.828-2.118 c0.555-1.017,2.479,0,3.492,0c1.012,0,3.678,2.58,4.139,3.868c0.461,1.289-1.191,2.396-2.021,2.763 c-0.827,0.369-0.098,1.658,0.093,2.58c0.186,0.92,1.014,0.828,1.842,0.271c0.824-0.554,2.297-1.75,2.297-2.67 c0-0.923,0.273-0.923,1.193-1.563c0.918-0.646-0.826-1.842,0.186-1.656c1.017,0.188,1.476-0.094,0.558-1.289 c-0.923-1.194,0.459-0.272,1.377-0.272c0.922,0,1.934,0,3.032,0.459c1.104,0.461,3.125,0.556,4.41-0.827 c1.287-1.384,1.935-0.646,2.479-0.367c0.553,0.276,2.479-0.095,2.479-2.765c0-2.672-0.731-3.961-1.84-4.517 c-1.104-0.555-1.013-0.555-1.191-1.563c-0.188-1.014,0-2.396,0.271-3.592c0.273-1.197,1.015-1.197,0.459-2.119 c-0.552-0.92,0.556-1.476,2.76-2.396c2.207-0.92,1.937,0.095,3.125,0.646c1.193,0.555,1.104-1.656,2.113-2.117 c1.012-0.459,3.219,2.305,4.14,3.313c0.92,1.014,1.016,0.272,0.555-0.826c-0.459-1.104,0.188-2.396,0.825-3.039 c0.646-0.646,1.65-2.024,0.46-1.845c-1.192,0.188-1.747,0.734-1.841-1.016s1.841-2.484,2.572-3.688 c0.733-1.193,1.287-1.936,0.553-2.67c-0.731-0.732-1.473,1.479-3.125,1.195c-1.651-0.275-1.19-3.135-1.473-4.604 c-0.271-1.476-0.731-1.656-2.021-1.75c-1.285-0.095-1.839,0.367-2.665,1.383c-0.824,1.015-1.651,0.83-2.569,0.367 c-0.921-0.459-1.652-0.461-3.222-0.367c-1.563,0.093-0.365-2.854-0.557-4.327c-0.186-1.478-1.838-0.923-2.852-1.939 c-1.013-1.014-1.563,0-2.3-0.092c-0.733-0.094-1.563-1.479-1.563-2.768c0-1.288-0.92-1.563-1.748-2.764 c-0.826-1.195-0.188-1.656-2.021-2.209c-1.838-0.555-0.092-3.131,0.095-4.328c0.188-1.196,1.563-2.211,1.934-2.854l0.693-0.896 c-0.039,0.285-0.063,0.469-0.063,0.469l0.572-0.166c0.617-0.086,1.304,0.021,1.646,0.412c0.646,0.734,2.57,1.563,4.138,1.563 c1.563,0,2.666,0.092,3.221,0.922c0.554,0.828,4.599,2.396,6.896,2.117c2.299-0.272,2.938,2.023,4.964,3.592 c2.021,1.563,2.3-1.014,2.3-1.657s0.825-1.013,1.104-0.367c0.271,0.646,2.021,1.017,2.021,0.367c0-0.646,2.021-2.209,2.395-3.039 c0.365-0.828,0.646-1.563,1.476-1.289c0.824,0.276,0.73-0.827,0.824-1.935c0.094-1.104,1.19-0.735,2.479-1.016 c1.287-0.273-0.184-1.381-1.563-2.115c-1.379-0.738-1.104-1.658-1.84-3.133c-0.73-1.475-1.84-0.646-3.396-0.828 c-1.563-0.186-2.021-1.016-2.115-2.486c-0.092-1.473,0-1.473-0.918-0.459c-0.92,1.015-1.19,1.015-2.391,0.093 c-1.197-0.923-0.275-1.75,0.551-2.396c0.828-0.646,0.367-1.475,0.556-2.305c0.186-0.828,0.186,0.275,1.563,1.383 c1.379,1.104,1.189-0.922,0.918-2.303c-0.272-1.382-0.188-1.564,0.92-2.303c1.104-0.736,0.553-1.934,1.287-1.658 c0.729,0.275,1.838-1.197,2.479-2.117c0.646-0.922,2.109-1.842,3.313-1.936c1.192-0.092,1.563-0.736,1.65-1.564 c0.095-0.828,0.272-1.104,1.381-2.303c1.104-1.197-1.193-2.854-2.207-3.314c-1.014-0.459-1.104-1.104,0-1.381 c1.104-0.275-0.187-1.474-0.459-2.578c-0.195-0.795,1.164-1.822,1.885-1.007c1.176,1.339,2.622,0.757,2.622,0.757l-0.021-1.895 c0.443-0.832,0.664-1.818,0.664-1.818s0.729-1.75,1.281-1.289c0.558,0.461,1.843,0.829,4.048,0.368 c2.207-0.461-0.096-5.158-0.918-6.446c-0.828-1.289,0-1.565,0.553-1.935c0.554-0.369,1.104-0.737,1.382-1.474 c0.271-0.736,2.297-0.276,3.676,0.092c1.381,0.368,0.92-2.21,0.92-3.776c0-1.565-0.361-2.117-1.379-2.946 C418.8,166.483,419.445,165.747,420.361,165.472z"></path></g><g id="图层_1_1_"><g id="图层_2"><path fill="none" stroke="#C12E20" stroke-width="0.25" stroke-miterlimit="10" d="M420.361,165.472 c0.92-0.276,0.73-2.026,1.648-2.854c0.92-0.829-0.093-1.381-1.472-1.564c-1.379-0.186-2.94-1.566-3.217-3.315 c-0.274-1.75-2.207-4.146-2.574-4.973c-0.366-0.829-0.274-2.026-1.563-2.026c-1.287,0-2.11-0.46-2.205-1.934 c-0.096-1.475,1.284-2.026,2.302-2.118c1.011-0.092,0.918-0.829,0-1.842c-0.922-1.014-4.968-4.514-5.521-4.789 c-0.555-0.276-0.729-1.198-0.729-1.198s0.646-1.842,0.092-2.67c-0.141-0.207-0.178-0.393-0.143-0.551l0.117-0.291 c0,0-0.255-0.177-0.615-0.273c0.379,0.085,0.615,0.273,0.615,0.273l2.385-0.486c0.762-0.146,0.451-0.686-0.244-1.619 c-0.828-1.104-3.033-2.118-4.873-2.487c-1.842-0.367-1.475-1.564-2.393-3.039c-0.923-1.474-3.857-2.578-5.24-2.578 c-1.379,0-2.021-0.736-1.474-1.658c0.556-0.921,1.015-0.921,1.104-2.579c0.092-1.658-1.656-1.658-2.207-2.026 c-0.557-0.368-0.273-0.921-0.273-2.21s-2.021,0.829-2.852,1.842c-0.828,1.014-0.367,1.566-0.367,3.039 c0,1.475,0.188,2.396-0.825,2.487c-1.015,0.092-1.747-1.474-2.111-2.487c-0.367-1.013-0.92-1.656-2.207-1.656 c-1.285,0-5.236-2.855-6.709-3.961c-1.475-1.104-2.021-1.474-3.492-1.474c-1.471,0-2.854-3.039-3.858-3.591 c-1.013-0.553-2.207-1.565-4.412-1.565c-2.207,0-1.748-0.645-5.058-2.303c-3.313-1.658-2.205-2.487-2.481-3.408 c-0.273-0.921-0.551-2.579-3.769-2.946c-3.221-0.368-3.401-2.304-3.953-2.304c-0.553,0-1.475,1.014-1.653-0.092 c-0.185-1.104-0.367-1.381-1.379-2.579c-1.013-1.198-2.3-0.275-2.48,0.553c-0.186,0.829,0.922,2.026,1.652,2.764 c0.735,0.736,1.014,3.039,1.014,4.052c0,1.013-2.393-1.198-4.229-2.395c-1.837-1.197-5.06-2.579-7.354-3.408 c-2.301-0.829-3.03-2.303-3.857-3.407c-0.826-1.104-0.733-2.119-1.839-2.119c-1.104,0-2.302-2.486-2.939-3.684 c-0.646-1.198-0.826-0.737-1.839-0.737s-1.379-1.474-3.032-2.21c-1.654-0.736-1.933-1.197-1.933-2.394 c0-1.197-0.272-0.922-1.287-0.829c-1.011,0.092-0.459-0.737-1.743-0.829c-1.287-0.092-0.923-0.092-2.115-1.014 c-1.188-0.921-0.828-0.921-2.021-1.474c-1.194-0.552-1.936,0-2.021,0.921c-0.095,0.92-0.461,0.46-1.287,2.118 c-0.824,1.658-2.479,1.013-3.952,1.013c-1.472,0-0.824-0.275-1.745-1.29c-0.918-1.014-0.555-0.736-2.393-0.645 c-1.838,0.092-0.826,1.381-0.732,2.118c0.074,0.622-2.596,3.013-3.813,4.132l-0.938,0.68v-0.121 c-0.794,0.15-2.237-1.221-3.793-2.203c-1.743-1.104-4.317-2.946-5.79-3.313c-1.474-0.368-2.761-1.105-3.771-1.938 c-1.012-0.828-4.32-3.592-6.063-4.328c-1.744-0.737-4.139-1.197-5.604-0.369c-1.472,0.829-1.654,1.842-1.195,2.946 c0.462,1.104,0.188,2.21,0.277,3.314c0.09,1.104,0.825,2.21,0,2.854c-0.828,0.646-0.646,1.197,0.459,1.75 c1.104,0.554-0.188,2.303-0.095,3.224c0.095,0.921-0.272,0.645-0.918,1.104c-0.646,0.459-0.826,1.75,0.092,2.486 c0.921,0.737,0.733,1.104,0.367,2.67c-0.367,1.566,0,2.763,0,3.96c0,1.197-1.104,1.381-1.934,1.013 c-0.825-0.367-1.563-0.736-3.127-1.474c-1.563-0.737-1.283-1.197-3.125-1.566c-1.838-0.367-2.111-0.646-2.391-2.117 c-0.273-1.475-0.188-1.197-1.193-1.566c-1.014-0.368-2.021-0.921-3.033-1.934c-1.012-1.014-0.919-0.554-2.021-0.185 c-1.104,0.369-1.747-0.092-2.299-1.196c-0.553-1.104-0.735-0.737-1.839-0.185c-1.104,0.553-0.826-0.829-1.286-2.21 c-0.461-1.382-0.274-1.563-1.747-1.563s-2.021-1.105-2.941-2.211c-0.919-1.104-1.103-1.196-2.665-1.381 c-1.562-0.184-2.391-2.21-3.399-3.96c-1.013-1.75-3.313-3.04-5.147-3.96c-1.838-0.921-5.976-1.013-7.997-1.382 c-2.021-0.369-7.262-3.313-8.641-3.868c-1.38-0.553-3.861-1.104-5.058-0.736c-1.193,0.368-4.965-0.276-4.965-0.276 s-1.746-0.829-3.217,0s-3.4,0.368-6.619,0.552c-3.217,0.186-5.423,1.014-7.17,0c-1.747-1.013-1.194-0.092-1.93,0.829 c-0.735,0.921-1.195,1.29-2.482,1.105c-1.286-0.185-1.654-0.553-2.941,0.092s-3.125,1.197-4.964,1.197s-6.25,0.828-9.561,0.828 c-3.31,0-6.985,3.04-7.998,3.225c-1.012,0.184-2.021,0.184-3.677,1.197c-1.655,1.013-4.044-0.185-5.516,1.197 c-1.472,1.381-6.344,2.303-7.17,2.303c-0.827,0-3.125,0.092-4.597,0.921c-1.471,0.829-4.688,2.025-5.699,2.025 s-5.516,0.921-6.895,1.014c-1.379,0.092-3.125,0.736-4.964,0.275c-1.838-0.461-2.206-0.368-2.39,0.46 c-0.185,0.829-1.012,1.381-2.391,1.658c-1.378,0.276-2.48,0.829-3.86,2.396c-1.379,1.563-2.206,0.921-4.78,1.196 c-2.574,0.276-0.275,4.514,0.735,5.341c1.012,0.829,0.92,1.75,0.92,3.04c0,1.289,2.113,4.328,3.033,6.078 c0.919,1.75,0.093,2.118-1.194,2.947s0,3.408,1.104,4.881c1.104,1.474,3.493,1.105,3.953,1.105s3.677,2.946,3.677,2.946 s0.276,0.185,1.104,0.553c0.827,0.369,0.552,0.736,0.644,2.025s1.655,1.289,2.666,2.118c1.011,0.829,2.022,0.553,2.482,0.737 s1.103,0.46,1.011,1.842c-0.092,1.382,0.644,1.658,1.011,2.854c0.367,1.196,1.195,0.646,1.195,1.842 c0,1.196,0.184,2.486,1.563,3.314c1.38,0.829,0.276,2.026,0.276,3.039c0,1.014-1.104,1.75-2.207,1.014 c-1.103-0.737-1.563-0.368-2.206,0.828c-0.644,1.197-0.919,0.185-1.747,1.197c-0.828,1.012-2.758,0.552-4.137,0.552 s-3.769,1.75-4.78,3.039c-1.011,1.289-0.184,1.843,0.276,2.671c0.46,0.829,0.459,0.829-0.551,1.383 c-1.012,0.553-0.276,0.46-0.093,1.657c0.185,1.197,0.828,1.197,3.034,2.118c2.207,0.921,2.482,0.646,3.217,0.646 c0.736,0,1.472,2.21,1.38,3.131c-0.093,0.921,0.275,4.236,0.275,5.709c0,1.242,0.587,2.482,1.104,3.67l0.248,0.482l0.107,1.099 c-0.228,0.675-1.208,0.864-2.287,0.459c-1.471-0.553-1.838,0.368-2.021,1.473c-0.186,1.105-0.828,0.829-2.206,0.829 c-1.379,0-2.39-2.119-4.137-3.408s-4.045-1.29-6.251-1.29c-2.207,0-2.941-1.196-4.872-1.473 c-1.931-0.276-3.493-1.198-4.688-2.671c-1.195-1.474-1.103,0.184-1.287,1.381c-0.184,1.198-1.287,0.921-2.298,2.487 c-1.011,1.564-4.78,1.381-6.71,1.381c-1.931,0-2.39,1.381-4.137,0.645c-1.747-0.735-1.932,0.093-2.114,1.658 c-0.184,1.565,1.011,2.21,1.563,2.303c0.552,0.093,0.552,0.368,1.563,1.382c1.011,1.013,4.136,0.275,5.332,0.275 s0.459,2.118-0.276,2.947c-0.734,0.829-0.734,2.302-0.734,3.407c0,1.104-0.368,1.934-1.472,2.025 c-1.103,0.093,0.276,2.855,0.093,4.053c-0.186,1.196-0.646,1.563-2.114,1.381c-1.471-0.186-2.114,0.828-3.585,0.735 c-1.471-0.092,0,1.843,0.092,3.039s-1.655,1.476-1.655,2.487s1.747,2.486,2.391,3.591s-0.827,4.146-0.459,5.342 s1.103,1.75,1.838,1.015c0.734-0.736,1.563-0.275,2.85-0.275c0.477,0,0.799,0.15,1.063,0.414l0.738,0.195 c0,0,1.361-0.914,2.307-0.306c-0.945-0.608-2.318,0.404-2.318,0.404l-0.229,0.428c0.218,0.406,0.435,0.897,0.739,1.44 c0.827,1.476-2.206,2.765-3.585,4.054c-1.378,1.289,0.093,2.208,1.287,3.039c1.195,0.827,0.276,3.313,0.276,4.327 c0,1.015-0.919,2.947-0.092,2.947s0.275,0.461,1.011,1.476c0.735,1.014-0.735,1.196-0.828,2.209 c-0.093,1.014-0.276,0.461-1.379,2.118c-1.103,1.656-2.574,2.671-3.953,2.671s0.092,2.024,1.104,4.233 c1.011,2.211,2.298,3.406,4.137,3.867c1.838,0.463,0.644,2.211,1.655,3.961c1.011,1.75-0.553,1.656,0.551,3.865 c1.104,2.211,3.034,1.197,4.229,1.477c1.195,0.273,0.919,3.961,1.012,5.437c0.092,1.479,3.4,4.517,5.056,4.883 c1.655,0.367,3.217,1.656,4.045,2.209c0.828,0.556,5.24,2.947,6.802,3.228c1.563,0.272,2.851-2.211,3.401-3.314 c0.552-1.104,1.011-1.104,1.747-0.553c0.735,0.553,1.655,0.461,3.309,0.461c1.655,0,1.195-1.289,1.379-2.119 c0.185-0.828,1.838-0.271,3.125,0.188c1.287,0.461,0.553,1.75,1.287,2.944c0.735,1.195,2.206,0.925,2.298,1.845 c0.093,0.922,0.275,1.381,1.471,2.114c1.194,0.736,2.481,2.765,3.218,4.054c0.735,1.291,3.033,1.104,4.136,1.194 c1.104,0.095,3.125,2.947,3.953,3.687c0.827,0.738,2.39,0.188,3.217-0.459c0.827-0.646,1.747-1.291,2.758-0.461 c1.012,0.828,0.093,1.846,0.185,3.227s2.481,0.732,4.413,0.369c1.93-0.369,1.747-0.188,3.4,0.732 c0.847,0.475,1.564,0.914,2.269,0.918l0.349-0.104l0.032-0.355c-0.398-1.264,0.373-4.418,1.434-5.352 c-1.061,0.934-1.791,4.246-1.393,5.506l-0.074,0.201c0.655-0.004,1.002-0.313,1.703-0.537c1.471-0.459,2.666-0.092,4.321,0.83 c1.654,0.92,2.39,0.459,3.769,0c1.379-0.461,1.287,0.369,1.93,1.564c0.644,1.192,2.851,0.646,4.138,0.646 s2.021,2.021,3.125,3.039c1.103,1.015,1.654,0.459,2.481,0.092c0.828-0.364,1.379,0.095,1.655,1.658s2.482,0,3.125-0.556 c0.643-0.555,2.666-0.555,3.861-0.463c1.194,0.097,2.206,0.463,2.85,1.564c0.645,1.104,1.287,0.646,2.298,0.367 c1.012-0.273,1.379,1.381,2.206,1.016c0.828-0.369,1.379-0.273,2.115,0.273c0.735,0.553,1.838,0,2.206-0.922 s0.368-1.197,1.195-0.922c0.826,0.274,1.286,1.195,2.39,0.369c1.103-0.83,0.459-0.461,1.103-0.275 c0.646,0.188,1.012-0.732,0.46-1.844c-0.552-1.104,2.482-0.826,3.952-0.826c1.472,0,1.655-0.646,1.839-1.844 c0.186-1.195,2.022,1.381,3.313,2.396c1.286,1.016,1.378,0.828,1.471,2.023c0.092,1.197,1.563,1.385,2.48,2.024 c0.918,0.646,0.919,1.563,0.919,2.765c0,1.199,0.186,1.104,1.654,1.383c1.47,0.273,1.839,1.289,2.39,2.303 c0.554,1.016,2.853,0.734,4.229,1.016c1.379,0.273,1.932,0,2.574,0.734c0.644,0.734,0.826,1.289,2.112,1.846 c1.287,0.553,0.92,0.365,1.014,1.842c0.092,1.478-0.828,3.228-1.839,4.232c-1.014,1.016,1.652,2.486,1.652,3.5 c0,1.018,1.563,2.674,2.393,3.688c0.826,1.017,1.652-0.461,2.479-1.192c0.828-0.735,3.678,0.459,4.229,1.289 c0.551,0.825,1.471,1.653,1.931,0.825c0.459-0.825,1.287-0.553,1.934-0.094c0.645,0.461,1.838,0.734,3.678-0.188 c1.84-0.92,3.312,3.596,3.771,4.883c0.459,1.289,1.932,0.828,2.112,0c0.187-0.826,0-1.014-0.645-1.195 c-0.646-0.188-1.012-1.192-0.273-1.938c0.733-0.732,0-1.193,0.093-2.396c0.094-1.195-1.287-1.563-2.021-2.396 c-0.733-0.828-0.733-1.654,0.093-1.843c0.828-0.186,1.748-1.844,2.666-2.396c0.92-0.555,1.563,0.462,1.563,1.843 c0,1.383,1.013,1.563,2.021,2.578c1.015,1.016,2.574,1.383,4.045,1.657c1.474,0.274,3.033,0.646,3.771,1.382 c0.733,0.735,0.731,1.381,2.3,0.368c1.563-1.017,0.459-1.75-0.459-2.672c-0.92-0.922-1.194-2.117-0.646-2.209 c0.553-0.095,0.918-1.476,1.104-2.854c0.188-1.381-1.104-1.935-1.193-2.576c-0.094-0.646,1.381-1.017,2.021-0.924 c0.646,0.098,0.461,1.291,1.286,1.196c0.828-0.092,1.933-0.187,1.933-1.288c0-1.104,3.222-0.369,4.871-0.736 c1.653-0.365,1.476-0.273,1.653-1.287c0.188-1.016,0-0.736,1.19-0.557c1.193,0.188,0.646-1.382-0.092-1.843 c-0.734-0.461,0.187-3.133,0.367-4.235c0.184-1.104,0.365-0.646,1.652-0.187c1.286,0.46,0.271-0.735,0.271-0.735 s-1.283-0.828-0.188-1.563c1.104-0.734,0.554-0.83-0.095-1.289c-0.645-0.461-0.461-1.75,0.188-2.854 c0.646-1.104,0.73-1.563,1.65-1.563c0.921,0,1.563-0.555,2.479,0.828c0.921,1.381,2.394,1.473,2.938,0.273 c0.557-1.197-0.092-1.658-1.471-2.486c-1.381-0.826-1.935-2.115-2.938-3.039c-1.014-0.922-1.104-0.826-1.746-1.381 c-0.646-0.556-1.287-4.695-1.287-5.896c0-1.194,0.185-2.765,2.112-2.854c1.933-0.092,0.554-2.486-0.272-3.961 c-0.827-1.474,1.285-3.224,1.285-3.224s1.84,0.826,2.3-0.463c0.459-1.287,1.104-2.396,2.852-2.854 c1.746-0.463-1.104-2.117-2.393-2.117c-1.287,0-1.38-0.735-2.298-1.563c-0.92-0.83-0.827-1.75-0.272-2.674 c0.553-0.922-0.366-1.656-0.825-1.195c-0.462,0.461-2.302-0.734-1.747-2.396c0.554-1.656,0.188-2.212-0.188-3.132 c-0.365-0.92-0.918-0.83-0.459-2.764c0.459-1.938,3.221-1.289,4.229-0.367c1.014,0.922,2.301-1.938,2.479-2.854 c0.09-0.444,0.266-0.541,0.598-0.526l0,0l1.396,2.446c-0.05,0.806-0.156,1.593-0.156,1.854c0,0.554,0,0.461,1.653,0.646 c1.65,0.185,3.125-2.211,3.679-2.767c0.553-0.555,3.678,0.734,5.424,0.828c1.746,0.093,1.563,1.843,1.563,2.672 c0,0.828,1.746,0,2.853-0.461c1.104-0.461,2.571,0.734,3.492,1.656c0.92,0.922,2.391,3.313,3.313,4.234 c0.921,0.924,0.096,1.195,0.273,2.211c0.186,1.016,0.092,2.021,1.284,2.945c1.192,0.922,1.474,1.193,1.474,2.115 s0.459,1.287,0.554,2.578c0.095,1.289,0.364,2.396,0.923,3.405c0.552,1.017,0.361,2.024,1.013,2.673 c0.646,0.646,3.032,1.75,3.856,2.396s0.921,0.732,1.104,0c0.188-0.734,2.573,0.732,3.857,1.193 c1.286,0.461,1.651,3.229,1.934,4.33c0.273,1.104,1.473,1.104,2.206,0.825c0.733-0.271,0.093,0.188,1.285,0.556 c1.191,0.369,2.114,0.096,3.127,0.646c1.011,0.557,1.191,1.658,2.666,1.75c1.472,0.096,2.021,0,2.938,0.922 c0.92,0.924,1.477-1.014,1.654-2.576c0.186-1.564-0.826-1.564-1.015-2.486c-0.188-0.92,0.646-1.194,1.648-0.92 c1.018,0.271,1.383-1.104,1.843-2.307c0.461-1.193,1.474,0.557,1.563,1.564c0.092,1.014,0.918,0.646,1.745,0.646 c0.825,0,1.286,0.369,2.394,1.656c1.104,1.289,1.38,5.344,0.824,6.633c-0.552,1.289,0.463,0.733,1.748,1.563 c1.283,0.828,1.377-0.094,1.377-1.104c0-1.016,0.275-1.104,0.828-2.118c0.555-1.017,2.479,0,3.492,0 c1.012,0,3.678,2.58,4.139,3.868c0.461,1.289-1.191,2.396-2.021,2.763c-0.827,0.369-0.098,1.658,0.093,2.58 c0.186,0.92,1.014,0.828,1.842,0.271c0.824-0.554,2.297-1.75,2.297-2.67c0-0.923,0.273-0.923,1.193-1.563 c0.918-0.646-0.826-1.842,0.186-1.656c1.017,0.188,1.476-0.094,0.558-1.289c-0.923-1.194,0.459-0.272,1.377-0.272 c0.922,0,1.934,0,3.032,0.459c1.104,0.461,3.125,0.556,4.41-0.827c1.287-1.384,1.935-0.646,2.479-0.367 c0.553,0.276,2.479-0.095,2.479-2.765c0-2.672-0.731-3.961-1.84-4.517c-1.104-0.555-1.013-0.555-1.191-1.563 c-0.188-1.014,0-2.396,0.271-3.592c0.273-1.197,1.015-1.197,0.459-2.119c-0.552-0.92,0.556-1.476,2.76-2.396 c2.207-0.92,1.937,0.095,3.125,0.646c1.193,0.555,1.104-1.656,2.113-2.117c1.012-0.459,3.219,2.305,4.14,3.313 c0.92,1.014,1.016,0.272,0.555-0.826c-0.459-1.104,0.188-2.396,0.825-3.039c0.646-0.646,1.65-2.024,0.46-1.845 c-1.192,0.188-1.747,0.734-1.841-1.016s1.841-2.484,2.572-3.688c0.733-1.193,1.287-1.936,0.553-2.67 c-0.731-0.732-1.473,1.479-3.125,1.195c-1.651-0.275-1.19-3.135-1.473-4.604c-0.271-1.476-0.731-1.656-2.021-1.75 c-1.285-0.095-1.839,0.367-2.665,1.383c-0.824,1.015-1.651,0.83-2.569,0.367c-0.921-0.459-1.652-0.461-3.222-0.367 c-1.563,0.093-0.365-2.854-0.557-4.327c-0.186-1.478-1.838-0.923-2.852-1.939c-1.013-1.014-1.563,0-2.3-0.092 c-0.733-0.094-1.563-1.479-1.563-2.768c0-1.288-0.92-1.563-1.748-2.764c-0.826-1.195-0.188-1.656-2.021-2.209 c-1.838-0.555-0.092-3.131,0.095-4.328c0.188-1.196,1.563-2.211,1.934-2.854l0.693-0.896c-0.039,0.285-0.063,0.469-0.063,0.469 l0.572-0.166c0.617-0.086,1.304,0.021,1.646,0.412c0.646,0.734,2.57,1.563,4.138,1.563c1.563,0,2.666,0.092,3.221,0.922 c0.554,0.828,4.599,2.396,6.896,2.117c2.299-0.272,2.938,2.023,4.964,3.592c2.021,1.563,2.3-1.014,2.3-1.657 s0.825-1.013,1.104-0.367c0.271,0.646,2.021,1.017,2.021,0.367c0-0.646,2.021-2.209,2.395-3.039 c0.365-0.828,0.646-1.563,1.476-1.289c0.824,0.276,0.73-0.827,0.824-1.935c0.094-1.104,1.19-0.735,2.479-1.016 c1.287-0.273-0.184-1.381-1.563-2.115c-1.379-0.738-1.104-1.658-1.84-3.133c-0.73-1.475-1.84-0.646-3.396-0.828 c-1.563-0.186-2.021-1.016-2.115-2.486c-0.092-1.473,0-1.473-0.918-0.459c-0.92,1.015-1.19,1.015-2.391,0.093 c-1.197-0.923-0.275-1.75,0.551-2.396c0.828-0.646,0.367-1.475,0.556-2.305c0.186-0.828,0.186,0.275,1.563,1.383 c1.379,1.104,1.189-0.922,0.918-2.303c-0.272-1.382-0.188-1.564,0.92-2.303c1.104-0.736,0.553-1.934,1.287-1.658 c0.729,0.275,1.838-1.197,2.479-2.117c0.646-0.922,2.109-1.842,3.313-1.936c1.192-0.092,1.563-0.736,1.65-1.564 c0.095-0.828,0.272-1.104,1.381-2.303c1.104-1.197-1.193-2.854-2.207-3.314c-1.014-0.459-1.104-1.104,0-1.381 c1.104-0.275-0.187-1.474-0.459-2.578c-0.195-0.795,1.164-1.822,1.885-1.007c1.176,1.339,2.622,0.757,2.622,0.757l-0.021-1.895 c0.443-0.832,0.664-1.818,0.664-1.818s0.729-1.75,1.281-1.289c0.558,0.461,1.843,0.829,4.048,0.368 c2.207-0.461-0.096-5.158-0.918-6.446c-0.828-1.289,0-1.565,0.553-1.935c0.554-0.369,1.104-0.737,1.382-1.474 c0.271-0.736,2.297-0.276,3.676,0.092c1.381,0.368,0.92-2.21,0.92-3.776c0-1.565-0.361-2.117-1.379-2.946 C418.8,166.483,419.445,165.747,420.361,165.472z"></path></g><path id="格尔木市" fill="none" stroke="#C12E20" stroke-width="0.25" stroke-miterlimit="2.6131" d="M157.888,273.77 c-0.704-0.004-1.422-0.444-2.268-0.916c-1.655-0.922-1.472-1.104-3.401-0.735c-1.931,0.366-4.321,1.012-4.413-0.369 s0.828-2.396-0.184-3.226c-1.012-0.828-1.932-0.188-2.759,0.461c-0.827,0.646-2.39,1.197-3.217,0.461 c-0.828-0.735-2.85-3.592-3.953-3.686c-1.103-0.096-3.4,0.094-4.136-1.195c-0.735-1.291-2.021-3.313-3.218-4.053 c-1.195-0.736-1.378-1.197-1.47-2.117c-0.093-0.922-1.563-0.646-2.299-1.842c-0.734-1.197,0-2.486-1.286-2.947 c-1.287-0.461-2.942-1.016-3.125-0.188c-0.185,0.83,0.275,2.119-1.38,2.119c-1.653,0-2.572,0.092-3.309-0.461 c-0.735-0.557-1.195-0.559-1.747,0.555c-0.552,1.104-1.839,3.594-3.4,3.313c-1.563-0.274-5.976-2.672-6.803-3.225 c-0.828-0.553-2.39-1.842-4.045-2.211c-1.654-0.369-4.964-3.408-5.056-4.881c-0.092-1.477,0.185-5.154-1.011-5.438 c-1.195-0.273-3.125,0.735-4.229-1.476c-1.103-2.209,0.459-2.116-0.551-3.866c-1.011-1.75,0.185-3.5-1.655-3.961 c-1.838-0.459-3.125-1.658-4.137-3.867c-1.011-2.211-2.481-4.234-1.104-4.234s2.851-1.016,3.953-2.67 c1.104-1.658,1.287-1.104,1.379-2.119c0.093-1.014,1.563-1.195,0.828-2.209c-0.734-1.014-0.184-1.475-1.011-1.475 c-0.828,0,0.092-1.937,0.092-2.947c0-1.012,0.919-3.5-0.275-4.328c-1.195-0.828-2.666-1.75-1.287-3.039s4.412-2.578,3.585-4.053 c-0.306-0.543-0.522-1.035-0.74-1.44l0.229-0.429c0,0,1.373-1.016,2.318-0.403c0.945,0.608,2.431-1.69,4.188-0.405 c1.756,1.285,1.282,0.744,3.241,0.271s5.335-0.136,8.037,0.608c2.701,0.744,7.022,2.842,7.97,4.467 c0.945,1.623,2.363,2.232,2.972,1.42c0.607-0.813,0.812-1.557,3.31-1.284c2.499,0.271,12.773,4.831,16.224,6.155 c3.448,1.326,5.705,2.721,4.709,3.117c-0.995,0.396-1.194,1.262,0.198,2.059c1.394,0.795,3.781,2.65,5.903,3.186 c2.123,0.529,5.174,1.725,6.766,1.258c1.593-0.463,3.185-0.729,3.848,0.664c0.664,1.396,0.414,5.17,0.938,5.521 c0.524,0.352,1.224,1.313,1.354,2.273s0.043,1.75,1.966,1.621c1.922-0.131,1.966-0.701,3.014-0.701s2.578,0.045,1.048,0.613 c-1.528,0.565-2.141,1.139-2.971,1.139s-0.874,0.744-1.354,1.4c-0.48,0.653-0.917,0.875-0.567,2.229 c0.35,1.355-0.178,5.271,0.485,6.132c0.664,0.86,1.062,3.055,1.062,4.313c0,1.26,0.266,2.058-0.796,2.058 s-2.587-0.134-2.653,1.325c-0.065,1.459,0,1.925-0.929,2.588c-0.929,0.662-1.725,2.39-0.664,3.187 c1.063,0.798,1.791,0.798,1.791,2.32s-0.995,1.989-0.065,2.981c0.929,0.994,1.128,1.728,0.266,3.25 c-0.862,1.523-1.327,2.59-2.388,3.519c-1.062,0.935-1.832,4.09-1.435,5.353l-0.032,0.354L157.888,273.77z"></path><path id="果洛" fill="none" stroke="#C12E20" stroke-width="0.25" stroke-miterlimit="2.6131" d="M370.88,214.146 c0.502,1.668,0.873,3.695,0.911,4.388c0.062,0.938-0.372,3.877-0.372,3.877l-0.693,0.896c-0.367,0.646-1.746,1.654-1.934,2.854 c-0.188,1.196-1.935,3.774-0.093,4.33c1.838,0.551,1.189,1.012,2.021,2.209c0.83,1.196,1.748,1.475,1.748,2.764 s0.826,2.673,1.563,2.765c0.731,0.096,1.283-0.92,2.299,0.096c1.015,1.014,2.666,0.461,2.854,1.934 c0.188,1.479-1.014,4.424,0.553,4.33c1.563-0.092,2.3-0.092,3.221,0.369c0.921,0.459,1.745,0.646,2.57-0.369 c0.826-1.014,1.379-1.475,2.666-1.381c1.285,0.092,1.746,0.271,2.021,1.75c0.271,1.479-0.188,4.328,1.476,4.604 c1.651,0.272,2.395-1.938,3.125-1.193c0.731,0.732,0.188,1.475-0.556,2.67c-0.731,1.193-2.664,1.936-2.569,3.686 c0.092,1.75,0.646,1.195,1.838,1.016c1.19-0.188,0.188,1.195-0.459,1.845c-0.646,0.646-1.287,1.937-0.828,3.039 c0.461,1.103,0.367,1.84-0.551,0.828c-0.92-1.017-3.127-3.775-4.142-3.313c-1.011,0.461-0.918,2.674-2.11,2.116 c-1.193-0.553-0.918-1.563-3.125-0.646c-2.205,0.92-3.313,1.476-2.761,2.396c0.556,0.922-0.188,0.922-0.461,2.119 c-0.271,1.194-0.459,2.577-0.271,3.592c0.188,1.017,0.096,1.017,1.192,1.563c1.103,0.552,1.841,1.843,1.841,4.515 c0,2.67-1.935,3.039-2.479,2.765c-0.557-0.275-1.195-1.017-2.481,0.366c-1.285,1.382-3.31,1.289-4.41,0.828 c-1.104-0.459-2.112-0.459-3.032-0.459c-0.921,0-2.3-0.92-1.38,0.274c0.921,1.193,0.459,1.476-0.555,1.289 c-1.013-0.188,0.735,1.015-0.185,1.654c-0.924,0.646-1.195,0.646-1.195,1.563s-1.471,2.116-2.297,2.672 c-0.828,0.553-1.655,0.646-1.84-0.272c-0.188-0.925-0.918-2.211-0.098-2.578c0.826-0.369,2.479-1.478,2.021-2.767 c-0.461-1.291-3.127-3.868-4.138-3.868c-1.017,0-2.94-1.013-3.493,0c-0.552,1.018-0.826,1.104-0.826,2.118 c0,1.017-0.094,1.938-1.379,1.104c-1.287-0.828-2.299-0.274-1.746-1.563c0.552-1.289,0.274-5.342-0.827-6.631 c-1.104-1.289-1.563-1.658-2.392-1.658c-0.829,0-1.654,0.369-1.746-0.646c-0.093-1.02-1.104-2.768-1.563-1.565 c-0.461,1.196-0.828,2.58-1.84,2.304c-1.014-0.273-1.842,0-1.652,0.926c0.188,0.92,1.189,0.92,1.015,2.481 c-0.188,1.563-0.732,3.5-1.652,2.578c-0.92-0.92-1.473-0.828-2.938-0.92c-1.475-0.095-1.654-1.197-2.666-1.75 c-1.016-0.556-1.936-0.276-3.125-0.646c-1.193-0.371-0.557-0.83-1.285-0.558c-0.733,0.274-1.938,0.274-2.207-0.828 c-0.271-1.104-0.646-3.866-1.938-4.329c-1.287-0.462-3.678-1.936-3.854-1.193c-0.188,0.731-0.271,0.646-1.104,0 c-0.825-0.646-3.219-1.75-3.855-2.396c-0.646-0.646-0.461-1.656-1.016-2.67c-0.555-1.016-0.827-2.117-0.92-3.406 c-0.094-1.291-0.553-1.656-0.553-2.578s-0.275-1.195-1.472-2.115c-1.194-0.92-1.104-1.938-1.287-2.946 c-0.188-1.015,0.646-1.287-0.274-2.211c-0.918-0.92-2.392-3.313-3.312-4.233c-0.92-0.921-2.395-2.117-3.492-1.656 c-1.104,0.461-2.853,1.289-2.853,0.461s0.187-2.578-1.563-2.672c-1.746-0.095-4.871-1.383-5.426-0.828 c-0.552,0.554-2.021,2.945-3.68,2.766c-1.652-0.188-1.652-0.094-1.652-0.646c0-0.27,0.104-1.055,0.155-1.854l-1.448-2.539 c0,0-0.642-2.898-0.834-5.207c-0.193-2.313-1.179-0.197-1.717-1.574c-0.539-1.375-1.521-0.588-1.963,0.346 c-0.439,0.938,0.021-1.521-1.813-3.354c-1.834-1.839-1.112-3.034-2.229-4.711c-1.115-1.679-2.07-0.88-3.271-0.563 c-1.194,0.32,0.078-2.635,0.238-3.674c0.157-1.039-2.631-0.479-4.386-0.561c-1.757-0.078-2.231-4.313-2.151-6.068 c0.08-1.757,2.229-2.479,3.906-2.875c1.674-0.398,2.148-3.914,2.148-5.111s0.719-1.197,1.52-2.156 c0.797-0.957,1.354-5.352,1.354-5.352l-0.028-0.117c0.979,0.396,1.81,0.684,2.286,0.684c0.988,0,2.744,1.221,4.043,0.305 c1.298-0.914,1.298-2.211,2.744-0.99c1.445,1.219,6.881,2.601,10.072-0.103c3.192-2.704,3.028-1.396,3.936-2.622 c0.898-1.229,2.295-0.736,4.019-0.736c1.723,0,3.438,1.311,4.67-0.656c1.229-1.965,3.521-1.721,3.936-2.539 c0.406-0.818,1.146-1.229,1.726-0.164c0.567,1.064,2.618,1.395,3.271-0.082c0.652-1.475,1.313-2.131,2.783-2.131 c0.668,0,1.656-0.555,2.49-0.62l0.459,0.131c0.744,0.188,1.285,0.981,1.063,3.604c-0.486,5.815-4.345,7.127-1.97,8.273 c2.38,1.146,3.521,2.865,5.244,5.813c1.722,2.949,2.946,3.853,4.914,4.26c1.967,0.41,4.424,1.642,7.455,2.541 c3.027,0.9,3.521,1.724,7.127,0.9c3.604-0.82,3.771-1.394,4.996-0.9c1.229,0.492,2.854,0.104,3.73,0.703 c0.881,0.605,2.69,2.808,4.017,3.082c1.319,0.273,2.257,1.596,3.737,0.715c1.479-0.879,2.093-2.526,2.854-0.771 c0.09,0.203,0.293,0.613,0.379,0.854L370.88,214.146z"></path><path id="海南" fill="none" stroke="#C12E20" stroke-width="0.25" stroke-miterlimit="2.6131" d="M333.847,139.707 c-0.104,0.055-0.603-0.042-2.217-0.283c-3.896-0.583-1.921-1.633-3.552-1.107c-1.629,0.524-1.746,1.283-1.746,2.508 c0,1.226-0.645,2.799,0.354,3.907c0.986,1.107,0.521,2.158,1.34,3.266c0.813,1.108,1.973,2.515,0.33,3.661 s-2.375,3.195-1.885,4.341c0.487,1.147,1.063,2.13-0.244,3.113c-1.313,0.983-5.488,3.604-5.406,4.751 c0.08,1.146,0.49,2.458,0,2.786c-0.488,0.328-1.561,1.393-0.162,2.211c1.396,0.819,3.438,0.492,3.521,2.294 c0.08,1.802-0.736,6.799,0.488,8.028c1.229,1.229,3.936,2.375,3.03,3.276c-0.901,0.902-0.571,1.966-0.571,1.966l0.37,0.205 c0.746,0.188,0.914,0.779,0.688,3.399c-0.486,5.816-4.342,7.127-1.967,8.275c2.377,1.146,3.521,2.865,5.242,5.814 c1.721,2.947,2.948,3.852,4.913,4.26c1.97,0.41,4.425,1.641,7.455,2.54c3.029,0.899,3.521,1.724,7.127,0.899 c3.604-0.817,3.771-1.394,4.998-0.899c1.229,0.492,2.854,0.101,3.732,0.705c0.877,0.604,2.689,2.808,4.016,3.08 c1.318,0.272,2.254,1.594,3.738,0.715c1.479-0.881,2.09-2.528,2.854-0.771c0.092,0.203,0.18,0.428,0.268,0.664l0.313,0.5 c0,0,2.815,0.963,3.918-1.033c1.102-1.996,0.479-3.373,0.346-4.817c-0.139-1.444-0.412-1.998-1.721-2.547 c-1.306-0.552-2.197-0.345-2.197-1.722s-0.14-2.203-1.023-2.203c-0.896,0-4.604-1.446-4.678-2.754 c-0.064-1.309,1.723-1.446,3.16-1.998c1.438-0.551,2.606-2.27,1.233-2.891c-1.375-0.619-2.271-1.238-3.299-1.789 c-1.03-0.553-2.403-1.93-1.104-2.065c1.309-0.138,2.063,0.481,2.746-0.069c0.688-0.551,1.375,0,3.438,0.069 c2.063,0.069,3.093-0.345,5.087,0.413c1.989,0.757,6.459,1.996,7.42,1.582c0.963-0.412,0.963-1.032,0.067-1.996 c-0.896-0.965-1.854-2.616-0.142-2.616c1.716,0,2.814-0.207,3.438-0.551c0.617-0.345,1.813-1.695,1.922-2.613 c0.104-0.918,0.813-1.529,1.17-2.346c0.354-0.813,1.271-2.243,0.508-2.906c-0.762-0.663-1.979,0.255-2.086-1.173 c-0.104-1.428,0.459-4.231-0.051-4.793c-0.512-0.561-2.188-1.273-1.479-2.09c0.716-0.815,1.065-1.682,1.065-2.651 c0-0.969-0.479-1.599-0.479-2.054c0-0.456,2.523-0.712,3.064-0.199c0.25,0.237,0.45,0.23,0.58,0.114l-0.196-0.935 c-0.418-0.219-1.168-0.348-1.977-0.348c-1.137,0-1.479,0.541-1.846-1.109c-0.304-1.336-0.811-2.337-1.104-2.791l-0.25-0.264 c-0.271-0.027-0.912,0.639-2.517-0.413c-1.774-1.162-5.146-1.774-5.392-0.979c-0.244,0.795-0.608,2.388-1.841,1.408 c-1.228-0.98-1.638-2.781-3.396-4.544c-1.766-1.764-3.632-4.357-4.148-6.121c-0.52-1.765,0.896-1.646-0.354-2.27l-2.693,0.707 c-4.287,0.541-9.219,0.334-13.541,0.004c-4.094-0.313-8.313-1.197-12.184-2.632c-1.15-0.427-1.729-0.78-2.646-1.457 c-1.088-0.798-2.133-2.286-3.635-2.082L333.847,139.707z"></path><path id="海北" fill="none" stroke="#C12E20" stroke-width="0.25" stroke-miterlimit="2.6131" d="M372.616,147.561 c0.597,0.312,1.729-0.615,1.957-1.044c0.336-0.631,1.261-0.969,2.101-0.589c0.843,0.378,1.472,0.324,1.685-1.299 c0.211-1.622,0.563-1.834,0.701-3.104c0.146-1.271-2.463-1.764-1.974-2.751c0.493-0.987,0.491-1.411-0.914-2.045 c-1.405-0.635-1.194-0.987-2.11-2.398c-0.914-1.411-1.619-1.411-3.312-1.834c-1.693-0.423-2.324-2.257-1.688-3.456 c0.636-1.199,2.396-2.045,3.521-1.48c1.128,0.563,0,1.27,6.479,1.692c6.479,0.423,4.998,1.411,5.914,2.188 c0.916,0.775,3.006,0.207,4.254,0.988c0.987,0.618,2.99,1.336,4.787,2.488l0.647,0.445c0.234,0.175,0.476,0.36,0.689,0.554 c2.023,1.771,3.85,0.938,5.979,0.938c2.135,0,2.854-0.938,3.896-1.563c1.039-0.625,1.869,0.052,1.869,0.052l2.387-0.485 c0.762-0.145,0.451-0.685-0.244-1.619c-0.826-1.104-3.033-2.118-4.871-2.487c-1.844-0.368-1.477-1.564-2.396-3.039 c-0.92-1.474-3.854-2.579-5.236-2.579c-1.381,0-2.021-0.735-1.475-1.657c0.553-0.921,1.016-0.921,1.104-2.579 c0.09-1.658-1.655-1.658-2.207-2.026c-0.554-0.368-0.273-0.921-0.273-2.21s-2.021,0.829-2.852,1.842 c-0.828,1.014-0.366,1.566-0.366,3.039c0,1.475,0.185,2.396-0.827,2.487c-1.014,0.092-1.746-1.474-2.115-2.487 c-0.363-1.013-0.918-1.657-2.205-1.657c-1.282,0-5.233-2.854-6.709-3.96c-1.474-1.104-2.021-1.474-3.489-1.474 c-1.476,0-2.854-3.039-3.858-3.591c-1.013-0.553-2.207-1.565-4.411-1.565c-2.203,0-1.744-0.645-5.059-2.303 c-3.313-1.658-2.205-2.487-2.479-3.408c-0.274-0.921-0.555-2.579-3.771-2.946c-3.224-0.368-3.398-2.304-3.953-2.304 c-0.554,0-1.478,1.014-1.652-0.092c-0.186-1.105-0.365-1.381-1.38-2.579c-1.013-1.198-2.3-0.276-2.479,0.553 c-0.188,0.829,0.921,2.026,1.654,2.764c0.731,0.736,1.012,3.039,1.012,4.052c0,1.013-2.392-1.198-4.229-2.396 c-1.838-1.196-5.06-2.578-7.354-3.407c-2.299-0.829-3.028-2.303-3.855-3.407c-0.825-1.104-0.731-2.119-1.839-2.119 c-1.106,0-2.304-2.486-2.938-3.684c-0.646-1.198-0.828-0.737-1.84-0.737c-1.014,0-1.38-1.474-3.031-2.21 c-1.653-0.736-1.935-1.197-1.935-2.396c0-1.196-0.272-0.921-1.287-0.828c-1.011,0.092-0.459-0.737-1.745-0.829 c-1.285-0.093-0.92-0.093-2.113-1.014c-1.188-0.921-0.825-0.921-2.021-1.474c-1.192-0.552-1.938,0-2.021,0.921 c-0.094,0.92-0.459,0.46-1.285,2.118c-0.825,1.658-2.479,1.013-3.952,1.013c-1.473,0-0.823-0.275-1.743-1.29 c-0.92-1.014-0.557-0.736-2.396-0.645c-1.838,0.092-0.826,1.381-0.73,2.118c0.075,0.622-2.598,3.013-3.813,4.132l-0.938,0.68 c0.186,0.544,0.813,2.813,2.271,2.722c1.449-0.091,3.443,0.816,7.258,4.082c3.813,3.268,6.262,2.357,7.525,2.722 c1.271,0.362,3.086,1.633,4.533,1.452c1.45-0.183,1.271,0.362,2.446,0.726c1.185,0.363,0.095,1.724-0.184,2.813 c-0.271,1.089,2.179,1.36,3.898,0.636c1.723-0.726,1.725-0.636,2.813-0.272c1.09,0.363,3.537,2.177,5.44,2.177 c1.902,0,3.722,1.905,3.354,2.993c-0.363,1.088-3.992,1.814-5.625,1.814c-1.637,0-1.994,0.726-2.898,2.177 c-0.905,1.451,1.447,1.179,2.99,1.179c1.541,0,1.813,0.092,3.084,1.361c1.271,1.27,1.678,3.673,1.873,5.272 c0.201,1.599-2.859,3.33-3.664,4.264c-0.799,0.933-1.268,2.332-1.131,4.396c0.134,2.064-0.938,5.862-0.938,6.661 c0,0.799,3.354,2.675,3.354,2.675l0.742,0.423c-0.873-0.292-1.518-0.06-1.635,0.875c-0.013,0.094,0.455,0.76,0.481,0.842 l0.229,2.727c1.504-0.204,2.551,1.283,3.639,2.082c0.92,0.677,1.49,1.03,2.646,1.457c3.866,1.435,8.093,2.319,12.185,2.632 c4.324,0.33,9.254,0.537,13.541-0.004l2.699-0.705l-0.146-0.597C368.646,147.157,367.937,145.115,372.616,147.561z"></path><path id="西宁市" fill="none" stroke="#C12E20" stroke-width="0.25" stroke-miterlimit="2.6131" d="M368.606,147.021 c0.043-1.432,2.521-0.168,3.526,0.378c1.009,0.547,2.104-0.252,2.438-0.883c0.336-0.631,1.26-0.969,2.101-0.589 c0.842,0.378,1.471,0.324,1.684-1.299c0.211-1.622,0.563-1.834,0.703-3.104c0.145-1.271-2.466-1.764-1.973-2.751 c0.491-0.987,0.491-1.411-0.916-2.045c-1.406-0.635-1.195-0.987-2.109-2.398c-0.916-1.411-1.619-1.411-3.313-1.834 c-1.688-0.423-2.319-2.257-1.688-3.456c0.64-1.199,2.396-2.045,3.521-1.48c1.127,0.563,0,1.27,6.479,1.692 c6.479,0.423,5,1.411,5.914,2.188c0.916,0.775,3.008,0.207,4.256,0.988c0.984,0.618,2.987,1.336,4.787,2.488l0.692,0.689 c0,0-2.313,4.34-4.028,5.761c-1.724,1.421-0.603,2.469-0.303,3.965c0.303,1.496,0.372,4.863,0.602,5.313 c0.227,0.448,1.045,1.422,2.166,2.394c1.119,0.974-0.146,2.021-0.978,2.77c-0.815,0.749-0.297,1.944,0,2.843 c0.304,0.897-0.596,1.795-2.608,1.87c-2.021,0.075-2.869,0.415-2.869,0.415l-0.25-0.264c-0.273-0.027-0.91,0.639-2.52-0.413 c-1.771-1.162-5.144-1.774-5.39-0.979c-0.244,0.795-0.61,2.388-1.836,1.408c-1.229-0.98-1.641-2.781-3.399-4.544 c-1.763-1.764-3.632-4.357-4.146-6.121c-0.521-1.765,0.896-1.646-0.354-2.27L368.606,147.021z"></path><path id="海东" fill="none" stroke="#C12E20" stroke-width="0.25" stroke-miterlimit="2.6131" d="M409.606,188.43 c-1.979-0.068-0.752-1.851-1.849-3.492c-1.097-1.646-2.87-1.918-4.237-2.877c-1.362-0.959-2.806-0.343-3.481,0.206 c-0.688,0.548-1.438-0.411-1.778-1.37c-0.34-0.959,0-2.124,0-3.494s0.207-2.466,0.207-3.836s-0.685-0.959-1.979-1.096 c-1.301-0.138-0.549-0.479-0.957-1.233c-0.407-0.754-0.611-0.686-1.159-1.507c-0.552-0.822-0.409-0.686-1.438-0.686 c-1.021,0-1.179-0.445-1.179-0.445s-0.709-2.712-0.477-2.561c0.236,0.152,0.535,0.078,0.535,0.078l-0.196-0.935 c-0.416-0.219-1.166-0.348-1.976-0.348c-1.142,0-1.479,0.541-1.852-1.109c-0.299-1.336-0.806-2.337-1.104-2.791l0.604-0.164 c0,0,0.244-0.176,2.266-0.25c2.021-0.074,2.909-0.973,2.609-1.87c-0.299-0.898-0.818-2.095,0-2.843 c0.821-0.749,2.091-1.796,0.975-2.77c-1.119-0.972-1.938-1.945-2.166-2.394c-0.227-0.449-0.302-3.815-0.602-5.313 c-0.299-1.498-1.418-2.544,0.3-3.965c1.722-1.421,4.032-5.761,4.032-5.761l0.646,0.31l1.528,0.906l1.985,0.211 c0,0,1.276-0.114,1.754-0.153c0.474-0.039,1.239-0.05,1.888-0.143c0.646-0.093,1.314-0.512,2.39-1.233 c1.028-1.018,2.199-0.16,2.199-0.16l-0.115,0.29c-0.037,0.16,0.002,0.345,0.144,0.552c0.554,0.829-0.093,2.67-0.093,2.67 s0.186,0.921,0.73,1.198c0.553,0.274,4.601,3.772,5.521,4.788c0.918,1.014,1.011,1.75,0,1.843 c-1.02,0.092-2.396,0.644-2.303,2.118c0.096,1.474,0.92,1.934,2.207,1.934c1.283,0,1.191,1.197,1.563,2.026 c0.367,0.828,2.298,3.223,2.574,4.973c0.271,1.75,1.838,3.131,3.217,3.314c1.38,0.185,2.392,0.737,1.472,1.565 c-0.92,0.829-0.729,2.579-1.648,2.854c-0.92,0.275-1.563,1.013-0.559,1.842c1.02,0.829,1.385,1.382,1.385,2.946 c0,1.565,0.461,4.146-0.924,3.776c-1.379-0.37-3.396-0.829-3.678-0.092c-0.271,0.737-0.826,1.104-1.379,1.474 c-0.552,0.37-1.38,0.646-0.552,1.935c0.824,1.289,3.125,5.985,0.918,6.446c-2.205,0.46-3.491,0.094-4.045-0.367 c-0.556-0.461-1.285,1.289-1.285,1.289s-0.22,0.985-0.664,1.816L409.606,188.43z"></path><path id="黄南" fill="none" stroke="#C12E20" stroke-width="0.25" stroke-miterlimit="2.6131" d="M370.882,213.814 c0,0,2.817,0.963,3.916-1.033c1.104-1.997,0.479-3.375,0.348-4.818c-0.139-1.443-0.412-1.998-1.721-2.547 c-1.308-0.551-2.195-0.346-2.195-1.723s-0.141-2.203-1.027-2.203c-0.896,0-4.604-1.445-4.676-2.754 c-0.065-1.307,1.721-1.445,3.16-1.996c1.438-0.551,2.606-2.271,1.231-2.891c-1.372-0.621-2.271-1.24-3.297-1.791 c-1.03-0.552-2.405-1.929-1.104-2.064c1.311-0.137,2.063,0.482,2.748-0.069c0.688-0.551,1.375,0,3.438,0.069 c2.063,0.068,3.095-0.344,5.086,0.412c1.99,0.758,6.459,1.996,7.42,1.584c0.964-0.413,0.964-1.033,0.066-1.997 c-0.896-0.964-1.854-2.616-0.142-2.616c1.718,0,2.816-0.207,3.438-0.551c0.617-0.344,1.813-1.695,1.92-2.613 c0.104-0.918,0.813-1.529,1.17-2.346c0.354-0.813,1.271-2.243,0.511-2.906c-0.762-0.663-1.982,0.255-2.086-1.173 c-0.104-1.428,0.457-4.231-0.052-4.793c-0.512-0.561-2.188-1.273-1.479-2.09c0.715-0.815,1.066-1.682,1.066-2.651 c0-0.969-0.478-1.599-0.478-2.054c0-0.456,2.523-0.712,3.063-0.199c0.25,0.237-0.021,0.961,0.104,0.846l0.193,0.883 c0,0,0.188,1.604,1.396,1.313c0.996-0.238,0.889-0.137,1.438,0.686c0.551,0.821,0.756,0.754,1.16,1.507 c0.41,0.753-0.342,1.096,0.957,1.231c1.305,0.138,1.981-0.272,1.981,1.097c0,1.37-0.207,2.466-0.207,3.836s-0.344,2.535,0,3.494 c0.345,0.958,1.097,1.918,1.775,1.37c0.688-0.549,2.116-1.165,3.482-0.206s3.146,1.232,4.239,2.877 c1.093,1.644-0.138,3.424,1.847,3.492c0,0-1.445,0.582-2.625-0.757c-0.718-0.815-2.077,0.21-1.882,1.007 c0.274,1.104,1.563,2.303,0.459,2.578c-1.104,0.275-1.012,0.922,0,1.383c1.016,0.459,3.313,2.115,2.207,3.313 c-1.104,1.197-1.286,1.475-1.379,2.303c-0.092,0.83-0.459,1.477-1.652,1.564c-1.19,0.092-2.666,1.014-3.313,1.936 s-1.746,2.396-2.481,2.117c-0.729-0.275-0.185,0.922-1.281,1.658c-1.104,0.736-1.193,0.922-0.923,2.303 c0.273,1.381,0.461,3.406-0.92,2.301c-1.38-1.104-1.38-2.209-1.563-1.381c-0.188,0.831,0.271,1.659-0.556,2.305 c-0.826,0.646-1.746,1.475-0.555,2.396c1.191,0.92,1.477,0.92,2.395-0.094c0.923-1.014,0.824-1.014,0.923,0.459 c0.092,1.477,0.551,2.305,2.108,2.486c1.563,0.188,2.666-0.646,3.396,0.827c0.734,1.476,0.463,2.396,1.84,3.134 c1.379,0.733,2.854,1.842,1.563,2.114c-1.285,0.277-2.396-0.092-2.479,1.017c-0.096,1.104,0,2.211-0.827,1.938 c-0.823-0.273-1.104,0.459-1.474,1.289c-0.365,0.828-2.394,2.396-2.394,3.039c0,0.646-1.745,0.273-2.021-0.369 c-0.271-0.646-1.104-0.271-1.104,0.369c0,0.646-0.272,3.223-2.299,1.654c-2.021-1.563-2.666-3.865-4.967-3.59 c-2.299,0.272-6.344-1.291-6.896-2.119c-0.556-0.828-1.655-0.922-3.221-0.922c-1.564,0-3.491-0.828-4.143-1.563 c-0.344-0.396-1.021-0.498-1.646-0.412l-0.57,0.168c0,0,0.493-3.409,0.438-4.346c-0.039-0.688-0.411-2.615-0.914-4.281 L370.882,213.814z"></path><path id="海西" fill="none" stroke="#C12E20" stroke-width="0.25" stroke-miterlimit="2.6131" d="M297.853,87.581 c0.186,0.544,0.813,2.813,2.271,2.723c1.453-0.092,3.442,0.815,7.259,4.082c3.813,3.267,6.263,2.357,7.526,2.721 c1.271,0.363,3.084,1.633,4.53,1.452c1.453-0.183,1.271,0.362,2.447,0.726c1.182,0.363,0.094,1.724-0.182,2.813 c-0.271,1.088,2.177,1.359,3.896,0.635c1.729-0.726,1.729-0.635,2.813-0.272c1.089,0.363,3.537,2.178,5.438,2.178 s3.724,1.904,3.354,2.992c-0.358,1.088-3.989,1.814-5.623,1.814c-1.635,0-1.995,0.726-2.899,2.177 c-0.904,1.451,1.449,1.179,2.99,1.179c1.543,0,1.813,0.092,3.084,1.361c1.271,1.271,1.678,3.673,1.875,5.272 c0.198,1.599-2.861,3.331-3.662,4.264c-0.801,0.933-1.271,2.332-1.135,4.396c0.135,2.065-0.937,5.862-0.937,6.661 c0,0.8,3.766,2.91,3.766,2.91l-0.727,0.146c-0.146,0.078-0.459-0.017-0.574,0.917c-0.115,0.933,2.152,1.282-1.746,0.699 c-3.896-0.583-1.92-1.633-3.553-1.106c-1.629,0.524-1.744,1.283-1.744,2.508s-0.646,2.799,0.353,3.907 c0.987,1.106,0.521,2.158,1.34,3.266c0.813,1.108,1.973,2.515,0.331,3.661c-1.643,1.147-2.377,3.195-1.887,4.342 s1.063,2.13-0.245,3.113c-1.31,0.983-5.484,3.604-5.402,4.751c0.08,1.146,0.488,2.458,0,2.786 c-0.49,0.328-1.562,1.393-0.164,2.211c1.396,0.819,3.438,0.492,3.521,2.294c0.082,1.802-0.733,6.799,0.492,8.028 c1.227,1.229,3.936,2.375,3.029,3.276c-0.9,0.902-0.572,1.968-0.572,1.968l-1.049-0.021c-0.834,0.065-1.229,0.51-1.9,0.51 c-1.477,0-2.129,0.656-2.781,2.13c-0.655,1.477-2.704,1.146-3.276,0.082c-0.568-1.063-1.313-0.654-1.722,0.164 c-0.409,0.819-2.702,0.573-3.936,2.54c-1.229,1.966-2.946,0.655-4.672,0.655c-1.721,0-3.108-0.492-4.016,0.736 c-0.896,1.229-0.734-0.082-3.937,2.623c-3.19,2.701-8.627,1.32-10.073,0.103c-1.445-1.222-1.445,0.075-2.743,0.989 c-1.3,0.916-3.054-0.305-4.041-0.305c-0.479,0-1.31-0.289-2.288-0.682l-1.104-0.746c-1.011-0.406-1.201-0.221-2.326-0.633 c-2.285-0.84-2.67-1.221-3.275-3.508c-0.606-2.288-1.447-0.838-2.52,0.609c-1.066,1.447-5.188,2.516-6.636,6.252 c-1.448,3.735-3.127,1.448-3.965-0.152c-0.84-1.602-3.354-0.838-5.108-2.059c-1.753-1.222-3.964,1.604-5.105,3.354 c-1.146,1.755-0.607,1.296-4.117,1.296c-3.509,0-3.925,3.516-6.088,0.531c-2.165-2.98-4.871-2.62-6.854-2.62 c-1.984,0-3.97-3.614-5.684-4.247c-1.716-0.635-3.066-1.447-6.495-0.995c-3.43,0.452-3.338-0.36-5.144-0.813 c-1.804-0.451-3.518-0.36-3.518-3.435c0-3.071-0.992-3.253-6.225-3.523c-5.231-0.271-8.974-1.818-10.739-2.813 s-5.626-0.11-7.942-0.553c-2.316-0.442-5.406-1.438-6.95-1.548c-1.545-0.11-4.083,0-5.406-1.438 c-1.324-1.437-7.611-0.995-9.818-1.437s-10.15-1.77-13.57-2.21c-3.42-0.442-6.179-3.206-10.04-3.537s-5.737-3.979-8.605-3.868 c-2.868,0.11-7.28-1.769-7.28-1.769l-0.248-0.483c-0.516-1.188-1.103-2.428-1.103-3.67c0-1.473-0.368-4.789-0.275-5.709 c0.092-0.92-0.644-3.131-1.379-3.131s-1.012,0.275-3.218-0.646s-2.85-0.92-3.033-2.118c-0.185-1.197-0.919-1.104,0.092-1.657 c1.011-0.554,1.011-0.554,0.551-1.383c-0.46-0.828-1.287-1.382-0.276-2.671c1.012-1.289,3.401-3.039,4.78-3.039 s3.31,0.461,4.137-0.552s1.104,0,1.747-1.197c0.645-1.196,1.104-1.565,2.206-0.828c1.104,0.736,2.207,0,2.207-1.014 c0-1.013,1.104-2.21-0.275-3.039c-1.38-0.829-1.563-2.118-1.563-3.314c0-1.197-0.827-0.646-1.195-1.842 c-0.367-1.197-1.104-1.475-1.011-2.854c0.092-1.381-0.551-1.658-1.011-1.842c-0.459-0.185-1.471,0.092-2.482-0.737 c-1.011-0.829-2.573-0.829-2.666-2.118c-0.092-1.289,0.185-1.657-0.645-2.025c-0.827-0.368-1.104-0.553-1.104-0.553 s-3.217-2.946-3.677-2.946s-2.85,0.368-3.953-1.105c-1.104-1.474-2.391-4.052-1.104-4.881c1.287-0.829,2.113-1.197,1.194-2.947 s-3.033-4.789-3.033-6.078c0-1.29,0.092-2.21-0.919-3.04c-1.012-0.828-3.311-5.063-0.736-5.341 c2.574-0.275,3.402,0.368,4.78-1.196c1.379-1.565,2.481-2.118,3.86-2.396c1.379-0.276,2.206-0.829,2.391-1.658 s0.552-0.921,2.39-0.46c1.838,0.46,3.584-0.184,4.964-0.275c1.379-0.093,5.883-1.014,6.895-1.014c1.011,0,4.229-1.197,5.699-2.025 c1.472-0.829,3.77-0.921,4.597-0.921s5.698-0.922,7.17-2.303c1.471-1.382,3.859-0.185,5.516-1.197 c1.655-1.014,2.666-1.014,3.677-1.197c1.012-0.186,4.688-3.226,7.998-3.226c3.311,0,7.723-0.828,9.561-0.828 s3.677-0.554,4.964-1.197c1.287-0.646,1.655-0.276,2.942-0.092c1.286,0.185,1.746-0.185,2.481-1.105 c0.735-0.921,0.185-1.842,1.93-0.829c1.747,1.014,3.953,0.186,7.17,0c3.218-0.184,5.148,0.276,6.619-0.552 c1.472-0.829,3.218,0,3.218,0s3.769,0.646,4.964,0.276c1.194-0.369,3.677,0.184,5.056,0.736c1.379,0.552,6.619,3.499,8.643,3.868 c2.021,0.369,6.157,0.461,7.997,1.382c1.84,0.92,4.138,2.21,5.146,3.96s1.838,3.776,3.401,3.96 c1.563,0.185,1.745,0.276,2.664,1.382c0.921,1.104,1.472,2.21,2.939,2.21c1.474,0,1.287,0.184,1.747,1.564 c0.46,1.38,0.186,2.763,1.287,2.21c1.104-0.553,1.287-0.921,1.838,0.185c0.555,1.104,1.195,1.565,2.299,1.196 c1.104-0.369,1.014-0.829,2.021,0.185c1.014,1.013,2.021,1.565,3.034,1.934c1.013,0.369,0.921,0.092,1.191,1.566 c0.274,1.473,0.555,1.75,2.394,2.118c1.84,0.368,1.563,0.828,3.125,1.565s2.299,1.105,3.127,1.475 c0.825,0.368,1.932,0.184,1.932-1.014s-0.369-2.395,0-3.96c0.365-1.564,0.551-1.933-0.369-2.67 c-0.918-0.737-0.729-2.026-0.092-2.486c0.646-0.461,1.012-0.185,0.92-1.104c-0.094-0.919,1.193-2.67,0.092-3.223 c-1.104-0.554-1.285-1.104-0.459-1.75s0.096-1.75,0-2.854c-0.092-1.104,0.188-2.21-0.271-3.315 c-0.459-1.104-0.273-2.117,1.19-2.946c1.476-0.829,3.859-0.368,5.605,0.369c1.746,0.736,5.059,3.5,6.063,4.329 c1.015,0.828,2.302,1.565,3.771,1.934c1.473,0.369,4.046,2.21,5.791,3.314c1.555,0.982,3,2.354,3.793,2.203L297.853,87.581 L297.853,87.581z"></path><path id="玉树" fill="none" stroke="#C12E20" stroke-width="0.25" stroke-miterlimit="2.6131" d="M280.728,194.07 c0,0-0.561,4.395-1.354,5.352c-0.797,0.959-1.518,0.959-1.518,2.156s-0.479,4.713-2.148,5.111 c-1.678,0.397-3.828,1.119-3.906,2.875c-0.079,1.758,0.398,5.992,2.152,6.07s4.543-0.479,4.383,0.561 c-0.157,1.039-1.438,3.994-0.237,3.677c1.194-0.317,2.151-1.119,3.271,0.562c1.112,1.676,0.396,2.875,2.229,4.709 c1.834,1.838,1.366,4.291,1.813,3.354c0.438-0.935,1.422-1.722,1.961-0.345c0.539,1.375,1.521-0.735,1.717,1.572 c0.194,2.31,1.162,5.101,1.162,5.101l-0.272,0.198c-0.334-0.012-0.513,0.082-0.601,0.527c-0.188,0.924-1.477,3.773-2.481,2.855 c-1.008-0.922-3.771-1.564-4.229,0.365c-0.461,1.938,0.092,1.846,0.459,2.764c0.367,0.922,0.729,1.479,0.188,3.131 c-0.555,1.658,1.287,2.854,1.746,2.396c0.459-0.459,1.379,0.272,0.824,1.196c-0.551,0.923-0.645,1.843,0.275,2.673 c0.92,0.827,1.012,1.563,2.299,1.563c1.286,0,4.139,1.656,2.393,2.117s-2.393,1.563-2.852,2.854 c-0.461,1.291-2.301,0.462-2.301,0.462s-2.111,1.75-1.285,3.225s2.205,3.865,0.271,3.961c-1.932,0.092-2.109,1.654-2.109,2.854 c0,1.193,0.646,5.342,1.283,5.896c0.646,0.553,0.732,0.461,1.746,1.383c1.016,0.92,1.563,2.209,2.939,3.039 c1.379,0.828,2.021,1.289,1.473,2.482c-0.553,1.196-2.021,1.104-2.938-0.271c-0.918-1.381-1.563-0.83-2.479-0.83 c-0.922,0-1.015,0.461-1.656,1.563c-0.643,1.104-0.821,2.396-0.185,2.854c0.646,0.461,1.195,0.558,0.093,1.289 c-1.104,0.735,0.188,1.563,0.188,1.563s1.014,1.195-0.271,0.734c-1.287-0.461-1.473-0.92-1.652,0.188 c-0.188,1.104-1.104,3.773-0.367,4.236c0.732,0.461,1.285,2.021,0.094,1.842c-1.192-0.186-1.014-0.459-1.192,0.556 c-0.187,1.016,0,0.92-1.652,1.288c-1.651,0.369-4.87-0.368-4.87,0.734c0,1.104-1.104,1.195-1.935,1.291 c-0.826,0.094-0.645-1.104-1.285-1.195c-0.646-0.094-2.112,0.271-2.021,0.923c0.093,0.646,1.38,1.194,1.192,2.577 c-0.187,1.384-0.552,2.765-1.104,2.854c-0.552,0.092-0.273,1.287,0.646,2.209c0.918,0.922,2.021,1.654,0.459,2.67 c-1.563,1.016-1.563,0.369-2.298-0.367c-0.733-0.733-2.3-1.104-3.771-1.381c-1.475-0.273-3.033-0.646-4.045-1.658 c-1.014-1.014-2.023-1.194-2.023-2.578c0-1.383-0.643-2.396-1.562-1.844c-0.919,0.557-1.839,2.211-2.666,2.396 c-0.825,0.188-0.825,1.016-0.093,1.844c0.733,0.826,2.112,1.195,2.021,2.396c-0.093,1.197,0.645,1.658-0.093,2.396 c-0.735,0.731-0.368,1.75,0.272,1.937c0.646,0.186,0.827,0.367,0.646,1.195c-0.186,0.827-1.653,1.288-2.114,0 c-0.459-1.289-1.93-5.806-3.771-4.884c-1.839,0.922-3.031,0.646-3.677,0.188c-0.645-0.463-1.473-0.736-1.932,0.094 c-0.46,0.828-1.379,0-1.931-0.83c-0.554-0.828-3.4-2.021-4.229-1.289c-0.827,0.736-1.653,2.209-2.479,1.197 c-0.827-1.016-2.394-2.67-2.394-3.688c0-1.016-2.666-2.481-1.653-3.5c1.013-1.014,1.933-2.764,1.841-4.231 c-0.095-1.478,0.272-1.289-1.014-1.846c-1.287-0.554-1.472-1.104-2.113-1.843c-0.646-0.735-1.194-0.461-2.573-0.735 c-1.378-0.273-3.678,0-4.229-1.015c-0.552-1.014-0.919-2.022-2.391-2.303c-1.471-0.274-1.653-0.187-1.653-1.384 c0-1.194,0-2.116-0.92-2.762c-0.919-0.646-2.39-0.83-2.479-2.024c-0.094-1.197-0.187-1.015-1.472-2.025 c-1.287-1.014-3.126-3.594-3.311-2.396c-0.186,1.195-0.368,1.842-1.839,1.842c-1.47,0-4.504-0.273-3.952,0.83 c0.551,1.104,0.185,2.023-0.46,1.842c-0.644-0.186,0-0.553-1.103,0.273c-1.104,0.83-1.563-0.092-2.391-0.367 c-0.827-0.273-0.827,0-1.194,0.922c-0.368,0.92-1.472,1.477-2.206,0.92c-0.736-0.553-1.287-0.646-2.115-0.273 c-0.827,0.369-1.195-1.289-2.206-1.014s-1.654,0.736-2.298-0.367c-0.646-1.104-1.655-1.477-2.852-1.563 c-1.194-0.098-3.217-0.098-3.86,0.459c-0.645,0.553-2.851,2.117-3.125,0.553c-0.275-1.563-0.827-2.021-1.655-1.652 c-0.827,0.365-1.379,0.922-2.482-0.098c-1.103-1.012-1.838-3.037-3.125-3.037c-1.286,0-3.492,0.557-4.137-0.645 c-0.644-1.203-0.551-2.025-1.93-1.566c-1.379,0.463-2.114,0.924-3.77,0c-1.654-0.92-2.85-1.287-4.32-0.826 c-0.7,0.221-1.048,0.531-1.703,0.535l0.074-0.199c-0.398-1.264,0.332-4.576,1.393-5.506c1.063-0.932,1.526-1.988,2.388-3.52 c0.862-1.521,0.663-2.256-0.266-3.25c-0.928-0.994,0.066-1.457,0.066-2.984c0-1.521-0.729-1.521-1.791-2.318 c-1.062-0.795-0.266-2.521,0.664-3.188c0.929-0.666,0.861-1.127,0.929-2.586c0.064-1.459,1.592-1.328,2.652-1.328 c1.062,0,0.797-0.795,0.797-2.055c0-1.266-0.398-3.449-1.063-4.314c-0.663-0.857-0.136-4.77-0.485-6.131 c-0.349-1.354,0.088-1.574,0.567-2.229c0.48-0.655,0.524-1.398,1.354-1.398c0.829,0,1.441-0.564,2.971-1.141 c1.529-0.566,0-0.611-1.048-0.611s-1.092,0.566-3.015,0.701c-1.922,0.131-1.835-0.658-1.966-1.621s-0.831-1.928-1.354-2.271 c-0.524-0.354-0.274-4.131-0.938-5.521c-0.663-1.396-2.255-1.129-3.847-0.664c-1.592,0.463-4.645-0.729-6.767-1.262 c-2.123-0.529-4.51-2.389-5.902-3.187c-1.395-0.797-1.194-1.657-0.199-2.058c0.995-0.396-1.26-1.791-4.709-3.116 c-3.449-1.328-13.724-5.886-16.223-6.155c-2.499-0.271-2.701,0.475-3.311,1.285c-0.606,0.813-2.025,0.202-2.972-1.421 c-0.946-1.624-5.269-3.722-7.969-4.466c-2.702-0.744-6.078-1.084-8.037-0.609c-1.959,0.477-1.486,1.018-3.242-0.271 c-1.756-1.285-3.242,1.016-4.188,0.406c-0.944-0.608-2.306,0.305-2.306,0.305l-0.739-0.195c-0.262-0.264-0.586-0.414-1.061-0.414 c-1.287,0-2.114-0.459-2.851,0.275c-0.735,0.736-1.471,0.186-1.838-1.012c-0.366-1.197,1.104-4.236,0.459-5.345 c-0.644-1.104-2.39-2.579-2.39-3.591c0-1.014,1.747-1.29,1.655-2.486c-0.092-1.197-1.563-3.132-0.092-3.039 c1.471,0.092,2.113-0.92,3.585-0.736c1.471,0.184,1.93-0.187,2.113-1.381c0.185-1.197-1.194-3.96-0.092-4.053 c1.104-0.092,1.471-0.921,1.471-2.025c0-1.105,0-2.579,0.735-3.407c0.735-0.829,1.471-2.947,0.276-2.947 c-1.195,0-4.321,0.737-5.332-0.275c-1.012-1.014-1.012-1.289-1.563-1.381c-0.552-0.093-1.747-0.737-1.563-2.304 c0.184-1.564,0.367-2.395,2.113-1.658c1.746,0.737,2.206-0.645,4.138-0.645c1.93,0,5.698,0.184,6.71-1.381 c1.011-1.565,2.113-1.289,2.298-2.487c0.184-1.197,0.092-2.854,1.287-1.381c1.194,1.473,2.758,2.396,4.688,2.671 c1.932,0.276,2.666,1.474,4.872,1.474s4.504,0,6.251,1.289c1.747,1.29,2.758,3.408,4.138,3.408c1.378,0,2.021,0.276,2.205-0.829 c0.185-1.104,0.552-2.025,2.022-1.473c1.079,0.405,2.059,0.216,2.287-0.459l-0.109-1.099c0,0,4.413,1.879,7.281,1.769 c2.869-0.111,4.744,3.537,8.605,3.868c3.86,0.331,6.619,3.095,10.039,3.537c3.421,0.441,11.363,1.768,13.57,2.21 c2.207,0.441,8.495,0,9.819,1.437c1.324,1.438,3.86,1.326,5.406,1.438c1.544,0.11,4.634,1.104,6.949,1.548 c2.317,0.442,6.179-0.442,7.943,0.553c1.766,0.995,5.507,2.542,10.739,2.813c5.23,0.271,6.224,0.452,6.224,3.523 c0,3.073,1.714,2.981,3.519,3.435c1.806,0.453,1.714,1.266,5.144,0.813c3.428-0.452,4.78,0.36,6.495,0.994 c1.714,0.633,3.696,4.248,5.683,4.248c1.987,0,4.69-0.36,6.854,2.621c2.165,2.983,2.581-0.531,6.09-0.531s2.974,0.457,4.117-1.297 c1.146-1.753,3.354-4.574,5.105-3.354c1.754,1.221,4.271,0.459,5.108,2.06c0.838,1.603,2.517,3.89,3.965,0.151 c1.447-3.736,5.564-4.805,6.634-6.252c1.067-1.447,1.905-2.897,2.521-0.609c0.606,2.287,0.989,2.669,3.274,3.509 c1.129,0.412,1.316,0.228,2.324,0.631C279.591,193.208,280.626,193.854,280.728,194.07z"></path><text transform="matrix(1 0 0 1 227.8621 138.1738)" fill="#070001" font-family="'MicrosoftYaHei'" font-size="8">海西</text><text transform="matrix(1 0 0 1 349.2571 122.1738)" fill="#070001" font-family="'MicrosoftYaHei'" font-size="8">海北</text><text transform="matrix(1 0 0 1 373.1458 151.1738)" fill="#070001" font-family="'MicrosoftYaHei'" font-size="8">西宁市</text><text transform="matrix(1.0118 0 0 1 398.8186 163.1738)" fill="#070001" font-family="'MicrosoftYaHei'" font-size="8">海东</text><text transform="matrix(1 0 0 1 349.2571 179.8428)" fill="#070001" font-family="'MicrosoftYaHei'" font-size="8">海南</text><text transform="matrix(1 0 0 1 376.3586 205.8428)" fill="#070001" font-family="'MicrosoftYaHei'" font-size="8">黄南</text><text transform="matrix(1 0 0 1 330.3157 229.1729)" fill="#070001" font-family="'MicrosoftYaHei'" font-size="8">果洛</text><text transform="matrix(1 0 0 1 216.197 239.4404)" fill="#070001" font-family="'MicrosoftYaHei'" font-size="8">玉树</text><text transform="matrix(1 0 0 1 101.1975 226.0283)" fill="#070001" font-family="'MicrosoftYaHei'" font-size="8">格尔木市</text><g id="德令哈市_1_"><circle id="_x34_60802" fill="#070001" cx="279.423" cy="127.125" r="1.5"></circle><circle id="_x34_60899" fill="#070001" cx="280.091" cy="125.083" r="1.5"></circle><circle id="_x34_60804" fill="#070001" cx="297.854" cy="162.497" r="1.5"></circle><circle id="_x34_60803" fill="#070001" cx="307.854" cy="141.794" r="1.5"></circle><circle id="_x34_60805" fill="#070001" cx="321.464" cy="130.125" r="1.5"></circle><circle id="_x34_60806" fill="#070001" cx="231.174" cy="112.051" r="1.5"></circle><circle id="mapid-460800-circle" fill="#D71718" cx="240.007" cy="136.504" r="1.5"></circle><circle id="_x34_60807" fill="#070001" cx="182.674" cy="83.925" r="1.5"></circle><circle id="_x34_60808" fill="#070001" cx="121.799" cy="98.801" r="1.5"></circle><circle id="_x34_60801" fill="#070001" cx="220.091" cy="159.458" r="1.5"></circle></g><g id="海北_1_"><circle id="_x34_60301" fill="#070001" cx="351.466" cy="105.208" r="1.5"></circle><circle id="mapid-460300-circle" fill="#D71718" cx="357.386" cy="122.173" r="1.5"></circle><circle id="_x34_60303" fill="#070001" cx="348.466" cy="130.958" r="1.5"></circle><circle id="_x34_60399" fill="#070001" cx="367.106" cy="141.794" r="1.5"></circle><circle id="_x34_60302" fill="#070001" cx="370.716" cy="143.294" r="1.5"></circle><circle id="_x34_60304" fill="#070001" cx="385.188" cy="128.625" r="1.5"></circle></g><g id="西宁市_1_"><circle id="_x34_60105" fill="#070001" cx="387.649" cy="141.794" r="1.5"></circle><circle id="mapid-460900-circle" fill="#070001" cx="380.149" cy="135.004" r="1.5"></circle><circle id="_x34_60999" fill="#070001" cx="389.815" cy="150.086" r="1.5"></circle><circle id="_x34_60104" fill="#070001" cx="389.522" cy="149.673" r="1.5"></circle><circle id="_x34_60199" fill="#070001" cx="388.481" cy="150.086" r="1.5"></circle><circle id="_x34_60103" fill="#070001" cx="388.481" cy="151.173" r="1.5"></circle><circle id="_x34_60102" fill="#070001" cx="390.31" cy="152.673" r="1.5"></circle><circle id="_x34_60101" fill="#070001" cx="390.493" cy="151.928" r="1.5"></circle><circle id="_x34_60107" fill="#070001" cx="377.149" cy="149.378" r="1.5"></circle><circle id="_x34_60106" fill="#070001" cx="385.188" cy="155.586" r="1.5"></circle><circle id="mapid-460100-circle" fill="#D71718" cx="383.841" cy="145.315" r="1.5"></circle></g><g id="青海省高级人民法院"><circle id="_x34_69900" fill="#070001" cx="388.993" cy="152.378" r="1.5"></circle></g><g id="平安_1_"><circle id="_x34_60204" fill="#070001" cx="394.024" cy="145.315" r="1.5"></circle><circle id="_x34_60299" fill="#070001" cx="397.899" cy="156.753" r="1.5"></circle><circle id="_x34_60201" fill="#070001" cx="398.817" cy="157.815" r="1.5"></circle><circle id="_x34_60203" fill="#070001" cx="403.942" cy="160.216" r="1.5"></circle><circle id="_x34_60205" fill="#070001" cx="404.526" cy="168.404" r="1.5"></circle><circle id="_x34_60202" fill="#070001" cx="415.279" cy="165.719" r="1.5"></circle><circle id="mapid-460200-circle" fill="#D71718" cx="407.526" cy="164.219" r="1.5"></circle><circle id="_x34_60206" fill="#070001" cx="409.604" cy="175.458" r="1.5"></circle></g><g id="同仁_1_"><circle id="_x34_60402" fill="#070001" cx="396.656" cy="173.625" r="1.5"></circle><circle id="_x34_60401" fill="#070001" cx="397.317" cy="185.795" r="1.5"></circle><circle id="_x34_60499" fill="#070001" cx="397.317" cy="186.93" r="1.5"></circle><circle id="_x34_60404" fill="#070001" cx="387.817" cy="209.877" r="1.5"></circle><circle id="mapid-460400-circle" fill="#D71718" cx="389.981" cy="201.604" r="1.5"></circle><circle id="_x34_60403" fill="#070001" cx="383.841" cy="201.604" r="1.5"></circle></g><g id="海南_1_"><circle id="_x34_60503" fill="#070001" cx="383.841" cy="170.292" r="1.5"></circle><circle id="_x34_60501" fill="#070001" cx="361.591" cy="165.404" r="1.5"></circle><circle id="_x34_60599" fill="#070001" cx="361.591" cy="162.498" r="1.5"></circle><circle id="mapid-460500-circle" fill="#D71718" cx="357.386" cy="175.458" r="1.5"></circle><circle id="_x34_60504" fill="#070001" cx="345.923" cy="186.216" r="1.5"></circle><circle id="_x34_60502" fill="#070001" cx="362.007" cy="196.383" r="1.5"></circle><circle id="_x34_60505" fill="#070001" cx="367.106" cy="185.43" r="1.5"></circle></g><g id="玛沁_1_"><circle id="_x34_60699" fill="#070001" cx="355.886" cy="221.377" r="1.5"></circle><circle id="_x34_60601" fill="#070001" cx="355.886" cy="222.877" r="1.5"></circle><circle id="_x34_60603" fill="#070001" cx="347.011" cy="237.256" r="1.5"></circle><circle id="mapid-460600-circle" fill="#D71718" cx="336.466" cy="225.042" r="1.5"></circle><circle id="_x34_60604" fill="#070001" cx="339.466" cy="245.206" r="1.5"></circle><circle id="_x34_60606" fill="#070001" cx="301.966" cy="207.338" r="1.5"></circle><circle id="_x34_60602" fill="#070001" cx="367.966" cy="269.456" r="1.5"></circle><circle id="_x34_60605" fill="#070001" cx="387.817" cy="253.456" r="1.5"></circle></g><g id="玉树_1_"><circle id="_x34_60706" fill="#070001" cx="242.341" cy="229.708" r="1.5"></circle><circle id="mapid-460700-circle" fill="#D71718" cx="210.53" cy="226.025" r="1.5"></circle><circle id="_x34_60704" fill="#070001" cx="237.008" cy="237.936" r="1.5"></circle><circle id="_x34_60703" fill="#070001" cx="274.091" cy="254.27" r="1.5"></circle><circle id="_x34_60701" fill="#070001" cx="271.091" cy="265.936" r="1.5"></circle><circle id="_x34_60799" fill="#070001" cx="270.289" cy="268.081" r="1.5"></circle><circle id="_x34_60702" fill="#070001" cx="229.008" cy="268.936" r="1.5"></circle><circle id="_x34_60705" fill="#070001" cx="257.591" cy="290.27" r="1.5"></circle></g></g><g id="图层_2_1_"><g id="mapid-460800-outline"><path id="geerm" fill="none" stroke="#C12E20" stroke-width="0.25" stroke-miterlimit="2.6131" d="M157.888,273.77 c-0.704-0.004-1.422-0.444-2.268-0.916c-1.655-0.922-1.472-1.104-3.401-0.735c-1.931,0.366-4.321,1.012-4.413-0.369 s0.828-2.396-0.184-3.226c-1.012-0.828-1.932-0.188-2.759,0.461c-0.827,0.646-2.39,1.197-3.217,0.461 c-0.828-0.735-2.85-3.592-3.953-3.686c-1.103-0.096-3.4,0.094-4.136-1.195c-0.735-1.291-2.021-3.313-3.218-4.053 c-1.195-0.736-1.378-1.197-1.47-2.117c-0.093-0.922-1.563-0.646-2.299-1.842c-0.734-1.197,0-2.486-1.286-2.947 c-1.287-0.461-2.942-1.016-3.125-0.188c-0.185,0.83,0.275,2.119-1.38,2.119c-1.653,0-2.572,0.092-3.309-0.461 c-0.735-0.557-1.195-0.559-1.747,0.555c-0.552,1.104-1.839,3.594-3.4,3.313c-1.563-0.274-5.976-2.672-6.803-3.225 c-0.828-0.553-2.39-1.842-4.045-2.211c-1.654-0.369-4.964-3.408-5.056-4.881c-0.092-1.477,0.185-5.154-1.011-5.438 c-1.195-0.273-3.125,0.735-4.229-1.476c-1.103-2.209,0.459-2.116-0.551-3.866c-1.011-1.75,0.185-3.5-1.655-3.961 c-1.838-0.459-3.125-1.658-4.137-3.867c-1.011-2.211-2.481-4.234-1.104-4.234s2.851-1.016,3.953-2.67 c1.104-1.658,1.287-1.104,1.379-2.119c0.093-1.014,1.563-1.195,0.828-2.209c-0.734-1.014-0.184-1.475-1.011-1.475 c-0.828,0,0.092-1.937,0.092-2.947c0-1.012,0.919-3.5-0.275-4.328c-1.195-0.828-2.666-1.75-1.287-3.039s4.412-2.578,3.585-4.053 c-0.306-0.543-0.522-1.035-0.74-1.44l0.229-0.429c0,0,1.373-1.016,2.318-0.403c0.945,0.608,2.431-1.69,4.188-0.405 c1.756,1.285,1.282,0.744,3.241,0.271s5.335-0.136,8.037,0.608c2.701,0.744,7.022,2.842,7.97,4.467 c0.945,1.623,2.363,2.232,2.972,1.42c0.607-0.813,0.812-1.557,3.31-1.284c2.499,0.271,12.773,4.831,16.224,6.155 c3.448,1.326,5.705,2.721,4.709,3.117c-0.995,0.396-1.194,1.262,0.198,2.059c1.394,0.795,3.781,2.65,5.903,3.186 c2.123,0.529,5.174,1.725,6.766,1.258c1.593-0.463,3.185-0.729,3.848,0.664c0.664,1.396,0.414,5.17,0.938,5.521 c0.524,0.352,1.224,1.313,1.354,2.273s0.043,1.75,1.966,1.621c1.922-0.131,1.966-0.701,3.014-0.701s2.578,0.045,1.048,0.613 c-1.528,0.565-2.141,1.139-2.971,1.139s-0.874,0.744-1.354,1.4c-0.48,0.653-0.917,0.875-0.567,2.229 c0.35,1.355-0.178,5.271,0.485,6.132c0.664,0.86,1.062,3.055,1.062,4.313c0,1.26,0.266,2.058-0.796,2.058 s-2.587-0.134-2.653,1.325c-0.065,1.459,0,1.925-0.929,2.588c-0.929,0.662-1.725,2.39-0.664,3.187 c1.063,0.798,1.791,0.798,1.791,2.32s-0.995,1.989-0.065,2.981c0.929,0.994,1.128,1.728,0.266,3.25 c-0.862,1.523-1.327,2.59-2.388,3.519c-1.062,0.935-1.832,4.09-1.435,5.353l-0.032,0.354L157.888,273.77z"></path><path id="haixi" fill="none" stroke="#C12E20" stroke-width="0.25" stroke-miterlimit="2.6131" d="M297.853,87.581 c0.186,0.544,0.813,2.813,2.271,2.723c1.453-0.092,3.442,0.815,7.259,4.082c3.813,3.267,6.263,2.357,7.526,2.721 c1.271,0.363,3.084,1.633,4.53,1.452c1.453-0.183,1.271,0.362,2.447,0.726c1.182,0.363,0.094,1.724-0.182,2.813 c-0.271,1.088,2.177,1.359,3.896,0.635c1.729-0.726,1.729-0.635,2.813-0.272c1.089,0.363,3.537,2.178,5.438,2.178 s3.724,1.904,3.354,2.992c-0.358,1.088-3.989,1.814-5.623,1.814c-1.635,0-1.995,0.726-2.899,2.177 c-0.904,1.451,1.449,1.179,2.99,1.179c1.543,0,1.813,0.092,3.084,1.361c1.271,1.271,1.678,3.673,1.875,5.272 c0.198,1.599-2.861,3.331-3.662,4.264c-0.801,0.933-1.271,2.332-1.135,4.396c0.135,2.065-0.937,5.862-0.937,6.661 c0,0.8,3.766,2.91,3.766,2.91l-0.727,0.146c-0.146,0.078-0.459-0.017-0.574,0.917c-0.115,0.933,2.152,1.282-1.746,0.699 c-3.896-0.583-1.92-1.633-3.553-1.106c-1.629,0.524-1.744,1.283-1.744,2.508s-0.646,2.799,0.353,3.907 c0.987,1.106,0.521,2.158,1.34,3.266c0.813,1.108,1.973,2.515,0.331,3.661c-1.643,1.147-2.377,3.195-1.887,4.342 s1.063,2.13-0.245,3.113c-1.31,0.983-5.484,3.604-5.402,4.751c0.08,1.146,0.488,2.458,0,2.786 c-0.49,0.328-1.562,1.393-0.164,2.211c1.396,0.819,3.438,0.492,3.521,2.294c0.082,1.802-0.733,6.799,0.492,8.028 c1.227,1.229,3.936,2.375,3.029,3.276c-0.9,0.902-0.572,1.968-0.572,1.968l-1.049-0.021c-0.834,0.065-1.229,0.51-1.9,0.51 c-1.477,0-2.129,0.656-2.781,2.13c-0.655,1.477-2.704,1.146-3.276,0.082c-0.568-1.063-1.313-0.654-1.722,0.164 c-0.409,0.819-2.702,0.573-3.936,2.54c-1.229,1.966-2.946,0.655-4.672,0.655c-1.721,0-3.108-0.492-4.016,0.736 c-0.896,1.229-0.734-0.082-3.937,2.623c-3.19,2.701-8.627,1.32-10.073,0.103c-1.445-1.222-1.445,0.075-2.743,0.989 c-1.3,0.916-3.054-0.305-4.041-0.305c-0.479,0-1.31-0.289-2.288-0.682l-1.104-0.746c-1.011-0.406-1.201-0.221-2.326-0.633 c-2.285-0.84-2.67-1.221-3.275-3.508c-0.606-2.288-1.447-0.838-2.52,0.609c-1.066,1.447-5.188,2.516-6.636,6.252 c-1.448,3.735-3.127,1.448-3.965-0.152c-0.84-1.602-3.354-0.838-5.108-2.059c-1.753-1.222-3.964,1.604-5.105,3.354 c-1.146,1.755-0.607,1.296-4.117,1.296c-3.509,0-3.925,3.516-6.088,0.531c-2.165-2.98-4.871-2.62-6.854-2.62 c-1.984,0-3.97-3.614-5.684-4.247c-1.716-0.635-3.066-1.447-6.495-0.995c-3.43,0.452-3.338-0.36-5.144-0.813 c-1.804-0.451-3.518-0.36-3.518-3.435c0-3.071-0.992-3.253-6.225-3.523c-5.231-0.271-8.974-1.818-10.739-2.813 s-5.626-0.11-7.942-0.553c-2.316-0.442-5.406-1.438-6.95-1.548c-1.545-0.11-4.083,0-5.406-1.438 c-1.324-1.437-7.611-0.995-9.818-1.437s-10.15-1.77-13.57-2.21c-3.42-0.442-6.179-3.206-10.04-3.537s-5.737-3.979-8.605-3.868 c-2.868,0.11-7.28-1.769-7.28-1.769l-0.248-0.483c-0.516-1.188-1.103-2.428-1.103-3.67c0-1.473-0.368-4.789-0.275-5.709 c0.092-0.92-0.644-3.131-1.379-3.131s-1.012,0.275-3.218-0.646s-2.85-0.92-3.033-2.118c-0.185-1.197-0.919-1.104,0.092-1.657 c1.011-0.554,1.011-0.554,0.551-1.383c-0.46-0.828-1.287-1.382-0.276-2.671c1.012-1.289,3.401-3.039,4.78-3.039 s3.31,0.461,4.137-0.552s1.104,0,1.747-1.197c0.645-1.196,1.104-1.565,2.206-0.828c1.104,0.736,2.207,0,2.207-1.014 c0-1.013,1.104-2.21-0.275-3.039c-1.38-0.829-1.563-2.118-1.563-3.314c0-1.197-0.827-0.646-1.195-1.842 c-0.367-1.197-1.104-1.475-1.011-2.854c0.092-1.381-0.551-1.658-1.011-1.842c-0.459-0.185-1.471,0.092-2.482-0.737 c-1.011-0.829-2.573-0.829-2.666-2.118c-0.092-1.289,0.185-1.657-0.645-2.025c-0.827-0.368-1.104-0.553-1.104-0.553 s-3.217-2.946-3.677-2.946s-2.85,0.368-3.953-1.105c-1.104-1.474-2.391-4.052-1.104-4.881c1.287-0.829,2.113-1.197,1.194-2.947 s-3.033-4.789-3.033-6.078c0-1.29,0.092-2.21-0.919-3.04c-1.012-0.828-3.311-5.063-0.736-5.341 c2.574-0.275,3.402,0.368,4.78-1.196c1.379-1.565,2.481-2.118,3.86-2.396c1.379-0.276,2.206-0.829,2.391-1.658 s0.552-0.921,2.39-0.46c1.838,0.46,3.584-0.184,4.964-0.275c1.379-0.093,5.883-1.014,6.895-1.014 c1.011,0,4.229-1.197,5.699-2.025c1.472-0.829,3.77-0.921,4.597-0.921s5.698-0.922,7.17-2.303 c1.471-1.382,3.859-0.185,5.516-1.197c1.655-1.014,2.666-1.014,3.677-1.197c1.012-0.186,4.688-3.226,7.998-3.226 c3.311,0,7.723-0.828,9.561-0.828s3.677-0.554,4.964-1.197c1.287-0.646,1.655-0.276,2.942-0.092 c1.286,0.185,1.746-0.185,2.481-1.105c0.735-0.921,0.185-1.842,1.93-0.829c1.747,1.014,3.953,0.186,7.17,0 c3.218-0.184,5.148,0.276,6.619-0.552c1.472-0.829,3.218,0,3.218,0s3.769,0.646,4.964,0.276c1.194-0.369,3.677,0.184,5.056,0.736 c1.379,0.552,6.619,3.499,8.643,3.868c2.021,0.369,6.157,0.461,7.997,1.382c1.84,0.92,4.138,2.21,5.146,3.96 s1.838,3.776,3.401,3.96c1.563,0.185,1.745,0.276,2.664,1.382c0.921,1.104,1.472,2.21,2.939,2.21 c1.474,0,1.287,0.184,1.747,1.564c0.46,1.38,0.186,2.763,1.287,2.21c1.104-0.553,1.287-0.921,1.838,0.185 c0.555,1.104,1.195,1.565,2.299,1.196c1.104-0.369,1.014-0.829,2.021,0.185c1.014,1.013,2.021,1.565,3.034,1.934 c1.013,0.369,0.921,0.092,1.191,1.566c0.274,1.473,0.555,1.75,2.394,2.118c1.84,0.368,1.563,0.828,3.125,1.565 s2.299,1.105,3.127,1.475c0.825,0.368,1.932,0.184,1.932-1.014s-0.369-2.395,0-3.96c0.365-1.564,0.551-1.933-0.369-2.67 c-0.918-0.737-0.729-2.026-0.092-2.486c0.646-0.461,1.012-0.185,0.92-1.104c-0.094-0.919,1.193-2.67,0.092-3.223 c-1.104-0.554-1.285-1.104-0.459-1.75s0.096-1.75,0-2.854c-0.092-1.104,0.188-2.21-0.271-3.315 c-0.459-1.104-0.273-2.117,1.19-2.946c1.476-0.829,3.859-0.368,5.605,0.369c1.746,0.736,5.059,3.5,6.063,4.329 c1.015,0.828,2.302,1.565,3.771,1.934c1.473,0.369,4.046,2.21,5.791,3.314c1.555,0.982,3,2.354,3.793,2.203L297.853,87.581 L297.853,87.581z"></path></g><path id="mapid-460200-outline" fill="none" stroke="#C12E20" stroke-width="0.25" stroke-miterlimit="2.6131" d="M409.606,188.43 c-1.979-0.068-0.752-1.851-1.849-3.492c-1.097-1.646-2.87-1.918-4.237-2.877c-1.362-0.959-2.806-0.343-3.481,0.206 c-0.688,0.548-1.438-0.411-1.778-1.37c-0.34-0.959,0-2.124,0-3.494s0.207-2.466,0.207-3.836s-0.685-0.959-1.979-1.096 c-1.301-0.138-0.549-0.479-0.957-1.233c-0.407-0.754-0.611-0.686-1.159-1.507c-0.552-0.822-0.409-0.686-1.438-0.686 c-1.021,0-1.179-0.445-1.179-0.445s-0.709-2.712-0.477-2.561c0.236,0.152,0.535,0.078,0.535,0.078l-0.196-0.935 c-0.416-0.219-1.166-0.348-1.976-0.348c-1.142,0-1.479,0.541-1.852-1.109c-0.299-1.336-0.806-2.337-1.104-2.791l0.604-0.164 c0,0,0.244-0.176,2.266-0.25c2.021-0.074,2.909-0.973,2.609-1.87c-0.299-0.898-0.818-2.095,0-2.843 c0.821-0.749,2.091-1.796,0.975-2.77c-1.119-0.972-1.938-1.945-2.166-2.394c-0.227-0.449-0.302-3.815-0.602-5.313 c-0.299-1.498-1.418-2.544,0.3-3.965c1.722-1.421,4.032-5.761,4.032-5.761l0.646,0.31l1.528,0.906l1.985,0.211 c0,0,1.276-0.114,1.754-0.153c0.474-0.039,1.239-0.05,1.888-0.143c0.646-0.093,1.314-0.512,2.39-1.233 c1.028-1.018,2.199-0.16,2.199-0.16l-0.115,0.29c-0.037,0.16,0.002,0.345,0.144,0.552c0.554,0.829-0.093,2.67-0.093,2.67 s0.186,0.921,0.73,1.198c0.553,0.274,4.601,3.772,5.521,4.788c0.918,1.014,1.011,1.75,0,1.843 c-1.02,0.092-2.396,0.644-2.303,2.118c0.096,1.474,0.92,1.934,2.207,1.934c1.283,0,1.191,1.197,1.563,2.026 c0.367,0.828,2.298,3.223,2.574,4.973c0.271,1.75,1.838,3.131,3.217,3.314c1.38,0.185,2.392,0.737,1.472,1.565 c-0.92,0.829-0.729,2.579-1.648,2.854c-0.92,0.275-1.563,1.013-0.559,1.842c1.02,0.829,1.385,1.382,1.385,2.946 c0,1.565,0.461,4.146-0.924,3.776c-1.379-0.37-3.396-0.829-3.678-0.092c-0.271,0.737-0.826,1.104-1.379,1.474 c-0.552,0.37-1.38,0.646-0.552,1.935c0.824,1.289,3.125,5.985,0.918,6.446c-2.205,0.46-3.491,0.094-4.045-0.367 c-0.556-0.461-1.285,1.289-1.285,1.289s-0.22,0.985-0.664,1.816L409.606,188.43z"></path><path id="mapid-460400-outline" fill="none" stroke="#C12E20" stroke-width="0.25" stroke-miterlimit="2.6131" d="M370.882,213.814c0,0,2.817,0.963,3.916-1.033c1.104-1.997,0.479-3.375,0.348-4.818c-0.139-1.443-0.412-1.998-1.721-2.547 c-1.308-0.551-2.195-0.346-2.195-1.723s-0.141-2.203-1.027-2.203c-0.896,0-4.604-1.445-4.676-2.754 c-0.065-1.307,1.721-1.445,3.16-1.996c1.438-0.551,2.606-2.271,1.231-2.891c-1.372-0.621-2.271-1.24-3.297-1.791 c-1.03-0.552-2.405-1.929-1.104-2.064c1.311-0.137,2.063,0.482,2.748-0.069c0.688-0.551,1.375,0,3.438,0.069 c2.063,0.068,3.095-0.344,5.086,0.412c1.99,0.758,6.459,1.996,7.42,1.584c0.964-0.413,0.964-1.033,0.066-1.997 c-0.896-0.964-1.854-2.616-0.142-2.616c1.718,0,2.816-0.207,3.438-0.551c0.617-0.344,1.813-1.695,1.92-2.613 c0.104-0.918,0.813-1.529,1.17-2.346c0.354-0.813,1.271-2.243,0.511-2.906c-0.762-0.663-1.982,0.255-2.086-1.173 c-0.104-1.428,0.457-4.231-0.052-4.793c-0.512-0.561-2.188-1.273-1.479-2.09c0.715-0.815,1.066-1.682,1.066-2.651 c0-0.969-0.478-1.599-0.478-2.054c0-0.456,2.523-0.712,3.063-0.199c0.25,0.237-0.021,0.961,0.104,0.846l0.193,0.883 c0,0,0.188,1.604,1.396,1.313c0.996-0.238,0.889-0.137,1.438,0.686c0.551,0.821,0.756,0.754,1.16,1.507 c0.41,0.753-0.342,1.096,0.957,1.231c1.305,0.138,1.981-0.272,1.981,1.097c0,1.37-0.207,2.466-0.207,3.836s-0.344,2.535,0,3.494 c0.345,0.958,1.097,1.918,1.775,1.37c0.688-0.549,2.116-1.165,3.482-0.206s3.146,1.232,4.239,2.877 c1.093,1.644-0.138,3.424,1.847,3.492c0,0-1.445,0.582-2.625-0.757c-0.718-0.815-2.077,0.21-1.882,1.007 c0.274,1.104,1.563,2.303,0.459,2.578c-1.104,0.275-1.012,0.922,0,1.383c1.016,0.459,3.313,2.115,2.207,3.313 c-1.104,1.197-1.286,1.475-1.379,2.303c-0.092,0.83-0.459,1.477-1.652,1.564c-1.19,0.092-2.666,1.014-3.313,1.936 s-1.746,2.396-2.481,2.117c-0.729-0.275-0.185,0.922-1.281,1.658c-1.104,0.736-1.193,0.922-0.923,2.303 c0.273,1.381,0.461,3.406-0.92,2.301c-1.38-1.104-1.38-2.209-1.563-1.381c-0.188,0.831,0.271,1.659-0.556,2.305 c-0.826,0.646-1.746,1.475-0.555,2.396c1.191,0.92,1.477,0.92,2.395-0.094c0.923-1.014,0.824-1.014,0.923,0.459 c0.092,1.477,0.551,2.305,2.108,2.486c1.563,0.188,2.666-0.646,3.396,0.827c0.734,1.476,0.463,2.396,1.84,3.134 c1.379,0.733,2.854,1.842,1.563,2.114c-1.285,0.277-2.396-0.092-2.479,1.017c-0.096,1.104,0,2.211-0.827,1.938 c-0.823-0.273-1.104,0.459-1.474,1.289c-0.365,0.828-2.394,2.396-2.394,3.039c0,0.646-1.745,0.273-2.021-0.369 c-0.271-0.646-1.104-0.271-1.104,0.369c0,0.646-0.272,3.223-2.299,1.654c-2.021-1.563-2.666-3.865-4.967-3.59 c-2.299,0.272-6.344-1.291-6.896-2.119c-0.556-0.828-1.655-0.922-3.221-0.922c-1.564,0-3.491-0.828-4.143-1.563 c-0.344-0.396-1.021-0.498-1.646-0.412l-0.57,0.168c0,0,0.493-3.409,0.438-4.346c-0.039-0.688-0.411-2.615-0.914-4.281 L370.882,213.814z"></path><path id="mapid-460600-outline" fill="none" stroke="#C12E20" stroke-width="0.25" stroke-miterlimit="2.6131" d="M370.88,214.146 c0.502,1.668,0.873,3.695,0.911,4.388c0.062,0.938-0.372,3.877-0.372,3.877l-0.693,0.896c-0.367,0.646-1.746,1.654-1.934,2.854 c-0.188,1.196-1.935,3.774-0.093,4.33c1.838,0.551,1.189,1.012,2.021,2.209c0.83,1.196,1.748,1.475,1.748,2.764 s0.826,2.673,1.563,2.765c0.731,0.096,1.283-0.92,2.299,0.096c1.015,1.014,2.666,0.461,2.854,1.934 c0.188,1.479-1.014,4.424,0.553,4.33c1.563-0.092,2.3-0.092,3.221,0.369c0.921,0.459,1.745,0.646,2.57-0.369 c0.826-1.014,1.379-1.475,2.666-1.381c1.285,0.092,1.746,0.271,2.021,1.75c0.271,1.479-0.188,4.328,1.476,4.604 c1.651,0.272,2.395-1.938,3.125-1.193c0.731,0.732,0.188,1.475-0.556,2.67c-0.731,1.193-2.664,1.936-2.569,3.686 c0.092,1.75,0.646,1.195,1.838,1.016c1.19-0.188,0.188,1.195-0.459,1.845c-0.646,0.646-1.287,1.937-0.828,3.039 c0.461,1.103,0.367,1.84-0.551,0.828c-0.92-1.017-3.127-3.775-4.142-3.313c-1.011,0.461-0.918,2.674-2.11,2.116 c-1.193-0.553-0.918-1.563-3.125-0.646c-2.205,0.92-3.313,1.476-2.761,2.396c0.556,0.922-0.188,0.922-0.461,2.119 c-0.271,1.194-0.459,2.577-0.271,3.592c0.188,1.017,0.096,1.017,1.192,1.563c1.103,0.552,1.841,1.843,1.841,4.515 c0,2.67-1.935,3.039-2.479,2.765c-0.557-0.275-1.195-1.017-2.481,0.366c-1.285,1.382-3.31,1.289-4.41,0.828 c-1.104-0.459-2.112-0.459-3.032-0.459c-0.921,0-2.3-0.92-1.38,0.274c0.921,1.193,0.459,1.476-0.555,1.289 c-1.013-0.188,0.735,1.015-0.185,1.654c-0.924,0.646-1.195,0.646-1.195,1.563s-1.471,2.116-2.297,2.672 c-0.828,0.553-1.655,0.646-1.84-0.272c-0.188-0.925-0.918-2.211-0.098-2.578c0.826-0.369,2.479-1.478,2.021-2.767 c-0.461-1.291-3.127-3.868-4.138-3.868c-1.017,0-2.94-1.013-3.493,0c-0.552,1.018-0.826,1.104-0.826,2.118 c0,1.017-0.094,1.938-1.379,1.104c-1.287-0.828-2.299-0.274-1.746-1.563c0.552-1.289,0.274-5.342-0.827-6.631 c-1.104-1.289-1.563-1.658-2.392-1.658c-0.829,0-1.654,0.369-1.746-0.646c-0.093-1.02-1.104-2.768-1.563-1.565 c-0.461,1.196-0.828,2.58-1.84,2.304c-1.014-0.273-1.842,0-1.652,0.926c0.188,0.92,1.189,0.92,1.015,2.481 c-0.188,1.563-0.732,3.5-1.652,2.578c-0.92-0.92-1.473-0.828-2.938-0.92c-1.475-0.095-1.654-1.197-2.666-1.75 c-1.016-0.556-1.936-0.276-3.125-0.646c-1.193-0.371-0.557-0.83-1.285-0.558c-0.733,0.274-1.938,0.274-2.207-0.828 c-0.271-1.104-0.646-3.866-1.938-4.329c-1.287-0.462-3.678-1.936-3.854-1.193c-0.188,0.731-0.271,0.646-1.104,0 c-0.825-0.646-3.219-1.75-3.855-2.396c-0.646-0.646-0.461-1.656-1.016-2.67c-0.555-1.016-0.827-2.117-0.92-3.406 c-0.094-1.291-0.553-1.656-0.553-2.578s-0.275-1.195-1.472-2.115c-1.194-0.92-1.104-1.938-1.287-2.946 c-0.188-1.015,0.646-1.287-0.274-2.211c-0.918-0.92-2.392-3.313-3.312-4.233c-0.92-0.921-2.395-2.117-3.492-1.656 c-1.104,0.461-2.853,1.289-2.853,0.461s0.187-2.578-1.563-2.672c-1.746-0.095-4.871-1.383-5.426-0.828 c-0.552,0.554-2.021,2.945-3.68,2.766c-1.652-0.188-1.652-0.094-1.652-0.646c0-0.27,0.104-1.055,0.155-1.854l-1.448-2.539 c0,0-0.642-2.898-0.834-5.207c-0.193-2.313-1.179-0.197-1.717-1.574c-0.539-1.375-1.521-0.588-1.963,0.346 c-0.439,0.938,0.021-1.521-1.813-3.354c-1.834-1.839-1.112-3.034-2.229-4.711c-1.115-1.679-2.07-0.88-3.271-0.563 c-1.194,0.32,0.078-2.635,0.238-3.674c0.157-1.039-2.631-0.479-4.386-0.561c-1.757-0.078-2.231-4.313-2.151-6.068 c0.08-1.757,2.229-2.479,3.906-2.875c1.674-0.398,2.148-3.914,2.148-5.111s0.719-1.197,1.52-2.156 c0.797-0.957,1.354-5.352,1.354-5.352l-0.028-0.117c0.979,0.396,1.81,0.684,2.286,0.684c0.988,0,2.744,1.221,4.043,0.305 c1.298-0.914,1.298-2.211,2.744-0.99c1.445,1.219,6.881,2.601,10.072-0.103c3.192-2.704,3.028-1.396,3.936-2.622 c0.898-1.229,2.295-0.736,4.019-0.736c1.723,0,3.438,1.311,4.67-0.656c1.229-1.965,3.521-1.721,3.936-2.539 c0.406-0.818,1.146-1.229,1.726-0.164c0.567,1.064,2.618,1.395,3.271-0.082c0.652-1.475,1.313-2.131,2.783-2.131 c0.668,0,1.656-0.555,2.49-0.62l0.459,0.131c0.744,0.188,1.285,0.981,1.063,3.604c-0.486,5.815-4.345,7.127-1.97,8.273 c2.38,1.146,3.521,2.865,5.244,5.813c1.722,2.949,2.946,3.853,4.914,4.26c1.967,0.41,4.424,1.642,7.455,2.541 c3.027,0.9,3.521,1.724,7.127,0.9c3.604-0.82,3.771-1.394,4.996-0.9c1.229,0.492,2.854,0.104,3.73,0.703 c0.881,0.605,2.69,2.808,4.017,3.082c1.319,0.273,2.257,1.596,3.737,0.715c1.479-0.879,2.093-2.526,2.854-0.771 c0.09,0.203,0.293,0.613,0.379,0.854L370.88,214.146z"></path><path id="mapid-460500-outline" fill="none" stroke="#C12E20" stroke-width="0.25" stroke-miterlimit="2.6131" d="M333.847,139.707c-0.104,0.055-0.603-0.042-2.217-0.283c-3.896-0.583-1.921-1.633-3.552-1.107 c-1.629,0.524-1.746,1.283-1.746,2.508c0,1.226-0.645,2.799,0.354,3.907c0.986,1.107,0.521,2.158,1.34,3.266 c0.813,1.108,1.973,2.515,0.33,3.661s-2.375,3.195-1.885,4.341c0.487,1.147,1.063,2.13-0.244,3.113 c-1.313,0.983-5.488,3.604-5.406,4.751c0.08,1.146,0.49,2.458,0,2.786c-0.488,0.328-1.561,1.393-0.162,2.211 c1.396,0.819,3.438,0.492,3.521,2.294c0.08,1.802-0.736,6.799,0.488,8.028c1.229,1.229,3.936,2.375,3.03,3.276 c-0.901,0.902-0.571,1.966-0.571,1.966l0.37,0.205c0.746,0.188,0.914,0.779,0.688,3.399c-0.486,5.816-4.342,7.127-1.967,8.275 c2.377,1.146,3.521,2.865,5.242,5.814c1.721,2.947,2.948,3.852,4.913,4.26c1.97,0.41,4.425,1.641,7.455,2.54 c3.029,0.899,3.521,1.724,7.127,0.899c3.604-0.817,3.771-1.394,4.998-0.899c1.229,0.492,2.854,0.101,3.732,0.705 c0.877,0.604,2.689,2.808,4.016,3.08c1.318,0.272,2.254,1.594,3.738,0.715c1.479-0.881,2.09-2.528,2.854-0.771 c0.092,0.203,0.18,0.428,0.268,0.664l0.313,0.5c0,0,2.815,0.963,3.918-1.033c1.102-1.996,0.479-3.373,0.346-4.817 c-0.139-1.444-0.412-1.998-1.721-2.547c-1.306-0.552-2.197-0.345-2.197-1.722s-0.14-2.203-1.023-2.203 c-0.896,0-4.604-1.446-4.678-2.754c-0.064-1.309,1.723-1.446,3.16-1.998c1.438-0.551,2.606-2.27,1.233-2.891 c-1.375-0.619-2.271-1.238-3.299-1.789c-1.03-0.553-2.403-1.93-1.104-2.065c1.309-0.138,2.063,0.481,2.746-0.069 c0.688-0.551,1.375,0,3.438,0.069c2.063,0.069,3.093-0.345,5.087,0.413c1.989,0.757,6.459,1.996,7.42,1.582 c0.963-0.412,0.963-1.032,0.067-1.996c-0.896-0.965-1.854-2.616-0.142-2.616c1.716,0,2.814-0.207,3.438-0.551 c0.617-0.345,1.813-1.695,1.922-2.613c0.104-0.918,0.813-1.529,1.17-2.346c0.354-0.813,1.271-2.243,0.508-2.906 c-0.762-0.663-1.979,0.255-2.086-1.173c-0.104-1.428,0.459-4.231-0.051-4.793c-0.512-0.561-2.188-1.273-1.479-2.09 c0.716-0.815,1.065-1.682,1.065-2.651c0-0.969-0.479-1.599-0.479-2.054c0-0.456,2.523-0.712,3.064-0.199 c0.25,0.237,0.45,0.23,0.58,0.114l-0.196-0.935c-0.418-0.219-1.168-0.348-1.977-0.348c-1.137,0-1.479,0.541-1.846-1.109 c-0.304-1.336-0.811-2.337-1.104-2.791l-0.25-0.264c-0.271-0.027-0.912,0.639-2.517-0.413c-1.774-1.162-5.146-1.774-5.392-0.979 c-0.244,0.795-0.608,2.388-1.841,1.408c-1.228-0.98-1.638-2.781-3.396-4.544c-1.766-1.764-3.632-4.357-4.148-6.121 c-0.52-1.765,0.896-1.646-0.354-2.27l-2.693,0.707c-4.287,0.541-9.219,0.334-13.541,0.004c-4.094-0.313-8.313-1.197-12.184-2.632 c-1.15-0.427-1.729-0.78-2.646-1.457c-1.088-0.798-2.133-2.286-3.635-2.082L333.847,139.707z"></path><path id="mapid-460100-outline" fill="none" stroke="#C12E20" stroke-width="0.25" stroke-miterlimit="2.6131" d="M368.606,147.021c0.043-1.432,2.521-0.168,3.526,0.378c1.009,0.547,2.104-0.252,2.438-0.883c0.336-0.631,1.26-0.969,2.101-0.589 c0.842,0.378,1.471,0.324,1.684-1.299c0.211-1.622,0.563-1.834,0.703-3.104c0.145-1.271-2.466-1.764-1.973-2.751 c0.491-0.987,0.491-1.411-0.916-2.045c-1.406-0.635-1.195-0.987-2.109-2.398c-0.916-1.411-1.619-1.411-3.313-1.834 c-1.688-0.423-2.319-2.257-1.688-3.456c0.64-1.199,2.396-2.045,3.521-1.48c1.127,0.563,0,1.27,6.479,1.692 c6.479,0.423,5,1.411,5.914,2.188c0.916,0.775,3.008,0.207,4.256,0.988c0.984,0.618,2.987,1.336,4.787,2.488l0.692,0.689 c0,0-2.313,4.34-4.028,5.761c-1.724,1.421-0.603,2.469-0.303,3.965c0.303,1.496,0.372,4.863,0.602,5.313 c0.227,0.448,1.045,1.422,2.166,2.394c1.119,0.974-0.146,2.021-0.978,2.77c-0.815,0.749-0.297,1.944,0,2.843 c0.304,0.897-0.596,1.795-2.608,1.87c-2.021,0.075-2.869,0.415-2.869,0.415l-0.25-0.264c-0.273-0.027-0.91,0.639-2.52-0.413 c-1.771-1.162-5.144-1.774-5.39-0.979c-0.244,0.795-0.61,2.388-1.836,1.408c-1.229-0.98-1.641-2.781-3.399-4.544 c-1.763-1.764-3.632-4.357-4.146-6.121c-0.521-1.765,0.896-1.646-0.354-2.27L368.606,147.021z"></path><path id="mapid-460300-outline" fill="none" stroke="#C12E20" stroke-width="0.25" stroke-miterlimit="2.6131" d="M372.616,147.561c0.597,0.312,1.729-0.615,1.957-1.044c0.336-0.631,1.261-0.969,2.101-0.589c0.843,0.378,1.472,0.324,1.685-1.299 c0.211-1.622,0.563-1.834,0.701-3.104c0.146-1.271-2.463-1.764-1.974-2.751c0.493-0.987,0.491-1.411-0.914-2.045 c-1.405-0.635-1.194-0.987-2.11-2.398c-0.914-1.411-1.619-1.411-3.312-1.834c-1.693-0.423-2.324-2.257-1.688-3.456 c0.636-1.199,2.396-2.045,3.521-1.48c1.128,0.563,0,1.27,6.479,1.692c6.479,0.423,4.998,1.411,5.914,2.188 c0.916,0.775,3.006,0.207,4.254,0.988c0.987,0.618,2.99,1.336,4.787,2.488l0.647,0.445c0.234,0.175,0.476,0.36,0.689,0.554 c2.023,1.771,3.85,0.938,5.979,0.938c2.135,0,2.854-0.938,3.896-1.563c1.039-0.625,1.869,0.052,1.869,0.052l2.387-0.485 c0.762-0.145,0.451-0.685-0.244-1.619c-0.826-1.104-3.033-2.118-4.871-2.487c-1.844-0.368-1.477-1.564-2.396-3.039 c-0.92-1.474-3.854-2.579-5.236-2.579c-1.381,0-2.021-0.735-1.475-1.657c0.553-0.921,1.016-0.921,1.104-2.579 c0.09-1.658-1.655-1.658-2.207-2.026c-0.554-0.368-0.273-0.921-0.273-2.21s-2.021,0.829-2.852,1.842 c-0.828,1.014-0.366,1.566-0.366,3.039c0,1.475,0.185,2.396-0.827,2.487c-1.014,0.092-1.746-1.474-2.115-2.487 c-0.363-1.013-0.918-1.657-2.205-1.657c-1.282,0-5.233-2.854-6.709-3.96c-1.474-1.104-2.021-1.474-3.489-1.474 c-1.476,0-2.854-3.039-3.858-3.591c-1.013-0.553-2.207-1.565-4.411-1.565c-2.203,0-1.744-0.645-5.059-2.303 c-3.313-1.658-2.205-2.487-2.479-3.408c-0.274-0.921-0.555-2.579-3.771-2.946c-3.224-0.368-3.398-2.304-3.953-2.304 c-0.554,0-1.478,1.014-1.652-0.092c-0.186-1.105-0.365-1.381-1.38-2.579c-1.013-1.198-2.3-0.276-2.479,0.553 c-0.188,0.829,0.921,2.026,1.654,2.764c0.731,0.736,1.012,3.039,1.012,4.052c0,1.013-2.392-1.198-4.229-2.396 c-1.838-1.196-5.06-2.578-7.354-3.407c-2.299-0.829-3.028-2.303-3.855-3.407c-0.825-1.104-0.731-2.119-1.839-2.119 c-1.106,0-2.304-2.486-2.938-3.684c-0.646-1.198-0.828-0.737-1.84-0.737c-1.014,0-1.38-1.474-3.031-2.21 c-1.653-0.736-1.935-1.197-1.935-2.396c0-1.196-0.272-0.921-1.287-0.828c-1.011,0.092-0.459-0.737-1.745-0.829 c-1.285-0.093-0.92-0.093-2.113-1.014c-1.188-0.921-0.825-0.921-2.021-1.474c-1.192-0.552-1.938,0-2.021,0.921 c-0.094,0.92-0.459,0.46-1.285,2.118c-0.825,1.658-2.479,1.013-3.952,1.013c-1.473,0-0.823-0.275-1.743-1.29 c-0.92-1.014-0.557-0.736-2.396-0.645c-1.838,0.092-0.826,1.381-0.73,2.118c0.075,0.622-2.598,3.013-3.813,4.132l-0.938,0.68 c0.186,0.544,0.813,2.813,2.271,2.722c1.449-0.091,3.443,0.816,7.258,4.082c3.813,3.268,6.262,2.357,7.525,2.722 c1.271,0.362,3.086,1.633,4.533,1.452c1.45-0.183,1.271,0.362,2.446,0.726c1.185,0.363,0.095,1.724-0.184,2.813 c-0.271,1.089,2.179,1.36,3.898,0.636c1.723-0.726,1.725-0.636,2.813-0.272c1.09,0.363,3.537,2.177,5.44,2.177 c1.902,0,3.722,1.905,3.354,2.993c-0.363,1.088-3.992,1.814-5.625,1.814c-1.637,0-1.994,0.726-2.898,2.177 c-0.905,1.451,1.447,1.179,2.99,1.179c1.541,0,1.813,0.092,3.084,1.361c1.271,1.27,1.678,3.673,1.873,5.272 c0.201,1.599-2.859,3.33-3.664,4.264c-0.799,0.933-1.268,2.332-1.131,4.396c0.134,2.064-0.938,5.862-0.938,6.661 c0,0.799,3.354,2.675,3.354,2.675l0.742,0.423c-0.873-0.292-1.518-0.06-1.635,0.875c-0.013,0.094,0.455,0.76,0.481,0.842 l0.229,2.727c1.504-0.204,2.551,1.283,3.639,2.082c0.92,0.677,1.49,1.03,2.646,1.457c3.866,1.435,8.093,2.319,12.185,2.632 c4.324,0.33,9.254,0.537,13.541-0.004l2.699-0.705l-0.146-0.597C368.646,147.157,367.937,145.115,372.616,147.561z"></path><path id="mapid-460700-outline" fill="none" stroke="#C12E20" stroke-width="0.25" stroke-miterlimit="2.6131" d="M280.728,194.07 c0,0-0.561,4.395-1.354,5.352c-0.797,0.959-1.518,0.959-1.518,2.156s-0.479,4.713-2.148,5.111 c-1.678,0.397-3.828,1.119-3.906,2.875c-0.079,1.758,0.398,5.992,2.152,6.07s4.543-0.479,4.383,0.561 c-0.157,1.039-1.438,3.994-0.237,3.677c1.194-0.317,2.151-1.119,3.271,0.562c1.112,1.676,0.396,2.875,2.229,4.709 c1.834,1.838,1.366,4.291,1.813,3.354c0.438-0.935,1.422-1.722,1.961-0.345c0.539,1.375,1.521-0.735,1.717,1.572 c0.194,2.31,1.162,5.101,1.162,5.101l-0.272,0.198c-0.334-0.012-0.513,0.082-0.601,0.527c-0.188,0.924-1.477,3.773-2.481,2.855 c-1.008-0.922-3.771-1.564-4.229,0.365c-0.461,1.938,0.092,1.846,0.459,2.764c0.367,0.922,0.729,1.479,0.188,3.131 c-0.555,1.658,1.287,2.854,1.746,2.396c0.459-0.459,1.379,0.272,0.824,1.196c-0.551,0.923-0.645,1.843,0.275,2.673 c0.92,0.827,1.012,1.563,2.299,1.563c1.286,0,4.139,1.656,2.393,2.117s-2.393,1.563-2.852,2.854 c-0.461,1.291-2.301,0.462-2.301,0.462s-2.111,1.75-1.285,3.225s2.205,3.865,0.271,3.961c-1.932,0.092-2.109,1.654-2.109,2.854 c0,1.193,0.646,5.342,1.283,5.896c0.646,0.553,0.732,0.461,1.746,1.383c1.016,0.92,1.563,2.209,2.939,3.039 c1.379,0.828,2.021,1.289,1.473,2.482c-0.553,1.196-2.021,1.104-2.938-0.271c-0.918-1.381-1.563-0.83-2.479-0.83 c-0.922,0-1.015,0.461-1.656,1.563c-0.643,1.104-0.821,2.396-0.185,2.854c0.646,0.461,1.195,0.558,0.093,1.289 c-1.104,0.735,0.188,1.563,0.188,1.563s1.014,1.195-0.271,0.734c-1.287-0.461-1.473-0.92-1.652,0.188 c-0.188,1.104-1.104,3.773-0.367,4.236c0.732,0.461,1.285,2.021,0.094,1.842c-1.192-0.186-1.014-0.459-1.192,0.556 c-0.187,1.016,0,0.92-1.652,1.288c-1.651,0.369-4.87-0.368-4.87,0.734c0,1.104-1.104,1.195-1.935,1.291 c-0.826,0.094-0.645-1.104-1.285-1.195c-0.646-0.094-2.112,0.271-2.021,0.923c0.093,0.646,1.38,1.194,1.192,2.577 c-0.187,1.384-0.552,2.765-1.104,2.854c-0.552,0.092-0.273,1.287,0.646,2.209c0.918,0.922,2.021,1.654,0.459,2.67 c-1.563,1.016-1.563,0.369-2.298-0.367c-0.733-0.733-2.3-1.104-3.771-1.381c-1.475-0.273-3.033-0.646-4.045-1.658 c-1.014-1.014-2.023-1.194-2.023-2.578c0-1.383-0.643-2.396-1.562-1.844c-0.919,0.557-1.839,2.211-2.666,2.396 c-0.825,0.188-0.825,1.016-0.093,1.844c0.733,0.826,2.112,1.195,2.021,2.396c-0.093,1.197,0.645,1.658-0.093,2.396 c-0.735,0.731-0.368,1.75,0.272,1.937c0.646,0.186,0.827,0.367,0.646,1.195c-0.186,0.827-1.653,1.288-2.114,0 c-0.459-1.289-1.93-5.806-3.771-4.884c-1.839,0.922-3.031,0.646-3.677,0.188c-0.645-0.463-1.473-0.736-1.932,0.094 c-0.46,0.828-1.379,0-1.931-0.83c-0.554-0.828-3.4-2.021-4.229-1.289c-0.827,0.736-1.653,2.209-2.479,1.197 c-0.827-1.016-2.394-2.67-2.394-3.688c0-1.016-2.666-2.481-1.653-3.5c1.013-1.014,1.933-2.764,1.841-4.231 c-0.095-1.478,0.272-1.289-1.014-1.846c-1.287-0.554-1.472-1.104-2.113-1.843c-0.646-0.735-1.194-0.461-2.573-0.735 c-1.378-0.273-3.678,0-4.229-1.015c-0.552-1.014-0.919-2.022-2.391-2.303c-1.471-0.274-1.653-0.187-1.653-1.384 c0-1.194,0-2.116-0.92-2.762c-0.919-0.646-2.39-0.83-2.479-2.024c-0.094-1.197-0.187-1.015-1.472-2.025 c-1.287-1.014-3.126-3.594-3.311-2.396c-0.186,1.195-0.368,1.842-1.839,1.842c-1.47,0-4.504-0.273-3.952,0.83 c0.551,1.104,0.185,2.023-0.46,1.842c-0.644-0.186,0-0.553-1.103,0.273c-1.104,0.83-1.563-0.092-2.391-0.367 c-0.827-0.273-0.827,0-1.194,0.922c-0.368,0.92-1.472,1.477-2.206,0.92c-0.736-0.553-1.287-0.646-2.115-0.273 c-0.827,0.369-1.195-1.289-2.206-1.014s-1.654,0.736-2.298-0.367c-0.646-1.104-1.655-1.477-2.852-1.563 c-1.194-0.098-3.217-0.098-3.86,0.459c-0.645,0.553-2.851,2.117-3.125,0.553c-0.275-1.563-0.827-2.021-1.655-1.652 c-0.827,0.365-1.379,0.922-2.482-0.098c-1.103-1.012-1.838-3.037-3.125-3.037c-1.286,0-3.492,0.557-4.137-0.645 c-0.644-1.203-0.551-2.025-1.93-1.566c-1.379,0.463-2.114,0.924-3.77,0c-1.654-0.92-2.85-1.287-4.32-0.826 c-0.7,0.221-1.048,0.531-1.703,0.535l0.074-0.199c-0.398-1.264,0.332-4.576,1.393-5.506c1.063-0.932,1.526-1.988,2.388-3.52 c0.862-1.521,0.663-2.256-0.266-3.25c-0.928-0.994,0.066-1.457,0.066-2.984c0-1.521-0.729-1.521-1.791-2.318 c-1.062-0.795-0.266-2.521,0.664-3.188c0.929-0.666,0.861-1.127,0.929-2.586c0.064-1.459,1.592-1.328,2.652-1.328 c1.062,0,0.797-0.795,0.797-2.055c0-1.266-0.398-3.449-1.063-4.314c-0.663-0.857-0.136-4.77-0.485-6.131 c-0.349-1.354,0.088-1.574,0.567-2.229c0.48-0.655,0.524-1.398,1.354-1.398c0.829,0,1.441-0.564,2.971-1.141 c1.529-0.566,0-0.611-1.048-0.611s-1.092,0.566-3.015,0.701c-1.922,0.131-1.835-0.658-1.966-1.621s-0.831-1.928-1.354-2.271 c-0.524-0.354-0.274-4.131-0.938-5.521c-0.663-1.396-2.255-1.129-3.847-0.664c-1.592,0.463-4.645-0.729-6.767-1.262 c-2.123-0.529-4.51-2.389-5.902-3.187c-1.395-0.797-1.194-1.657-0.199-2.058c0.995-0.396-1.26-1.791-4.709-3.116 c-3.449-1.328-13.724-5.886-16.223-6.155c-2.499-0.271-2.701,0.475-3.311,1.285c-0.606,0.813-2.025,0.202-2.972-1.421 c-0.946-1.624-5.269-3.722-7.969-4.466c-2.702-0.744-6.078-1.084-8.037-0.609c-1.959,0.477-1.486,1.018-3.242-0.271 c-1.756-1.285-3.242,1.016-4.188,0.406c-0.944-0.608-2.306,0.305-2.306,0.305l-0.739-0.195c-0.262-0.264-0.586-0.414-1.061-0.414 c-1.287,0-2.114-0.459-2.851,0.275c-0.735,0.736-1.471,0.186-1.838-1.012c-0.366-1.197,1.104-4.236,0.459-5.345 c-0.644-1.104-2.39-2.579-2.39-3.591c0-1.014,1.747-1.29,1.655-2.486c-0.092-1.197-1.563-3.132-0.092-3.039 c1.471,0.092,2.113-0.92,3.585-0.736c1.471,0.184,1.93-0.187,2.113-1.381c0.185-1.197-1.194-3.96-0.092-4.053 c1.104-0.092,1.471-0.921,1.471-2.025c0-1.105,0-2.579,0.735-3.407c0.735-0.829,1.471-2.947,0.276-2.947 c-1.195,0-4.321,0.737-5.332-0.275c-1.012-1.014-1.012-1.289-1.563-1.381c-0.552-0.093-1.747-0.737-1.563-2.304 c0.184-1.564,0.367-2.395,2.113-1.658c1.746,0.737,2.206-0.645,4.138-0.645c1.93,0,5.698,0.184,6.71-1.381 c1.011-1.565,2.113-1.289,2.298-2.487c0.184-1.197,0.092-2.854,1.287-1.381c1.194,1.473,2.758,2.396,4.688,2.671 c1.932,0.276,2.666,1.474,4.872,1.474s4.504,0,6.251,1.289c1.747,1.29,2.758,3.408,4.138,3.408c1.378,0,2.021,0.276,2.205-0.829 c0.185-1.104,0.552-2.025,2.022-1.473c1.079,0.405,2.059,0.216,2.287-0.459l-0.109-1.099c0,0,4.413,1.879,7.281,1.769 c2.869-0.111,4.744,3.537,8.605,3.868c3.86,0.331,6.619,3.095,10.039,3.537c3.421,0.441,11.363,1.768,13.57,2.21 c2.207,0.441,8.495,0,9.819,1.437c1.324,1.438,3.86,1.326,5.406,1.438c1.544,0.11,4.634,1.104,6.949,1.548 c2.317,0.442,6.179-0.442,7.943,0.553c1.766,0.995,5.507,2.542,10.739,2.813c5.23,0.271,6.224,0.452,6.224,3.523 c0,3.073,1.714,2.981,3.519,3.435c1.806,0.453,1.714,1.266,5.144,0.813c3.428-0.452,4.78,0.36,6.495,0.994 c1.714,0.633,3.696,4.248,5.683,4.248c1.987,0,4.69-0.36,6.854,2.621c2.165,2.983,2.581-0.531,6.09-0.531s2.974,0.457,4.117-1.297 c1.146-1.753,3.354-4.574,5.105-3.354c1.754,1.221,4.271,0.459,5.108,2.06c0.838,1.603,2.517,3.89,3.965,0.151 c1.447-3.736,5.564-4.805,6.634-6.252c1.067-1.447,1.905-2.897,2.521-0.609c0.606,2.287,0.989,2.669,3.274,3.509 c1.129,0.412,1.316,0.228,2.324,0.631C279.591,193.208,280.626,193.854,280.728,194.07z"></path><path id="mapid-460900-outline" fill="#070001" d="M375.649,132.458c0,0-0.188,2.967,1.5,4.046c0,0,2.955,2.454,4.513,2.204 c0,0,1.748-4.783,3.522-2.204c0,0,1.521-3.462-3.535-4.879L375.649,132.458z"></path></g></g></svg>