<?xml version="1.0" encoding="utf-8"?><!DOCTYPE svg PUBLIC "-//W3C//DTD SVG 1.1//EN" "http://www.w3.org/Graphics/SVG/1.1/DTD/svg11.dtd"><svg version="1.1" id="svgMap" xmlns="http://www.w3.org/2000/svg" xmlns:xlink="http://www.w3.org/1999/xlink" x="0px" y="0px" width="425px" height="426px" viewbox="-37.25 -11 425 426" enable-background="new -37.25 -11 425 426" xml:space="preserve"><g id="perspective"><g id="svgMapBj"><g id="_x34_20000"><path fill="none" stroke="#CC2B1F" stroke-width="0.25" stroke-miterlimit="10" d="M325.753,258.378 c-1.384-0.688-0.774-1.897-1.813-2.42c-1.039-0.521-2.162-3.108-3.112-4.668c-0.948-1.558-2.159-1.815-3.892-1.558 c-1.729,0.259-1.211,0.689-1.211,1.988c0,1.297-1.471,1.211-2.682,2.074c-1.212,0.865-1.729,0-1.9-1.297 c-0.174-1.297-2.938,0.086-4.063,0.689c-1.122,0.604-1.387-0.863-0.862-1.9c0.52-1.037-2.074-1.559-3.023-1.037 c-0.949,0.52-1.299,1.729-1.561,3.199c-0.258,1.469-4.668,0.258-6.051-0.604c-1.383-0.865-1.383-0.779-2.595-0.09 c-1.213,0.691-1.299,0.176-2.771-0.861c-1.472-1.039-2.854-1.815-0.087-2.508c2.771-0.691-1.297-4.672-1.211-5.619 c0.086-0.951,0.604-1.387-0.347-2.076c-0.95-0.69-2.509-0.346-3.198-1.646c-0.688-1.297-0.434-1.643-1.645-1.898 s-3.979,2.334-5.104,1.297c-1.125-1.036-1.558-0.69-2.771-0.95c-1.209-0.259-1.985,0-2.854-0.688 c-0.861-0.693-2.769,0.432-2.334,2.68c0.438,2.248,0.175,2.594-0.347,1.988c-0.521-0.606-2.075-0.779-3.198-1.211 c-1.125-0.433-1.384-1.558-1.384-2.939l-0.049-0.153l-0.008-0.321c-0.298-1.437-1.724-3.582-2.104-4.279 c-0.433-0.777-1.646-4.236-0.521-5.188c1.123-0.952,1.211-1.383,0.774-1.901c-0.434-0.52-0.52-3.543,0.689-4.929 c1.211-1.383,3.893-3.37,4.67-5.793c0.776-2.42-0.086-2.334-1.9-2.334c-1.813,0-1.559-1.21,0.262-1.47 c1.813-0.262,2.421-2.334,2.421-3.805c0-1.47,0.95-1.557,2.334-0.951c1.385,0.604,1.987-1.038,1.213-2.421 c-0.778-1.383-3.287-1.037-4.931-0.864c-1.646,0.173-1.813-0.519-1.813-1.989c0-1.47-1.037-2.248-1.901-2.507 c-0.861-0.26-1.297-0.951-1.297-2.248s0.086-1.989-0.433-2.68c-0.521-0.692-1.386-1.297-2.771,0.604 c-1.386,1.902-1.473-0.432-2.16-1.988c-0.69-1.556-1.56-1.643-2.248-1.729c-0.69-0.086-1.036-4.842-0.776-6.139 c0.261-1.297,0.863,0,1.813-0.521c0.949-0.519,1.646-3.804,1.472-5.101c-0.175-1.297,0.604-2.161,0.604-3.372 c0-1.21,0.95-3.717,1.901-4.236c0.949-0.519,0.949-4.496,0.949-5.879c0-1.383,0.174-2.421,1.211-3.112 c1.037-0.692,2.075-2.162,3.547-3.285c1.469-1.124,1.297-1.989,0.258-2.507c-1.036-0.519-2.334-4.496-3.284-5.879 c-0.951-1.383-1.898-1.21-3.457-1.124c-1.558,0.087-1.298-1.124-1.558-2.593c-0.26-1.47-1.125-1.816-1.901-1.816 c-0.773,0-0.175,0.519-1.644,2.507c-1.472,1.989-5.881,0.865-7.353,0.519c-1.473-0.346-3.371,2.507-3.371,4.236 s-2.073,1.556-4.931,1.815c-2.854,0.259-4.843-1.988-5.532-2.421c-0.688-0.432-0.172-4.236-0.434-5.792 c-0.26-1.556-1.383-1.643-1.9-3.112c-0.52-1.47,1.037-1.729,1.56-3.631c0.521-1.902,0.174-3.458-1.298-5.36 c-0.103-0.128-0.194-0.239-0.29-0.334l-0.519-0.322l-0.688-0.344c-0.668,0.135-1.238,1-1.707,1c-0.776,0-1.473-1.21-0.521-1.21 c0.951,0,0.348-1.038,0-1.729c-0.347-0.692,0.521-1.297,1.729-1.47c1.211-0.173,2.769-2.68,4.494-4.236 c1.729-1.556,4.321-5.447,4.41-7.436c0.086-1.988,0.772-1.037,2.594-0.346c1.813,0.691,0.862,2.767,1.813,2.853 c0.949,0.086,2.334-0.173,2.771,1.038c0.434,1.211,2.854,1.124,4.582,0.259c1.729-0.865,1.643-4.841,3.979-6.052 c2.334-1.21,4.493,2.42,6.916,3.891c2.42,1.469,5.104,0,6.229-0.778c1.123-0.778,1.729,0.951,3.021,0.519 c1.298-0.432,1.561,0.951,2.162,1.038c0.604,0.086,3.718-0.864,4.234-2.594c0.521-1.729,3.198-1.297,4.323-1.297 c1.123,0,3.457,0.433,4.319-0.519c0.864-0.951,0.261-3.891,0.261-5.188s1.037-2.68,2.336-3.804 c1.297-1.124-0.349-7.003-1.299-7.781c-0.949-0.778-1.471-0.865-1.471-2.248c0-1.383,0.863-1.729,1.471-2.68 c0.604-0.951-0.774-2.421-1.899-2.248c-1.123,0.173-2.16-0.173-2.16-1.556s-2.074-1.556-4.063-2.075 c-1.989-0.519-3.373,2.939-4.67,5.274c-1.298,2.334-7.003,4.236-9.512,4.928c-2.508,0.692-3.545,0.259-4.234-0.691 c-0.688-0.951-1.384-0.951-3.369-1.384c-1.989-0.432-2.51-1.815-3.461-3.199c-0.949-1.383-1.729-1.988-0.949-1.988 c0.775,0,2.072-0.951,3.634-2.507c1.555-1.556-0.521-2.594-1.213-2.939c-0.688-0.346-0.521-0.865,0.864-1.556 c1.384-0.692-2.248-4.063-3.371-4.063c-1.125,0-2.854-2.248-2.854-3.199s0.521-1.815-0.435-3.285 c-0.95-1.47,0.521-1.989,1.729-1.989c1.212,0,3.459-3.112,4.932-4.496c1.472-1.384-1.729-0.432-2.938,0.432 c-1.211,0.865-1.988,0.605-2.594-0.519c-0.604-1.124-1.99,0.692-3.113,0.519c-1.123-0.173-1.9,1.038-3.891,0.951 c-1.988-0.086-2.508,0.951-3.894,0.951c-1.385,0-2.77-0.173-3.545-1.383c-0.776-1.21-1.559,4.236-2.684,4.928 c-1.123,0.691,1.387,3.977,2.596,5.879c1.211,1.902-1.209,4.582-3.196,6.484c-1.988,1.902-2.595,1.297-3.287-0.346 c-0.688-1.643-6.052,5.274-7.691,6.571c-1.645,1.297,0.436,2.162,1.988,3.718c1.557,1.556,1.123,1.988,0.52,3.026 s0.262,1.729-0.434,3.458c-0.691,1.729-3.111,5.533-3.111,6.917c0,1.384-3.371,6.138-3.545,7.867s-1.729,1.816-3.11,3.026 c-1.386,1.21-1.987,0.346-2.854-0.951c-0.863-1.297-2.072,4.755-1.986,5.706s1.037,5.188,0.262,6.052 c-0.779,0.864-0.348,3.804-0.348,5.273c0,1.469,0.348,3.804,2.506,5.966c2.162,2.161,1.729,6.138,1.814,7.781 c0.088,1.643,0.482,3.067,1.471,4.237c0.244,0.289,0.252,0.358,0.252,0.358s-0.205-1.691-0.146-3.026 c-0.043,1.261,0.156,2.813,0.156,2.813l-0.058,1.494l-0.229,0.192c-0.386,0.464-0.966,0.905-1.525,1.281 c-1.299,0.864-0.777,2.421-0.777,3.804c0,1.383-4.063,1.21-5.104,1.296c-1.034,0.087-3.803,2.508-4.928,4.15 c-1.123,1.642-1.471,0.864-3.111,0.173c-1.643-0.692-0.688-1.383-0.088-3.113c0.604-1.729-0.604-1.902-1.897-1.729 c-1.297,0.173-3.024,1.383-4.407,1.815c-1.386,0.433-3.113,1.038-3.72,2.421c-0.312,0.705-1.383,1.366-2.521,1.947l-0.199,0.164 c0,0-2.066,0.895-2.641,1.262c-1.211,0.778-2.248,2.507-2.939,3.979c-0.688,1.47-2.596,0-4.146-0.692 c-1.558-0.691-1.988-1.47-3.806-0.259c-1.816,1.211-1.123-0.432-2.854-0.086c-1.729,0.346-0.775,0-1.814-2.939 c-1.036-2.939-4.32-1.816-5.532-1.816c-1.21,0-1.383-0.521-1.383-1.988s-0.436-1.729,1.729-1.815s-0.347-2.939-1.124-4.237 c-0.776-1.297-0.52-1.729-1.729-1.729c-0.737,0-1.86-1.06-2.921-1.887l-0.688-0.494v-0.007c-0.021-0.015-0.045-0.027-0.066-0.042 l-0.021-0.017l0.001,0.003c-0.389-0.245-0.75-0.409-1.06-0.409c-1.299,0-1.987-0.086-1.987-1.124c0-1.037,1.813-2.075,2.768-2.68 c0.951-0.605,1.385-0.778,0.778-2.248c-0.607-1.47,0.433-1.297,0.95-2.767c0.519-1.47-0.436-1.124-1.473-0.519 c-1.036,0.605-1.813,0.951-2.854,0c-1.037-0.951,0.346-1.988,0.433-3.285c0.086-1.297-0.949-2.334-2.334-2.853 c-1.384-0.519-1.899-0.433-2.594-2.162c-0.695-1.729-1.644-2.075-3.372-3.199c-1.729-1.124,0-3.718,0.173-5.706 c0.173-1.989-1.037-1.643-2.421-1.643c-1.383,0-1.383-0.173-1.644-1.557c-0.261-1.383-0.777-1.815-1.297-1.815 c-0.521,0-2.161-0.865-0.69-1.21c1.47-0.345,0.086-1.902-1.038-3.458c-1.124-1.556-1.813-2.68-2.768-3.286 c-0.949-0.605-0.69-1.556-0.69-3.285s-0.434-2.68-1.297-3.286c-0.864-0.605-1.21-1.988-2.161-3.285s-1.471-1.815-1.383-3.199 c0.087-1.384-0.174-1.297-1.124-2.075c-0.951-0.778-0.692-1.037-0.865-2.334c-0.173-1.296-3.11,1.557-4.233,2.853 c-1.124,1.297-2.77-0.691-3.286-2.075c-0.52-1.383-0.691-0.346-0.95,0.692c-0.26,1.037-1.21,1.47-1.815,3.544 c-0.538,1.845-2.101,2.05-2.745,1.283l-0.258-0.156l-0.213-1.233c-0.177-1.028-0.171-2.205,0.017-2.833 c0.261-0.865-2.507-0.865-3.024-1.124c-0.521-0.259-1.729-0.605-1.124-1.902c0.604-1.297-1.471-3.199-2.595-4.236 c-1.124-1.038-3.111-4.323-2.938-5.879c0.173-1.557,3.718-1.557,4.842-2.508s0.951-1.556,0.086-2.42 c-0.864-0.865-0.173-1.383,0.173-2.162c0.348-0.778-1.21-1.47-2.767-1.21c-1.556,0.26-0.692-0.173-0.52-1.729 c0.174-1.556-0.434-1.47-1.384-2.075c-0.95-0.604-1.383-1.21-2.074-3.545c-0.69-2.334-1.21-2.507-3.111-2.075 c-1.902,0.433-1.297-0.951-1.297-2.42c0-1.469-0.434-1.902-2.769-2.594c-2.334-0.692-1.383-1.124-1.21-3.718 c0.174-2.594-3.718-0.605-3.977,0.691c-0.26,1.296-0.521,2.334-1.297,2.767c-0.778,0.433-1.729,0.519-1.471,2.334 c0.259,1.816-3.805,4.236-5.533,5.101c-1.729,0.864-1.297,2.075-0.347,2.68c0.951,0.605,0.087,3.891,0.26,5.879 c0.174,1.989-0.604,2.594-0.604,4.842s-1.729-0.519-2.938-2.334s-1.814-2.334-3.458-3.891s-0.52-6.917-0.434-8.991 c0.087-2.075-1.383-4.755-2.161-6.313c-0.777-1.556-0.69-3.718-0.086-7.262c0.605-3.545,0.26-11.758,0.605-13.833 c0.346-2.075-2.422,1.21-4.409,1.383c-1.988,0.173-1.557,2.507-0.086,4.236c1.47,1.729-2.075,3.804-2.768,5.447 c-0.691,1.643,0.52,3.026,1.383,4.409c0.863,1.383-2.161,1.902-3.978,1.729c-1.814-0.173-1.297-4.236-1.901-7.003 c-0.604-2.767-3.978,0.432-3.978,0.432s-0.778,0.086-1.47,0.605c-0.692,0.519,0.432,5.879,0.777,7.694 C57.99,63.16,56.953,63.246,56,64.37c-0.951,1.124-0.52,3.112-0.086,3.89c0.432,0.778-0.173,1.989-0.26,2.854 c-0.086,0.864,0.69,1.729,1.901,2.594c1.211,0.864,1.211,2.248,2.075,4.323c0.864,2.075-1.556,3.372-1.729,5.101 c-0.028,0.292-0.116,0.543-0.251,0.758l-0.5,0.438c-0.712,0.962-1.993,0.759-3.313,0.273c-1.644-0.605-3.89,1.038-5.102,2.075 c-1.211,1.037-1.988-1.124-2.074-2.767s0.173-2.594-0.433-3.718c-0.604-1.124-2.075-1.556-2.162-3.199s-1.987,0-2.854,0.519 c-0.863,0.521-0.173,1.643,0.865,2.594s-1.038,2.939-1.989,3.026c-0.95,0.086-0.863,0.951-1.47,1.729 c-0.604,0.778-0.951,1.037-0.864,2.248s-0.95,2.68-1.038,4.15c-0.087,1.47,0.52,1.816,1.298,2.68 c0.777,0.865,1.21,2.248,0.69,3.286c-0.52,1.037,0.777,2.421,1.038,4.063c0.26,1.642,0.95,3.112,1.47,4.496 c0.52,1.383,1.297,3.545,2.075,5.274c0.777,1.729,1.383,1.556,2.938,0.605c1.557-0.951,1.21-2.075,1.124-3.891 c-0.086-1.815,1.383-0.778,1.987-0.173s1.297,0.778,1.902,0c0.604-0.778,1.47,0.605,1.729,1.643 c0.259,1.038,1.21,1.297,1.901,0.865s1.47-0.173,2.248,0.692c0.777,0.864-0.692,2.594-0.865,3.891s0.347,3.285,0.951,4.496 c0.604,1.21,0,1.383-0.086,2.767c-0.086,1.384-0.086,4.323-0.347,5.792c-0.26,1.47,0.777,3.458,1.557,4.236 c0.778,0.778,0.604,0.865-0.173,1.902c-0.778,1.037-0.087,2.161,0.086,2.594c0.173,0.432,0.69,0.778,0,1.729 c-0.692,0.951-0.865,1.988-0.174,3.112c0.69,1.124,0.26,1.21-0.173,2.334s0.26,2.248,0.52,4.236 c0.259,1.988,0.347,2.421-0.173,3.891c-0.52,1.47-1.124,5.188-1.124,6.396c0,1.21-2.248,3.804-2.595,4.842 c-0.346,1.038,1.471,2.075,1.901,3.718c0.434,1.643-0.432,2.161-1.21,3.544c-0.777,1.383-1.21-0.519-2.507-1.124 c-1.297-0.605-2.334,0.432-2.334,1.988c0,1.556,0.433,3.458,1.038,4.755c0.604,1.297,1.901,1.729,3.111,3.112 c0.808,0.922,0.77,1.499,0.32,2.113l0.064,0.227l-0.478,0.253c-0.155,0.163-0.329,0.334-0.515,0.519 c-1.124,1.124-2.595,0.778-3.718-0.346c-1.124-1.124-1.729-0.692-2.508-0.692c-0.777,0-1.383,0.778-1.556,1.988 c-0.174,1.21-0.778,2.594-1.557,3.979c-0.777,1.383-2.162,3.631-3.545,5.014c-1.384,1.383-2.595-0.086-3.632-1.124 c-1.036-1.037-1.556-0.691-2.593-1.21c-1.038-0.519-1.729,1.643-2.075,2.94c-0.346,1.297,0,2.507,0.433,3.285 c0.434,0.778,1.124,1.297,0.173,1.297c-0.798,0-1.476,1.767-2.284,3.101l-0.063,0.305c0.282,0,0.553,0.069,0.81,0.191 c-0.118-0.025-0.239-0.042-0.365-0.042h-0.519l-0.469,0.397c-1.01,1.203-2.16,1.884-2.991,2.964 c-0.864,1.124-0.864,1.297-2.075,2.162c-1.21,0.864-2.161-2.334-3.112-2.594c-0.951-0.259-3.111,5.187-3.717,6.052 c-0.604,0.863-0.951,1.383-0.951,3.111c0,1.729-0.173,1.815-0.173,3.115c0,1.297,1.037,2.938,1.729,3.891 c0.691,0.951-0.347,0.777-1.384,0.691c-1.037-0.09-1.987,0.862-3.111,0.862s-1.815,1.297-2.507,2.075 c-0.692,0.775-1.384,1.645-0.865,2.507c0.52,0.865,0.347,2.506-0.086,3.457s-0.52,2.076-0.52,3.808 c0,1.729-0.691,2.852-0.691,3.631c0,0.774,2.854-0.263,3.978-0.263s1.383,2.162,2.507,3.373c1.124,1.212-0.777,1.037-1.901,1.902 c-1.124,0.862,1.038,0.862,2.074,0.862c1.038,0,0.951,0.951,0.604,2.162c-0.346,1.209-0.26,1.644,0.174,2.506 c0.432,0.865-7.09,7.869-7.868,8.476c-0.777,0.604,0.691,2.683,1.814,3.457c1.124,0.776,2.162,0.435,3.372-0.086 s4.755-2.42,5.273-3.373c0.52-0.951,4.496-1.558,5.273-2.42c0.778-0.865,2.42-0.261,4.236-0.261c1.814,0,4.149-1.559,5.359-1.471 c1.21,0.086,3.025,0.086,4.582-0.262c1.556-0.348,4.408-0.689,5.879-1.209c1.471-0.521,2.778,1.135,3.545,1.645 c1.813,1.205,4.107-1.065,4.109-1.067c-0.001,0.055-0.001,0.086-0.001,0.086l0.625-0.24c1.168-0.239,4.021-0.164,5.123-0.418 c0.41-0.094,0.81-0.368,1.064-0.573c-0.203,0.188-0.346,0.342-0.377,0.418l0.452,0.729c0.021,0.088,0.043,0.187,0.069,0.291 c0.347,1.383-1.383,2.769-2.248,3.631c-0.863,0.864-4.668,2.42-5.619,2.681c-0.952,0.26-0.086,2.68,0.173,3.979 c0.26,1.297-0.259,2.506,0.26,3.37c0.52,0.863,1.471,0.521,2.768,0.521s1.384,2.768,1.729,3.805 c0.346,1.037,0.347,1.729,1.038,2.42c0.69,0.69,0.864,1.99-0.087,2.51c-0.951,0.518-1.383,0.689-1.644,1.729 c-0.26,1.035,0.173,1.557,1.297,1.644c1.124,0.088,1.124,1.557,1.729,2.854c0.604,1.297,0.433,1.729,0.173,2.682 c-0.26,0.951,0.605,1.472,1.384,2.509c0.777,1.037-1.384,1.469-1.297,3.198c0.086,1.729,1.297,0.086,1.814,0.773 c0.52,0.691,1.21,0.951,2.162,1.125c0.95,0.174,1.036,0.088,1.383,1.473c0.346,1.383,1.124,1.125,2.42,1.383 c1.297,0.261,2.162,0.435,4.149,0.435c1.989,0,3.199-0.174,3.719-0.604c0.52-0.434,2.074-0.26,2.854,0.435 c0.756,0.672,1.462,0.621,2.685,0.785h0.854l0.979,2.146c-0.063,0.125-0.127,0.244-0.195,0.354 c-0.52,0.864,0.086,1.299,0.604,2.334c0.52,1.039,1.038,1.039,0.433,2.422c-0.604,1.384-2.334-0.69-3.199-1.297 c-0.864-0.604-1.037,0.521-0.432,1.558c0.604,1.036,0,1.383-0.52,2.42s-3.199,3.024-4.323,4.235s-0.346,1.988,0.26,3.631 c0.604,1.646,1.383,1.816,0.777,4.671c-0.604,2.854-2.681,4.928-3.458,4.928s-0.69,1.211-0.69,2.684 c0,1.469-1.124,2.506-1.557,3.371c-0.434,0.861-2.248,2.77-2.768,3.891c-0.519,1.125,3.632,1.646,5.015,2.076 c1.384,0.434,3.199,0.258,4.149,0.172c0.951-0.086,1.729,0.176,2.768-0.861c1.038-1.039,1.038,0.689,1.901,1.037 c0.864,0.346,2.768,0.26,4.668,0.26c1.901,0,1.384,1.037,2.162,1.813c0.778,0.779,0.951,0,1.988-0.433 c1.038-0.434,1.643,0.173,2.421,1.037c0.777,0.863,1.297,1.211,2.594,1.211c1.298,0,0.174-1.125,0.086-2.075 c-0.086-0.951,0.951-0.261,1.988,0.433c0.194,0.133,0.315,0.229,0.315,0.229l0.141,0.17l0.217,0.646 c0.13,0.563,0.156,1.229,0.71,1.983c0.951,1.297-0.086,2.248-0.777,3.545s-0.52,5.447,0.52,6.226 c1.038,0.778,0.691,1.987,1.557,3.459c0.864,1.473,2.507,0.521,3.371-0.435c0.864-0.95,1.384-0.521,2.508,0 s-1.471,3.024-1.815,3.979c-0.347,0.951,0.691,3.895,1.124,3.633c0.432-0.262,1.297-0.086,2.161,0.52s0.604,1.385,1.729,0.521 c1.124-0.864,4.496-2.939,4.929-3.371c0.433-0.436,3.111,2.248,3.978,3.283c0.864,1.037,2.68,0.521,4.669,0.436 c1.987-0.088,3.544-1.902,4.928-2.939s3.199-3.805,4.323-4.756s3.111-1.557,4.063-1.557s3.285-1.814,5.188-2.248 c1.9-0.436,1.9-0.521,1.383,0.434c-0.519,0.949,0.778,2.162,1.385,3.808c0.604,1.646-0.347,2.157-0.174,3.633 c0.174,1.47,1.211,0.261,2.247,0.261c1.038,0,0,1.729-0.346,2.852c-0.348,1.125-1.297,2.076-1.814,3.373 c-0.519,1.299,2.16,2.334,2.683,3.457c0.52,1.125,0.347,1.211-0.175,2.076c-0.521,0.862,0.087,1.645,1.473,2.684 c1.383,1.033,1.898,0.258,3.195-0.09c1.299-0.346,2.337-1.211,4.409-1.297c2.074-0.086,2.684-0.435,3.807-0.949 c1.124-0.52,1.124,0.949,1.124,2.072c0,1.125,0.604,0.779,1.557,0.35c0.952-0.436,1.813,0.086,2.768,1.211 c0.954,1.123,1.814,0.773,2.335-0.35s1.124-0.689,2.682-1.471c1.558-0.777,0.435-0.949-0.521-1.988 c-0.951-1.037-0.347-1.209-2.161-1.383c-1.813-0.172-1.47-2.162-1.47-4.322c0-2.158,0.259-3.545,0.432-4.928 c0.176-1.386,2.162-1.988,3.285-2.938c1.125-0.951-2.247-3.545-2.938-5.104c-0.69-1.557,0.604-2.422,0.604-3.631 c0-1.211-1.985-3.027-2.681-4.668c-0.691-1.646-1.124-1.297-1.901-3.113c-0.775-1.813-0.604-1.729-1.558-2.854 c-0.952-1.123-0.604-1.73,0.521-2.684c1.124-0.947-1.123-2.594-1.471-3.803c-0.347-1.211,0.087-2.423,1.729-2.685 c1.091-0.172,1.381-1.065,1.451-2.187l-0.045-0.442l0.063-0.646c0.011-0.438,0-0.24,0-0.697c0-1.814,0.087-2.162,1.038-3.459 c0.95-1.299,2.938-1.299,3.891-0.863c0.95,0.434,1.646,3.109,2.421,4.408c0.776,1.299,3.112-0.435,3.807-1.471 c0.689-1.039,7.351,0.086,9.076,0.348c1.729,0.26,2.246-0.262,2.246-1.473s1.562-2.248,2.248-3.197 c0.054-0.066,0.104-0.135,0.154-0.191l0.398-0.557c0.012,0.021,0.021,0.047,0.033,0.068l0.1-0.021 c0.479-0.399,0.848-0.666,0.607-1.372c-0.346-1.039,0.436-1.125,0.436-2.335c0-1.211,0.775-1.646,1.986-1.646 c1.213,0,0.949-2.334,1.471-3.719c0.521-1.387,2.076,0.775,3.111,1.9c1.037,1.123,3.459,0.949,4.844,1.645 c1.383,0.689,3.545,1.383,4.929,2.334s3.37,2.42,3.632,3.807c0.26,1.385,2.854,3.111,5.016,3.545 c2.159,0.435,3.894-3.371,4.845-4.93c0.951-1.557,1.471-6.656,1.471-8.041c0-1.383,0.863-3.109,2.074-2.854 c1.211,0.258,2.16,2.766,2.42,4.32c0.262,1.559,1.037,2.938,2.596,3.979c1.558,1.04,2.162-2.682,2.422-3.805 c0.261-1.125,0.521-2.768,1.988-3.459c1.469-0.688,12.104,10.201,13.572,12.188c1.471,1.99,0.604-1.813,0.604-3.284 c0-1.47,0.172-1.644,0.521-2.853c0.348-1.211,1.471-2.94,1.645-5.188c0.142-1.795,2.979-2.377,4.773-2.67l1.311-0.322 l0.775,0.346c1.065-0.014,0.225,1.521,0.145,2.82c-0.088,1.384-0.088,1.473,2.597,1.729c2.681,0.261,1.985-0.862,3.545-1.729 c1.558-0.863,3.717-2.769,4.756-3.805c1.037-1.037,3.021-0.259,4.494,0.174c1.472,0.436,2.422-0.776,3.022-1.988 c0.604-1.209,1.56-1.643,3.896-2.072c2.334-0.436-0.437-2.248-1.125-2.938c-0.69-0.688-1.729-3.022-1.297-4.147 c0.433-1.123,3.022-1.813,4.405-1.813c1.388,0,4.496-2.334,4.933-3.199c0.433-0.861,1.123-1.986,2.16-1.211 c1.034,0.779,1.385,0.69,1.899-0.346c0.521-1.037,0.086-0.173,1.813-0.173c1.728,0,1.385-1.646,1.984-3.459 c0.604-1.815,3.46-0.172,4.322-0.086c0.864,0.086,1.385,0.951,2.422,1.558c1.037,0.607,1.297-0.521,1.561,0.172 c0.26,0.69,0.541,1.244,1.314,1.174c0.778-0.07,1.446,0.385,1.36-0.309c-0.086-0.691,0.086-1.729,1.037-1.729 c0.948,0,1.209-1.123,2.16-0.777c0.948,0.347,1.125-1.211,0.604-2.248c-0.521-1.036,0.347-1.471,2.073-1.901 c1.729-0.435,4.063-3.109,4.843-4.146c0.776-1.037,3.198,0.434,5.446,1.559c2.246,1.121,4.319-1.213,5.358-2.076 c1.033-0.862,0.604-1.471,0.173-2.248c-0.437-0.776-0.265-1.813,0.348-2.506c0.604-0.69,0.347-3.979-0.262-5.358 c-0.604-1.386,1.299-2.162,1.813-3.199C327.829,259.675,327.137,259.072,325.753,258.378z"></path></g></g><g id="图层_1"><g id="图层_1_1_"><g id="云南省"><path fill="none" stroke="#CC2B1F" stroke-width="0.25" stroke-miterlimit="10" d="M325.753,258.378 c-1.384-0.688-0.774-1.897-1.813-2.42c-1.039-0.521-2.162-3.108-3.112-4.668c-0.948-1.558-2.159-1.815-3.892-1.558 c-1.729,0.259-1.211,0.689-1.211,1.988c0,1.297-1.471,1.211-2.682,2.074c-1.212,0.865-1.729,0-1.9-1.297 c-0.174-1.297-2.938,0.086-4.063,0.689c-1.122,0.604-1.387-0.863-0.862-1.9c0.52-1.037-2.074-1.559-3.023-1.037 c-0.949,0.52-1.299,1.729-1.561,3.199c-0.258,1.469-4.668,0.258-6.051-0.604c-1.383-0.865-1.383-0.779-2.595-0.09 c-1.213,0.691-1.299,0.176-2.771-0.861c-1.472-1.039-2.854-1.815-0.087-2.508c2.771-0.691-1.297-4.672-1.211-5.619 c0.086-0.951,0.604-1.387-0.347-2.076c-0.95-0.69-2.509-0.346-3.198-1.646c-0.688-1.297-0.434-1.643-1.645-1.898 s-3.979,2.334-5.104,1.297c-1.125-1.036-1.558-0.69-2.771-0.95c-1.209-0.259-1.985,0-2.854-0.688 c-0.861-0.693-2.769,0.432-2.334,2.68c0.438,2.248,0.175,2.594-0.347,1.988c-0.521-0.606-2.075-0.779-3.198-1.211 c-1.125-0.433-1.384-1.558-1.384-2.939l-0.049-0.153l-0.008-0.321c-0.298-1.437-1.724-3.582-2.104-4.279 c-0.433-0.777-1.646-4.236-0.521-5.188c1.123-0.952,1.211-1.383,0.774-1.901c-0.434-0.52-0.52-3.543,0.689-4.929 c1.211-1.383,3.893-3.37,4.67-5.793c0.776-2.42-0.086-2.334-1.9-2.334c-1.813,0-1.559-1.21,0.262-1.47 c1.813-0.262,2.421-2.334,2.421-3.805c0-1.47,0.95-1.557,2.334-0.951c1.385,0.604,1.987-1.038,1.213-2.421 c-0.778-1.383-3.287-1.037-4.931-0.864c-1.646,0.173-1.813-0.519-1.813-1.989c0-1.47-1.037-2.248-1.901-2.507 c-0.861-0.26-1.297-0.951-1.297-2.248s0.086-1.989-0.433-2.68c-0.521-0.692-1.386-1.297-2.771,0.604 c-1.386,1.902-1.473-0.432-2.16-1.988c-0.69-1.556-1.56-1.643-2.248-1.729c-0.69-0.086-1.036-4.842-0.776-6.139 c0.261-1.297,0.863,0,1.813-0.521c0.949-0.519,1.646-3.804,1.472-5.101c-0.175-1.297,0.604-2.161,0.604-3.372 c0-1.21,0.95-3.717,1.901-4.236c0.949-0.519,0.949-4.496,0.949-5.879c0-1.383,0.174-2.421,1.211-3.112 c1.037-0.692,2.075-2.162,3.547-3.285c1.469-1.124,1.297-1.989,0.258-2.507c-1.036-0.519-2.334-4.496-3.284-5.879 c-0.951-1.383-1.898-1.21-3.457-1.124c-1.558,0.087-1.298-1.124-1.558-2.593c-0.26-1.47-1.125-1.816-1.901-1.816 c-0.773,0-0.175,0.519-1.644,2.507c-1.472,1.989-5.881,0.865-7.353,0.519c-1.473-0.346-3.371,2.507-3.371,4.236 s-2.073,1.556-4.931,1.815c-2.854,0.259-4.843-1.988-5.532-2.421c-0.688-0.432-0.172-4.236-0.434-5.792 c-0.26-1.556-1.383-1.643-1.9-3.112c-0.52-1.47,1.037-1.729,1.56-3.631c0.521-1.902,0.174-3.458-1.298-5.36 c-0.103-0.128-0.194-0.239-0.29-0.334l-0.519-0.322l-0.688-0.344c-0.668,0.135-1.238,1-1.707,1c-0.776,0-1.473-1.21-0.521-1.21 c0.951,0,0.348-1.038,0-1.729c-0.347-0.692,0.521-1.297,1.729-1.47c1.211-0.173,2.769-2.68,4.494-4.236 c1.729-1.556,4.321-5.447,4.41-7.436c0.086-1.988,0.772-1.037,2.594-0.346c1.813,0.691,0.862,2.767,1.813,2.853 c0.949,0.086,2.334-0.173,2.771,1.038c0.434,1.211,2.854,1.124,4.582,0.259c1.729-0.865,1.643-4.841,3.979-6.052 c2.334-1.21,4.493,2.42,6.916,3.891c2.42,1.469,5.104,0,6.229-0.778c1.123-0.778,1.729,0.951,3.021,0.519 c1.298-0.432,1.561,0.951,2.162,1.038c0.604,0.086,3.718-0.864,4.234-2.594c0.521-1.729,3.198-1.297,4.323-1.297 c1.123,0,3.457,0.433,4.319-0.519c0.864-0.951,0.261-3.891,0.261-5.188s1.037-2.68,2.336-3.804 c1.297-1.124-0.349-7.003-1.299-7.781c-0.949-0.778-1.471-0.865-1.471-2.248c0-1.383,0.863-1.729,1.471-2.68 c0.604-0.951-0.774-2.421-1.899-2.248c-1.123,0.173-2.16-0.173-2.16-1.556s-2.074-1.556-4.063-2.075 c-1.989-0.519-3.373,2.939-4.67,5.274c-1.298,2.334-7.003,4.236-9.512,4.928c-2.508,0.692-3.545,0.259-4.234-0.691 c-0.688-0.951-1.384-0.951-3.369-1.384c-1.989-0.432-2.51-1.815-3.461-3.199c-0.949-1.383-1.729-1.988-0.949-1.988 c0.775,0,2.072-0.951,3.634-2.507c1.555-1.556-0.521-2.594-1.213-2.939c-0.688-0.346-0.521-0.865,0.864-1.556 c1.384-0.692-2.248-4.063-3.371-4.063c-1.125,0-2.854-2.248-2.854-3.199s0.521-1.815-0.435-3.285 c-0.95-1.47,0.521-1.989,1.729-1.989c1.212,0,3.459-3.112,4.932-4.496c1.472-1.384-1.729-0.432-2.938,0.432 c-1.211,0.865-1.988,0.605-2.594-0.519c-0.604-1.124-1.99,0.692-3.113,0.519c-1.123-0.173-1.9,1.038-3.891,0.951 c-1.988-0.086-2.508,0.951-3.894,0.951c-1.385,0-2.77-0.173-3.545-1.383c-0.776-1.21-1.559,4.236-2.684,4.928 c-1.123,0.691,1.387,3.977,2.596,5.879c1.211,1.902-1.209,4.582-3.196,6.484c-1.988,1.902-2.595,1.297-3.287-0.346 c-0.688-1.643-6.052,5.274-7.691,6.571c-1.645,1.297,0.436,2.162,1.988,3.718c1.557,1.556,1.123,1.988,0.52,3.026 s0.262,1.729-0.434,3.458c-0.691,1.729-3.111,5.533-3.111,6.917c0,1.384-3.371,6.138-3.545,7.867s-1.729,1.816-3.11,3.026 c-1.386,1.21-1.987,0.346-2.854-0.951c-0.863-1.297-2.072,4.755-1.986,5.706s1.037,5.188,0.262,6.052 c-0.779,0.864-0.348,3.804-0.348,5.273c0,1.469,0.348,3.804,2.506,5.966c2.162,2.161,1.729,6.138,1.814,7.781 c0.088,1.643,0.482,3.067,1.471,4.237c0.244,0.289,0.252,0.358,0.252,0.358s-0.205-1.691-0.146-3.026 c-0.043,1.261,0.156,2.813,0.156,2.813l-0.058,1.494l-0.229,0.192c-0.386,0.464-0.966,0.905-1.525,1.281 c-1.299,0.864-0.777,2.421-0.777,3.804c0,1.383-4.063,1.21-5.104,1.296c-1.034,0.087-3.803,2.508-4.928,4.15 c-1.123,1.642-1.471,0.864-3.111,0.173c-1.643-0.692-0.688-1.383-0.088-3.113c0.604-1.729-0.604-1.902-1.897-1.729 c-1.297,0.173-3.024,1.383-4.407,1.815c-1.386,0.433-3.113,1.038-3.72,2.421c-0.312,0.705-1.383,1.366-2.521,1.947l-0.199,0.164 c0,0-2.066,0.895-2.641,1.262c-1.211,0.778-2.248,2.507-2.939,3.979c-0.688,1.47-2.596,0-4.146-0.692 c-1.558-0.691-1.988-1.47-3.806-0.259c-1.816,1.211-1.123-0.432-2.854-0.086c-1.729,0.346-0.775,0-1.814-2.939 c-1.036-2.939-4.32-1.816-5.532-1.816c-1.21,0-1.383-0.521-1.383-1.988s-0.436-1.729,1.729-1.815s-0.347-2.939-1.124-4.237 c-0.776-1.297-0.52-1.729-1.729-1.729c-0.737,0-1.86-1.06-2.921-1.887l-0.688-0.494v-0.007 c-0.021-0.015-0.045-0.027-0.066-0.042l-0.021-0.017l0.001,0.003c-0.389-0.245-0.75-0.409-1.06-0.409 c-1.299,0-1.987-0.086-1.987-1.124c0-1.037,1.813-2.075,2.768-2.68c0.951-0.605,1.385-0.778,0.778-2.248 c-0.607-1.47,0.433-1.297,0.95-2.767c0.519-1.47-0.436-1.124-1.473-0.519c-1.036,0.605-1.813,0.951-2.854,0 c-1.037-0.951,0.346-1.988,0.433-3.285c0.086-1.297-0.949-2.334-2.334-2.853c-1.384-0.519-1.899-0.433-2.594-2.162 c-0.695-1.729-1.644-2.075-3.372-3.199c-1.729-1.124,0-3.718,0.173-5.706c0.173-1.989-1.037-1.643-2.421-1.643 c-1.383,0-1.383-0.173-1.644-1.557c-0.261-1.383-0.777-1.815-1.297-1.815c-0.521,0-2.161-0.865-0.69-1.21 c1.47-0.345,0.086-1.902-1.038-3.458c-1.124-1.556-1.813-2.68-2.768-3.286c-0.949-0.605-0.69-1.556-0.69-3.285 s-0.434-2.68-1.297-3.286c-0.864-0.605-1.21-1.988-2.161-3.285s-1.471-1.815-1.383-3.199c0.087-1.384-0.174-1.297-1.124-2.075 c-0.951-0.778-0.692-1.037-0.865-2.334c-0.173-1.296-3.11,1.557-4.233,2.853c-1.124,1.297-2.77-0.691-3.286-2.075 c-0.52-1.383-0.691-0.346-0.95,0.692c-0.26,1.037-1.21,1.47-1.815,3.544c-0.538,1.845-2.101,2.05-2.745,1.283l-0.258-0.156 l-0.213-1.233c-0.177-1.028-0.171-2.205,0.017-2.833c0.261-0.865-2.507-0.865-3.024-1.124c-0.521-0.259-1.729-0.605-1.124-1.902 c0.604-1.297-1.471-3.199-2.595-4.236c-1.124-1.038-3.111-4.323-2.938-5.879c0.173-1.557,3.718-1.557,4.842-2.508 s0.951-1.556,0.086-2.42c-0.864-0.865-0.173-1.383,0.173-2.162c0.348-0.778-1.21-1.47-2.767-1.21 c-1.556,0.26-0.692-0.173-0.52-1.729c0.174-1.556-0.434-1.47-1.384-2.075c-0.95-0.604-1.383-1.21-2.074-3.545 c-0.69-2.334-1.21-2.507-3.111-2.075c-1.902,0.433-1.297-0.951-1.297-2.42c0-1.469-0.434-1.902-2.769-2.594 c-2.334-0.692-1.383-1.124-1.21-3.718c0.174-2.594-3.718-0.605-3.977,0.691c-0.26,1.296-0.521,2.334-1.297,2.767 c-0.778,0.433-1.729,0.519-1.471,2.334c0.259,1.816-3.805,4.236-5.533,5.101c-1.729,0.864-1.297,2.075-0.347,2.68 c0.951,0.605,0.087,3.891,0.26,5.879c0.174,1.989-0.604,2.594-0.604,4.842s-1.729-0.519-2.938-2.334s-1.814-2.334-3.458-3.891 s-0.52-6.917-0.434-8.991c0.087-2.075-1.383-4.755-2.161-6.313c-0.777-1.556-0.69-3.718-0.086-7.262 c0.605-3.545,0.26-11.758,0.605-13.833c0.346-2.075-2.422,1.21-4.409,1.383c-1.988,0.173-1.557,2.507-0.086,4.236 c1.47,1.729-2.075,3.804-2.768,5.447c-0.691,1.643,0.52,3.026,1.383,4.409c0.863,1.383-2.161,1.902-3.978,1.729 c-1.814-0.173-1.297-4.236-1.901-7.003c-0.604-2.767-3.978,0.432-3.978,0.432s-0.778,0.086-1.47,0.605 c-0.692,0.519,0.432,5.879,0.777,7.694C57.99,63.16,56.953,63.246,56,64.37c-0.951,1.124-0.52,3.112-0.086,3.89 c0.432,0.778-0.173,1.989-0.26,2.854c-0.086,0.864,0.69,1.729,1.901,2.594c1.211,0.864,1.211,2.248,2.075,4.323 c0.864,2.075-1.556,3.372-1.729,5.101c-0.028,0.292-0.116,0.543-0.251,0.758l-0.5,0.438c-0.712,0.962-1.993,0.759-3.313,0.273 c-1.644-0.605-3.89,1.038-5.102,2.075c-1.211,1.037-1.988-1.124-2.074-2.767s0.173-2.594-0.433-3.718 c-0.604-1.124-2.075-1.556-2.162-3.199s-1.987,0-2.854,0.519c-0.863,0.521-0.173,1.643,0.865,2.594s-1.038,2.939-1.989,3.026 c-0.95,0.086-0.863,0.951-1.47,1.729c-0.604,0.778-0.951,1.037-0.864,2.248s-0.95,2.68-1.038,4.15 c-0.087,1.47,0.52,1.816,1.298,2.68c0.777,0.865,1.21,2.248,0.69,3.286c-0.52,1.037,0.777,2.421,1.038,4.063 c0.26,1.642,0.95,3.112,1.47,4.496c0.52,1.383,1.297,3.545,2.075,5.274c0.777,1.729,1.383,1.556,2.938,0.605 c1.557-0.951,1.21-2.075,1.124-3.891c-0.086-1.815,1.383-0.778,1.987-0.173s1.297,0.778,1.902,0 c0.604-0.778,1.47,0.605,1.729,1.643c0.259,1.038,1.21,1.297,1.901,0.865s1.47-0.173,2.248,0.692 c0.777,0.864-0.692,2.594-0.865,3.891s0.347,3.285,0.951,4.496c0.604,1.21,0,1.383-0.086,2.767 c-0.086,1.384-0.086,4.323-0.347,5.792c-0.26,1.47,0.777,3.458,1.557,4.236c0.778,0.778,0.604,0.865-0.173,1.902 c-0.778,1.037-0.087,2.161,0.086,2.594c0.173,0.432,0.69,0.778,0,1.729c-0.692,0.951-0.865,1.988-0.174,3.112 c0.69,1.124,0.26,1.21-0.173,2.334s0.26,2.248,0.52,4.236c0.259,1.988,0.347,2.421-0.173,3.891 c-0.52,1.47-1.124,5.188-1.124,6.396c0,1.21-2.248,3.804-2.595,4.842c-0.346,1.038,1.471,2.075,1.901,3.718 c0.434,1.643-0.432,2.161-1.21,3.544c-0.777,1.383-1.21-0.519-2.507-1.124c-1.297-0.605-2.334,0.432-2.334,1.988 c0,1.556,0.433,3.458,1.038,4.755c0.604,1.297,1.901,1.729,3.111,3.112c0.808,0.922,0.77,1.499,0.32,2.113l0.064,0.227 l-0.478,0.253c-0.155,0.163-0.329,0.334-0.515,0.519c-1.124,1.124-2.595,0.778-3.718-0.346 c-1.124-1.124-1.729-0.692-2.508-0.692c-0.777,0-1.383,0.778-1.556,1.988c-0.174,1.21-0.778,2.594-1.557,3.979 c-0.777,1.383-2.162,3.631-3.545,5.014c-1.384,1.383-2.595-0.086-3.632-1.124c-1.036-1.037-1.556-0.691-2.593-1.21 c-1.038-0.519-1.729,1.643-2.075,2.94c-0.346,1.297,0,2.507,0.433,3.285c0.434,0.778,1.124,1.297,0.173,1.297 c-0.798,0-1.476,1.767-2.284,3.101l-0.063,0.305c0.282,0,0.553,0.069,0.81,0.191c-0.118-0.025-0.239-0.042-0.365-0.042h-0.519 l-0.469,0.397c-1.01,1.203-2.16,1.884-2.991,2.964c-0.864,1.124-0.864,1.297-2.075,2.162c-1.21,0.864-2.161-2.334-3.112-2.594 c-0.951-0.259-3.111,5.187-3.717,6.052c-0.604,0.863-0.951,1.383-0.951,3.111c0,1.729-0.173,1.815-0.173,3.115 c0,1.297,1.037,2.938,1.729,3.891c0.691,0.951-0.347,0.777-1.384,0.691c-1.037-0.09-1.987,0.862-3.111,0.862 s-1.815,1.297-2.507,2.075c-0.692,0.775-1.384,1.645-0.865,2.507c0.52,0.865,0.347,2.506-0.086,3.457s-0.52,2.076-0.52,3.808 c0,1.729-0.691,2.852-0.691,3.631c0,0.774,2.854-0.263,3.978-0.263s1.383,2.162,2.507,3.373 c1.124,1.212-0.777,1.037-1.901,1.902c-1.124,0.862,1.038,0.862,2.074,0.862c1.038,0,0.951,0.951,0.604,2.162 c-0.346,1.209-0.26,1.644,0.174,2.506c0.432,0.865-7.09,7.869-7.868,8.476c-0.777,0.604,0.691,2.683,1.814,3.457 c1.124,0.776,2.162,0.435,3.372-0.086s4.755-2.42,5.273-3.373c0.52-0.951,4.496-1.558,5.273-2.42 c0.778-0.865,2.42-0.261,4.236-0.261c1.814,0,4.149-1.559,5.359-1.471c1.21,0.086,3.025,0.086,4.582-0.262 c1.556-0.348,4.408-0.689,5.879-1.209c1.471-0.521,2.778,1.135,3.545,1.645c1.813,1.205,4.107-1.065,4.109-1.067 c-0.001,0.055-0.001,0.086-0.001,0.086l0.625-0.24c1.168-0.239,4.021-0.164,5.123-0.418c0.41-0.094,0.81-0.368,1.064-0.573 c-0.203,0.188-0.346,0.342-0.377,0.418l0.452,0.729c0.021,0.088,0.043,0.187,0.069,0.291c0.347,1.383-1.383,2.769-2.248,3.631 c-0.863,0.864-4.668,2.42-5.619,2.681c-0.952,0.26-0.086,2.68,0.173,3.979c0.26,1.297-0.259,2.506,0.26,3.37 c0.52,0.863,1.471,0.521,2.768,0.521s1.384,2.768,1.729,3.805c0.346,1.037,0.347,1.729,1.038,2.42 c0.69,0.69,0.864,1.99-0.087,2.51c-0.951,0.518-1.383,0.689-1.644,1.729c-0.26,1.035,0.173,1.557,1.297,1.644 c1.124,0.088,1.124,1.557,1.729,2.854c0.604,1.297,0.433,1.729,0.173,2.682c-0.26,0.951,0.605,1.472,1.384,2.509 c0.777,1.037-1.384,1.469-1.297,3.198c0.086,1.729,1.297,0.086,1.814,0.773c0.52,0.691,1.21,0.951,2.162,1.125 c0.95,0.174,1.036,0.088,1.383,1.473c0.346,1.383,1.124,1.125,2.42,1.383c1.297,0.261,2.162,0.435,4.149,0.435 c1.989,0,3.199-0.174,3.719-0.604c0.52-0.434,2.074-0.26,2.854,0.435c0.756,0.672,1.462,0.621,2.685,0.785h0.854l0.979,2.146 c-0.063,0.125-0.127,0.244-0.195,0.354c-0.52,0.864,0.086,1.299,0.604,2.334c0.52,1.039,1.038,1.039,0.433,2.422 c-0.604,1.384-2.334-0.69-3.199-1.297c-0.864-0.604-1.037,0.521-0.432,1.558c0.604,1.036,0,1.383-0.52,2.42 s-3.199,3.024-4.323,4.235s-0.346,1.988,0.26,3.631c0.604,1.646,1.383,1.816,0.777,4.671c-0.604,2.854-2.681,4.928-3.458,4.928 s-0.69,1.211-0.69,2.684c0,1.469-1.124,2.506-1.557,3.371c-0.434,0.861-2.248,2.77-2.768,3.891 c-0.519,1.125,3.632,1.646,5.015,2.076c1.384,0.434,3.199,0.258,4.149,0.172c0.951-0.086,1.729,0.176,2.768-0.861 c1.038-1.039,1.038,0.689,1.901,1.037c0.864,0.346,2.768,0.26,4.668,0.26c1.901,0,1.384,1.037,2.162,1.813 c0.778,0.779,0.951,0,1.988-0.433c1.038-0.434,1.643,0.173,2.421,1.037c0.777,0.863,1.297,1.211,2.594,1.211 c1.298,0,0.174-1.125,0.086-2.075c-0.086-0.951,0.951-0.261,1.988,0.433c0.194,0.133,0.315,0.229,0.315,0.229l0.141,0.17 l0.217,0.646c0.13,0.563,0.156,1.229,0.71,1.983c0.951,1.297-0.086,2.248-0.777,3.545s-0.52,5.447,0.52,6.226 c1.038,0.778,0.691,1.987,1.557,3.459c0.864,1.473,2.507,0.521,3.371-0.435c0.864-0.95,1.384-0.521,2.508,0 s-1.471,3.024-1.815,3.979c-0.347,0.951,0.691,3.895,1.124,3.633c0.432-0.262,1.297-0.086,2.161,0.52s0.604,1.385,1.729,0.521 c1.124-0.864,4.496-2.939,4.929-3.371c0.433-0.436,3.111,2.248,3.978,3.283c0.864,1.037,2.68,0.521,4.669,0.436 c1.987-0.088,3.544-1.902,4.928-2.939s3.199-3.805,4.323-4.756s3.111-1.557,4.063-1.557s3.285-1.814,5.188-2.248 c1.9-0.436,1.9-0.521,1.383,0.434c-0.519,0.949,0.778,2.162,1.385,3.808c0.604,1.646-0.347,2.157-0.174,3.633 c0.174,1.47,1.211,0.261,2.247,0.261c1.038,0,0,1.729-0.346,2.852c-0.348,1.125-1.297,2.076-1.814,3.373 c-0.519,1.299,2.16,2.334,2.683,3.457c0.52,1.125,0.347,1.211-0.175,2.076c-0.521,0.862,0.087,1.645,1.473,2.684 c1.383,1.033,1.898,0.258,3.195-0.09c1.299-0.346,2.337-1.211,4.409-1.297c2.074-0.086,2.684-0.435,3.807-0.949 c1.124-0.52,1.124,0.949,1.124,2.072c0,1.125,0.604,0.779,1.557,0.35c0.952-0.436,1.813,0.086,2.768,1.211 c0.954,1.123,1.814,0.773,2.335-0.35s1.124-0.689,2.682-1.471c1.558-0.777,0.435-0.949-0.521-1.988 c-0.951-1.037-0.347-1.209-2.161-1.383c-1.813-0.172-1.47-2.162-1.47-4.322c0-2.158,0.259-3.545,0.432-4.928 c0.176-1.386,2.162-1.988,3.285-2.938c1.125-0.951-2.247-3.545-2.938-5.104c-0.69-1.557,0.604-2.422,0.604-3.631 c0-1.211-1.985-3.027-2.681-4.668c-0.691-1.646-1.124-1.297-1.901-3.113c-0.775-1.813-0.604-1.729-1.558-2.854 c-0.952-1.123-0.604-1.73,0.521-2.684c1.124-0.947-1.123-2.594-1.471-3.803c-0.347-1.211,0.087-2.423,1.729-2.685 c1.091-0.172,1.381-1.065,1.451-2.187l-0.045-0.442l0.063-0.646c0.011-0.438,0-0.24,0-0.697c0-1.814,0.087-2.162,1.038-3.459 c0.95-1.299,2.938-1.299,3.891-0.863c0.95,0.434,1.646,3.109,2.421,4.408c0.776,1.299,3.112-0.435,3.807-1.471 c0.689-1.039,7.351,0.086,9.076,0.348c1.729,0.26,2.246-0.262,2.246-1.473s1.562-2.248,2.248-3.197 c0.054-0.066,0.104-0.135,0.154-0.191l0.398-0.557c0.012,0.021,0.021,0.047,0.033,0.068l0.1-0.021 c0.479-0.399,0.848-0.666,0.607-1.372c-0.346-1.039,0.436-1.125,0.436-2.335c0-1.211,0.775-1.646,1.986-1.646 c1.213,0,0.949-2.334,1.471-3.719c0.521-1.387,2.076,0.775,3.111,1.9c1.037,1.123,3.459,0.949,4.844,1.645 c1.383,0.689,3.545,1.383,4.929,2.334s3.37,2.42,3.632,3.807c0.26,1.385,2.854,3.111,5.016,3.545 c2.159,0.435,3.894-3.371,4.845-4.93c0.951-1.557,1.471-6.656,1.471-8.041c0-1.383,0.863-3.109,2.074-2.854 c1.211,0.258,2.16,2.766,2.42,4.32c0.262,1.559,1.037,2.938,2.596,3.979c1.558,1.04,2.162-2.682,2.422-3.805 c0.261-1.125,0.521-2.768,1.988-3.459c1.469-0.688,12.104,10.201,13.572,12.188c1.471,1.99,0.604-1.813,0.604-3.284 c0-1.47,0.172-1.644,0.521-2.853c0.348-1.211,1.471-2.94,1.645-5.188c0.142-1.795,2.979-2.377,4.773-2.67l1.311-0.322 l0.775,0.346c1.065-0.014,0.225,1.521,0.145,2.82c-0.088,1.384-0.088,1.473,2.597,1.729c2.681,0.261,1.985-0.862,3.545-1.729 c1.558-0.863,3.717-2.769,4.756-3.805c1.037-1.037,3.021-0.259,4.494,0.174c1.472,0.436,2.422-0.776,3.022-1.988 c0.604-1.209,1.56-1.643,3.896-2.072c2.334-0.436-0.437-2.248-1.125-2.938c-0.69-0.688-1.729-3.022-1.297-4.147 c0.433-1.123,3.022-1.813,4.405-1.813c1.388,0,4.496-2.334,4.933-3.199c0.433-0.861,1.123-1.986,2.16-1.211 c1.034,0.779,1.385,0.69,1.899-0.346c0.521-1.037,0.086-0.173,1.813-0.173c1.728,0,1.385-1.646,1.984-3.459 c0.604-1.815,3.46-0.172,4.322-0.086c0.864,0.086,1.385,0.951,2.422,1.558c1.037,0.607,1.297-0.521,1.561,0.172 c0.26,0.69,0.541,1.244,1.314,1.174c0.778-0.07,1.446,0.385,1.36-0.309c-0.086-0.691,0.086-1.729,1.037-1.729 c0.948,0,1.209-1.123,2.16-0.777c0.948,0.347,1.125-1.211,0.604-2.248c-0.521-1.036,0.347-1.471,2.073-1.901 c1.729-0.435,4.063-3.109,4.843-4.146c0.776-1.037,3.198,0.434,5.446,1.559c2.246,1.121,4.319-1.213,5.358-2.076 c1.033-0.862,0.604-1.471,0.173-2.248c-0.437-0.776-0.265-1.813,0.348-2.506c0.604-0.69,0.347-3.979-0.262-5.358 c-0.604-1.386,1.299-2.162,1.813-3.199C327.829,259.675,327.137,259.072,325.753,258.378z"></path></g><g id="分市区"><path id="mapid-422300-outline" fill="none" stroke="#CC2B1F" stroke-width="0.25" stroke-miterlimit="2.6131" d="M84.805,135.873c-0.535-0.412-1.201-0.685-1.753-0.73c-0.897-0.075-1.347,0.149-1.047,1.272s0.522,1.272-0.898,0.973 c-1.421-0.299-2.095-2.694-2.469-4.564c-0.374-1.871-1.271-0.449-1.946,0.973c-0.674,1.422-3.44,1.422-5.014,0.524 c-1.573-0.898-1.572-0.374-3.592,0.374c-2.021,0.749-1.721-0.599-1.796-2.021c-0.075-1.422,0.522-3.218,0.225-4.565 c-0.3-1.347,0.449-2.17,1.047-5.388c0.601-3.218-1.271-2.545-2.021-3.443c-0.75-0.898-1.348-2.469-1.048-3.592 c0.299-1.123-0.226-4.939-0.374-7.409c-0.149-2.47-0.449-2.32-1.571-3.742c-1.122-1.422,0.374-2.245,0.374-3.816 c0-1.572-0.374-2.17-1.048-2.769c-0.673-0.599-0.524-1.347-0.449-2.694c0.075-1.347-0.897-3.667-1.721-4.714 c-0.824-1.047,0.074-3.218,0.448-4.116c0.375-0.898-0.822-0.599-1.722-0.524c-0.896,0.075-1.271-1.572-1.271-1.572 c-0.713,0.962-1.994,0.759-3.313,0.273c-1.643-0.605-3.89,1.038-5.101,2.075c-1.211,1.037-1.989-1.124-2.075-2.767 s0.173-2.594-0.433-3.718c-0.604-1.124-2.074-1.556-2.161-3.199s-1.988,0-2.854,0.519c-0.863,0.521-0.173,1.643,0.865,2.594 s-1.038,2.939-1.989,3.026c-0.951,0.086-0.863,0.951-1.47,1.729c-0.605,0.778-0.951,1.037-0.864,2.248s-0.951,2.68-1.038,4.15 c-0.087,1.47,0.521,1.816,1.297,2.68c0.778,0.865,1.211,2.248,0.691,3.286c-0.52,1.037,0.778,2.421,1.038,4.063 s0.951,3.112,1.47,4.496c0.521,1.383,1.297,3.545,2.075,5.274s1.383,1.556,2.938,0.605c1.557-0.951,1.21-2.075,1.124-3.891 c-0.086-1.815,1.384-0.778,1.987-0.173c0.605,0.605,1.297,0.778,1.902,0c0.604-0.778,1.47,0.605,1.729,1.643 c0.26,1.038,1.21,1.297,1.902,0.865c0.692-0.432,1.47-0.173,2.248,0.692c0.778,0.864-0.692,2.594-0.865,3.891 s0.347,3.285,0.951,4.496c0.604,1.21,0,1.383-0.086,2.767c-0.086,1.384-0.086,4.323-0.346,5.792 c-0.262,1.47,0.776,3.458,1.556,4.236c0.779,0.778,0.604,0.865-0.173,1.902c-0.778,1.037-0.086,2.161,0.086,2.594 c0.173,0.432,0.69,0.778,0,1.729c-0.692,0.951-0.865,1.988-0.173,3.112c0.689,1.124,0.259,1.21-0.174,2.334 s0.261,2.248,0.52,4.236c0.259,1.988,0.346,2.421-0.173,3.891c-0.52,1.47-1.124,5.188-1.124,6.397 c0,1.21-2.248,3.804-2.594,4.842c-0.348,1.038,1.47,2.075,1.9,3.718c0.435,1.643-0.432,2.161-1.21,3.544 c-0.776,1.383-1.21-0.52-2.507-1.124s-2.334,0.432-2.334,1.988s0.433,3.458,1.038,4.755c0.604,1.297,1.902,1.729,3.112,3.112 c0.807,0.922,0.769,1.499,0.318,2.113l0.065,0.227c0.949,0.339,1.626,9.214,1.626,10.433c0,1.22,2.914,1.152,3.93,0.542 c0.853-0.511,1.229-2.068,1.446-3.595l0.052-0.382c0.021-0.167,0.042-0.332,0.062-0.494c0.202-1.762-1.221-3.32-0.948-4.133 c0.271-0.813,4.063,2.1,5.486,1.626c1.424-0.474-1.084-2.168-2.031-2.507c-0.949-0.338-0.476-0.813,0.608-2.168 s-0.339-2.303,0.271-3.387c0.609-1.084,1.084-3.523,0.813-5.013c-0.271-1.491-0.066-1.491,0.948-2.981 c1.017-1.491,2.236-0.61,3.728,0.271c1.489,0.88,1.489,0.203,1.896-1.22c0.406-1.422,2.168-2.574,3.455-3.319 c1.287-0.746,1.559-1.288,1.626-2.71c0.068-1.423,2.574-1.016,4.269-1.626c1.693-0.61,2.574-2.033,3.252-3.726 c0.679-1.694-0.136-2.778-0.271-4.607s1.559-2.168,2.913-2.507s2.371-2.236,2.371-2.236l-0.811-0.901 c-1.168-1.691-1.485-4.219-1.549-5.21c-0.074-1.197-0.674-1.721-0.299-2.544c0.374-0.823-0.149-1.497-0.523-1.422 c-0.374,0.075-1.196,0.15-1.646-0.748c-0.12-0.239-0.292-0.462-0.499-0.663L84.805,135.873z"></path><path id="mapid-422200-outline" fill="none" stroke="#CC2B1F" stroke-width="0.25" stroke-miterlimit="2.6131" d="M48.92,251.98 c-0.767-0.508-2.075-2.162-3.545-1.646c-1.471,0.521-4.323,0.862-5.879,1.209c-1.558,0.349-3.372,0.349-4.582,0.263 s-3.545,1.469-5.36,1.469s-3.458-0.604-4.236,0.262c-0.776,0.863-4.755,1.469-5.272,2.42c-0.521,0.951-4.063,2.854-5.274,3.373 c-1.21,0.521-2.248,0.863-3.372,0.086c-1.124-0.775-2.593-2.854-1.813-3.457c0.777-0.604,8.3-7.605,7.868-8.473 c-0.435-0.865-0.521-1.297-0.174-2.508c0.347-1.209,0.433-2.162-0.604-2.162s-3.199,0-2.075-0.863 c1.124-0.865,3.026-0.693,1.902-1.902c-1.124-1.211-1.383-3.373-2.507-3.373s-3.979,1.037-3.979,0.262 c0-0.776,0.692-1.899,0.692-3.631c0-1.729,0.086-2.854,0.519-3.806c0.435-0.95,0.605-2.593,0.086-3.457 c-0.519-0.864,0.174-1.729,0.865-2.507s1.383-2.075,2.507-2.075s2.075-0.95,3.112-0.864s2.075,0.26,1.383-0.69 c-0.689-0.95-1.729-2.595-1.729-3.892s0.173-1.384,0.173-3.115c0-1.729,0.346-2.248,0.951-3.109 c0.604-0.865,2.767-6.311,3.717-6.052c0.951,0.259,1.9,3.458,3.112,2.594c1.211-0.865,1.211-1.038,2.074-2.162 c0.831-1.081,1.982-1.761,2.991-2.964l0.469-0.397h0.518c2.234,0,3.214,4.119,3.417,5.338c0.203,1.219,1.491,2.915,2.642,4.268 c1.152,1.354-0.813,2.979-1.354,4.336c-0.542,1.355,3.318,2.71,6.165,3.59c2.846,0.883,3.388,1.223,4.605,1.288 c1.22,0.065,0.203,1.019,1.287,2.167c1.084,1.152-1.693,1.02-3.116,0.746s-1.558,4.674-1.488,5.826 c0.065,1.15,1.219,4.063,1.827,4.877c0.61,0.813,3.455-0.271,4.607-0.813c1.151-0.541,2.371,1.559,3.184,2.508 c0.813,0.947,1.56,1.422,0.813,2.438c-0.745,1.02-0.339,3.729-0.61,5.217c-0.271,1.49-0.402,8.314-0.402,8.314 S50.734,253.188,48.92,251.98z"></path><path id="mapid-422000-outline" fill="none" stroke="#CC2B1F" stroke-width="0.25" stroke-miterlimit="2.6131" d="M98.009,337.578c0.13,0.563,0.156,1.229,0.71,1.982c0.951,1.297-0.086,2.248-0.778,3.545c-0.69,1.297-0.519,5.444,0.521,6.227 c1.038,0.777,0.69,1.988,1.556,3.459c0.865,1.469,2.507,0.52,3.372-0.434c0.864-0.951,1.383-0.521,2.507,0 c1.124,0.52-1.47,3.022-1.814,3.979c-0.348,0.953,0.69,3.891,1.124,3.631c0.432-0.26,1.297-0.086,2.162,0.521 c0.862,0.604,0.604,1.385,1.729,0.52c1.124-0.861,4.496-2.938,4.928-3.371c0.434-0.434,3.112,2.248,3.979,3.285 s2.68,0.521,4.669,0.436c1.988-0.086,3.544-1.901,4.928-2.938c1.385-1.036,3.199-3.805,4.323-4.756s3.112-1.556,4.063-1.556 c0.949,0,3.283-1.815,5.188-2.248c1.901-0.438,1.901-0.521,1.383,0.433c-0.519,0.951,0.778,2.162,1.386,3.806 c0.604,1.645-0.348,2.16-0.175,3.633c0.175,1.471,1.21,0.26,2.247,0.26c1.038,0,0,1.729-0.346,2.854 c-0.348,1.125-1.297,2.076-1.815,3.373c-0.518,1.297,2.161,2.334,2.685,3.457c0.519,1.125,0.346,1.211-0.175,2.076 c-0.521,0.863,0.088,1.643,1.472,2.682c1.383,1.035,1.899,0.26,3.196-0.088c1.299-0.346,2.337-1.211,4.407-1.297 c2.075-0.086,2.685-0.434,3.809-0.951c1.124-0.516,1.124,0.951,1.124,2.074c0,1.125,0.604,0.779,1.556,0.348 c0.952-0.434,1.815,0.086,2.769,1.211c0.95,1.123,1.813,0.775,2.335-0.348c0.521-1.123,1.124-0.689,2.681-1.471 c1.557-0.777,0.434-0.949-0.521-1.988c-0.949-1.037-0.346-1.209-2.16-1.383c-1.813-0.174-1.471-2.162-1.471-4.322 s0.26-3.545,0.436-4.928c0.173-1.385,2.159-1.988,3.281-2.939c1.125-0.947-2.246-3.545-2.937-5.102 c-0.691-1.557,0.604-2.422,0.604-3.633c0-1.209-1.984-3.025-2.68-4.668c-0.69-1.645-1.124-1.297-1.901-3.111 c-0.775-1.813-0.604-1.729-1.558-2.854c-0.953-1.125-0.604-1.729,0.521-2.684c1.122-0.947-1.123-2.595-1.474-3.804 c-0.346-1.211,0.087-2.422,1.729-2.681c1.091-0.172,1.381-1.069,1.453-2.188l-0.046-0.44c0,0-1.774,0.547-2.647,0.031 c-0.873-0.517-1.429-0.912-1.944-0.912c-0.515,0-0.437-0.716-0.354-1.392c0.082-0.674-1.785-2.063-1.825-3.293 s-0.715-4.088-2.659-3.097c-1.941,0.992-4.008,1.666-6.864,1.111c-2.854-0.559-6.3-0.258-7.075-0.896 c-0.779-0.638-1.913,0-2.555,0.354c-0.639,0.354-3.261,0.85-4.106-0.283c-0.854-1.137-3.189-0.641-4.606,0 c-1.417,0.638-4.106,1.771-4.181,2.765c-0.073,0.991-0.921,2.692-1.63,2.196s-1.276-2.979-2.126-2.196 c-0.853,0.778-1.063,1.063-2.126,1.063c-1.063,0-1.349,0.354-1.561,0.99c-0.213,0.641-1.559,0.566-2.622,0.496 c-1.063-0.068-2.126,0.707-1.063,1.912c1.063,1.205,0.777,3.262,0.212,4.184c-0.567,0.922-3.473,0.426-4.252-0.211 c-0.779-0.641-1.914-0.145-2.48,0.354c-0.564,0.496-4.181,1.135-4.181,2.055c0,0.922,0.283,2.834-1.063,3.398 c-1.346,0.568-3.472,3.119-3.472,3.119L98.009,337.578z"></path><path id="mapid-420300-outline" fill="none" stroke="#CC2B1F" stroke-width="0.25" stroke-miterlimit="2.6131" d="M230.371,133.574c-0.668,0.135-1.24,1-1.707,1c-0.779,0-1.472-1.21-0.521-1.21c0.946,0,0.346-1.038,0-1.729 c-0.351-0.692,0.521-1.297,1.729-1.47c1.211-0.173,2.77-2.68,4.496-4.236c1.729-1.556,4.321-5.447,4.409-7.436 c0.087-1.988,0.775-1.037,2.595-0.346c1.815,0.691,0.862,2.767,1.813,2.853c0.948,0.086,2.334-0.173,2.769,1.038 c0.434,1.211,2.854,1.124,4.582,0.259c1.729-0.865,1.645-4.841,3.979-6.052c2.334-1.21,4.494,2.42,6.916,3.891 c2.422,1.469,5.104,0,6.229-0.778c1.123-0.778,1.729,0.951,3.021,0.519c1.299-0.432,1.562,0.951,2.159,1.038 c0.604,0.086,3.722-0.864,4.236-2.594c0.521-1.729,3.197-1.297,4.32-1.297c1.125,0,3.459,0.433,4.322-0.519 c0.863-0.951,0.26-3.891,0.26-5.188s1.039-2.68,2.334-3.804c1.3-1.124-0.348-7.003-1.295-7.781 c-0.951-0.778-1.473-0.865-1.473-2.248c0-1.383,0.865-1.729,1.473-2.68c0.604-0.951-0.775-2.421-1.9-2.248 c-1.123,0.173-2.16-0.173-2.16-1.556s-2.076-1.556-4.063-2.075c-1.985-0.519-3.371,2.939-4.668,5.274 c-1.3,2.334-7.006,4.236-9.515,4.928c-2.506,0.692-3.543,0.259-4.233-0.691c-0.688-0.951-1.386-0.951-3.371-1.384 c-1.985-0.432-2.508-1.815-3.459-3.199c-0.946-1.383-1.729-1.988-0.946-1.988c0.774,0,2.071-0.951,3.631-2.507 c1.557-1.556-0.521-2.594-1.211-2.939c-0.691-0.346-0.521-0.865,0.862-1.556c1.386-0.692-2.248-4.063-3.371-4.063 c-1.125,0-2.854-2.248-2.854-3.199s0.521-1.815-0.432-3.285c-0.953-1.47,0.52-1.989,1.729-1.989 c1.211,0,3.459-3.112,4.932-4.496c1.473-1.384-1.729-0.432-2.938,0.432c-1.211,0.865-1.987,0.605-2.594-0.519 c-0.604-1.124-1.988,0.692-3.111,0.519c-1.125-0.173-1.899,1.038-3.891,0.951c-1.99-0.086-2.512,0.951-3.896,0.951 c-1.383,0-2.766-0.173-3.545-1.383c-0.775-1.21-1.557,4.236-2.68,4.928c-1.123,0.691,1.383,3.977,2.594,5.879 c1.211,1.902-1.211,4.582-3.197,6.484c-1.986,1.902-2.596,1.297-3.285-0.346s-6.055,5.274-7.691,6.571 c-1.643,1.297,0.433,2.162,1.988,3.718c1.557,1.556,1.121,1.988,0.52,3.026s0.259,1.729-0.434,3.458 c-0.691,1.729-3.111,5.533-3.111,6.917c0,1.384-3.373,6.138-3.545,7.867c-0.174,1.729-1.729,1.816-3.112,3.026 s-1.982,0.346-2.854-0.951c-0.863-1.297-2.074,4.755-1.988,5.706c0.088,0.951,1.037,5.188,0.26,6.052 c-0.773,0.864-0.346,3.804-0.346,5.271c0,1.469,0.346,3.804,2.508,5.966c2.16,2.161,1.729,6.138,1.814,7.781 c0.088,1.643,0.481,3.067,1.47,4.237c0.242,0.289,0.25,0.358,0.25,0.358s-0.645-5.259,0.66-4.547 c1.303,0.712,2.785,1.721,3.611,1.484c0.83-0.238-0.063-4.63,0.713-4.809c0.771-0.179,0.828-1.069,1.186-3.562 c0.357-2.493-1.896-7.124,2.019-7.124c3.908,0,6.226-0.356,7.701-2.256L230.371,133.574z"></path><path id="mapid-422400-outline" fill="none" stroke="#CC2B1F" stroke-width="0.25" stroke-miterlimit="2.6131" d="M115.215,103.17c-0.177-1.028-0.171-2.205,0.017-2.833c0.262-0.865-2.507-0.865-3.024-1.124 c-0.521-0.259-1.729-0.605-1.124-1.902c0.604-1.297-1.471-3.199-2.595-4.236c-1.124-1.038-3.111-4.323-2.938-5.879 c0.173-1.557,3.718-1.557,4.842-2.508s0.951-1.556,0.086-2.42c-0.864-0.865-0.173-1.383,0.173-2.162 c0.348-0.778-1.21-1.47-2.767-1.21c-1.556,0.26-0.692-0.173-0.52-1.729c0.174-1.556-0.434-1.47-1.384-2.075 s-1.383-1.21-2.073-3.545c-0.691-2.334-1.211-2.507-3.112-2.075c-1.902,0.433-1.297-0.951-1.297-2.42 c0-1.469-0.434-1.902-2.769-2.594c-2.334-0.692-1.383-1.124-1.21-3.718c0.173-2.594-3.718-0.604-3.977,0.691 s-0.521,2.334-1.297,2.767c-0.778,0.433-1.729,0.519-1.472,2.334c0.261,1.816-3.804,4.236-5.531,5.101 c-1.729,0.864-1.298,2.075-0.348,2.68c0.951,0.605,0.086,3.891,0.26,5.879c0.174,1.989-0.604,2.594-0.604,4.842 c0,2.248-1.729-0.519-2.938-2.334c-1.211-1.815-1.814-2.334-3.458-3.891c-1.644-1.557-0.52-6.917-0.434-8.991 c0.087-2.075-1.383-4.755-2.161-6.312c-0.776-1.556-0.69-3.718-0.086-7.262c0.605-3.544,0.258-11.758,0.605-13.832 c0.346-2.075-2.421,1.21-4.409,1.383c-1.988,0.173-1.557,2.507-0.086,4.236c1.47,1.729-2.075,3.804-2.769,5.447 c-0.69,1.643,0.521,3.026,1.385,4.409c0.862,1.383-2.162,1.902-3.979,1.729c-1.813-0.173-1.297-4.236-1.901-7.003 c-0.604-2.767-3.978,0.432-3.978,0.432s-0.778,0.086-1.47,0.605c-0.692,0.519,0.432,5.879,0.776,7.694 c0.348,1.816-0.689,1.902-1.643,3.026c-0.951,1.124-0.52,3.112-0.086,3.89c0.432,0.778-0.173,1.989-0.259,2.854 c-0.086,0.864,0.689,1.729,1.9,2.594c1.21,0.864,1.21,2.248,2.075,4.323c0.864,2.075-1.556,3.372-1.729,5.101 c-0.029,0.292-0.117,0.543-0.251,0.758l-0.5,0.438c0,0,0.374,1.646,1.271,1.572c0.898-0.074,2.097-0.375,1.722,0.524 c-0.374,0.898-1.271,3.068-0.448,4.116c0.822,1.048,1.796,3.368,1.721,4.714c-0.075,1.347-0.225,2.096,0.449,2.694 c0.674,0.599,1.048,1.197,1.048,2.769c0,1.571-1.497,2.395-0.374,3.816c1.123,1.421,1.422,1.272,1.571,3.742 c0.148,2.47,0.673,6.286,0.374,7.409c-0.3,1.123,0.299,2.694,1.048,3.592s2.619,0.225,2.021,3.443 c-0.599,3.218-1.347,4.041-1.047,5.388c0.299,1.347-0.3,3.143-0.225,4.565c0.074,1.422-0.227,2.769,1.796,2.021 c2.021-0.748,2.021-1.272,3.592-0.374c1.571,0.898,4.34,0.898,5.014-0.524c0.676-1.422,1.572-2.844,1.946-0.973 c0.374,1.871,1.048,4.266,2.469,4.565c1.423,0.299,1.198,0.149,0.898-0.973s0.148-1.347,1.047-1.272 c0.552,0.046,1.327,0.422,1.327,0.422c0.729-0.459-0.412-1.734-1.065-2.307c-0.652-0.573-1.225-0.9-0.488-2.7 c0.732-1.799-0.49-2.291-1.146-2.863c-0.652-0.573-0.897-1.473,0.245-2.455c1.144-0.982,0.572-2.045,0.979-3.927 s-0.162-3.436-0.734-4.827c-0.571-1.391,2.042-2.209,3.348-2.455c1.308-0.246,1.227-2.373,2.123-2.945 c0.898-0.572,1.396,4.362,2.614,5.582c1.219,1.219,1.793,2.725,1.219,3.873c-0.572,1.147,0.072,1.721,0.789,2.438 s1.506,0.43,1.578,1.864c0.072,1.435,0.717,1.937,2.224,2.008c1.507,0.072,3.3,4.948,4.807,6.741 c1.506,1.793,1.647,2.295,1.647,3.084c0,0.789-1.434,3.371,1.076,2.582c2.51-0.789,2.582-7.745,2.582-9.108 c0-1.363,0.145-1.649,1.219-2.295c1.075-0.646,2.009-1.793,2.08-2.582c0.072-0.789,1.363-2.295,2.295-2.94 c0.935-0.646,0.718-2.08-0.43-3.156c-1.146-1.076-1.076-3.371-1.076-5.092s1.076-0.789,2.008-2.08 c0.935-1.291,1.865-4.088,1.723-5.666c-0.144-1.578,1.435-1.936,1.435-1.936L115.215,103.17z"></path><path id="mapid-421700-outline" fill="none" stroke="#CC2B1F" stroke-width="0.25" stroke-miterlimit="2.6131" d="M136.4,169.399c0.3-0.219,0.304-0.283,0.605-0.732c1.122-1.646,6.211-6.735,9.13-6.66c2.918,0.075,5.986,0.075,7.408-0.749 c1.422-0.824,3.368-0.823,3.592-2.17c0.228-1.347-0.475-3.446-0.475-3.446l0.777,0.56c1.061,0.828,2.184,1.887,2.92,1.887 c1.211,0,0.951,0.432,1.729,1.729c0.777,1.297,3.286,4.15,1.124,4.237c-2.161,0.086-1.729,0.346-1.729,1.815 c0,1.469,0.174,1.988,1.385,1.988s4.495-1.124,5.531,1.816c1.039,2.939,0.088,3.285,1.814,2.939 c1.729-0.346,1.037,1.297,2.854,0.086c1.814-1.211,2.248-0.432,3.806,0.259c1.557,0.692,3.459,2.162,4.147,0.692 c0.688-1.47,1.729-3.199,2.938-3.977c0.568-0.367,2.644-1.262,2.644-1.262s1.519,2.608,3.457,5.642 c1.938,3.033-0.306,4.064-1.336,4.731c-1.029,0.667-0.604,2.244-0.119,3.519c0.481,1.273,0.481,5.398,0.481,6.794 c0,1.395,1.092,2.244,2.426,3.397c1.337,1.152,2.093,6.121,2.05,6.919c-0.047,0.798-2.699,2.395-3.541,3.192 c-0.845,0.798,0.267,3.148,0.976,3.769c0.707,0.621,0.309,1.729-0.443,2.217c-0.752,0.488-0.664,1.464-0.312,2.438 c0.354,0.977-0.221,1.818-1.192,2.793c-0.974,0.976-2.789,1.021-3.631,0.888c-0.84-0.133-1.592-0.622-2.302,0.577 c-0.709,1.195,0.619,1.643,1.771,1.994c1.152,0.355,0.18,3.148,0.18,3.148l-0.082,0.023c-0.17,0.068-0.313,0.15-0.396,0.184 c-0.414,0.155-1.397-0.053-2.646-0.313c-1.246-0.262-1.399-0.156-2.127,0.779c-0.729,0.937-2.959,1.457-3.844,1.248 c-0.883-0.209-0.361,0.729,0.156,2.08c0.52,1.353-1.353,2.393-2.183,2.809s0,1.402,0.207,2.65 c0.209,1.248-1.866,1.248-2.022,2.08c-0.154,0.832,1.195,0.26,1.922,0.209c0.729-0.054,0.83,0.467-0.416,1.092 s0.273,0.969-0.438,3.207c-0.711,2.237,2.863,3.158,3.564,3.627c0.703,0.471,0.293,3.756,0.234,5.281 c-0.06,1.522-2.813,2.696-5.855,2.641c-3.044-0.062-3.864-1.527-4.978-3.697s-2.87-0.646-3.632,0.998 c-0.763,1.646-3.223,3.521-4.218,4.047c-0.995,0.527-2.052-3.227-2.052-4.869c0-1.641-1.054-2.465-2.398-1.467 c-1.349,0.998-3.824,2.563-3.824,2.563l-0.681,0.559c-0.211-0.271-0.418-0.438-0.618-0.438c-0.991,0-5.601-4.535-7.229-7.088 c-1.63-2.552-4.747-8.645-5.173-9.566c-0.426-0.92-1.347-2.055-2.409-1.273c-1.063,0.777-2.764,0.071-3.473-0.852 c-0.17-0.223-0.695-0.551-0.979-0.709v-0.992c0-0.746,0.303-2.297,0.505-3.924c0.203-1.625,0.066-1.625-0.678-2.303 c-0.745-0.679-1.221-1.763,0.136-1.83c1.354-0.065,0.813-0.879,0.476-1.625s-0.064-1.287,0-2.574 c0.066-1.287,0.406-3.59,1.221-4.27c0.814-0.678,1.221-0.949,1.221-1.966c0-1.016,1.626-0.135,3.39,0.542 c1.762,0.679,2.642-1.355,2.775-2.574c0.137-1.219,0.339-1.219,1.222-1.354c0.881-0.136,0.542-1.152,0.201-2.032 c-0.339-0.881-1.827-2.168-2.572-2.304c-0.745-0.135-1.084-0.61-0.203-1.219c0.881-0.61,0.607-2.846,0.677-3.794 c0.068-0.949,0.68-0.678,0.949-1.694c0.271-1.016,0.406-1.152-1.22-1.965s-0.609-2.371-0.406-3.726 c0.203-1.354-0.881-2.371-1.423-2.981c-0.542-0.609,1.762-2.235,2.304-3.387c0.542-1.152-0.405-1.626-0.947-2.236 c-0.542-0.609-1.49-1.626-0.745-2.168s0.946-1.151,0.271-1.626c-0.678-0.474-0.339-4.539-0.339-4.539L136.4,169.399z"></path><path id="mapid-420800-outline" fill="none" stroke="#CC2B1F" stroke-width="0.25" stroke-miterlimit="2.6131" d="M115.685,104.56c0.646,0.767,2.207,0.562,2.745-1.283c0.605-2.075,1.557-2.507,1.815-3.544c0.259-1.038,0.432-2.075,0.95-0.692 c0.52,1.383,2.16,3.372,3.284,2.075c1.124-1.296,4.063-4.149,4.234-2.854c0.173,1.297-0.086,1.557,0.865,2.334 c0.95,0.778,1.21,0.692,1.124,2.075c-0.086,1.383,0.432,1.902,1.383,3.199c0.951,1.297,1.297,2.68,2.161,3.285 c0.863,0.604,1.297,1.556,1.297,3.286c0,1.729-0.259,2.68,0.69,3.285c0.95,0.605,1.644,1.729,2.768,3.286 c1.124,1.557,2.508,3.112,1.038,3.458c-1.471,0.346,0.173,1.21,0.689,1.21c0.52,0,1.037,0.433,1.298,1.815 c0.261,1.383,0.261,1.557,1.644,1.557c1.384,0,2.596-0.346,2.421,1.643c-0.173,1.988-1.9,4.582-0.173,5.706 c1.729,1.124,2.682,1.47,3.372,3.199c0.689,1.729,1.21,1.643,2.594,2.162c1.385,0.521,2.42,1.556,2.334,2.854 c-0.087,1.297-1.47,2.334-0.433,3.285c1.037,0.951,1.813,0.605,2.854,0c1.036-0.605,1.987-0.951,1.472,0.519 c-0.521,1.47-1.56,1.297-0.95,2.767c0.606,1.47,0.173,1.643-0.778,2.248s-2.767,1.643-2.767,2.68 c0,1.038,0.688,1.124,1.986,1.124c0.332,0,0.728,0.188,1.146,0.464v0.231c0,0,0.605,1.81,0.383,3.157 c-0.224,1.347-2.17,1.347-3.592,2.17c-1.422,0.823-4.49,0.823-7.408,0.749c-2.919-0.075-8.008,5.014-9.13,6.66 c-0.307,0.449-0.61,0.77-0.91,0.988l-0.052,0.037c-0.777,0.541-1.499,0.396-2.031,0.023c-0.749-0.524-0.896-1.048-1.497-0.674 c-0.599,0.375-1.646,0.375-2.544,0.375c-0.896,0-0.749,0-2.17,1.123c-1.422,1.122-1.123,3.517-0.821,4.864 c0.299,1.347-2.472,0.823-4.563,0.522c-2.098-0.299-1.871-2.17-1.871-3.742c0-1.571-1.349-1.946-2.47-2.32 s0.074-1.646,0.374-2.095s0.523-1.572,0.074-2.694c-0.448-1.123-0.522-1.646,0.3-2.245s0.822-2.395,1.122-2.919 c0.301-0.523,0.898-1.272,0.301-1.571c-0.601-0.299-0.149-1.123-0.149-2.245s-0.449-2.32-1.646-2.694 c-1.196-0.375-1.722-1.048-2.471-2.096c-0.748-1.047-1.347-1.123-1.721-1.047c-0.374,0.075-1.047,0.523-2.021-1.572 c-0.973-2.095-1.496-0.299-2.469,0.898c-0.973,1.197-1.497,0.823-2.544,0.449c-1.048-0.374-1.422,0.299-2.395,1.272 c-0.975,0.973-3.068-0.973-4.642-1.272c-1.57-0.299-3.667-0.599-5.089-0.599c-1.286,0-3.067-0.667-4.676-1.821l-0.811-0.901 c-1.168-1.691-1.485-4.219-1.549-5.21c-0.074-1.197-0.674-1.721-0.299-2.544c0.374-0.823-0.149-1.497-0.523-1.422 c-0.374,0.075-1.196,0.15-1.646-0.748c-0.12-0.239-0.415-0.568-0.621-0.769l-0.597-0.456c0.729-0.459-0.412-1.734-1.065-2.307 c-0.653-0.573-1.225-0.9-0.489-2.7c0.733-1.799-0.489-2.291-1.145-2.863c-0.653-0.573-0.897-1.473,0.245-2.455 s0.572-2.045,0.979-3.927s-0.163-3.436-0.734-4.827c-0.571-1.391,2.042-2.209,3.348-2.455c1.307-0.246,1.226-2.373,2.123-2.945 c0.898-0.572,1.396,4.362,2.614,5.582c1.219,1.219,1.793,2.725,1.219,3.873c-0.573,1.147,0.072,1.721,0.789,2.438 s1.506,0.43,1.578,1.864c0.072,1.435,0.717,1.938,2.224,2.008c1.507,0.072,3.3,4.948,4.807,6.741 c1.506,1.793,1.647,2.295,1.647,3.084c0,0.789-1.434,3.371,1.076,2.582c2.51-0.789,2.582-7.745,2.582-9.108 c0-1.363,0.145-1.649,1.219-2.295c1.075-0.646,2.009-1.793,2.08-2.582c0.072-0.789,1.363-2.295,2.295-2.94 c0.935-0.646,0.718-2.08-0.43-3.156c-1.147-1.076-1.076-3.371-1.076-5.092s1.076-0.789,2.008-2.08 c0.935-1.291,1.865-4.088,1.723-5.666c-0.144-1.578,1.435-1.936,1.435-1.936L115.685,104.56z"></path><path id="mapid-420700-outline" fill="none" stroke="#CC2B1F" stroke-width="0.25" stroke-miterlimit="2.6131" d="M61.927,188.732c-0.219,1.527-0.595,3.084-1.446,3.595c-1.016,0.61-3.93,0.678-3.93-0.542c0-1.219-0.677-10.094-1.626-10.433 l-0.478,0.253c-0.154,0.163-0.328,0.334-0.515,0.519c-1.124,1.124-2.594,0.778-3.718-0.346s-1.729-0.692-2.507-0.692 c-0.778,0-1.383,0.778-1.557,1.988c-0.174,1.21-0.777,2.594-1.557,3.979c-0.777,1.383-2.162,3.631-3.545,5.014 s-2.594-0.086-3.631-1.124c-1.037-1.037-1.557-0.691-2.593-1.21c-1.038-0.519-1.729,1.643-2.075,2.94 c-0.347,1.297,0,2.507,0.432,3.285c0.435,0.778,1.124,1.297,0.173,1.297c-0.798,0-1.475,1.767-2.284,3.101l-0.063,0.305 c2.236,0,3.659,4.268,3.862,5.488c0.203,1.219,1.49,2.915,2.642,4.268c1.152,1.354-0.813,2.98-1.354,4.336 c-0.542,1.354,3.318,2.71,6.165,3.59c2.846,0.883,3.388,1.221,4.605,1.288c1.22,0.065,0.203,1.017,1.287,2.167 c1.084,1.152-1.693,1.018-3.116,0.746s-1.558,4.674-1.489,5.826c0.066,1.15,1.22,4.064,1.828,4.878 c0.61,0.813,3.455-0.271,4.607-0.813c1.15-0.543,2.371,1.559,3.184,2.506c0.813,0.949,1.56,1.422,0.813,2.438 c-0.745,1.019-0.339,3.729-0.61,5.22c-0.271,1.487-0.405,8.397-0.405,8.397l0.625-0.24c1.168-0.239,4.021-0.164,5.122-0.418 c0.685-0.153,1.347-0.815,1.347-0.815c0.135-0.34,1.579-1.438,3.067-1.438c1.49,0,4.065-2.508,6.099-3.187 c2.032-0.68,1.558-1.287,1.22-1.83c-0.339-0.541,3.251-3.729,3.793-4.198c0.542-0.476,0.61-1.828,1.694,0.34 s0.271,5.896,1.762,7.521c1.49,1.625,3.793-0.746,4.2-1.289c0.405-0.541,0.677-1.625,2.168-1.963 c1.489-0.34,2.168-2.103,2.574-3.252c0.405-1.15,1.423-1.427,2.37-1.427c0.948,0,0.813-2.101,0.406-2.979 c-0.406-0.881-1.016-2.506,0-2.776c1.018-0.271,1.22-1.151,2.102-2.103c0.881-0.946,1.15-1.692,2.507-2.233 c1.354-0.542,1.084-1.626,0.405-2.438c-0.678-0.813-0.475-1.422,0.137-1.896c0.607-0.477,0.745-1.084,0.271-1.626 c-0.474-0.542,0.61-1.287,1.422-1.692c0.813-0.406,0.407-1.221,0.271-2.031c-0.135-0.813,1.559-2.033,2.98-2.508 c0.597-0.199,1.252-0.554,1.872-0.938l0.622-0.398c0.702-0.457,1.105-0.771,1.503-1.037c0.813-0.543,0.068-2.168-0.946-2.168 c-1.018,0-1.763-1.086-2.102-2.371c-0.339-1.287-0.948-1.354-2.1-1.354c-1.152,0-2.168,0.542-2.644,2.507 c-0.475,1.965-2.71,1.691-3.657,1.762c-0.948,0.068-1.829,1.489-2.574,0.271c-0.746-1.22-3.117-1.49-5.081-1.829 c-1.965-0.339-3.252-3.591-5.354-5.623c-2.101-2.033-1.559-3.049-2.709-4.607c-1.151-1.558-0.137-1.558,1.489-2.168 s0.678-2.1,0.407-2.778c-0.271-0.677-1.288-1.49-2.981-2.032c-1.692-0.542-3.93,1.016-5.014,2.032 c-1.084,1.016-2.032,1.016-2.642-0.339c-0.61-1.354-0.745-1.626-1.49-2.506c-0.746-0.881,0.135-2.846,0.135-4.133 c0-1.287-4.303-0.655-4.303-0.655L61.927,188.732z"></path><path id="mapid-420900-outline" fill="none" stroke="#CC2B1F" stroke-width="0.25" stroke-miterlimit="2.6131" d="M59.917,250.912c0.02,0.088,0.043,0.188,0.069,0.291c0.347,1.385-1.384,2.77-2.248,3.631c-0.863,0.865-4.668,2.422-5.619,2.684 c-0.952,0.258-0.086,2.68,0.173,3.978c0.26,1.297-0.259,2.508,0.26,3.371c0.52,0.864,1.47,0.521,2.767,0.521 c1.298,0,1.385,2.771,1.729,3.807c0.345,1.037,0.346,1.729,1.038,2.42c0.689,0.689,0.864,1.988-0.087,2.508 c-0.951,0.521-1.383,0.691-1.645,1.729c-0.259,1.037,0.174,1.559,1.298,1.646c1.123,0.086,1.123,1.555,1.729,2.852 c0.605,1.297,0.432,1.73,0.173,2.682c-0.26,0.949,0.605,1.472,1.383,2.509c0.778,1.035-1.383,1.472-1.297,3.196 c0.086,1.729,1.297,0.086,1.815,0.777c0.518,0.691,1.21,0.951,2.162,1.125c0.949,0.172,1.036,0.086,1.383,1.471 c0.346,1.384,1.124,1.123,2.42,1.384c1.297,0.262,2.162,0.437,4.149,0.437c1.988,0,3.198-0.175,3.719-0.605 c0.519-0.434,2.074-0.262,2.853,0.434c0.756,0.672,1.462,0.623,2.686,0.787h0.854c0,0,2.288-2.293,3.837-3.549 c1.55-1.258,1.992-3.846,2.877-3.031c0.887,0.813,3.173,1.701,4.061,2.069c0.886,0.37,1.254,0.519,2.509-0.595 c1.254-1.104,1.844-1.479,2.729-1.033c0.887,0.441,3.025,0.369,3.689,0.962s1.254,0.37,1.624-0.521 c0.369-0.888,0.369-2.81,1.254-5.248s3.099-7.021,4.058-9.24c0.959-2.217,1.183-3.916,3.025-5.84 c1.845-1.922,1.697-4.879,3.173-5.103c1.478-0.222,2.583-1.033,1.771-1.772c-0.813-0.735-1.918-6.209-0.519-6.431 c1.402-0.224,4.061,0.072,4.132-3.18c0.073-3.255,0.074-11.017,0.887-11.979c0.811-0.961,1.55-1.922,0.368-3.475 c-1.182-1.551-4.224-6.021-3.928-7.576l0.072-0.383c-0.729,0.238-1.914-0.928-3.988-1.381c-2.268-0.496-4.322,0.424-5.739,1.842 s-1.843,1.205-2.126,0.426c-0.282-0.781-0.354-1.488,0.779-1.984s1.063-0.564,1.063-1.629c0-1.063,0.991-4.678,2.055-6.804 s-0.992-1.417-1.701-1.63c-0.708-0.213-1.559-0.426-1.982-0.143c-0.427,0.281-0.427,1.135-1.845,1.346 c-1.417,0.214-1.83-3.426-1.83-3.426l-0.542,0.349c-0.619,0.384-1.274,0.737-1.872,0.937c-1.423,0.474-3.115,1.693-2.98,2.506 c0.136,0.813,0.542,1.627-0.271,2.033c-0.813,0.406-1.896,1.151-1.422,1.693c0.476,0.542,0.338,1.152-0.271,1.626 c-0.61,0.474-0.813,1.084-0.136,1.897c0.678,0.813,0.947,1.896-0.406,2.438c-1.355,0.541-1.626,1.287-2.507,2.234 c-0.882,0.949-1.084,1.83-2.102,2.101c-1.016,0.271-0.406,1.896,0,2.775c0.406,0.883,0.542,2.979-0.406,2.979 c-0.947,0-1.965,0.271-2.37,1.424c-0.406,1.152-1.084,2.912-2.574,3.252c-1.491,0.338-1.763,1.422-2.168,1.965 c-0.407,0.541-2.71,2.914-4.2,1.287c-1.491-1.625-0.678-5.354-1.762-7.521s-1.152-0.813-1.694-0.34 c-0.542,0.477-4.132,3.658-3.793,4.201c0.338,0.541,0.813,1.15-1.22,1.828s-4.607,3.186-6.099,3.186 c-1.49,0-3.591,1.762-3.726,2.102L59.917,250.912z"></path><path id="mapid-422100-outline" fill="none" stroke="#CC2B1F" stroke-width="0.25" stroke-miterlimit="2.6131" d="M136.047,169.692c-0.775,0.541-1.499,0.396-2.031,0.023c-0.747-0.524-0.896-1.048-1.495-0.674 c-0.601,0.375-1.646,0.375-2.546,0.375c-0.896,0-0.747,0-2.17,1.123c-1.422,1.122-1.123,3.517-0.821,4.864 c0.301,1.347-2.472,0.823-4.563,0.523c-2.096-0.299-1.871-2.17-1.871-3.742c0-1.571-1.347-1.946-2.469-2.32 s0.074-1.646,0.374-2.095c0.299-0.449,0.522-1.572,0.073-2.694c-0.447-1.123-0.522-1.646,0.301-2.245 c0.821-0.599,0.821-2.395,1.123-2.919c0.299-0.523,0.896-1.272,0.299-1.571c-0.601-0.299-0.149-1.123-0.149-2.245 c0-1.122-0.449-2.32-1.646-2.694c-1.197-0.375-1.723-1.048-2.472-2.096c-0.748-1.047-1.347-1.123-1.721-1.047 c-0.374,0.075-1.047,0.523-2.021-1.572c-0.975-2.095-1.497-0.299-2.471,0.898c-0.973,1.197-1.497,0.823-2.544,0.449 c-1.048-0.374-1.422,0.299-2.395,1.272c-0.975,0.973-3.068-0.973-4.642-1.272c-1.569-0.299-3.667-0.599-5.089-0.599 c-1.286,0-3.066-0.667-4.676-1.821c0,0-1.016,1.897-2.371,2.236c-1.354,0.339-3.048,0.678-2.913,2.507 c0.137,1.829,0.949,2.913,0.271,4.607c-0.678,1.693-1.56,3.116-3.252,3.726c-1.694,0.61-4.2,0.203-4.27,1.626 c-0.066,1.422-0.339,1.964-1.626,2.71c-1.287,0.745-3.049,1.897-3.455,3.319c-0.406,1.423-0.406,2.1-1.896,1.22 c-1.49-0.881-2.71-1.762-3.728-0.271c-1.016,1.49-1.22,1.49-0.947,2.981c0.271,1.49-0.203,3.929-0.813,5.013 c-0.608,1.084,0.813,2.032-0.271,3.387c-1.085,1.355-1.56,1.83-0.609,2.168c0.948,0.339,3.455,2.033,2.032,2.507 c-1.423,0.474-5.217-2.439-5.487-1.626c-0.271,0.813,1.151,2.371,0.948,4.133c-0.021,0.162-0.015,0.127-0.035,0.293 l-0.101,0.113c0,0,4.402-0.745,4.402,0.542c0,1.287-0.881,3.252-0.135,4.133c0.745,0.88,0.88,1.152,1.49,2.506 c0.608,1.355,1.558,1.355,2.642,0.339c1.084-1.016,3.32-2.574,5.015-2.032c1.692,0.542,2.709,1.355,2.98,2.032 c0.271,0.678,1.219,2.168-0.407,2.778s-2.642,0.61-1.489,2.168c1.15,1.558,0.608,2.574,2.709,4.607 c2.102,2.032,3.389,5.284,5.354,5.623c1.964,0.339,4.335,0.608,5.081,1.829c0.745,1.219,1.626-0.203,2.574-0.271 s3.184,0.201,3.657-1.763c0.476-1.965,1.49-2.507,2.644-2.507c1.15,0,1.761,0.066,2.1,1.354c0.34,1.287,1.084,2.371,2.102,2.371 c1.016,0,1.761,1.627,0.947,2.168c-0.397,0.268-0.463,0.303-1.163,0.758l-0.341,0.277c0,0,0.333,3.691,1.75,3.479 c1.417-0.211,1.417-1.063,1.845-1.346c0.425-0.283,1.273-0.07,1.982,0.144c0.709,0.213,2.766-0.496,1.701,1.63 c-1.063,2.126-2.055,5.738-2.055,6.804c0,1.063,0.07,1.134-1.063,1.63c-1.134,0.495-1.063,1.205-0.779,1.983 c0.284,0.778,0.71,0.991,2.127-0.427c1.417-1.416,3.473-2.338,5.738-1.842c2.074,0.453,3.473,1.396,4.2,1.155l0.852-0.579 c0.452-0.3,0.944-0.436,1.541-0.011c0.991,0.708,2.977,2.55,4.465-0.282c1.486-2.837,1.347-3.402,2.409-2.553 c0.726,0.58,1.845,0.863,2.708,1.275v-0.662c0-0.746,0.303-2.627,0.506-4.254c0.202-1.625,0.066-1.625-0.679-2.303 c-0.745-0.679-1.222-1.763,0.137-1.83c1.354-0.066,0.813-0.881,0.474-1.625c-0.338-0.746-0.065-1.289,0-2.576 c0.068-1.287,0.407-3.592,1.222-4.27c0.813-0.677,1.221-0.948,1.221-1.965c0-1.016,1.626-0.135,3.388,0.542 c1.762,0.679,2.644-1.355,2.776-2.574c0.136-1.219,0.34-1.219,1.221-1.354c0.881-0.136,0.542-1.152,0.203-2.032 c-0.34-0.881-1.829-2.168-2.574-2.304c-0.745-0.135-1.084-0.61-0.203-1.219c0.881-0.61,0.609-2.846,0.679-3.794 c0.066-0.949,0.68-0.678,0.947-1.694c0.271-1.016,0.406-1.152-1.22-1.965s-0.609-2.371-0.406-3.726s-0.881-2.371-1.423-2.981 c-0.542-0.609,1.762-2.235,2.304-3.387c0.542-1.152-0.405-1.626-0.947-2.236c-0.542-0.609-1.488-1.626-0.743-2.168 c0.743-0.542,0.945-1.151,0.271-1.626c-0.678-0.474-0.339-4.539-0.339-4.539L136.047,169.692z"></path><path id="mapid-420600-outline" fill="none" stroke="#CC2B1F" stroke-width="0.25" stroke-miterlimit="2.6131" d="M187.922,317.93c-0.053,0.061-0.104,0.125-0.15,0.19c-0.689,0.95-2.248,1.987-2.248,3.198s-0.521,1.729-2.248,1.472 c-1.729-0.261-8.388-1.384-9.074-0.347c-0.691,1.037-3.027,2.767-3.808,1.47c-0.774-1.297-1.471-3.978-2.422-4.41 c-0.948-0.433-2.938-0.433-3.89,0.865c-0.951,1.297-1.038,1.646-1.038,3.459c0,0.457,0.01,0.258,0,0.698l-0.063,0.646 c0,0-1.774,0.547-2.647,0.033c-0.873-0.519-1.43-0.914-1.944-0.914s-0.437-0.713-0.354-1.39c0.08-0.676-1.785-2.063-1.825-3.295 c-0.04-1.229-0.715-4.086-2.659-3.094c-1.942,0.988-4.008,1.666-6.863,1.107c-2.855-0.557-6.301-0.254-7.078-0.895 c-0.777-0.64-1.911,0-2.553,0.354c-0.639,0.354-3.261,0.853-4.106-0.283c-0.854-1.135-3.189-0.64-4.606,0 s-4.108,1.771-4.181,2.767c-0.071,0.992-0.921,2.69-1.63,2.194c-0.709-0.493-1.276-2.978-2.126-2.194 c-0.853,0.776-1.063,1.063-2.126,1.063c-1.063,0-1.349,0.354-1.561,0.992c-0.213,0.637-1.559,0.565-2.622,0.495 c-1.063-0.071-2.126,0.707-1.063,1.912c1.063,1.205,0.777,3.261,0.212,4.183c-0.567,0.92-3.474,0.426-4.252-0.213 c-0.779-0.638-1.914-0.142-2.48,0.354c-0.564,0.495-4.181,1.133-4.181,2.055c0,0.92,0.283,2.834-1.063,3.399 c-1.346,0.565-3.472,3.116-3.472,3.116l-0.14-0.172c0,0-0.122-0.096-0.316-0.227c-1.037-0.689-2.075-1.383-1.988-0.433 c0.086,0.949,1.21,2.074-0.086,2.074s-1.814-0.347-2.594-1.211c-0.778-0.863-1.383-1.47-2.421-1.037 c-1.038,0.435-1.21,1.211-1.988,0.435c-0.776-0.775-0.26-1.813-2.162-1.813c-1.9,0-3.804,0.086-4.668-0.261 c-0.863-0.35-0.863-2.076-1.9-1.037c-1.038,1.037-1.815,0.775-2.769,0.861c-0.951,0.086-2.767,0.262-4.148-0.174 c-1.385-0.432-5.533-0.949-5.016-2.074c0.521-1.123,2.334-3.022,2.769-3.891c0.432-0.865,1.556-1.902,1.556-3.373 s-0.086-2.68,0.691-2.68c0.776,0,2.853-2.074,3.458-4.93c0.604-2.854-0.175-3.025-0.778-4.67 c-0.605-1.646-1.383-2.42-0.259-3.631c1.124-1.209,3.804-3.199,4.322-4.236c0.52-1.035,1.123-1.383,0.52-2.42 c-0.605-1.039-0.433-2.162,0.432-1.558s2.596,2.681,3.199,1.298c0.605-1.384,0.086-1.384-0.432-2.421 c-0.521-1.038-1.124-1.473-0.605-2.334c0.067-0.112,0.133-0.231,0.195-0.356l-0.98-2.144c0,0,2.288-2.293,3.837-3.551 c1.552-1.257,1.992-3.845,2.877-3.028c0.888,0.813,3.175,1.698,4.061,2.067c0.886,0.37,1.254,0.521,2.509-0.593 c1.254-1.104,1.844-1.479,2.73-1.034c0.885,0.44,3.023,0.37,3.688,0.961c0.664,0.594,1.254,0.37,1.624-0.521 c0.369-0.887,0.369-2.809,1.254-5.248c0.887-2.438,3.101-7.021,4.06-9.238c0.959-2.217,1.181-3.918,3.023-5.84 c1.847-1.924,1.697-4.881,3.173-5.104c1.478-0.221,2.583-1.033,1.771-1.771c-0.813-0.737-1.918-6.209-0.518-6.434 c1.401-0.221,4.06,0.074,4.133-3.178c0.071-3.254,0.072-11.018,0.885-11.979c0.811-0.961,1.55-1.922,0.369-3.476 c-1.183-1.554-4.252-6.272-3.957-7.825l1.163-0.938c0.453-0.299,0.943-0.437,1.541-0.01c0.991,0.707,2.976,2.551,4.464-0.285 c1.488-2.834,1.347-3.4,2.41-2.551c0.725,0.58,1.521,0.723,2.389,1.135l0.604,0.289c0.279,0.158,0.521,0.34,0.689,0.563 c0.708,0.922,2.409,1.631,3.475,0.852c1.063-0.779,1.981,0.354,2.407,1.273c0.427,0.922,3.543,7.018,5.175,9.568 s6.234,7.086,7.229,7.086c0.201,0,0.408,0.164,0.619,0.437l0.77,1.28c0.777,1.186,0.975,2.576,1.658,3.527 c0.922,1.273,1.135,2.979,2.552,4.465s1.771,2.623,2.622,3.543c0.854,0.922,1.488,2.127,0,3.4 c-1.484,1.274-1.56,2.125-2.552,2.34c-0.992,0.213-1.063,2.836-1.063,3.824c0,0.992,0.923,2.692,2.622,0.567 c1.699-2.127,3.188-2.271,3.262-0.991c0.069,1.271-0.779,3.473,0.638,3.396c1.417-0.067,2.622,1.773,3.474,0.709 c0.854-1.063,1.699-1.063,1.699-0.067c0,0.992-1.417,1.771-0.708,2.479c0.708,0.709,1.563,0.99,1.417,1.982 c-0.142,0.992-0.354,0.992,0.779,1.842c1.134,0.853,1.771,1.701,0.709,2.41c-1.063,0.707-1.063,2.125,0.283,2.834 c0.721,0.379,1.814,0.75,2.717,1.379l0.988,1.096c0.061,0.236,0.272,0.797,0.188,1.068c-0.563,1.844-1.699,1.135-2.125,2.197 s0.354,3.4,2.338,3.4c1.984,0,3.545-1.137,4.254-0.215c0.709,0.924,2.338,2.553,1.845,4.252 c-0.496,1.701-1.351,2.342-2.197,2.553c-0.851,0.213-3.687-1.699-4.465-0.707c-0.779,0.992-0.992,3.543-1.771,4.465 c-0.776,0.92-1.204,1.699,0.07,3.047c1.274,1.346,1.563,2.055,3.188,1.629c1.627-0.424,3.33-0.639,4.183,0.854 c0.85,1.486,1.272,2.406,1.629,3.611c0.355,1.205,0.426,2.127,1.844,2.553c1.416,0.427,4.605,0.99,5.951,1.136 c1.348,0.144,1.811,0.563,2.164,1.347L187.922,317.93z"></path><path id="mapid-421800-outline" fill="none" stroke="#CC2B1F" stroke-width="0.25" stroke-miterlimit="2.6131" d="M171.449,286.492c0.059,0.234,0.057,0.488-0.027,0.764c-0.564,1.844-1.701,1.137-2.125,2.197c-0.426,1.063,0.354,3.4,2.338,3.4 s3.543-1.138,4.252-0.213c0.709,0.92,2.339,2.551,1.843,4.252c-0.494,1.698-1.348,2.338-2.193,2.551 c-0.853,0.213-3.688-1.699-4.466-0.709c-0.778,0.992-0.991,3.543-1.771,4.467c-0.778,0.92-1.205,1.699,0.07,3.047 c1.274,1.348,1.561,2.057,3.188,1.629c1.631-0.424,3.33-0.637,4.185,0.854c0.852,1.486,1.272,2.41,1.631,3.611 c0.354,1.205,0.424,2.129,1.842,2.555c1.418,0.424,4.606,0.988,5.953,1.133c1.346,0.144,1.842,0.64,2.197,1.418l0.096-0.022 c0.479-0.397,0.848-0.666,0.61-1.372c-0.35-1.039,0.433-1.125,0.433-2.335c0-1.211,0.779-1.646,1.988-1.646 c1.211,0,0.95-2.334,1.471-3.717c0.52-1.387,2.074,0.775,3.111,1.898c1.038,1.125,3.459,0.951,4.842,1.646 c1.385,0.688,3.545,1.383,4.928,2.334c1.387,0.951,3.373,2.42,3.633,3.805c0.262,1.383,2.854,3.111,5.021,3.545 c2.157,0.436,3.889-3.373,4.84-4.93c0.951-1.555,1.471-6.656,1.471-8.041c0-1.383,0.865-3.111,2.074-2.854 c1.211,0.26,2.162,2.768,2.422,4.323s1.037,2.938,2.594,3.978c1.561,1.037,2.16-2.681,2.422-3.806 c0.262-1.123,0.521-2.769,1.986-3.457c1.473-0.69,12.105,10.201,13.574,12.188c1.471,1.99,0.604-1.813,0.604-3.283 c0-1.471,0.176-1.645,0.521-2.854c0.349-1.211,1.472-2.939,1.646-5.188c0.144-1.795,2.979-2.377,4.774-2.67l1.31-0.324 c0.453-0.774,1.164-1.032,0.063-2.004c-1.102-0.972-1.875-0.646-2.907-0.192c-1.033,0.452-1.354-0.582-2.134-0.582 c-0.774,0-1.813,1.485-2.395,1.551c-0.578,0.063-0.645,1.746-0.711,3.36c-0.063,1.615-1.811,2.585-2.975,3.49 c-1.164,0.901-1.551-1.938-1.422-2.908c0.129-0.971,0.645-3.687,0.772-5.041c0.131-1.356,0.58-6.204,0.521-8.146 c-0.064-1.938-0.521-3.555-0.521-6.01c0-2.457-0.45-2.328-2.004-3.687c-1.553-1.354-0.901-0.519-2.265-1.422 c-1.354-0.906-0.321-2.065-0.26-3.429c0.063-1.354-1.033-1.682-2.197-2.065c-1.161-0.39-0.387-0.258-0.387-1.229 c0-0.969-1.354-0.191-2.328,0.192c-0.969,0.39-2.455-0.063-3.424-1.103c-0.973-1.03,0.517-1.741,1.81-2.713 c1.293-0.971-0.063-4.59-0.259-5.688c-0.192-1.102,1.101-3.104,1.812-4.719c0.716-1.615-1.293-3.619-1.741-4.848 c-0.451-1.229-1.291-2.066-2.396-3.558c-1.099-1.483,4.2-4.78,5.754-5.299c1.553-0.519,4.461-5.043,5.233-6.271 c0.771-1.229,2.064-2.908,3.556-3.428c0.278-0.098,0.491-0.209,0.655-0.342l1.021-0.994c0.082-0.475-0.437-1.01-0.315-1.699 c0.26-1.555-0.646-1.486-1.813-2.197s-0.711-0.646-0.261-1.483c0.451-0.843,0.451-1.683-0.321-1.683 c-0.771,0-1.683,0-2.715-0.906c-1.033-0.904-2.906-0.84-4.328-0.773c-1.425,0.064-1.685,0.582-1.483-1.811 c0.19-2.393-1.103-0.26-2.007,0.904c-0.108,0.145-0.325,0.429-0.422,0.557l-0.323,0.5c-0.521,0.785-0.484,1.123-0.738,2.951 c-0.322,2.326-2.326,2.779-3.558,3.941c-1.229,1.162-2.264,0.58-2.264-0.582s-1.425-1.553-2.455-2.068 c-1.033-0.516-1.875-0.774-2.586-0.258c-0.399,0.293,0.157,2.812,0.396,3.953l-0.406-0.24c-0.896-0.026-1.875,0.111-1.969,0.101 c-0.816-0.104-0.539,1.101-1.701,2.457c-1.164,1.354-1.551,1.681-0.521,2.845c1.035,1.163,1.229,1.68,1.229,4.719 c0,3.037,0.322,4.651,0.063,6.721c-0.258,2.068-2.395,3.039-3.94,2.777c-1.551-0.261-2.715,1.032-3.813,2.135 c-1.101,1.1-1.485,0.646-2.197-0.453c-0.711-1.1-1.682-0.451-3.036-0.26c-1.355,0.192-2.326,2.521-3.104,3.168 c-0.774,0.646-0.972-0.711-0.972-2.004s-1.293-1.746-2.586-1.229s-3.748-1.355-5.17-2.393c-1.422-1.033-3.104-1.099-4.07-0.129 c-0.971,0.971-2.264,2.262-3.489,3.104c-1.229,0.84,0.774,1.682,1.229,3.688c0.453,2.004-3.168,0.969-4.396,1.551 s1.422,4.652,1.875,5.558c0.451,0.906,1.101,3.104,2.194,4.013c1.101,0.899,1.033,1.809,2.455,4.065 c1.424,2.267,0.972,3.621,0.646,4.912c-0.322,1.293-3.688-0.388-4.912-0.32c-1.229,0.063-2.004,1.938-2.648,3.427 c-0.646,1.483-1.229,1.032-2.455,0.711c-1.229-0.322-3.488,0-4.719-0.521c-1.229-0.519-3.229,0.192-3.229,0.192L171.449,286.492 z"></path><path id="mapid-421900-outline" fill="none" stroke="#CC2B1F" stroke-width="0.25" stroke-miterlimit="2.6131" d="M265.753,238.322c0,1.383,0.259,2.506,1.384,2.938c1.122,0.436,2.684,0.605,3.198,1.209c0.521,0.605,0.775,0.264,0.347-1.984 s1.473-3.371,2.334-2.684c0.864,0.691,1.646,0.436,2.854,0.691c1.211,0.26,1.644-0.086,2.769,0.951 c1.122,1.037,3.894-1.557,5.104-1.297c1.211,0.258,0.948,0.604,1.645,1.899c0.689,1.3,2.246,0.951,3.197,1.646 c0.951,0.688,0.434,1.123,0.348,2.074c-0.086,0.95,3.979,4.928,1.211,5.621c-2.77,0.69-1.387,1.467,0.086,2.504 c1.475,1.037,1.561,1.559,2.771,0.864c1.211-0.69,1.211-0.776,2.594,0.086c1.384,0.863,5.793,2.074,6.052,0.604 c0.265-1.471,0.604-2.68,1.562-3.198c0.948-0.521,3.545,0,3.022,1.037c-0.521,1.036-0.261,2.508,0.862,1.901 c1.125-0.604,3.894-1.988,4.063-0.69c0.169,1.297,0.688,2.162,1.9,1.297c1.211-0.862,2.682-0.776,2.682-2.073 c0-1.3-0.521-1.73,1.211-1.99c1.729-0.258,2.938,0,3.892,1.561c0.95,1.555,2.073,4.146,3.112,4.668 c1.037,0.521,0.433,1.729,1.813,2.42c1.385,0.689,2.075,1.297,1.559,2.334c-0.521,1.037-2.422,1.813-1.813,3.199 c0.604,1.385,0.862,4.668,0.26,5.357c-0.604,0.69-0.776,1.729-0.346,2.508c0.432,0.777,0.862,1.385-0.174,2.248 c-1.037,0.865-3.113,3.199-5.359,2.074c-2.248-1.123-4.67-2.595-5.445-1.558c-0.777,1.037-3.111,3.717-4.844,4.149 c-1.729,0.433-2.594,0.865-2.072,1.898c0.521,1.039,0.348,2.598-0.604,2.248c-0.95-0.346-1.211,0.779-2.159,0.779 c-0.951,0-1.125,1.035-1.039,1.729c0.088,0.688-0.582,0.232-1.354,0.307c-0.777,0.07-1.063-0.479-1.318-1.172 c-0.26-0.69-0.521,0.433-1.559-0.174c-1.035-0.604-1.56-1.473-2.425-1.559c-0.858-0.086-3.719-1.729-4.317,0.086 c-0.605,1.814-0.265,3.459-1.988,3.459c-1.729,0-1.297-0.861-1.815,0.176c-0.519,1.035-0.86,1.121-1.897,0.346 c-1.036-0.776-1.729,0.347-2.161,1.209c-0.433,0.865-3.544,3.199-4.929,3.199c-1.388,0-3.979,0.689-4.408,1.813 c-0.434,1.125,0.604,3.459,1.298,4.149c0.688,0.689,3.457,2.508,1.123,2.938c-2.335,0.438-3.285,0.865-3.892,2.076 c-0.604,1.209-1.561,2.42-3.024,1.984c-1.472-0.433-3.459-1.209-4.496-0.172c-1.037,1.036-3.199,2.938-4.757,3.805 c-1.555,0.863-0.862,1.985-3.543,1.729c-2.684-0.26-2.684-0.348-2.594-1.729c0.08-1.303,0.926-2.834-0.146-2.82l-0.771-0.348 c0.45-0.773,1.162-1.031,0.063-2.004c-1.101-0.97-1.875-0.646-2.907-0.191c-1.033,0.453-1.354-0.582-2.134-0.582 c-0.774,0-1.812,1.484-2.392,1.551c-0.582,0.063-0.646,1.744-0.711,3.361c-0.065,1.613-1.813,2.584-2.979,3.488 c-1.165,0.903-1.553-1.938-1.422-2.906c0.129-0.973,0.646-3.688,0.773-5.041c0.128-1.354,0.582-6.205,0.52-8.146 c-0.063-1.938-0.52-3.557-0.52-6.012s-0.453-2.326-2.004-3.686c-1.554-1.355-0.904-0.519-2.265-1.422 c-1.354-0.906-0.321-2.066-0.26-3.427c0.063-1.356-1.033-1.682-2.197-2.067c-1.159-0.389-0.387-0.258-0.387-1.229 c0-0.969-1.354-0.191-2.328,0.195c-0.97,0.387-2.455-0.063-3.424-1.102c-0.972-1.033,0.519-1.744,1.812-2.716 c1.293-0.969-0.063-4.588-0.261-5.688c-0.192-1.101,1.103-3.104,1.813-4.719s-1.293-3.619-1.746-4.848 c-0.451-1.229-1.291-2.066-2.394-3.557c-1.1-1.484,4.199-4.783,5.755-5.299c1.551-0.519,4.459-5.043,5.231-6.271 c0.774-1.229,2.067-2.908,3.555-3.427c0.279-0.098,0.492-0.211,0.656-0.342l0.584-0.569c0,0,2.42,1.637,3.383,0.721 c0.966-0.916,2.269-0.387,3.084,0.916c0.817,1.302,0.627,2.507,3.277,2.507c2.647,0,2.893-0.529,3.758-1.445 c0.867-0.916,3.373-2.938,7.035-2.555L265.753,238.322z"></path><path id="mapid-420500-outline" fill="none" stroke="#CC2B1F" stroke-width="0.25" stroke-miterlimit="2.6131" d="M186.66,221.57c0.129,0.455,0.225,1.064,0.264,1.88c0.207,4.264,0.57,9.983-0.207,10.659s-0.469,1.613-0.154,2.443 c0.313,0.831-0.938,1.663,0.568,2.393c1.506,0.729,1.756,1.164,3.033,0.424c1.274-0.742,2.957-2.223,4.03-2.559 c1.074-0.336,3.158-1.818,4.231-0.336c1.074,1.479,2.957,2.151,4.031,2.625c1.076,0.471,5.041-0.875,4.166-3.029 c-0.873-2.156-0.873-3.437-0.201-4.242c0.675-0.809,1.548-2.559,1.548-3.501s0.2-1.481,0.938-1.683 c0.736-0.203,0.807-2.625,2.219-3.638c1.41-1.01,2.822-2.56,2.958-0.674c0.135,1.885-1.211,4.713-0.135,4.778 c1.073,0.068,2.352-0.2,1.881,0.474c-0.474,0.674-1.273,1.349-1.074,3.836c0.201,2.493-0.201,3.907,0.672,3.907 s1.479,0.268,1.814,1.146c0.336,0.875,0.243,1.43-0.918,2.783c-1.162,1.357-1.554,1.684-0.521,2.848 c1.03,1.164,1.229,1.681,1.229,4.717c0,3.039,0.32,4.654,0.063,6.724c-0.264,2.067-2.396,3.037-3.941,2.779 c-1.553-0.261-2.715,1.032-3.813,2.133c-1.098,1.101-1.484,0.646-2.195-0.453c-0.711-1.101-1.684-0.452-3.037-0.258 c-1.355,0.192-2.324,2.521-3.104,3.166c-0.773,0.646-0.971-0.711-0.971-2.004c0-1.291-1.291-1.744-2.584-1.229 c-1.293,0.514-3.75-1.354-5.171-2.392c-1.422-1.035-3.104-1.103-4.071-0.129c-0.972,0.969-2.263,2.262-3.488,3.103 c-1.229,0.842,0.773,1.682,1.229,3.686c0.451,2.006-3.166,0.973-4.396,1.553c-1.229,0.582,1.424,4.652,1.875,5.559 c0.45,0.904,1.102,3.104,2.196,4.008c1.101,0.904,1.033,1.813,2.455,4.07c1.422,2.262,0.969,3.619,0.646,4.912 c-0.321,1.291-3.688-0.389-4.912-0.322c-1.229,0.063-2.004,1.938-2.648,3.424c-0.646,1.486-1.229,1.035-2.455,0.711 c-1.229-0.319-3.488,0-4.719-0.518c-1.229-0.516-3.23,0.195-3.23,0.195l-0.393-0.354c-0.898-0.633-2.129-1.094-2.851-1.475 c-1.348-0.707-1.348-2.125-0.282-2.834c1.063-0.707,0.426-1.561-0.709-2.41s-0.922-0.85-0.778-1.842s-0.709-1.271-1.417-1.98 c-0.709-0.707,0.708-1.488,0.708-2.479c0-0.992-0.852-0.992-1.7,0.071c-0.851,1.063-2.056-0.78-3.474-0.709 c-1.417,0.066-0.564-2.127-0.639-3.401c-0.07-1.274-1.561-1.133-3.261,0.992c-1.7,2.127-2.622,0.426-2.622-0.565 c0-0.992,0.069-3.613,1.063-3.826c0.991-0.213,1.063-1.063,2.553-2.34c1.488-1.273,0.853-2.48,0-3.4 c-0.853-0.922-1.205-2.057-2.622-3.543s-1.63-3.188-2.552-4.465c-0.688-0.953-1.245-2.984-2.021-4.168l-0.405-0.644 c0,0,3.157-2.119,4.505-3.117c1.349-0.997,2.4-0.176,2.4,1.468c0,1.645,1.056,5.396,2.05,4.869 c0.996-0.527,3.455-2.404,4.218-4.048c0.762-1.644,2.519-3.168,3.632-0.998c1.11,2.171,1.935,3.64,4.979,3.697 c3.043,0.058,5.797-1.115,5.854-2.642c0.061-1.524,0.469-4.813-0.232-5.28c-0.703-0.47-4.277-1.39-3.566-3.625 c0.712-2.238-0.809-2.585,0.438-3.21c1.246-0.622,1.145-1.145,0.416-1.092c-0.727,0.054-2.074,0.625-1.922-0.207 c0.156-0.832,2.231-0.832,2.024-2.08s-1.038-2.235-0.207-2.651c0.828-0.416,2.697-1.457,2.181-2.81 c-0.521-1.353-1.039-2.287-0.154-2.08c0.883,0.209,3.113-0.313,3.842-1.248c0.728-0.936,0.883-1.038,2.127-0.778 c1.246,0.261,2.229,0.468,2.646,0.313c0.086-0.033,0.229-0.113,0.396-0.185"></path><path id="mapid-420100-outline" fill="none" stroke="#CC2B1F" stroke-width="0.25" stroke-miterlimit="2.6131" d="M186.807,168.25c1.143-0.581,2.213-1.242,2.521-1.947c0.604-1.383,2.334-1.988,3.717-2.421c1.383-0.432,3.113-1.643,4.41-1.815 s2.506,0,1.899,1.729c-0.604,1.729-1.56,2.421,0.086,3.113c1.646,0.691,1.985,1.47,3.11-0.173 c1.123-1.643,3.894-4.063,4.931-4.15c1.037-0.086,5.103,0.087,5.103-1.296c0-1.383-0.521-2.94,0.778-3.804 c0.563-0.376,1.144-0.817,1.522-1.281l0.232-0.192c0,0,0.838,10.292,2.131,10.825c1.293,0.534,2.282-0.381,2.813,0.762 c0.529,1.144,1.369,5.413,1.674,7.089c0.307,1.677-1.367,8.919-0.605,9.529c0.763,0.61,4.644,1.067,5.101,2.058 c0.457,0.991,1.676,1.982,0.53,2.592c-1.143,0.61-3.956,2.821-3.956,3.507s-0.604,1.829-1.367,2.439 c-0.765,0.61,0.229,5.641,0.073,7.242c-0.151,1.601-0.686,9.071,0.912,8.157c1.601-0.915,3.119-1.523,3.043,0.229 c-0.073,1.752,0.609,2.517-0.836,2.896c-1.442,0.381-1.521,1.066-0.688,2.288c0.836,1.22-0.074,1.905,0.148,4.421 c0.229,2.516,0.912,4.803,2.281,3.734c1.371-1.066,2.438-2.896,3.045-2.286c0.606,0.61,2.205,1.067,2.205,2.362 c0,1.297-0.229,4.191,0.309,4.647l-0.078,0.129c-0.521,0.785-0.729,1.496-0.982,3.323c-0.324,2.328-2.328,2.777-3.559,3.939 c-1.229,1.164-2.266,0.582-2.266-0.582c0-1.162-1.422-1.551-2.457-2.064c-1.029-0.52-1.869-0.775-2.584-0.26 c-0.4,0.295,0.026,1.695,0.266,2.84l0.131,1.111c-0.736-0.81-2.82,0.404-3.156-0.471s-0.94-1.146-1.813-1.146 s-0.472-1.414-0.675-3.905c-0.198-2.49,0.604-3.164,1.076-3.837c0.474-0.673-0.811-0.403-1.883-0.472 c-1.074-0.067,0.271-2.896,0.135-4.78c-0.135-1.886-1.545-0.336-2.958,0.674c-1.41,1.011-1.479,3.435-2.217,3.636 c-0.74,0.201-0.939,0.74-0.939,1.685s-0.873,2.69-1.547,3.5c-0.672,0.808-0.672,2.087,0.201,4.241 c0.873,2.156-3.092,3.5-4.166,3.029c-1.074-0.473-2.957-1.146-4.031-2.625s-3.158,0-4.231,0.336 c-1.075,0.336-2.757,1.816-4.032,2.56c-1.274,0.739-1.526,0.305-3.031-0.425c-1.506-0.729-0.26-1.561-0.569-2.393 c-0.313-0.83-0.623-1.768,0.153-2.443c0.779-0.676,0.416-6.396,0.207-10.658c-0.039-0.813-0.133-1.426-0.264-1.881l-1.596-1.137 c0,0,0.977-2.793-0.178-3.146c-1.147-0.354-2.479-0.8-1.77-1.995c0.709-1.198,1.461-0.71,2.301-0.577 c0.842,0.136,2.655,0.089,3.631-0.887c0.975-0.978,1.551-1.818,1.193-2.793c-0.354-0.978-0.441-1.951,0.313-2.438 c0.752-0.486,1.148-1.597,0.441-2.218c-0.709-0.621-1.814-2.971-0.976-3.769c0.842-0.798,3.496-2.395,3.541-3.192 c0.043-0.798-0.711-5.767-2.047-6.919c-1.334-1.153-2.429-2.002-2.429-3.397c0-1.396,0-5.521-0.481-6.794 c-0.483-1.274-0.91-2.852,0.121-3.519c1.028-0.667,3.272-1.699,1.334-4.731c-1.938-3.033-3.457-5.642-3.457-5.642 L186.807,168.25z"></path><path id="mapid-420400-outline" fill="none" stroke="#CC2B1F" stroke-width="0.25" stroke-miterlimit="2.6131" d="M215.121,156.011c0,0,0.836,10.292,2.131,10.825c1.293,0.534,2.281-0.381,2.813,0.762c0.531,1.144,1.371,5.413,1.679,7.089 c0.305,1.677-1.369,8.919-0.609,9.529c0.764,0.61,4.645,1.067,5.1,2.058c0.457,0.991,1.678,1.982,0.531,2.592 c-1.141,0.61-3.957,2.821-3.957,3.507s-0.604,1.829-1.367,2.439c-0.762,0.61,0.23,5.641,0.074,7.242 c-0.148,1.601-0.684,9.071,0.914,8.157c1.6-0.915,3.119-1.523,3.043,0.229c-0.074,1.752,0.609,2.517-0.838,2.896 c-1.443,0.381-1.521,1.066-0.684,2.288c0.836,1.22-0.076,1.905,0.146,4.421c0.229,2.516,0.913,4.803,2.282,3.734 c1.369-1.066,2.438-2.896,3.043-2.286c0.608,0.61,2.207,1.067,2.207,2.362c0,1.297-0.229,4.191,0.308,4.647l0.422-0.556 c0.901-1.163,2.195-3.297,2.002-0.904c-0.188,2.393,0.063,1.874,1.486,1.813c1.424-0.064,3.297-0.129,4.329,0.772 c1.033,0.903,1.938,0.903,2.714,0.903c0.776,0,0.774,0.841,0.323,1.683c-0.453,0.843-0.901,0.772,0.259,1.486 c1.163,0.711,2.067,0.646,1.813,2.194c-0.115,0.691,0.396,1.441,0.314,1.918l-0.271,0.461c0,0,2.258,1.386,3.221,0.47 c0.965-0.916,2.268-0.388,3.086,0.916c0.818,1.301,0.625,2.506,3.275,2.506c2.646,0,2.893-0.528,3.76-1.444 s3.373-2.939,7.035-2.556l-0.007-0.322c-0.301-1.437-1.725-3.581-2.106-4.276c-0.432-0.777-1.644-4.236-0.521-5.188 c1.125-0.952,1.212-1.383,0.773-1.901c-0.433-0.52-0.519-3.543,0.69-4.929c1.211-1.383,3.892-3.372,4.67-5.793 c0.775-2.42-0.086-2.334-1.901-2.334c-1.813,0-1.558-1.21,0.262-1.47c1.813-0.262,2.425-2.336,2.425-3.805 c0-1.472,0.946-1.558,2.334-0.953c1.383,0.605,1.983-1.038,1.211-2.421c-0.779-1.383-3.287-1.037-4.933-0.864 c-1.646,0.173-1.813-0.519-1.813-1.989c0-1.47-1.037-2.248-1.902-2.507c-0.863-0.26-1.297-0.951-1.297-2.248 s0.086-1.989-0.432-2.68c-0.521-0.692-1.388-1.297-2.771,0.605c-1.386,1.902-1.472-0.432-2.16-1.988 c-0.688-1.556-1.56-1.643-2.248-1.729s-1.037-4.842-0.774-6.139c0.26-1.297,0.86,0,1.813-0.519 c0.948-0.519,1.646-3.804,1.474-5.101c-0.177-1.297,0.604-2.161,0.604-3.372c0-1.21,0.951-3.717,1.902-4.236 s0.951-4.496,0.951-5.879c0-1.383,0.172-2.421,1.211-3.112c1.032-0.692,2.071-2.162,3.545-3.285 c1.469-1.124,1.297-1.989,0.258-2.507c-1.037-0.519-2.334-4.496-3.285-5.879c-0.949-1.383-1.9-1.21-3.457-1.124 c-1.557,0.087-1.297-1.124-1.557-2.593c-0.263-1.47-1.125-1.816-1.902-1.816c-0.775,0-0.174,0.519-1.643,2.507 c-1.474,1.989-5.879,0.865-7.354,0.519c-1.472-0.346-3.371,2.507-3.371,4.236c0,1.729-2.069,1.556-4.931,1.815 c-2.854,0.259-4.842-1.988-5.53-2.421c-0.688-0.432-0.175-4.236-0.435-5.792c-0.262-1.556-1.383-1.643-1.901-3.112 c-0.519-1.47,1.036-1.729,1.562-3.631c0.52-1.902,0.174-3.458-1.3-5.36c-0.103-0.128-0.192-0.239-0.289-0.334l-0.521-0.322 c-1.479,1.899-3.793,2.256-7.702,2.256c-3.91,0-1.658,4.63-2.017,7.124c-0.354,2.494-0.414,3.384-1.188,3.562 c-0.771,0.178,0.117,4.571-0.711,4.809c-0.83,0.237-2.313-0.772-3.613-1.484c-1.305-0.712-0.65,4.333-0.65,4.333 L215.121,156.011z"></path><text transform="matrix(1 0 0 1 258.7581 273.2734)" fill="#040000" font-family="'MicrosoftYaHei'" font-size="8">文山县</text><text transform="matrix(1 0 0 1 229.2366 199.4434)" fill="#040000" font-family="'MicrosoftYaHei'" font-size="8">曲靖市</text><text transform="matrix(1 0 0 1 229.2366 108.4512)" fill="#040000" font-family="'MicrosoftYaHei'" font-size="8">昭通市</text><text transform="matrix(1 0 0 1 61.0583 103.5986)" fill="#040000" font-family="'MicrosoftYaHei'" font-size="8">迪庆藏族自治州</text><text transform="matrix(1 0 0 1 115.429 147.6143)" fill="#040000" font-family="'MicrosoftYaHei'" font-size="8">丽江市</text><text transform="matrix(1 0 0 1 57.2 154.7314)" fill="#040000" font-family="'MicrosoftYaHei'" font-size="8">泸水县</text><text transform="matrix(1 0 0 1 93.5325 188.8633)" fill="#040000" font-family="'MicrosoftYaHei'" font-size="8">大理市</text><text transform="matrix(1 0 0 1 50.1995 213.1973)" fill="#040000" font-family="'MicrosoftYaHei'" font-size="8">保山市</text><text transform="matrix(1 0 0 1 9.364 249.498)" fill="#040000" font-family="'MicrosoftYaHei'" font-size="8">德宏傣族景颇族自治州</text><text transform="matrix(1 0 0 1 89.0071 258.2266)" fill="#040000" font-family="'MicrosoftYaHei'" font-size="8">临沧市</text><text transform="matrix(1 0 0 1 140.3054 308.5605)" fill="#040000" font-family="'MicrosoftYaHei'" font-size="8">普洱市</text><text transform="matrix(1 0 0 1 98.9758 341.3301)" fill="#040000" font-family="'MicrosoftYaHei'" font-size="8">西双版纳傣族自治州</text><text transform="matrix(1 0 0 1 146.5144 224.6016)" fill="#040000" font-family="'MicrosoftYaHei'" font-size="8">楚雄市</text><text transform="matrix(1 0 0 1 186.3889 250.998)" fill="#040000" font-family="'MicrosoftYaHei'" font-size="8">玉溪市</text><text transform="matrix(1 0 0 1 167.075 291.5264)" fill="#040000" font-family="'MicrosoftYaHei'" font-size="8">红河哈尼族彝族自治州</text><text transform="matrix(1 0 0 1 190.7092 208.207)" fill="#040000" font-family="'MicrosoftYaHei'" font-size="8">昆明市</text></g></g><g id="临沧市_1_"><circle id="mapid-420900-circle" fill="#E60012" cx="86.726" cy="261.966" r="1.5"></circle><circle id="_x34_20999" fill="#040000" cx="103.914" cy="261.373" r="1.5"></circle><circle id="_x34_20901" fill="#040000" cx="102.414" cy="262.873" r="1.5"></circle><circle id="_x34_20908" fill="#040000" cx="94.581" cy="278.498" r="1.5"></circle><circle id="_x34_20902" fill="#040000" cx="99.025" cy="233.111" r="1.5"></circle><circle id="_x34_20904" fill="#040000" cx="73.37" cy="256.376" r="1.5"></circle><circle id="_x34_20906" fill="#040000" cx="72.871" cy="292.125" r="1.5"></circle><circle id="_x34_20905" fill="#040000" cx="58.701" cy="266.792" r="1.5"></circle><circle id="_x34_20907" fill="#040000" cx="78.829" cy="276.998" r="1.5"></circle><circle id="_x34_20903" fill="#040000" cx="105.603" cy="239.751" r="1.5"></circle></g><g id="保山市_1_"><circle id="mapid-420700-circle" fill="#E60012" cx="63.573" cy="217.502" r="1.5"></circle><circle id="_x34_20799" fill="#040000" cx="70.37" cy="209.707" r="1.5"></circle><circle id="_x34_20703" fill="#040000" cx="46.414" cy="213.729" r="1.5"></circle><circle id="_x34_20702" fill="#040000" cx="71.87" cy="226.102" r="1.5"></circle><circle id="_x34_20705" fill="#040000" cx="86.726" cy="221.257" r="1.5"></circle><circle id="_x34_20701" fill="#040000" cx="72.871" cy="211.207" r="1.5"></circle><circle id="_x34_20704" fill="#040000" cx="53.182" cy="231.611" r="1.5"></circle></g><g id="德宏傣族景颇族自治州"><circle id="mapid-422200-circle" fill="#E60012" cx="32.51" cy="233.111" r="1.5"></circle><circle id="_x34_22299" fill="#040000" cx="49.414" cy="237.02" r="1.5"></circle><circle id="_x34_22201" fill="#040000" cx="46.913" cy="238.52" r="1.5"></circle><circle id="_x34_22202" fill="#040000" cx="38.534" cy="222.02" r="1.5"></circle><circle id="_x34_22203" fill="#040000" cx="23.746" cy="226.102" r="1.5"></circle><circle id="_x34_22205" fill="#040000" cx="20.329" cy="254.354" r="1.5"></circle><circle id="_x34_22204" fill="#040000" cx="18.413" cy="246.936" r="1.5"></circle></g><g id="红河哈尼族彝族自治州"><circle id="mapid-421800-circle" fill="#E60012" cx="209.49" cy="281.688" r="1.5"></circle><circle id="_x34_21803" fill="#040000" cx="225.496" cy="284.688" r="1.5"></circle><circle id="_x34_21820" fill="#040000" cx="218.246" cy="307.063" r="1.5"></circle><circle id="_x34_21819" fill="#040000" cx="245.121" cy="317.167" r="1.5"></circle><circle id="_x34_21818" fill="#040000" cx="233.996" cy="298.865" r="1.5"></circle><circle id="_x34_21899" fill="#040000" cx="223.996" cy="283.188" r="1.5"></circle><circle id="_x34_21801" fill="#040000" cx="215.916" cy="284.063" r="1.5"></circle><circle id="_x34_21805" fill="#040000" cx="203.996" cy="272.527" r="1.5"></circle><circle id="_x34_21806" fill="#040000" cx="192.209" cy="269.527" r="1.5"></circle><circle id="_x34_21802" fill="#040000" cx="219.746" cy="269.527" r="1.5"></circle><circle id="_x34_22502" fill="#040000" cx="218.246" cy="270.417" r="1.5"></circle><circle id="_x34_21807" fill="#040000" cx="225.496" cy="240.667" r="1.5"></circle><circle id="_x34_21808" fill="#040000" cx="236.996" cy="236.102" r="1.5"></circle><circle id="_x34_21809" fill="#040000" cx="203.996" cy="289.292" r="1.5"></circle><circle id="_x34_21804" fill="#040000" cx="188.33" cy="298.167" r="1.5"></circle><circle id="_x34_21817" fill="#040000" cx="190.709" cy="284.063" r="1.5"></circle></g><g id="文山县_1_"><circle id="mapid-421900-circle" fill="#E60012" cx="273.876" cy="268.027" r="1.5"></circle><circle id="_x34_21901" fill="#040000" cx="254.371" cy="283.188" r="1.5"></circle><circle id="_x34_21902" fill="#040000" cx="256.869" cy="271.917" r="1.5"></circle><circle id="_x34_21905" fill="#040000" cx="259.869" cy="296.667" r="1.5"></circle><circle id="_x34_21904" fill="#040000" cx="270.869" cy="292.292" r="1.5"></circle><circle id="_x34_21903" fill="#040000" cx="270.869" cy="279.146" r="1.5"></circle><circle id="_x34_21908" fill="#040000" cx="305.743" cy="271.917" r="1.5"></circle><circle id="_x34_21907" fill="#040000" cx="283.371" cy="253.197" r="1.5"></circle><circle id="_x34_21906" fill="#040000" cx="251.371" cy="254.042" r="1.5"></circle></g><g id="西双版纳"><circle id="mapid-422000-circle" fill="#E60012" cx="138.806" cy="336.83" r="1.5"></circle><circle id="_x34_22001" fill="#040000" cx="131.246" cy="339.68" r="1.5"></circle><circle id="_x34_22099" fill="#040000" cx="129.079" cy="339.83" r="1.5"></circle><circle id="_x34_22002" fill="#040000" cx="117.079" cy="341.18" r="1.5"></circle><circle id="_x34_22003" fill="#040000" cx="159.996" cy="360.458" r="1.5"></circle></g><g id="大理市_1_"><circle id="mapid-422100-circle" fill="#E60012" cx="106.127" cy="185.862" r="1.5"></circle><circle id="_x34_22109" fill="#040000" cx="108.603" cy="152.292" r="1.5"></circle><circle id="_x34_22108" fill="#040000" cx="99.183" cy="153.231" r="1.5"></circle><circle id="_x34_22106" fill="#040000" cx="80.329" cy="180.687" r="1.5"></circle><circle id="_x34_22107" fill="#040000" cx="100.683" cy="170.792" r="1.5"></circle><circle id="_x34_22105" fill="#040000" cx="85.433" cy="197.882" r="1.5"></circle><circle id="_x34_22117" fill="#040000" cx="99.025" cy="192.752" r="1.5"></circle><circle id="_x34_22119" fill="#040000" cx="113.929" cy="208.066" r="1.5"></circle><circle id="_x34_22118" fill="#040000" cx="121.195" cy="216.002" r="1.5"></circle><circle id="_x34_22104" fill="#040000" cx="120.27" cy="204.036" r="1.5"></circle><circle id="_x34_22102" fill="#040000" cx="123.27" cy="197.203" r="1.5"></circle><circle id="_x34_22103" fill="#040000" cx="124.195" cy="182.187" r="1.5"></circle><circle id="_x34_22199" fill="#040000" cx="109.996" cy="191.252" r="1.5"></circle><circle id="_x34_22101" fill="#040000" cx="111.496" cy="192.752" r="1.5"></circle></g><g id="丽江市"><circle id="mapid-420800-circle" fill="#E60012" cx="126.186" cy="138.417" r="1.5"></circle><circle id="_x34_20899" fill="#040000" cx="111.496" cy="137.904" r="1.5"></circle><circle id="_x34_20805" fill="#040000" cx="111.496" cy="139.917" r="1.5"></circle><circle id="_x34_20801" fill="#040000" cx="112.996" cy="142.917" r="1.5"></circle><circle id="_x34_20803" fill="#040000" cx="149.246" cy="150.231" r="1.5"></circle><circle id="_x34_20802" fill="#040000" cx="130.086" cy="147.613" r="1.5"></circle><circle id="_x34_20804" fill="#040000" cx="134.746" cy="123.167" r="1.5"></circle></g><g id="迪庆藏族自治州"><circle id="mapid-422400-circle" fill="#E60012" cx="85.433" cy="99.792" r="1.5"></circle><circle id="_x34_22403" fill="#040000" cx="78.533" cy="127.417" r="1.5"></circle><circle id="_x34_22499" fill="#040000" cx="95.033" cy="103.599" r="1.5"></circle><circle id="_x34_22401" fill="#040000" cx="94.283" cy="101.292" r="1.5"></circle><circle id="_x34_22402" fill="#040000" cx="65.558" cy="72.917" r="1.5"></circle></g><g id="怒江傈僳族自治州"><circle id="mapid-422300-circle" fill="#E60012" cx="69.639" cy="140.904" r="1.5"></circle><circle id="_x34_22301" fill="#040000" cx="60.558" cy="179.187" r="1.5"></circle><circle id="_x34_22399" fill="#040000" cx="60.558" cy="181.687" r="1.5"></circle><circle id="_x34_22304" fill="#040000" cx="77.871" cy="148.731" r="1.5"></circle><circle id="_x34_22302" fill="#040000" cx="62.558" cy="136.404" r="1.5"></circle><circle id="_x34_22303" fill="#040000" cx="56.183" cy="102.099" r="1.5"></circle></g><g id="楚雄市_1_"><circle id="mapid-421700-circle" fill="#E60012" cx="162.76" cy="203.626" r="1.5"></circle><circle id="_x34_21707" fill="#040000" cx="164.926" cy="174.785" r="1.5"></circle><circle id="_x34_21706" fill="#040000" cx="152.246" cy="188.042" r="1.5"></circle><circle id="_x34_21704" fill="#040000" cx="149.246" cy="209.707" r="1.5"></circle><circle id="_x34_21708" fill="#040000" cx="171.828" cy="188.862" r="1.5"></circle><circle id="_x34_21703_1_" fill="#040000" cx="159.76" cy="205.536" r="1.5"></circle><circle id="_x34_21702" fill="#040000" cx="162.576" cy="231.611" r="1.5"></circle><circle id="_x34_21701" fill="#040000" cx="160.384" cy="217.502" r="1.5"></circle><circle id="_x34_21799" fill="#040000" cx="158.884" cy="215.229" r="1.5"></circle><circle id="_x34_21717" fill="#040000" cx="179.162" cy="211.207" r="1.5"></circle><circle id="_x34_21709" fill="#040000" cx="190.709" cy="197.203" r="1.5"></circle><circle id="_x34_21705" fill="#040000" cx="147.746" cy="197.203" r="1.5"></circle></g><g id="昆明市_1_"><circle id="mapid-420100-circle" fill="#E60012" cx="206.766" cy="200.626" r="1.5"></circle><circle id="mapid-422500-circle" fill="#040000" cx="196.828" cy="218.46" r="1.5"></circle><circle id="_x34_20118" fill="#040000" cx="220.912" cy="226.627" r="1.5"></circle><circle id="_x34_20109" fill="#040000" cx="216.6" cy="220.627" r="1.5"></circle><circle id="_x34_20199" fill="#040000" cx="201.824" cy="218.793" r="1.5"></circle><circle id="_x34_22501" fill="#040000" cx="199.828" cy="218.46" r="1.5"></circle><circle id="_x34_22599" fill="#040000" cx="200.766" cy="219.627" r="1.5"></circle><circle id="_x34_20104" fill="#040000" cx="198.328" cy="215.793" r="1.5"></circle><circle id="_x34_20101" fill="#040000" cx="199.828" cy="213.197" r="1.5"></circle><circle id="_x34_20102" fill="#040000" cx="202.266" cy="214.697" r="1.5"></circle><circle id="_x34_20103" fill="#040000" cx="203.766" cy="216.96" r="1.5"></circle><circle id="_x34_20105" fill="#040000" cx="204.824" cy="222.627" r="1.5"></circle><circle id="_x34_20106" fill="#040000" cx="197.684" cy="230.627" r="1.5"></circle><circle id="_x34_20107" fill="#040000" cx="193.564" cy="220.627" r="1.5"></circle><circle id="_x34_20108" fill="#040000" cx="194.684" cy="208.066" r="1.5"></circle><circle id="_x34_20117" fill="#040000" cx="212.684" cy="203.626" r="1.5"></circle><circle id="_x34_20121" fill="#040000" cx="220.078" cy="194.709" r="1.5"></circle><circle id="_x34_20120" fill="#040000" cx="218.578" cy="172.792" r="1.5"></circle><circle id="_x34_20119" fill="#040000" cx="194.162" cy="194.709" r="1.5"></circle></g><g id="邵通市"><circle id="mapid-420300-circle" fill="#E60012" cx="245.266" cy="104.594" r="1.5"></circle><circle id="_x34_20305" fill="#040000" cx="239.953" cy="103.599" r="1.5"></circle><circle id="_x34_20307" fill="#040000" cx="239.246" cy="70.917" r="1.5"></circle><circle id="_x34_20318" fill="#040000" cx="254.871" cy="68.63" r="1.5"></circle><circle id="_x34_20304" fill="#040000" cx="251.246" cy="88.292" r="1.5"></circle><circle id="_x34_20317" fill="#040000" cx="278.246" cy="99.167" r="1.5"></circle><circle id="_x34_20308" fill="#040000" cx="272.376" cy="116.667" r="1.5"></circle><circle id="_x34_20309" fill="#040000" cx="245.943" cy="109.432" r="1.5"></circle><circle id="_x34_20399" fill="#040000" cx="234.621" cy="121.792" r="1.5"></circle><circle id="_x34_20301" fill="#040000" cx="234.621" cy="120.292" r="1.5"></circle><circle id="_x34_20302" fill="#040000" cx="228.371" cy="127.792" r="1.5"></circle><circle id="_x34_20303" fill="#040000" cx="212.283" cy="139.229" r="1.5"></circle><circle id="_x34_20306" fill="#040000" cx="228.371" cy="88.292" r="1.5"></circle></g><g id="曲靖市_1_"><circle id="mapid-420400-circle" fill="#E60012" cx="243.496" cy="190.362" r="1.5"></circle><circle id="_x34_20406" fill="#040000" cx="253.371" cy="221.127" r="1.5"></circle><circle id="_x34_20407" fill="#040000" cx="243.496" cy="222.627" r="1.5"></circle><circle id="_x34_20408" fill="#040000" cx="231.936" cy="215.46" r="1.5"></circle><circle id="_x34_20403" fill="#040000" cx="229.24" cy="198.703" r="1.5"></circle><circle id="_x34_20402" fill="#040000" cx="236.996" cy="192.703" r="1.5"></circle><circle id="_x34_20401" fill="#040000" cx="236.996" cy="199.382" r="1.5"></circle><circle id="_x34_20499" fill="#040000" cx="236.996" cy="197.882" r="1.5"></circle><circle id="_x34_20405" fill="#040000" cx="252.371" cy="188.862" r="1.5"></circle><circle id="_x34_20404" fill="#040000" cx="247.4" cy="166.362" r="1.5"></circle><circle id="_x34_20409" fill="#040000" cx="218.578" cy="159.167" r="1.5"></circle></g><g id="玉溪市_1_"><circle id="mapid-420500-circle" fill="#E60012" cx="185.875" cy="248.58" r="1.5"></circle><circle id="_x34_20508" fill="#040000" cx="165.576" cy="256.609" r="1.5"></circle><circle id="_x34_20509" fill="#040000" cx="175.412" cy="274.027" r="1.5"></circle><circle id="_x34_20504" fill="#040000" cx="203.578" cy="253.197" r="1.5"></circle><circle id="_x34_20507" fill="#040000" cx="190.709" cy="250.998" r="1.5"></circle><circle id="_x34_20599" fill="#040000" cx="196.184" cy="242.875" r="1.5"></circle><circle id="_x34_20501" fill="#040000" cx="196.85" cy="241.375" r="1.5"></circle><circle id="_x34_20502" fill="#040000" cx="203.324" cy="244.958" r="1.5"></circle><circle id="_x34_20505" fill="#040000" cx="210.24" cy="249.498" r="1.5"></circle><circle id="_x34_20503" fill="#040000" cx="209.49" cy="230.627" r="1.5"></circle><circle id="_x34_20506" fill="#040000" cx="181.078" cy="230.627" r="1.5"></circle></g><g id="普洱市"><circle id="mapid-420600-circle" fill="#E60012" cx="125.443" cy="291.523" r="1.5"></circle><circle id="_x34_20602" fill="#040000" cx="88.226" cy="312.792" r="1.5"></circle><circle id="_x34_20605" fill="#040000" cx="100.476" cy="316.132" r="1.5"></circle><circle id="_x34_20699" fill="#040000" cx="137.996" cy="307.063" r="1.5"></circle><circle id="_x34_20607" fill="#040000" cx="168.42" cy="314.632" r="1.5"></circle><circle id="_x34_20604" fill="#040000" cx="163.121" cy="279.998" r="1.5"></circle><circle id="_x34_20606" fill="#040000" cx="127.941" cy="277.667" r="1.5"></circle><circle id="_x34_20603" fill="#040000" cx="132.746" cy="239.875" r="1.5"></circle><circle id="_x34_20617" fill="#040000" cx="141.806" cy="258.109" r="1.5"></circle><circle id="_x34_20608" fill="#040000" cx="144.246" cy="294.525" r="1.5"></circle><circle id="_x34_20601" fill="#040000" cx="132.746" cy="308.563" r="1.5"></circle><circle id="_x34_20609" fill="#040000" cx="86.726" cy="325.292" r="1.5"></circle></g><g id="云南省高级人民法院"><circle id="mapid-429900-circle" fill="#040000" cx="200.766" cy="217.293" r="1.5"></circle></g></g></g></svg>