<?xml version="1.0" encoding="utf-8"?><!DOCTYPE svg PUBLIC "-//W3C//DTD SVG 1.1//EN" "http://www.w3.org/Graphics/SVG/1.1/DTD/svg11.dtd"><svg version="1.1" id="svgMap" xmlns="http://www.w3.org/2000/svg" xmlns:xlink="http://www.w3.org/1999/xlink" x="0px" y="0px" width="268.191px" height="429.203px" viewbox="0 -19.797 268.191 429.203" enable-background="new 0 -19.797 268.191 429.203" xml:space="preserve"><g id="perspective"><g id="svgMapBj"><g><path fill="none" stroke="#CC2B1F" stroke-width="0.25" stroke-miterlimit="10" d="M224.188,72.068 c1.934-1.253,2.374-5.197,2.501-6.825c0.124-1.628,1.188-3.192,1.687-3.631c0.5-0.438-0.124-1.503-0.813-1.064 c-0.688,0.438-0.75,0-0.563-1.127c0.188-1.127-0.373-0.751-1.125-0.126c-0.751,0.625-0.374-0.188-0.501-1.252 c-0.129-1.064-1.562,0.25-1.562-0.5c0-0.752-0.75-1.128-1.063-2.317c-0.312-1.189,1.063-3.193,1.875-3.944 c0.814-0.751,0.688-1.377-0.061-2.003c-0.746-0.626-1.062-0.062-1.502,0.376c-0.438,0.438-0.747,0.563-2,0.25 c-1.249-0.313-1.688,1.188-2.376,1.815c-0.688,0.627-2.313,0.063-2.876,0.813c-0.562,0.752-1.314,2.442-2.438,3.319 c-1.127,0.876-2.376,4.946-2.688,5.823c-0.313,0.876-1.248,0.25-2.751,1.064c-1.5,0.813-2.122-2.128-2.75-3.569 c-0.625-1.44-0.688-1.19-1.875-0.501c-1.188,0.688-1.688-0.438-2.063,0.188c-0.372,0.626-0.5,1.628-1.688,1.628 s-3.374-2.379-4.374-4.007c-1-1.627-1.815-1.627-2.689-1.627c-0.873,0-1.434,0.375-1.313,1.565 c0.124,1.189,0.813,1.753,1.563,2.379c0.749,0.625,0.563,1.816,0.563,3.005c0,1.19,0.248,1.001-0.688,1.315 c-0.936,0.314-4.624,2.317-5.751,2.943c-1.126,0.627-2.688,2.505-3.249,3.695c-0.563,1.189-2.188,1.001-3.563,1.439 c-1.374,0.438-1.315,0.564-2.249,0.626c-0.938,0.063-1.438,3.131-1.5,4.258c-0.064,1.127-1.127,3.067-1.688,3.694 c-0.563,0.626-1.063,1.127-1.625,2.379c-0.562,1.252-2.002,0.751-3.376,0.751s-1.937,0.876-2.123,2.004 c-0.188,1.127-0.876,2.003-1.876,2.254s-0.749,1.816-0.749,3.319s-1.561,2.004-2.999,2.004c-1.437,0-2.001,0.939-3.063,1.44 c-1.063,0.501-1.374,1.878-1.438,2.817c-0.059,0.939-1.5,1.942-2.375,2.317s-1.125,0.876-1.125,1.753s-0.688,1.753-1.25,2.192 c-0.562,0.439-0.813,1.502-0.687,2.817s-0.876,3.005-1.128,3.758c-0.248,0.751,1.375,3.005,2.25,3.443 c0.874,0.438,0.748,1.315,0.748,2.567c0,1.251-0.313,2.817-0.563,3.381c-0.248,0.564-1.245,1.816-2.621,2.254 c-1.374,0.439-1.625-2.38-2.124-3.882c-0.499-1.503-1.563-0.814-2.188-0.376c-0.628,0.438,0,1.002,0.373,1.565 c0.374,0.564-0.873,1.315-1.372,1.503c-0.504,0.188-0.503,0.939,0.123,1.753c0.626,0.815,0.248,2.192,0.248,3.193 c0,1.003-0.061,1.503-0.248,2.567s-0.188,1.44,0,2.63c0.188,1.189-0.313,1.878-1.249,1.377s-1.125-0.063-2.5,1.377 c-1.375,1.44-3.378,0.126-4.064-0.813c-0.688-0.939-2.436,0.125-3.809,0.563c-1.376,0.438-2.25-0.563-3.378-0.063 c-1.125,0.501-1.188,1.378-2.75,0.313c-1.563-1.063-2.75,0.188-4.063,1.19c-1.312,1.001-2.375-0.313-3.688-0.939 c-1.313-0.625-2.001-4.319-2.376-5.51c-0.375-1.19-3.81-2.63-5.561-2.88s-3.626-1.127-4.688-2.004 c-1.063-0.877-1.688,0.438-1.125,0.438c0.56,0-0.063,1.19-0.375,2.881c-0.313,1.689-2.501,1.565-4.125,1.44 c-1.625-0.126-1.438,1.189-1.75,2.378c-0.313,1.189-1.125,0.815-2.122,0.815c-1.002,0-0.502,0.187-0.502,1.377 c0,1.188-1.623,1.627-2.563,2.191c-0.937,0.564,0.063,0.752,0.687,1.69c0.627,0.939,0.563,1.253,0.128,1.942 c-0.44,0.689-1.875,1.814-2.19,2.817c-0.313,1.001-0.501,1.19-0.438,2.254c0.063,1.064,0.187,2.192-0.563,2.755 c-0.747,0.564-0.125,1.002,0.5,1.627c0.628,0.627,0.25,1.252,0.628,1.879c0.374,0.627,0.125,1.252-0.313,1.252 s-0.501,0.438,0.126,1.002c0.625,0.563,1.375,1.502,1.375,2.754s-0.688,1.816-1.25,1.315s-0.438,0.813-0.499,1.941 c-0.063,1.127,0,3.506,0,4.884s-0.625,1.815,0.499,1.628c1.128-0.188,2.063,0,2.813,0.5c0.748,0.5,1.624,0.5,2,0.313 c0.375-0.188,0.813,0.188,1.875,0.627c1.063,0.438,0.188,1.626,0.938,2.128c0.748,0.501,2.81,1.69,4.125,1.44 c0.237-0.046,0.478-0.062,0.731-0.056l0.132-0.029c0,0,2.162-1.281,1.802-2.522c0.362,1.242-1.69,2.453-1.69,2.453l0.385,0.155 c0.98,0.142,2.11,0.521,3.576,0.814c2.188,0.438,3.123,1.315,3.938,1.816c0.813,0.5,1.125,2.128,1.375,3.255 c0.248,1.127,0.687,0.814,1.125,0.438c0.439-0.376,0.75-0.062,1.625,0.063s0.813,0.939,0.125,2.003 c-0.688,1.065,0.688,1.065,1.813,1.378c1.127,0.313,1.876,1.815,3.313,1.815c1.438,0,0-1.691,0.562-2.379 c0.563-0.689,0.875,0.5,1,1.627c0.125,1.127,1.563,1.001,3,0.813c1.436-0.188,2.063,0.814,2.377,2.128 c0.313,1.315,1.247,2.317,1.813,3.193c0.563,0.877,2.001-0.188,2.25-0.876c0.249-0.689,0.938-0.877,1.563-0.188 s1.499,0.751,2.123,0.751c0.626,0,0.873,0.125,1.624,1.127c0.749,1.002,1.188,1.127,2.251,1.878 c1.063,0.75-0.188,3.005-1.315,4.008c-1.126,1.001,0.128,3.882,1.062,4.696c0.938,0.813,0.439,2.629-0.059,3.694 c-0.499,1.065-0.375,1.69-0.063,2.755c0.313,1.063-0.875,1.438-1.063,2.565c-0.188,1.129-1.063,1.19-2,1.129 c-0.937-0.063-1.624,0.813-2.624,1.564c-1,0.751-0.688,1.628-0.438,2.755c0.248,1.127,0.188,2.815,0.313,4.069 c0.125,1.252,0.376,2.066,0.438,3.506c0.063,1.439,1.25,2.316,2.378,3.07c0.36,0.24,0.541,0.514,0.609,0.801 c0,0,0.959,0.021,1.886,0.213c-0.729-0.129-1.409-0.127-1.409-0.127l-0.461-0.02c0.106,0.594-0.231,1.25-0.438,1.822 c-0.314,0.877-0.127,1.002,0.438,2.314c0.564,1.316,0.438,1.628-0.313,2.818c-0.748,1.191-0.063,1.504-0.063,2.316 s-1.562,1.249-2.187,1.249c-0.628,0-1.438,0.188-2.25,0.94c-0.814,0.75-4.313,0.188-5.625-0.188 c-1.315-0.376-1.688,0.123-2.502,0.688c-0.813,0.563-1.624-0.813-2.623-1.439c-1.002-0.626-4.688,1.439-6.375,2.505 c-1.688,1.065-1.815,0.501-2.003-0.563c-0.186-1.064-0.747-0.313-1.436,0.313c-0.688,0.627-3.438-1.25-4.563-2.127 c-1.126-0.876-1.313-0.814-2.001-0.314c-0.688,0.502,0.125,0.564,0.063,1.506c-0.063,0.937-1.188,1.127-2.25,0.937 c-1.063-0.187,0.248,1.94,1.125,3.131c0.875,1.188,0.44,1.754,1.25,3.319c0.812,1.564,1.563,1.879,2.438,2.503 c0.875,0.627,1.936,1.188,1,2.503c-0.231,0.325-0.505,0.557-0.803,0.729l-0.423,0.346c-0.821,0.309-1.712,0.076-2.399,0.117 c-1.063,0.063-2.188,0.562-2.938,1.252c-0.747,0.687-0.56,0.563-1.312-0.439c-0.75-1.003-1.314-0.75-2.188-0.75 c-0.875,0-0.5,0.313-1.563,1.314c-1.063,1.006-2.375,0-3.625-0.188s-2.251,0.314-3-0.25c-0.747-0.561-1.188-0.561-1.562,0.188 c-0.374,0.752-1.001,0.752-2.188,1.506c-1.188,0.748-1.5-0.063-1.624-1.064c-0.128-1.002-0.628-1.504-2.063-1.691 c-1.437-0.188-1.501-0.877-1.437-2.004c0.062-1.127-1.313-1.565-2-1.565c-0.688,0-2.25-1.002-2.875-1.879 c-0.628-0.877-1.251-1.251-2.378-1.063c-1.125,0.188-2.688,0.188-3.811,0c-1.127-0.188-1.688,0.062-2.75,0.627 c-1.062,0.563-2.438,0.25-3.878,0.063c-1.434-0.188-1.434-0.126-1.434,0.563s-0.25,1.377-1.316,2.065 c-1.06,0.69-0.438,3.633-0.438,4.635c0,1.001,1.313,2.191,2.188,3.132c0.875,0.938-0.625,1.814-0.625,2.877 c0,1.066-0.375,1.191-1.313,1.256c-0.937,0.06-1.437,1.127-2.188,2.063c-0.748,0.938,0.313,1.255-0.062,1.88 c-0.373,0.626-1.435,0-2.001,0.75c-0.563,0.75-0.875,0.814-2.063,0.814c-1.187,0-0.748,1.503-0.562,2.755 c0.187,1.253,2.188,1.003,3.999,1.253c1.813,0.248,2.125,0.813,3.312,1.504c1.188,0.688,2.563,2.314,3,3.63 c0.44,1.318,1.875,1.438,2.375,2.129c0.503,0.688,0.375,2.882-0.624,3.882c-1.001,1.002-3.313,0.188-4.187-0.627 c-0.874-0.815-1.126,0.061-2.313,0.627c-1.187,0.563-0.125,1.002,0.875,1.127c1,0.127,1.063,0.752,1.125,1.816 c0.063,1.063,0.501,1.878,1.25,2.566c0.75,0.688-1,1.752-2.25,1.752s-1.063,0.188-1.126,1.252 c-0.062,1.063-2.249,5.572-2.876,7.201c-0.626,1.627-0.561,2.381,0.814,2.504c1.375,0.125,1.187,0.877,0.688,1.316 c-0.501,0.438-0.815,0.749-0.375,1.315c0.438,0.562,0.624,1.504,0.624,2.313c0,0.816,0.375,1.942,1.316,1.88 c0.936-0.063,1.624,1.815,2.063,2.756c0.131,0.281,0.24,0.555,0.309,0.807l0.058,0.729c0,0,1.563-0.074,1.637-1.266 c-0.075,1.19-1.585,1.338-1.585,1.338s-0.222,0.398-0.546,0.584c-0.747,0.439-0.812,1.005-0.812,2.006s-1,1.316-1.5,0.689 s-0.938-0.438-1.688-0.564c-0.75-0.125-0.75-0.813-1.188-2.88c-0.44-2.065-1.502-0.502-1.502-0.502s-0.625,0.439-1.188,0.938 c-0.56,0.501-1.248-0.061-2-0.627c-0.75-0.563-1-0.313-1.938,0.249c-0.937,0.563-1.375,0.249-2.438,1.254 c-1.061,1.001-2.437-0.816-3.125-2.067c-0.688-1.252-1.062-0.813-2.75-0.438c-1.688,0.374-1.126,0-2.313,0.374 c-1.188,0.375-0.938,0.876-1.5,1.814c-0.563,0.938-1.375,0-1.688,0.816c-0.313,0.813-0.688,1.249-1.126,1.625 c-0.437,0.377-0.625,1.879-0.5,2.884c0.125,1.002,0.188,1.313-0.749,1.938c-0.937,0.631-3.125-0.376-3.813-0.313 c-0.688,0.063-0.188,2.13,0.625,2.443c0.813,0.313,0.624,0.688,0.187,1.315c-0.437,0.629,0.5,1.128,1.438,1.814 c0.937,0.688,2,1.063,3.563,1.69c1.563,0.627,2,0.314,2.75,0.938c0.75,0.627,0.813,2.127,0.188,2.814 c-0.626,0.689-0.938-0.248-1-0.813c-0.063-0.563-0.5-0.627-0.813-0.126c-0.312,0.5-0.125,1.314,0.125,2.379 c0.249,1.063,0.249,1.001-0.063,2.064c-0.313,1.065-0.188,1.004,0,2.131c0.188,1.125-0.25,1.001-0.688,1.564 c-0.44,0.563-1.25,1.377-2.501,1.188c-1.25-0.188-2,0.626-2.749,1.253c-0.75,0.625-1.501,1.001-2.625,0.876 c-1.125-0.13-1.688,0-3.062,0.501c-1.375,0.5-2.813-1.319-3.688-1.439c-0.875-0.126,0.688,3.382,1.188,4.633 c0.5,1.253,0.688,2.009,0.688,3.131c0,1.128,0.188,1.754,1.438,1.881s3.438-1.626,4.25-2.503c0.811-0.877,1.563,0,2.563,0.249 s1.188-1.626,1.313-2.384c0.125-0.748,2.75-0.626,4-0.813c1.25-0.188,1.563-0.063,2.562,0.247c1,0.315,1.5-0.69,1.625-1.378 c0.125-0.69,0.937,0.876,1.875,1.564c0.937,0.688-0.563,1.882-1.062,3.26c-0.5,1.378,2.438,1.378,3.373,2.064 c0.938,0.691,3.313,1.692,4.94,1.753c1.624,0.062,2.063,0.561,3.063,1.438c1,0.876,1.375,0.816,1.75,0.128 c0.372-0.692,0.625-0.63,1.435-0.505c0.812,0.13,1.5-0.188,2.001-0.689c0.501-0.499,1.25-0.438,2.437-0.125 c1.188,0.313,3.063-1.314,4.188-2.128c1.125-0.813,1.687-0.44,2.562,0.25c0.875,0.688,1.624,0.563,2.75,0.248 c1.125-0.313,1.375-0.248,2.374,0.13c1,0.374,5,0,5.875,0.058c0.875,0.063,0.248,1.191,0.937,1.941 c0.687,0.75-0.313,1.318,0.188,2.883c0.5,1.563-0.375,2.314-0.812,3.002c-0.44,0.689,1.188,2.443,2.374,2.443 c1.188,0,1.563,0.439,2.125,1.063c0.56,0.628,1.562,2.256,2.249,1.623c0.688-0.626,2.688-3.188,3.938-4.69 c1.248-1.508,1.814-0.629,2.437,0.059c0.626,0.689,0.063,3.571,0.063,4.319c0,0.753,1.125,1.941,1.688,1.629 c0.563-0.313,2.188,0.748,3.125-0.126c0.936-0.878,1.624-0.878,3-0.629c1.375,0.248,1.625,1.503,2.25,2.755 c0.627,1.251,1.502,1.251,2.25,1.251c0.751,0,0.563,0.563,0.813,1.378c0.251,0.814,0.628,1.25,1.689,2.379 c1.062,1.128,1.127,1.753,2.75,1.692c1.625-0.061,2.001,2.382,3.123,2.382c1.126,0,2.313-2.193,2.502-3.193 c0.141-0.754,2.5-0.482,4.127-0.4l-0.029-0.67c0.019,0.241,0.029,0.471,0.029,0.67l0.202,0.06 c0.472,0.021,0.793-0.057,1.046-0.095c1.128-0.188,1.002-1.128,1.25-1.941c0.25-0.813,1.687,0.188,2.812,1.127 c1.125,0.938,1.436,0.374,2.063-0.248c0.625-0.627,2.436-0.313,4.25-0.249c1.812,0.062,1.187,0.688,1.434,1.814 c0.25,1.127,0.875,1.004,1.938,1.564c1.063,0.564,1.874,1.315,2.624,2.128c0.747,0.815,1.937,1.627,3.063,1.627 c1.124,0,1.188,0.188,1.749,0.938c0.561,0.747,1,1.001,1.688,1.378c0.687,0.374,2.188,1.063,2.75,2.127 c0.561,1.063,2.438,1.004,4.251,1.063c1.813,0.062,3.877,2.256,5.25,3.259c1.375,1.004,2.062,1.505,2.688,2.313 c0.627,0.817,1.127,1.506,2,1.506c0.876,0,0.313,1.438,0.563,2.628c0.248,1.192,1.875,1.626,2.938,1.626 c1.063,0,2.188-0.125,2.999-0.563c0.816-0.438,3.879-0.188,5.188-0.188c1.313,0,1.313-0.186,1.188-1.062 c-0.128-0.877,0-1.627,1.129-2.255c1.126-0.629-1.006-3.003-1.506-3.631c-0.499-0.63,0-1.128,1.063-1.881 c1.063-0.748,0.25-1.626-0.5-2.193c-0.748-0.563-0.374-1.438-0.374-2.064c0-0.629,0.128-1.128,0.874-2.256 c0.75-1.127-0.374-1.063-0.937-2.064c-0.563-1.003,0-1.753,0.56-2.505c0.562-0.748,0.313-1.249-1.624-1.751 c-1.938-0.502-1.001-1.753-1.815-2.44c-0.813-0.688-0.499-1.251-0.626-2.569c-0.124-1.315,0.875-1.505,1.501-2.065 c0.628-0.562,1.375-2.569,0.688-4.696c-0.688-2.125,0.999-1.938,1.562-2.255c0.563-0.312,0.688-1.002,0.813-1.624 c0.129-0.63,1.315,0.06,2.438,0.749c1.127,0.689,1.937-0.375,2.811-0.813c0.876-0.441,0.56-0.126,1.749,0.938 c1.188,1.063,1.061-0.438,1.561-1.318c0.502-0.877,0.688-0.69,1.625-0.749c0.936-0.062,2.249,1.003,2.999,1.938 c0.75,0.938,1.001,0.439,2.188-0.314c1.189-0.75,1.878-1.314,2.063-2.379c0.188-1.063,1.374-0.062,1.936,0.563 c0.563,0.627,1.25-0.188,1.688-1.063c0.439-0.879-0.438-1.378-1.248-1.565c-0.813-0.188-0.187-1.879-0.187-3.317 c0-1.438-0.063-1.377-0.749-1.753c-0.688-0.375-0.374-0.248,0-1.063c0.375-0.815-1.748-1.691-2.75-2.128 c-1-0.439-1.75-1.317-3.063-1.317c-1.313,0-1.563-0.06-2.438-0.938c-0.874-0.875-2.372,0.249-3.808,0.938 c-1.438,0.688-1.25-1.438-1.25-2.628c0-1.191,0.125-1.565,0.5-3.571c0.374-2.006-2.376-2.313-3.625-2.694 c-1.249-0.373-2.063-0.877-4.184-0.877c-2.124,0-3.625-0.688-4.624-1.503c-0.185-0.149-0.383-0.419-0.383-0.419l0.004-0.083 c-0.23-0.7,0.59-1.512,1.69-2.566c1.373-1.316,2.249-0.875,3.25-0.815c1,0.063,1.313,0,1.563-0.562 c0.247-0.563,0.813-0.75,2.063,0.061c1.25,0.813,3.564,0.689,4.625,0.188c1.063-0.5,2.81,0.127,4.377,1.063 c1.561,0.938,5.373,0.126,6.627,0c1.245-0.126,2.501,0.188,3,1.004c0.499,0.816,0.999,1.252,1.875,0.938 c0.874-0.313,6.249-0.377,7.187-0.313c0.938,0.062,2.063-0.062,2.124-1.251s1.128-1.563,2.563-1.94 c1.438-0.375,1.625,1.94,1.748,3.066c0.128,1.127,0.563,1.127,1.125,0.752c0.563-0.376,1.188,0.75,2.063,1.564 c0.876,0.813,1.316,0.125,1.503-0.751c0.188-0.876,0.688-0.438,1.563-0.562c0.873-0.128,2.001-1.881,2.436-2.694 c0.439-0.814,1.814,0.061,2.562,0c0.75-0.063,1.504-2.192,2.504-2.883c0.999-0.688,1.063-2.128,1.063-2.692 c0-0.566,0.87-0.126,0.87-1.189s-0.747-2.254-1.499-2.941c-0.747-0.688-0.377-1.128,0.374-1.128c0.749,0,0.813-0.376,0.749-1.439 c-0.063-1.063-1.063-3.506-1.816-4.571c-0.749-1.062-4.063-2.191-5.125-2.754c-1.062-0.563-1.062-1.88-1.126-3.191 c-0.063-1.316-2.313-2.943-3.311-3.818c-1.002-0.877-1.188-1.316-2.25-1.253c-1.063,0.062-2.625,0-2.688-1.315 c-0.062-1.316,0.999-1.565,2.001-2.816c1.001-1.253-1.188-2.631-2.249-3.069c-1.063-0.438-0.313-1.377-0.188-3.131 c0.129-1.754,0.75-1.94,1.316-2.815c0.56-0.877-1.316-1.439-2.625-2.317c-1.313-0.875-0.999-0.875-2.188-0.937 c-1.188-0.062-1.938-0.439-2.563-1.565c-0.629-1.128,1.125-1.88,1.876-2.314c0.745-0.44,0.745-1.315,0.247-1.69 c-0.497-0.375-0.438-0.877-0.438-1.439c0-0.561-0.249-1.438-1.502-1.438c-0.299,0-0.745-0.002-0.983-0.159 c0.01-0.03,0.019-0.063,0.027-0.095l-0.556-1.242c-0.229-0.549-0.442-1.192-0.734-1.821c-0.751-1.626,0.5-2.755,0.871-4.006 c0.374-1.253-0.813-1.253-2.313-1.253c-1.502,0-1.625-0.815-2.625-1.754c-0.999-0.938-0.438-3.067,0-4.133 c0.439-1.063,0.377-4.381,0.129-6.513c-0.249-2.127,0.313-4.446,1.188-5.76c0.876-1.315,1.063-2.692,1.001-3.944 c-0.063-1.253,0.563-3.258,1.063-4.82c0.5-1.566,2.187-3.946,3.438-5.825c1.245-1.878,3.621-10.957,3.308-11.583 c-0.312-0.627-0.687-4.385-0.687-6.574c0-0.361-0.052-0.244-0.062-0.508l-0.075-0.612l0.075-0.323 c-0.113-0.877-0.383-1.017-0.872-1.061c-0.688-0.063-1.063-0.063-1.063-1.566c0-1.502,0-1.502-0.438-2.379 c-0.439-0.876-1.374-5.697-1.75-7.075c-0.373-1.377-0.748-2.943,0.128-4.258c0.874-1.315,0.312-3.069,0.312-4.947 s0.688-6.573,0.938-8.766c0.248-2.192-1.749-3.569-3.19-4.696c-1.435-1.126-0.438-1.126,0.688-1.064 c1.127,0.063,0.938-0.126,0.938-1.127s-0.374-0.688-1.188-0.25s-0.687,0-0.439-0.751c0.249-0.751,0-0.939-0.5-1.001 c-0.501-0.062-0.188-1.189,0.312-2.254c0.505-1.065,0.752-1.754-0.312-2.566c-1.063-0.814,0.249-1.628,0.439-2.942 c0.051-0.351,0.052-0.652,0.009-0.925l-0.071-0.259l0.011-0.031c-0.168-0.6-0.553-1.069-1.072-1.666 c-0.813-0.939,0-1.253,1.251-0.25c1.247,1.001,0.5-0.563,0.438-1.127c-0.06-0.564,2.063-2.004,2.877-2.754 c0.814-0.752,2.376-4.07,2.876-5.26c0.5-1.189,0.937-2.316,1.813-2.316s1.314-0.125,1.128-1.127 c-0.188-1.001,0.059-0.814,0.248-1.691c0.188-0.876,0-1.377-1.436-1.377c-1.437,0-1.188-1.064-0.874-2.379 s1.188-1.189,2.313-1.189c1.126,0,2.061-0.313,2.623-2.693s0.125-2.881-0.625-4.008c-0.751-1.127,0.558-1.127,0.558-2.379 c0-1.253-1.999-1.189-2.499-2.004c-0.502-0.813,0-1.001,1.313-1.44c1.315-0.438-0.248-1.753-1.313-2.254 c-1.063-0.501-1.502-1.064-2.813-3.381c-1.313-2.317-1.563-2.693-2.563-3.255c-1-0.563-1.188-1.19-1.188-2.254 c0-1.065-0.188-1.691-0.626-2.693c-0.439-1.001,0.125-3.319,0.125-4.821s0-1.44,1.063-1.941c1.063-0.5,1.001-2.754,1.001-2.754 s-1.313-1.628,1.563-1.628s4.375-3.882,5.125-5.322c0.748-1.439,1.623-0.814,2.562-0.814c0.939,0,1.002-1.753,1.313-3.256 c0.315-1.502,0.439-2.004-0.371-3.382c-0.816-1.377,3.063-8.329,3.876-10.332c0.813-2.003,0.187-4.633-0.248-5.948 C220.126,73.946,222.251,73.321,224.188,72.068z"></path></g></g><g id="图层_1"><g id="图层2_"><g id="陕西"><path fill="none" stroke="#CC2B1F" stroke-width="0.25" stroke-miterlimit="10" d="M224.188,72.068 c1.934-1.253,2.374-5.197,2.501-6.825c0.124-1.628,1.188-3.192,1.687-3.631c0.5-0.438-0.124-1.503-0.813-1.064 c-0.688,0.438-0.75,0-0.563-1.127c0.188-1.127-0.373-0.751-1.125-0.126c-0.751,0.625-0.374-0.188-0.501-1.252 c-0.129-1.064-1.562,0.25-1.562-0.5c0-0.752-0.75-1.128-1.063-2.317c-0.312-1.189,1.063-3.193,1.875-3.944 c0.814-0.751,0.688-1.377-0.061-2.003c-0.746-0.626-1.062-0.062-1.502,0.376c-0.438,0.438-0.747,0.563-2,0.25 c-1.249-0.313-1.688,1.188-2.376,1.815c-0.688,0.627-2.313,0.063-2.876,0.813c-0.562,0.752-1.314,2.442-2.438,3.319 c-1.127,0.876-2.376,4.946-2.688,5.823c-0.313,0.876-1.248,0.25-2.751,1.064c-1.5,0.813-2.122-2.128-2.75-3.569 c-0.625-1.44-0.688-1.19-1.875-0.501c-1.188,0.688-1.688-0.438-2.063,0.188c-0.372,0.626-0.5,1.628-1.688,1.628 s-3.374-2.379-4.374-4.007c-1-1.627-1.815-1.627-2.689-1.627c-0.873,0-1.434,0.375-1.313,1.565 c0.124,1.189,0.813,1.753,1.563,2.379c0.749,0.625,0.563,1.816,0.563,3.005c0,1.19,0.248,1.001-0.688,1.315 c-0.936,0.314-4.624,2.317-5.751,2.943c-1.126,0.627-2.688,2.505-3.249,3.695c-0.563,1.189-2.188,1.001-3.563,1.439 c-1.374,0.438-1.315,0.564-2.249,0.626c-0.938,0.063-1.438,3.131-1.5,4.258c-0.064,1.127-1.127,3.067-1.688,3.694 c-0.563,0.626-1.063,1.127-1.625,2.379c-0.562,1.252-2.002,0.751-3.376,0.751s-1.937,0.876-2.123,2.004 c-0.188,1.127-0.876,2.003-1.876,2.254s-0.749,1.816-0.749,3.319s-1.561,2.004-2.999,2.004c-1.437,0-2.001,0.939-3.063,1.44 c-1.063,0.501-1.374,1.878-1.438,2.817c-0.059,0.939-1.5,1.942-2.375,2.317s-1.125,0.876-1.125,1.753s-0.688,1.753-1.25,2.192 c-0.562,0.439-0.813,1.502-0.687,2.817s-0.876,3.005-1.128,3.758c-0.248,0.751,1.375,3.005,2.25,3.443 c0.874,0.438,0.748,1.315,0.748,2.567c0,1.251-0.313,2.817-0.563,3.381c-0.248,0.564-1.245,1.816-2.621,2.254 c-1.374,0.439-1.625-2.38-2.124-3.882c-0.499-1.503-1.563-0.814-2.188-0.376c-0.628,0.438,0,1.002,0.373,1.565 c0.374,0.564-0.873,1.315-1.372,1.503c-0.504,0.188-0.503,0.939,0.123,1.753c0.626,0.815,0.248,2.192,0.248,3.193 c0,1.003-0.061,1.503-0.248,2.567s-0.188,1.44,0,2.63c0.188,1.189-0.313,1.878-1.249,1.377s-1.125-0.063-2.5,1.377 c-1.375,1.44-3.378,0.126-4.064-0.813c-0.688-0.939-2.436,0.125-3.809,0.563c-1.376,0.438-2.25-0.563-3.378-0.063 c-1.125,0.501-1.188,1.378-2.75,0.313c-1.563-1.063-2.75,0.188-4.063,1.19c-1.312,1.001-2.375-0.313-3.688-0.939 c-1.313-0.625-2.001-4.319-2.376-5.51c-0.375-1.19-3.81-2.63-5.561-2.88s-3.626-1.127-4.688-2.004 c-1.063-0.877-1.688,0.438-1.125,0.438c0.56,0-0.063,1.19-0.375,2.881c-0.313,1.689-2.501,1.565-4.125,1.44 c-1.625-0.126-1.438,1.189-1.75,2.378c-0.313,1.189-1.125,0.815-2.122,0.815c-1.002,0-0.502,0.187-0.502,1.377 c0,1.188-1.623,1.627-2.563,2.191c-0.937,0.564,0.063,0.752,0.687,1.69c0.627,0.939,0.563,1.253,0.128,1.942 c-0.44,0.689-1.875,1.814-2.19,2.817c-0.313,1.001-0.501,1.19-0.438,2.254c0.063,1.064,0.187,2.192-0.563,2.755 c-0.747,0.564-0.125,1.002,0.5,1.627c0.628,0.627,0.25,1.252,0.628,1.879c0.374,0.627,0.125,1.252-0.313,1.252 s-0.501,0.438,0.126,1.002c0.625,0.563,1.375,1.502,1.375,2.754s-0.688,1.816-1.25,1.315s-0.438,0.813-0.499,1.941 c-0.063,1.127,0,3.506,0,4.884s-0.625,1.815,0.499,1.628c1.128-0.188,2.063,0,2.813,0.5c0.748,0.5,1.624,0.5,2,0.313 c0.375-0.188,0.813,0.188,1.875,0.627c1.063,0.438,0.188,1.626,0.938,2.128c0.748,0.501,2.81,1.69,4.125,1.44 c0.237-0.046,0.478-0.062,0.731-0.056l0.132-0.029c0,0,2.162-1.281,1.802-2.522c0.362,1.242-1.69,2.453-1.69,2.453l0.385,0.155 c0.98,0.142,2.11,0.521,3.576,0.814c2.188,0.438,3.123,1.315,3.938,1.816c0.813,0.5,1.125,2.128,1.375,3.255 c0.248,1.127,0.687,0.814,1.125,0.438c0.439-0.376,0.75-0.062,1.625,0.063s0.813,0.939,0.125,2.003 c-0.688,1.065,0.688,1.065,1.813,1.378c1.127,0.313,1.876,1.815,3.313,1.815c1.438,0,0-1.691,0.562-2.379 c0.563-0.689,0.875,0.5,1,1.627c0.125,1.127,1.563,1.001,3,0.813c1.436-0.188,2.063,0.814,2.377,2.128 c0.313,1.315,1.247,2.317,1.813,3.193c0.563,0.877,2.001-0.188,2.25-0.876c0.249-0.689,0.938-0.877,1.563-0.188 s1.499,0.751,2.123,0.751c0.626,0,0.873,0.125,1.624,1.127c0.749,1.002,1.188,1.127,2.251,1.878 c1.063,0.75-0.188,3.005-1.315,4.008c-1.126,1.001,0.128,3.882,1.062,4.696c0.938,0.813,0.439,2.629-0.059,3.694 c-0.499,1.065-0.375,1.69-0.063,2.755c0.313,1.063-0.875,1.438-1.063,2.565c-0.188,1.129-1.063,1.19-2,1.129 c-0.937-0.063-1.624,0.813-2.624,1.564c-1,0.751-0.688,1.628-0.438,2.755c0.248,1.127,0.188,2.815,0.313,4.069 c0.125,1.252,0.376,2.066,0.438,3.506c0.063,1.439,1.25,2.316,2.378,3.07c0.36,0.24,0.541,0.514,0.609,0.801 c0,0,0.959,0.021,1.886,0.213c-0.729-0.129-1.409-0.127-1.409-0.127l-0.461-0.02c0.106,0.594-0.231,1.25-0.438,1.822 c-0.314,0.877-0.127,1.002,0.438,2.314c0.564,1.316,0.438,1.628-0.313,2.818c-0.748,1.191-0.063,1.504-0.063,2.316 s-1.562,1.249-2.187,1.249c-0.628,0-1.438,0.188-2.25,0.94c-0.814,0.75-4.313,0.188-5.625-0.188 c-1.315-0.376-1.688,0.123-2.502,0.688c-0.813,0.563-1.624-0.813-2.623-1.439c-1.002-0.626-4.688,1.439-6.375,2.505 c-1.688,1.065-1.815,0.501-2.003-0.563c-0.186-1.064-0.747-0.313-1.436,0.313c-0.688,0.627-3.438-1.25-4.563-2.127 c-1.126-0.876-1.313-0.814-2.001-0.314c-0.688,0.502,0.125,0.564,0.063,1.506c-0.063,0.937-1.188,1.127-2.25,0.937 c-1.063-0.187,0.248,1.94,1.125,3.131c0.875,1.188,0.44,1.754,1.25,3.319c0.812,1.564,1.563,1.879,2.438,2.503 c0.875,0.627,1.936,1.188,1,2.503c-0.231,0.325-0.505,0.557-0.803,0.729l-0.423,0.346c-0.821,0.309-1.712,0.076-2.399,0.117 c-1.063,0.063-2.188,0.562-2.938,1.252c-0.747,0.687-0.56,0.563-1.312-0.439c-0.75-1.003-1.314-0.75-2.188-0.75 c-0.875,0-0.5,0.313-1.563,1.314c-1.063,1.006-2.375,0-3.625-0.188s-2.251,0.314-3-0.25c-0.747-0.561-1.188-0.561-1.562,0.188 c-0.374,0.752-1.001,0.752-2.188,1.506c-1.188,0.748-1.5-0.063-1.624-1.064c-0.128-1.002-0.628-1.504-2.063-1.691 c-1.437-0.188-1.501-0.877-1.437-2.004c0.062-1.127-1.313-1.565-2-1.565c-0.688,0-2.25-1.002-2.875-1.879 c-0.628-0.877-1.251-1.251-2.378-1.063c-1.125,0.188-2.688,0.188-3.811,0c-1.127-0.188-1.688,0.062-2.75,0.627 c-1.062,0.563-2.438,0.25-3.878,0.063c-1.434-0.188-1.434-0.126-1.434,0.563s-0.25,1.377-1.316,2.065 c-1.06,0.69-0.438,3.633-0.438,4.635c0,1.001,1.313,2.191,2.188,3.132c0.875,0.938-0.625,1.814-0.625,2.877 c0,1.066-0.375,1.191-1.313,1.256c-0.937,0.06-1.437,1.127-2.188,2.063c-0.748,0.938,0.313,1.255-0.062,1.88 c-0.373,0.626-1.435,0-2.001,0.75c-0.563,0.75-0.875,0.814-2.063,0.814c-1.187,0-0.748,1.503-0.562,2.755 c0.187,1.253,2.188,1.003,3.999,1.253c1.813,0.248,2.125,0.813,3.312,1.504c1.188,0.688,2.563,2.314,3,3.63 c0.44,1.318,1.875,1.438,2.375,2.129c0.503,0.688,0.375,2.882-0.624,3.882c-1.001,1.002-3.313,0.188-4.187-0.627 c-0.874-0.815-1.126,0.061-2.313,0.627c-1.187,0.563-0.125,1.002,0.875,1.127c1,0.127,1.063,0.752,1.125,1.816 c0.063,1.063,0.501,1.878,1.25,2.566c0.75,0.688-1,1.752-2.25,1.752s-1.063,0.188-1.126,1.252 c-0.062,1.063-2.249,5.572-2.876,7.201c-0.626,1.627-0.561,2.381,0.814,2.504c1.375,0.125,1.187,0.877,0.688,1.316 c-0.501,0.438-0.815,0.749-0.375,1.315c0.438,0.562,0.624,1.504,0.624,2.313c0,0.816,0.375,1.942,1.316,1.88 c0.936-0.063,1.624,1.815,2.063,2.756c0.131,0.281,0.24,0.555,0.309,0.807l0.058,0.729c0,0,1.563-0.074,1.637-1.266 c-0.075,1.19-1.585,1.338-1.585,1.338s-0.222,0.398-0.546,0.584c-0.747,0.439-0.812,1.005-0.812,2.006s-1,1.316-1.5,0.689 s-0.938-0.438-1.688-0.564c-0.75-0.125-0.75-0.813-1.188-2.88c-0.44-2.065-1.502-0.502-1.502-0.502s-0.625,0.439-1.188,0.938 c-0.56,0.501-1.248-0.061-2-0.627c-0.75-0.563-1-0.313-1.938,0.249c-0.937,0.563-1.375,0.249-2.438,1.254 c-1.061,1.001-2.437-0.816-3.125-2.067c-0.688-1.252-1.062-0.813-2.75-0.438c-1.688,0.374-1.126,0-2.313,0.374 c-1.188,0.375-0.938,0.876-1.5,1.814c-0.563,0.938-1.375,0-1.688,0.816c-0.313,0.813-0.688,1.249-1.126,1.625 c-0.437,0.377-0.625,1.879-0.5,2.884c0.125,1.002,0.188,1.313-0.749,1.938c-0.937,0.631-3.125-0.376-3.813-0.313 c-0.688,0.063-0.188,2.13,0.625,2.443c0.813,0.313,0.624,0.688,0.187,1.315c-0.437,0.629,0.5,1.128,1.438,1.814 c0.937,0.688,2,1.063,3.563,1.69c1.563,0.627,2,0.314,2.75,0.938c0.75,0.627,0.813,2.127,0.188,2.814 c-0.626,0.689-0.938-0.248-1-0.813c-0.063-0.563-0.5-0.627-0.813-0.126c-0.312,0.5-0.125,1.314,0.125,2.379 c0.249,1.063,0.249,1.001-0.063,2.064c-0.313,1.065-0.188,1.004,0,2.131c0.188,1.125-0.25,1.001-0.688,1.564 c-0.44,0.563-1.25,1.377-2.501,1.188c-1.25-0.188-2,0.626-2.749,1.253c-0.75,0.625-1.501,1.001-2.625,0.876 c-1.125-0.13-1.688,0-3.062,0.501c-1.375,0.5-2.813-1.319-3.688-1.439c-0.875-0.126,0.688,3.382,1.188,4.633 c0.5,1.253,0.688,2.009,0.688,3.131c0,1.128,0.188,1.754,1.438,1.881s3.438-1.626,4.25-2.503c0.811-0.877,1.563,0,2.563,0.249 s1.188-1.626,1.313-2.384c0.125-0.748,2.75-0.626,4-0.813c1.25-0.188,1.563-0.063,2.562,0.247c1,0.315,1.5-0.69,1.625-1.378 c0.125-0.69,0.937,0.876,1.875,1.564c0.937,0.688-0.563,1.882-1.062,3.26c-0.5,1.378,2.438,1.378,3.373,2.064 c0.938,0.691,3.313,1.692,4.94,1.753c1.624,0.062,2.063,0.561,3.063,1.438c1,0.876,1.375,0.816,1.75,0.128 c0.372-0.692,0.625-0.63,1.435-0.505c0.812,0.13,1.5-0.188,2.001-0.689c0.501-0.499,1.25-0.438,2.437-0.125 c1.188,0.313,3.063-1.314,4.188-2.128c1.125-0.813,1.687-0.44,2.562,0.25c0.875,0.688,1.624,0.563,2.75,0.248 c1.125-0.313,1.375-0.248,2.374,0.13c1,0.374,5,0,5.875,0.058c0.875,0.063,0.248,1.191,0.937,1.941 c0.687,0.75-0.313,1.318,0.188,2.883c0.5,1.563-0.375,2.314-0.812,3.002c-0.44,0.689,1.188,2.443,2.374,2.443 c1.188,0,1.563,0.439,2.125,1.063c0.56,0.628,1.562,2.256,2.249,1.623c0.688-0.626,2.688-3.188,3.938-4.69 c1.248-1.508,1.814-0.629,2.437,0.059c0.626,0.689,0.063,3.571,0.063,4.319c0,0.753,1.125,1.941,1.688,1.629 c0.563-0.313,2.188,0.748,3.125-0.126c0.936-0.878,1.624-0.878,3-0.629c1.375,0.248,1.625,1.503,2.25,2.755 c0.627,1.251,1.502,1.251,2.25,1.251c0.751,0,0.563,0.563,0.813,1.378c0.251,0.814,0.628,1.25,1.689,2.379 c1.062,1.128,1.127,1.753,2.75,1.692c1.625-0.061,2.001,2.382,3.123,2.382c1.126,0,2.313-2.193,2.502-3.193 c0.141-0.754,2.5-0.482,4.127-0.4l-0.029-0.67c0.019,0.241,0.029,0.471,0.029,0.67l0.202,0.06 c0.472,0.021,0.793-0.057,1.046-0.095c1.128-0.188,1.002-1.128,1.25-1.941c0.25-0.813,1.687,0.188,2.812,1.127 c1.125,0.938,1.436,0.374,2.063-0.248c0.625-0.627,2.436-0.313,4.25-0.249c1.812,0.062,1.187,0.688,1.434,1.814 c0.25,1.127,0.875,1.004,1.938,1.564c1.063,0.564,1.874,1.315,2.624,2.128c0.747,0.815,1.937,1.627,3.063,1.627 c1.124,0,1.188,0.188,1.749,0.938c0.561,0.747,1,1.001,1.688,1.378c0.687,0.374,2.188,1.063,2.75,2.127 c0.561,1.063,2.438,1.004,4.251,1.063c1.813,0.062,3.877,2.256,5.25,3.259c1.375,1.004,2.062,1.505,2.688,2.313 c0.627,0.817,1.127,1.506,2,1.506c0.876,0,0.313,1.438,0.563,2.628c0.248,1.192,1.875,1.626,2.938,1.626 c1.063,0,2.188-0.125,2.999-0.563c0.816-0.438,3.879-0.188,5.188-0.188c1.313,0,1.313-0.186,1.188-1.062 c-0.128-0.877,0-1.627,1.129-2.255c1.126-0.629-1.006-3.003-1.506-3.631c-0.499-0.63,0-1.128,1.063-1.881 c1.063-0.748,0.25-1.626-0.5-2.193c-0.748-0.563-0.374-1.438-0.374-2.064c0-0.629,0.128-1.128,0.874-2.256 c0.75-1.127-0.374-1.063-0.937-2.064c-0.563-1.003,0-1.753,0.56-2.505c0.562-0.748,0.313-1.249-1.624-1.751 c-1.938-0.502-1.001-1.753-1.815-2.44c-0.813-0.688-0.499-1.251-0.626-2.569c-0.124-1.315,0.875-1.505,1.501-2.065 c0.628-0.562,1.375-2.569,0.688-4.696c-0.688-2.125,0.999-1.938,1.562-2.255c0.563-0.312,0.688-1.002,0.813-1.624 c0.129-0.63,1.315,0.06,2.438,0.749c1.127,0.689,1.937-0.375,2.811-0.813c0.876-0.441,0.56-0.126,1.749,0.938 c1.188,1.063,1.061-0.438,1.561-1.318c0.502-0.877,0.688-0.69,1.625-0.749c0.936-0.062,2.249,1.003,2.999,1.938 c0.75,0.938,1.001,0.439,2.188-0.314c1.189-0.75,1.878-1.314,2.063-2.379c0.188-1.063,1.374-0.062,1.936,0.563 c0.563,0.627,1.25-0.188,1.688-1.063c0.439-0.879-0.438-1.378-1.248-1.565c-0.813-0.188-0.187-1.879-0.187-3.317 c0-1.438-0.063-1.377-0.749-1.753c-0.688-0.375-0.374-0.248,0-1.063c0.375-0.815-1.748-1.691-2.75-2.128 c-1-0.439-1.75-1.317-3.063-1.317c-1.313,0-1.563-0.06-2.438-0.938c-0.874-0.875-2.372,0.249-3.808,0.938 c-1.438,0.688-1.25-1.438-1.25-2.628c0-1.191,0.125-1.565,0.5-3.571c0.374-2.006-2.376-2.313-3.625-2.694 c-1.249-0.373-2.063-0.877-4.184-0.877c-2.124,0-3.625-0.688-4.624-1.503c-0.185-0.149-0.383-0.419-0.383-0.419l0.004-0.083 c-0.23-0.7,0.59-1.512,1.69-2.566c1.373-1.316,2.249-0.875,3.25-0.815c1,0.063,1.313,0,1.563-0.562 c0.247-0.563,0.813-0.75,2.063,0.061c1.25,0.813,3.564,0.689,4.625,0.188c1.063-0.5,2.81,0.127,4.377,1.063 c1.561,0.938,5.373,0.126,6.627,0c1.245-0.126,2.501,0.188,3,1.004c0.499,0.816,0.999,1.252,1.875,0.938 c0.874-0.313,6.249-0.377,7.187-0.313c0.938,0.062,2.063-0.062,2.124-1.251s1.128-1.563,2.563-1.94 c1.438-0.375,1.625,1.94,1.748,3.066c0.128,1.127,0.563,1.127,1.125,0.752c0.563-0.376,1.188,0.75,2.063,1.564 c0.876,0.813,1.316,0.125,1.503-0.751c0.188-0.876,0.688-0.438,1.563-0.562c0.873-0.128,2.001-1.881,2.436-2.694 c0.439-0.814,1.814,0.061,2.562,0c0.75-0.063,1.504-2.192,2.504-2.883c0.999-0.688,1.063-2.128,1.063-2.692 c0-0.566,0.87-0.126,0.87-1.189s-0.747-2.254-1.499-2.941c-0.747-0.688-0.377-1.128,0.374-1.128 c0.749,0,0.813-0.376,0.749-1.439c-0.063-1.063-1.063-3.506-1.816-4.571c-0.749-1.062-4.063-2.191-5.125-2.754 c-1.062-0.563-1.062-1.88-1.126-3.191c-0.063-1.316-2.313-2.943-3.311-3.818c-1.002-0.877-1.188-1.316-2.25-1.253 c-1.063,0.062-2.625,0-2.688-1.315c-0.062-1.316,0.999-1.565,2.001-2.816c1.001-1.253-1.188-2.631-2.249-3.069 c-1.063-0.438-0.313-1.377-0.188-3.131c0.129-1.754,0.75-1.94,1.316-2.815c0.56-0.877-1.316-1.439-2.625-2.317 c-1.313-0.875-0.999-0.875-2.188-0.937c-1.188-0.062-1.938-0.439-2.563-1.565c-0.629-1.128,1.125-1.88,1.876-2.314 c0.745-0.44,0.745-1.315,0.247-1.69c-0.497-0.375-0.438-0.877-0.438-1.439c0-0.561-0.249-1.438-1.502-1.438 c-0.299,0-0.745-0.002-0.983-0.159c0.01-0.03,0.019-0.063,0.027-0.095l-0.556-1.242c-0.229-0.549-0.442-1.192-0.734-1.821 c-0.751-1.626,0.5-2.755,0.871-4.006c0.374-1.253-0.813-1.253-2.313-1.253c-1.502,0-1.625-0.815-2.625-1.754 c-0.999-0.938-0.438-3.067,0-4.133c0.439-1.063,0.377-4.381,0.129-6.513c-0.249-2.127,0.313-4.446,1.188-5.76 c0.876-1.315,1.063-2.692,1.001-3.944c-0.063-1.253,0.563-3.258,1.063-4.82c0.5-1.566,2.187-3.946,3.438-5.825 c1.245-1.878,3.621-10.957,3.308-11.583c-0.312-0.627-0.687-4.385-0.687-6.574c0-0.361-0.052-0.244-0.062-0.508l-0.075-0.612 l0.075-0.323c-0.113-0.877-0.383-1.017-0.872-1.061c-0.688-0.063-1.063-0.063-1.063-1.566c0-1.502,0-1.502-0.438-2.379 c-0.439-0.876-1.374-5.697-1.75-7.075c-0.373-1.377-0.748-2.943,0.128-4.258c0.874-1.315,0.312-3.069,0.312-4.947 s0.688-6.573,0.938-8.766c0.248-2.192-1.749-3.569-3.19-4.696c-1.435-1.126-0.438-1.126,0.688-1.064 c1.127,0.063,0.938-0.126,0.938-1.127s-0.374-0.688-1.188-0.25s-0.687,0-0.439-0.751c0.249-0.751,0-0.939-0.5-1.001 c-0.501-0.062-0.188-1.189,0.312-2.254c0.505-1.065,0.752-1.754-0.312-2.566c-1.063-0.814,0.249-1.628,0.439-2.942 c0.051-0.351,0.052-0.652,0.009-0.925l-0.071-0.259l0.011-0.031c-0.168-0.6-0.553-1.069-1.072-1.666 c-0.813-0.939,0-1.253,1.251-0.25c1.247,1.001,0.5-0.563,0.438-1.127c-0.06-0.564,2.063-2.004,2.877-2.754 c0.814-0.752,2.376-4.07,2.876-5.26c0.5-1.189,0.937-2.316,1.813-2.316s1.314-0.125,1.128-1.127 c-0.188-1.001,0.059-0.814,0.248-1.691c0.188-0.876,0-1.377-1.436-1.377c-1.437,0-1.188-1.064-0.874-2.379 s1.188-1.189,2.313-1.189c1.126,0,2.061-0.313,2.623-2.693s0.125-2.881-0.625-4.008c-0.751-1.127,0.558-1.127,0.558-2.379 c0-1.253-1.999-1.189-2.499-2.004c-0.502-0.813,0-1.001,1.313-1.44c1.315-0.438-0.248-1.753-1.313-2.254 c-1.063-0.501-1.502-1.064-2.813-3.381c-1.313-2.317-1.563-2.693-2.563-3.255c-1-0.563-1.188-1.19-1.188-2.254 c0-1.065-0.188-1.691-0.626-2.693c-0.439-1.001,0.125-3.319,0.125-4.821s0-1.44,1.063-1.941c1.063-0.5,1.001-2.754,1.001-2.754 s-1.313-1.628,1.563-1.628s4.375-3.882,5.125-5.322c0.748-1.439,1.623-0.814,2.562-0.814c0.939,0,1.002-1.753,1.313-3.256 c0.315-1.502,0.439-2.004-0.371-3.382c-0.816-1.377,3.063-8.329,3.876-10.332c0.813-2.003,0.187-4.633-0.248-5.948 C220.126,73.946,222.251,73.321,224.188,72.068z"></path></g><g id="市区"><path id="mapid-441700-outline" fill="none" stroke="#CC2B1F" stroke-width="0.25" stroke-miterlimit="10" d="M105.927,168.999 c-0.251-0.006-0.493,0.01-0.732,0.056c-1.314,0.25-3.376-0.938-4.124-1.439c-0.75-0.501,0.125-1.69-0.938-2.129 c-1.062-0.438-1.5-0.813-1.875-0.626c-0.375,0.188-1.25,0.188-2.001-0.313c-0.749-0.5-1.688-0.689-2.812-0.5 c-1.125,0.188-0.5-0.25-0.5-1.628s-0.063-3.757,0-4.884c0.062-1.127-0.063-2.442,0.5-1.941c0.563,0.5,1.25-0.063,1.25-1.315 c0-1.252-0.75-2.191-1.375-2.755c-0.627-0.563-0.563-1.001-0.127-1.001c0.438,0,0.688-0.626,0.313-1.253 c-0.375-0.626,0-1.251-0.627-1.878c-0.625-0.625-1.247-1.064-0.5-1.627c0.75-0.563,0.628-1.691,0.563-2.755 c-0.063-1.064,0.125-1.253,0.438-2.254c0.314-1.002,1.748-2.128,2.188-2.818c0.438-0.688,0.5-1.002-0.127-1.941 c-0.625-0.939-1.625-1.127-0.688-1.69s2.563-1.001,2.563-2.191c0-1.19-0.5-1.378,0.5-1.378c1.002,0,1.813,0.376,2.124-0.814 c0.313-1.189,0.126-2.504,1.75-2.379c1.625,0.126,3.813,0.25,4.124-1.439c0.313-1.69,0.937-2.88,0.375-2.88 c-0.563,0,0.06-1.316,1.125-0.438c1.063,0.876,2.938,1.753,4.688,2.004c1.749,0.25,5.186,1.69,5.561,2.88 c0.376,1.19,1.063,4.885,2.376,5.509c1.313,0.627,2.375,1.942,3.687,0.94c1.313-1.002,2.5-2.254,4.063-1.19 c1.563,1.065,1.625,0.188,2.75-0.313c1.128-0.5,2.002,0.5,3.378,0.063c1.374-0.438,3.121-1.503,3.81-0.564 c0.688,0.938,2.69,2.254,4.065,0.814c1.374-1.44,1.561-1.878,2.5-1.377c0.938,0.5,1.438-0.188,1.25-1.377 c-0.188-1.189-0.188-1.565,0-2.63c0.188-1.064,0.248-1.565,0.248-2.566s0.374-2.379-0.248-3.194 c-0.627-0.814-0.628-1.565-0.128-1.753c0.502-0.188,1.75-0.939,1.375-1.503c-0.374-0.563-1-1.127-0.374-1.565 c0.626-0.44,1.689-1.128,2.189,0.375c0.5,1.502,0.746,4.321,2.122,3.882c1.375-0.438,2.376-1.69,2.621-2.254 c0.249-0.563,0.563-2.128,0.563-3.381c0-1.252,0.126-2.128-0.749-2.567c-0.874-0.438-2.501-2.692-2.247-3.443 c0.248-0.752,1.249-2.442,1.126-3.757c-0.127-1.315,0.124-2.379,0.687-2.817s1.249-1.315,1.249-2.192s0.248-1.377,1.126-1.753 c0.877-0.376,2.313-1.377,2.375-2.317c0.064-0.938,0.374-2.316,1.438-2.817c1.061-0.501,1.624-1.44,3.062-1.44 c1.437,0,3.001-0.5,3.001-2.004c0-1.503-0.249-3.067,0.748-3.319c1.001-0.25,1.688-1.127,1.875-2.254 c0.188-1.127,0.749-2.004,2.123-2.004c1.376,0,2.811,0.501,3.377-0.751c0.563-1.251,1.063-1.752,1.625-2.378 c0.563-0.626,1.624-2.567,1.689-3.694c0.062-1.127,0.561-4.195,1.5-4.258c0.937-0.063,0.876-0.188,2.25-0.626 c1.376-0.438,3-0.25,3.563-1.44c0.563-1.19,2.123-3.068,3.25-3.694s4.813-2.63,5.75-2.943c0.938-0.313,0.688-0.125,0.688-1.315 c0-1.189,0.186-2.379-0.562-3.005s-1.438-1.189-1.563-2.379c-0.124-1.19,0.438-1.566,1.315-1.566c0.873,0,1.688,0,2.688,1.628 s3.188,4.007,4.376,4.007c1.188,0,1.314-1.001,1.688-1.628c0.375-0.626,0.874,0.501,2.063-0.188 c1.188-0.688,1.249-0.939,1.874,0.501c0.628,1.439,1.251,4.382,2.75,3.57c1.501-0.814,2.438-0.188,2.751-1.064 s1.563-4.947,2.688-5.823c1.127-0.877,1.877-2.567,2.438-3.319c0.563-0.751,2.189-0.188,2.877-0.813 c0.688-0.626,1.126-2.128,2.375-1.815c1.246,0.312,1.563,0.188,2.001-0.25s0.749-1.003,1.5-0.376 c0.75,0.627,0.874,1.252,0.063,2.004c-0.813,0.751-2.188,2.754-1.876,3.944s1.063,1.565,1.063,2.317 c0,0.75,1.435-0.563,1.56,0.5c0.128,1.064-0.248,1.878,0.504,1.252c0.747-0.626,1.313-1.001,1.127,0.126 c-0.188,1.127-0.127,1.565,0.561,1.127s1.313,0.626,0.813,1.064c-0.5,0.44-1.563,2.004-1.688,3.631 c-0.126,1.628-0.562,5.572-2.501,6.825c-1.937,1.252-4.064,1.878-3.624,3.193c0.438,1.315,1.062,3.944,0.249,5.948 s-4.687,8.954-3.876,10.332c0.813,1.377,0.688,1.877,0.372,3.381c-0.312,1.502-0.372,3.256-1.313,3.256 c-0.938,0-1.813-0.626-2.563,0.814c-0.748,1.44-2.249,5.322-5.126,5.322c-2.875,0-1.562,1.628-1.562,1.628s0.062,2.254-1,2.754 c-1.062,0.501-1.062,0.438-1.062,1.94s-0.563,3.819-0.127,4.822c0.438,1.001,0.625,1.627,0.625,2.692 c0,1.063,0.188,1.69,1.188,2.254c1.001,0.563,1.246,0.938,2.562,3.255c1.316,2.316,1.749,2.88,2.811,3.381 c1.063,0.5,2.628,1.816,1.314,2.254c-1.313,0.438-1.814,0.626-1.314,1.439c0.503,0.815,2.503,0.752,2.503,2.004 s-1.313,1.252-0.56,2.379c0.747,1.127,1.188,1.628,0.625,4.008c-0.562,2.378-1.501,2.692-2.624,2.692s-2-0.125-2.313,1.189 c-0.313,1.315-0.562,2.379,0.875,2.379c1.435,0,1.625,0.501,1.435,1.377c-0.188,0.877-0.439,0.689-0.249,1.691 c0.188,1.001-0.248,1.127-1.127,1.127c-0.878,0-1.313,1.127-1.813,2.317c-0.499,1.189-2.063,4.508-2.875,5.259 c-0.815,0.751-2.938,2.192-2.878,2.755c0.062,0.563,0.814,2.128-0.438,1.126c-1.247-1.001-2.063-0.688-1.247,0.251 c0.515,0.596,0.902,1.066,1.072,1.666l-0.014,0.031c-0.634,0.446-1.143-0.19-1.715-0.764c-0.572-0.573-0.441-1.146-1.272-0.573 c-0.826,0.573-0.953,0.637-1.716-0.445c-0.764-1.082-2.286-0.319-3.496,1.018c-1.205,1.337-2.352-0.063-3.812-1.655 c-1.465-1.591-1.206-2.928-1.017-3.821c0.189-0.892,0.189-1.273-0.824-1.273c-1.016,0-0.572-1.4-1.271-2.229 c-0.702-0.827,0.571-1.018,1.587-1.082c1.014-0.063,0.251-1.847-1.275-1.911c-1.522-0.064-2.476-0.255-2.665-1.209 c-0.191-0.955-2.229-0.064-3.051,0.7c-0.825,0.764-2.097-0.255-2.542-0.574c-0.44-0.318,1.086-1.337,1.086-3.374 c0-2.038-0.703-1.019-1.779-2.102c-1.082-1.082-1.209-1.209-2.858-0.828c-1.654,0.382-1.465,0.701-2.669-0.509 c-1.206-1.21-0.953-1.465-2.287-2.101c-1.333-0.637-1.333,1.082-2.606,1.91c-1.271,0.827-2.226,2.165-3.56,3.311 s-1.016,1.019-3.368,1.274c-2.354,0.254-8.266,2.228-9.027,3.056s-2.604,1.146-3.305,0.828c-0.698-0.319-0.632,1.4-0.442,2.293 c0.192,0.891,0.765,1.209-0.188,1.527c-0.954,0.319-2.541,1.656-3.371,2.929c-0.822,1.274-0.063,1.593,0.826,2.546 c0.889,0.955-0.966,2.105-1.604,2.351c-0.641,0.243-1.326-1.617-2.188-2.503c-0.862-0.886-0.246,0.665-1.66,1.263 c-1.415,0.598-2.961,1.041-4.334,0.576c-1.371-0.465,0.133-0.443,0.176-1.196c0.044-0.753,0.772-1.7,0.989-2.51 c0.213-0.811,0.351-1.623-0.19-2.136c-0.542-0.513,0.021-1.163,0.332-1.904c0.313-0.74-0.703-1.402-1.678-2.377 c-0.976-0.975-0.352-0.975-0.624-1.911c-0.273-0.937-0.469-0.975-1.208-0.975c-0.742,0-0.352-1.988-0.86-2.769 c-0.507-0.78-0.232-1.364-0.896-0.936c-0.666,0.429-0.743-0.156-0.898-0.781c-0.156-0.624-0.467,0-0.741,0.819 c-0.273,0.819-2.302,1.677-3.235,2.066c-0.937,0.39,0.118,1.404,0.664,2.067c0.547,0.663,0.508,0.78-0.117,0.975 c-0.625,0.195-1.678,0.702-2.537,1.677s-0.936,0.507-1.677-0.194c-0.74-0.703-1.402-0.625-1.637,1.247 c-0.234,1.872-0.857,1.988-1.56,1.988s-1.989,0.195-3.313,0.352c-1.326,0.156-2.614-1.09-3.004-2.808 c-0.389-1.716-0.856-1.053-2.065-1.872c-1.208-0.819-2.379-0.117-2.771,0.702c-0.39,0.819-0.155,0.937-0.585,1.443 s-0.194,0.429,0.195,1.13c0.39,0.703-1.221,1.445-1.701,1.846c-0.479,0.4,0.2,1.161,0.881,2.001 c0.681,0.841-0.322,1.321-1.081,2.122c-0.761,0.8,0.518,0.92,1.041,0.961c0.521,0.041,0.281,0.48-0.322,0.961 c-0.599,0.48,0.202,3.604,0.56,4.844c0.362,1.242-1.801,2.522-1.801,2.522L105.927,168.999z"></path><path id="mapid-440900-outline" fill="none" stroke="#CC2B1F" stroke-width="0.25" stroke-miterlimit="10" d="M202.127,162.987 c-0.631,0.446-1.143-0.191-1.715-0.764c-0.572-0.573-0.441-1.146-1.271-0.573c-0.827,0.573-0.954,0.637-1.716-0.445 c-0.764-1.082-2.29-0.319-3.496,1.018c-1.207,1.337-2.353-0.063-3.813-1.655c-1.462-1.591-1.208-2.928-1.018-3.821 c0.19-0.892,0.19-1.274-0.822-1.274c-1.018,0-0.571-1.4-1.271-2.228c-0.702-0.828,0.57-1.018,1.587-1.083 c1.016-0.063,0.252-1.846-1.273-1.91c-1.524-0.064-2.479-0.255-2.666-1.209c-0.192-0.955-2.228-0.063-3.052,0.7 c-0.825,0.764-2.098-0.255-2.54-0.573s1.084-1.337,1.084-3.374c0-2.038-0.703-1.019-1.779-2.102 c-1.081-1.082-1.206-1.209-2.859-0.829c-1.653,0.383-1.464,0.701-2.667-0.508c-1.208-1.209-0.953-1.465-2.287-2.101 c-1.335-0.636-1.335,1.083-2.607,1.91c-1.274,0.827-2.227,2.164-3.561,3.311s-1.015,1.019-3.368,1.274 c-2.351,0.254-8.265,2.228-9.025,3.056c-0.764,0.828-2.604,1.146-3.305,0.828c-0.699-0.319-0.634,1.4-0.443,2.293 c0.192,0.891,0.764,1.209-0.188,1.527c-0.954,0.318-2.541,1.656-3.369,2.929c-0.825,1.274-0.063,1.593,0.824,2.547 c0.893,0.955-0.965,2.105-1.603,2.35c-0.64,0.243-1.325-1.617-2.191-2.503c-0.861-0.886-0.243,0.666-1.656,1.263 c-1.416,0.598-2.963,1.041-4.338,0.576c-1.369-0.465,0.134-0.443,0.178-1.196c0.043-0.753,0.771-1.699,0.988-2.51 c0.213-0.811,0.352-1.623-0.19-2.136c-0.54-0.514,0.02-1.163,0.332-1.904c0.313-0.741-0.703-1.403-1.675-2.378 c-0.977-0.975-0.354-0.975-0.627-1.91c-0.273-0.937-0.469-0.975-1.206-0.975c-0.743,0-0.354-1.988-0.86-2.769 c-0.507-0.78-0.234-1.364-0.896-0.936c-0.667,0.429-0.745-0.156-0.898-0.781c-0.156-0.624-0.467,0-0.74,0.819 c-0.272,0.819-2.301,1.677-3.236,2.066c-0.937,0.39,0.117,1.404,0.663,2.067c0.549,0.663,0.51,0.779-0.116,0.975 c-0.625,0.195-1.679,0.702-2.537,1.677c-0.857,0.975-0.936,0.507-1.676-0.194c-0.74-0.703-1.402-0.625-1.637,1.247 c-0.234,1.872-0.858,1.988-1.56,1.988c-0.702,0-1.989,0.195-3.313,0.352c-1.324,0.156-2.613-1.091-3.002-2.808 c-0.39-1.716-0.856-1.053-2.065-1.872c-1.208-0.819-2.378-0.117-2.77,0.702s-0.155,0.937-0.587,1.443 c-0.43,0.506-0.195,0.429,0.195,1.13c0.392,0.702-1.221,1.445-1.701,1.846c-0.479,0.4,0.201,1.161,0.881,2.001 s-0.321,1.321-1.081,2.122c-0.76,0.8,0.519,0.92,1.041,0.961c0.523,0.041,0.28,0.48-0.319,0.96 c-0.601,0.481,0.2,3.604,0.558,4.845c0.363,1.242-1.69,2.452-1.69,2.452l0.386,0.155c0.98,0.142,2.109,0.52,3.575,0.814 c2.188,0.438,3.123,1.315,3.938,1.816c0.812,0.501,1.125,2.128,1.375,3.255c0.248,1.127,0.687,0.815,1.125,0.438 c0.438-0.375,0.75-0.062,1.625,0.063c0.874,0.125,0.813,0.939,0.125,2.003c-0.688,1.065,0.688,1.065,1.813,1.378 c1.128,0.313,1.875,1.815,3.312,1.815c1.436,0,0-1.691,0.563-2.379c0.562-0.689,0.875,0.5,1,1.627 c0.125,1.127,1.563,1.001,3,0.814c1.438-0.188,2.063,0.814,2.377,2.128c0.313,1.315,1.247,2.317,1.813,3.193 c0.563,0.877,2.001-0.188,2.25-0.876c0.249-0.689,0.937-0.877,1.562-0.188s1.5,0.752,2.122,0.752 c0.628,0,0.875,0.125,1.624,1.127s1.188,1.127,2.251,1.878c1.06,0.75-0.188,3.005-1.315,4.008 c-1.125,1.001,0.128,3.882,1.063,4.696c0.938,0.813,0.439,2.629-0.061,3.694c-0.501,1.065-0.373,1.69-0.062,2.755 c0.313,1.064-0.875,1.439-1.063,2.566s-1.063,1.189-2,1.127s-1.624,0.813-2.624,1.565c-1,0.751-0.688,1.627-0.438,2.755 c0.248,1.127,0.188,2.817,0.313,4.069c0.125,1.253,0.375,2.065,0.438,3.507c0.063,1.439,1.249,2.316,2.375,3.068 c0.363,0.242,0.543,0.514,0.611,0.803c0,0,2.996,0.07,3.516,1.005c0.521,0.935,1.935,1.306,2.083,2.724 c0.149,1.418,0.708,3.172,1.75,4.067c0.362,0.312,0.742,0.54,1.124,0.673l0.361,0.096c0.596,0.112,1.194-0.022,1.719-0.472 c0.971-0.821,1.935-2.647,2.009-3.581s0.484-2.05,1.824-2.835c1.34-0.782,3.202-0.896,3.983-1.603 c0.783-0.709,2.121-1.01,2.905-0.075c0.783,0.933,1.48,2.062,2.847,1.819c1.363-0.24,2.286-0.804,3.008-0.482 c0.721,0.325,1.888-0.08,2.488,0.402c0.599,0.482-0.521,0.804,0.041,1.164c0.558,0.363,1.28,0.806,0.64,1.088 c-0.64,0.281-0.559,0.16-0.241,0.925c0.287,0.68,0.603,2.024,0.896,2.006l0.671-1.045c0.492-0.825,1.214-1.83,2.007-1.724 c1.204,0.158,1.361-0.201,2.609-0.686c1.243-0.48,2.122,0.686,3.167,0.244s2.245-0.967,2.966-0.563 c0.722,0.4,2.787,1.021,3.488,1.486c0.7,0.467,0.934,0.116,1.704-0.311c0.778-0.43,1.705-0.155,1.86,0.311 c0.155,0.467,1.205-0.622,2.985-0.74c1.784-0.115,1.356-0.582,1.707-1.437c0.35-0.856,2.909-1.127,3.492-2.642 c0.581-1.516,0.231-2.875-0.66-3.459c-0.896-0.582-1.962-1.261-2.676-1.127c-0.717,0.133-1.701-0.402-1.392-0.764 c0.315-0.357,2.015-1.211,3.58-0.807c1.566,0.402,2.06-0.629,3.625-1.166c1.568-0.537,2.958-1.076,3.986-2.063 c1.029-0.987,3.672-2.782,4.794-2.559l0.074-0.324c-0.113-0.875-0.381-1.017-0.872-1.06c-0.688-0.063-1.063-0.063-1.063-1.565 c0-1.504,0-1.502-0.438-2.379s-1.374-5.698-1.748-7.075c-0.375-1.377-0.749-2.943,0.125-4.259 c0.875-1.315,0.313-3.068,0.313-4.946c0-1.878,0.688-6.574,0.938-8.766c0.248-2.192-1.75-3.569-3.191-4.697 c-1.435-1.126-0.438-1.126,0.688-1.064c1.128,0.062,0.938-0.126,0.938-1.127s-0.374-0.688-1.188-0.25 c-0.814,0.438-0.688,0-0.44-0.751c0.25-0.751,0-0.939-0.499-1.001c-0.499-0.063-0.188-1.19,0.313-2.254 c0.503-1.065,0.75-1.754-0.313-2.567c-1.062-0.813,0.249-1.628,0.439-2.942c0.051-0.351,0.053-0.652,0.012-0.924 L202.127,162.987z"></path><path id="mapid-440800-outline" fill="none" stroke="#CC2B1F" stroke-width="0.25" stroke-miterlimit="10" d="M204.068,271.604 c0.219,0.205,0.729,0.199,1.059,0.199c1.247,0,1.502,0.879,1.502,1.44s-0.061,1.063,0.438,1.438c0.5,0.373,0.5,1.25-0.249,1.689 c-0.748,0.439-2.502,1.191-1.874,2.314c0.626,1.127,1.376,1.506,2.563,1.565c1.188,0.063,0.874,0.063,2.188,0.938 c1.313,0.875,3.189,1.438,2.623,2.313c-0.563,0.878-1.188,1.065-1.314,2.817c-0.126,1.754-0.875,2.693,0.188,3.131 c1.061,0.438,3.249,1.816,2.248,3.068c-0.999,1.252-2.063,1.504-1.999,2.816c0.06,1.316,1.625,1.378,2.687,1.316 c1.063-0.061,1.25,0.375,2.25,1.252c1,0.876,3.249,2.505,3.313,3.817c0.061,1.317,0.061,2.631,1.125,3.194 c1.063,0.563,4.376,1.691,5.127,2.754c0.749,1.064,1.748,3.506,1.813,4.57c0.06,1.063,0,1.438-0.751,1.438 c-0.746,0-1.125,0.438-0.372,1.127c0.747,0.688,1.501,1.879,1.501,2.942c0,1.063-0.873,0.628-0.873,1.189 s-0.063,2.005-1.063,2.691c-1.001,0.69-1.752,2.817-2.503,2.882c-0.747,0.063-2.121-0.813-2.563,0 c-0.438,0.816-1.561,2.569-2.434,2.695c-0.876,0.124-1.376-0.313-1.563,0.563c-0.187,0.878-0.628,1.565-1.502,0.75 c-0.873-0.814-1.502-1.94-2.063-1.565c-0.561,0.374-1,0.374-1.127-0.749c-0.124-1.128-0.313-3.442-1.746-3.069 c-1.436,0.375-2.503,0.75-2.564,1.939c-0.06,1.191-1.188,1.318-2.121,1.253c-0.938-0.062-6.313,0-7.188,0.313 c-0.872,0.313-1.376-0.126-1.876-0.937c-0.5-0.815-1.747-1.129-3-1.004c-1.25,0.126-5.063,0.937-6.628,0 c-1.563-0.938-3.311-1.565-4.376-1.064c-1.062,0.503-3.374,0.628-4.624-0.188c-1.249-0.814-1.813-0.629-2.063-0.063 c-0.249,0.566-0.561,0.63-1.563,0.564c-1.001-0.063-1.875-0.5-3.25,0.813c-1.102,1.056-1.923,1.866-1.691,2.564l-0.004,0.084 c0,0-1.764,0.18-3.304,0.498c-1.541,0.318-0.816-0.544-2.124-0.725c-1.314-0.18-1.268,0.093-3.033-0.545 c-1.766-0.631-1.268-0.091-2.123,0.452c-0.859,0.545-2.311,0.363-3.122-1.809c-0.813-2.171-1.446,1.583-2.531,1.539 c-1.088-0.045-0.543,0.404-1.719,1.49c-1.177,1.089-4.525-1.584-5.204-3.662c-0.677-2.081-1.4-2.172-2.352-2.122 c-0.948,0.045-2.17,0.178-2.532-1.403c-0.363-1.584-1.585-1.13-2.624-0.859c-1.04,0.271-1.04-0.317-0.949-2.17 c0.095-1.854,0.498-1.587,0.228-2.487c-0.272-0.903-0.921-2.303,0.817-2.704c1.734-0.405,0.685-1.255,0.685-1.981 s0.646,0.364,3.389,0.647c2.742,0.282,2.219-1.777,2.701-2.749c0.485-0.973,0.402-1.74,0.121-2.429 c-0.282-0.687,0-0.646,1.052-0.646c1.05,0,1.089-1.335,1.534-1.816c0.441-0.484,1.208,0.688,1.654,1.169 c0.442,0.486,1.775-1.495,1.775-3.271c0-1.776-1.144-1.375-2.463-1.171c-3.15,0.486-2.466-1.044-2.466-1.044 c1.441-0.763,5.733-3.147,6.949-4.3c1.339-1.267,2.308-1.119,3.497-0.148c1.19,0.972,3.199,0.596,4.611,1.271 c1.413,0.668,2.753,1.191,3.048,0.668c0.296-0.523,0.444-0.668,1.933,0.071c1.489,0.747,2.678,0.897,3.942,0.149 c1.269-0.744,5.285-2.311,3.798-3.651c-1.485-1.342-1.783-3.058-1.635-4.026s-0.821-1.342,1.932-1.86 c2.754-0.521,2.311-1.194,3.497-1.267c1.188-0.076,3.196-1.643,2.975-2.535c-0.164-0.65-1.56-2.06-1.75-3.125l-0.147-0.489 c0.07-0.134,0.383-0.472,0.558-0.558c1.488-0.746,2.606-2.981,3.648-1.49c1.043,1.49,2.381,1.193,3.197,1.789 c0.817,0.595,1.933,0.52,2.604-0.447c0.669-0.971-0.222-1.489-0.37-2.758s-0.818-2.313,0.521-2.686 c1.339-0.371,1.115-2.01,2.381-1.937c1.265,0.075,2.604-0.97,3.869-0.445c1.268,0.521,4.761,1.119,5.949,1.119 C203.354,272.966,203.92,272.275,204.068,271.604L204.068,271.604z"></path><path id="mapid-440600-outline" fill="none" stroke="#CC2B1F" stroke-width="0.25" stroke-miterlimit="10" d="M115.854,303.584 c-1.445-0.616-2.89-0.4-2.89-0.4c-1.189,0.522-1.342,1.529-2.386,1.084c-0.917-0.395-2.767-1.007-4.495-0.793l-0.843,0.313 c-1.575,0.283-1.978-0.76-3.292-0.413c-1.413,0.372-4.463,1.045-5.209,1.564c-0.744,0.521-2.082,1.271-2.753,0.225 c-0.668-1.045-1.711-0.521-2.604-1.267c-0.893-0.747-1.114-2.09-0.37-2.907c0.744-0.82,1.264-1.27,0.594-1.863 c-0.669-0.595-2.827,0.67-4.24,1.193c-1.415,0.521-1.563-0.67-1.786-1.417c-0.222-0.745-0.222-0.97-1.785-0.295 c-1.56,0.668-1.933-0.972-2.157-2.462c-0.227-1.49-0.445,0.896-1.859,1.789c-1.413,0.895-4.759-1.043-5.432-1.789 c-0.668-0.746-1.042,0.971-1.116,2.313c-0.075,1.342-0.745,4.322-1.116,5.292c-0.373,0.972-1.563-0.373-3.125-1.046 c-1.563-0.668-1.041,0.074-0.82,0.747c0.224,0.671,0.074,0.669-1.042,0.821c-1.115,0.147-1.042,0.669-1.115,1.861 c-0.075,1.193-1.586,1.338-1.586,1.338s-0.222,0.399-0.545,0.588c-0.747,0.438-0.813,1.003-0.813,2.005s-1,1.315-1.5,0.688 c-0.5-0.625-0.938-0.438-1.688-0.563c-0.751-0.124-0.75-0.814-1.188-2.882c-0.439-2.064-1.501-0.5-1.501-0.5 s-0.625,0.438-1.188,0.938c-0.562,0.5-1.25-0.063-2-0.629c-0.75-0.563-1-0.313-1.938,0.251 c-0.936,0.563-1.375,0.248-2.437,1.251c-1.062,1.002-2.438-0.814-3.126-2.066c-0.688-1.253-1.062-0.814-2.75-0.438 c-1.688,0.375-1.126,0-2.312,0.375c-1.188,0.376-0.938,0.876-1.5,1.814c-0.563,0.938-1.375,0-1.688,0.816 c-0.313,0.815-0.688,1.25-1.126,1.626c-0.438,0.377-0.625,1.878-0.5,2.88c0.126,1.005,0.188,1.318-0.75,1.94 c-0.938,0.629-3.125-0.376-3.813-0.313c-0.688,0.063-0.188,2.128,0.625,2.441c0.813,0.313,0.625,0.688,0.188,1.314 c-0.437,0.629,0.5,1.128,1.438,1.815c0.937,0.688,2,1.063,3.563,1.69c1.563,0.627,2,0.312,2.75,0.938 c0.75,0.628,0.813,2.129,0.188,2.817c-0.625,0.688-0.938-0.25-1-0.814c-0.063-0.565-0.5-0.628-0.813-0.126 c-0.313,0.5-0.125,1.314,0.125,2.379c0.249,1.063,0.249,1.002-0.063,2.064c-0.313,1.065-0.188,1.003,0,2.13 c0.188,1.127-0.249,1.001-0.688,1.564c-0.438,0.563-1.25,1.378-2.5,1.189s-2,0.628-2.749,1.252 c-0.751,0.625-1.501,1.001-2.625,0.875c-1.125-0.128-1.688,0-3.063,0.503c-1.375,0.499-2.813-1.319-3.688-1.439 c-0.874-0.126,0.688,3.382,1.188,4.635c0.501,1.251,0.688,2.006,0.688,3.128c0,1.129,0.188,1.754,1.438,1.884 c1.25,0.125,3.438-1.628,4.25-2.504c0.812-0.878,1.563,0,2.562,0.251c1.001,0.247,1.188-1.629,1.313-2.386 c0.125-0.747,2.75-0.625,3.999-0.813c1.25-0.188,1.563-0.063,2.563,0.248c1,0.313,1.501-0.688,1.625-1.378 c0.125-0.69,0.937,0.876,1.874,1.564c0.938,0.688-0.563,1.882-1.062,3.259c-0.5,1.377,2.438,1.377,3.375,2.065 c0.937,0.689,3.312,1.692,4.938,1.754c1.624,0.06,2.063,0.56,3.063,1.438c1,0.876,1.375,0.816,1.75,0.127 c0.373-0.689,0.625-0.628,1.435-0.503c0.813,0.129,1.501-0.188,2-0.689c0.502-0.5,1.25-0.438,2.438-0.126 c1.188,0.313,3.063-1.313,4.187-2.127c1.125-0.813,1.688-0.438,2.563,0.25c0.875,0.688,1.624,0.563,2.75,0.247 c1.125-0.313,1.375-0.247,2.375,0.128s5,0,5.875,0.06c0.875,0.063,0.249,1.191,0.936,1.94c0.688,0.753-0.313,1.319,0.188,2.885 c0.5,1.563-0.375,2.313-0.813,3.002c-0.438,0.688,1.188,2.441,2.375,2.441c1.188,0,1.563,0.438,2.125,1.064 c0.561,0.626,1.563,2.254,2.248,1.624c0.688-0.627,2.69-3.19,3.94-4.692c1.247-1.507,1.812-0.631,2.434,0.06 c0.627,0.688,0.063,3.571,0.063,4.319c0,0.75,1.125,1.939,1.687,1.626c0.563-0.312,2.188,0.749,3.125-0.125 c0.937-0.877,1.623-0.877,2.999-0.63c1.375,0.251,1.625,1.506,2.25,2.755c0.627,1.253,1.501,1.253,2.25,1.253 c0.75,0,0.563,0.564,0.813,1.377c0.251,0.814,0.627,1.252,1.689,2.382c1.062,1.128,1.125,1.751,2.75,1.691 c1.624-0.063,2,2.38,3.123,2.38c1.127,0,2.313-2.192,2.502-3.191c0.142-0.754,2.5-0.482,4.128-0.402l-0.029-0.722 c0-1.444-0.471-3.344-0.471-3.898c0-0.557-1.333-2.114-0.61-2.669c0.722-0.555,0.167-0.61,0.056-1.556 c-0.112-0.942,0.669-1.055,2.109-1.165c1.443-0.111,2.054-0.334,2.054-1.226c0-0.893,0.778-0.222,1.499-1.168 c0.721-0.942-0.5-2.388-1.277-3.058c-0.776-0.668-1.442-1.334-1.554-2.057c-0.111-0.726,1.332,0.109,2.22,0.61 c0.893,0.5,0.669-1.001,0.17-1.665c-0.5-0.668-0.61-1.111-0.669-2.67c-0.056-1.557-1.887-2.224-2.885-2.278 c-0.999-0.057-1.109-0.44-2.61-2.058c-1.5-1.613-1.664-3.612-0.89-4.449c0.78-0.835,1.222-2.008,1.501-3.727 c0.278-1.725-0.391-3.28-0.832-4.281c-0.444-1.001,0.33-2.167-0.222-2.669c-0.557-0.5-0.444-0.779,0-1.445 c0.442-0.668-0.611-1.501-1.443-2.005c-0.833-0.5-0.333-1.61,0-2.389c0.333-0.779,0.058-1.778,0.5-2.669 c0.443-0.892,2.276-1.946,3.386-2.949c1.11-1-0.999-2.166-2.502-3.278c-1.499-1.114-0.554-3.227-0.389-4.785 c0.17-1.556-1.394-4.193-1.394-4.193S116.796,303.899,115.854,303.584z"></path><path id="mapid-440300-outline" fill="none" stroke="#CC2B1F" stroke-width="0.25" stroke-miterlimit="10" d="M109.72,248.705 c-0.821,0.309-1.713,0.077-2.4,0.119c-1.063,0.062-2.188,0.562-2.938,1.252c-0.747,0.688-0.562,0.563-1.312-0.439 c-0.749-1.001-1.315-0.75-2.188-0.75c-0.875,0-0.5,0.313-1.563,1.316c-1.063,1.004-2.375,0-3.625-0.188 c-1.25-0.188-2.25,0.313-2.999-0.252c-0.748-0.56-1.188-0.56-1.563,0.188c-0.373,0.751-1,0.751-2.187,1.505 c-1.188,0.748-1.5-0.063-1.624-1.063c-0.127-1.002-0.627-1.506-2.063-1.693c-1.438-0.188-1.502-0.876-1.438-2.006 c0.062-1.127-1.313-1.564-2-1.564c-0.688,0-2.25-1.002-2.875-1.879c-0.628-0.876-1.25-1.251-2.377-1.063 c-1.125,0.188-2.688,0.188-3.812,0c-1.127-0.188-1.688,0.062-2.75,0.629c-1.062,0.562-2.438,0.248-3.878,0.061 c-1.434-0.188-1.434-0.127-1.434,0.563s-0.25,1.379-1.315,2.066c-1.06,0.688-0.438,3.631-0.438,4.635 c0,1.002,1.313,2.191,2.188,3.131c0.875,0.938-0.625,1.813-0.625,2.881c0,1.063-0.375,1.188-1.313,1.253 c-0.938,0.061-1.437,1.126-2.189,2.063c-0.748,0.938,0.313,1.254-0.062,1.879c-0.373,0.629-1.436,0-2,0.75 c-0.563,0.75-0.875,0.815-2.063,0.815s-0.748,1.503-0.562,2.757c0.186,1.25,2.188,1.002,3.999,1.25 c1.813,0.249,2.124,0.814,3.312,1.505c1.188,0.688,2.563,2.313,3,3.632c0.439,1.315,1.874,1.439,2.375,2.127 c0.5,0.688,0.374,2.883-0.625,3.881c-1,1.002-3.312,0.188-4.187-0.627c-0.873-0.814-1.125,0.062-2.313,0.627 c-1.186,0.567-0.125,1.002,0.875,1.127c1.001,0.125,1.063,0.75,1.125,1.814c0.063,1.064,0.501,1.878,1.25,2.568 c0.75,0.688-1,1.753-2.25,1.753s-1.063,0.188-1.126,1.251c-0.062,1.063-2.249,5.57-2.875,7.201 c-0.626,1.629-0.561,2.381,0.813,2.504c1.375,0.126,1.188,0.877,0.688,1.314c-0.5,0.439-0.813,0.753-0.375,1.319 c0.438,0.562,0.624,1.503,0.624,2.313c0,0.815,0.375,1.94,1.315,1.879c0.936-0.063,1.624,1.813,2.063,2.755 c0.133,0.284,0.24,0.554,0.31,0.809l0.057,0.729c0,0,1.563-0.075,1.637-1.268c0.074-1.195,0-1.714,1.116-1.863 c1.117-0.148,1.266-0.148,1.042-0.822c-0.221-0.669-0.745-1.415,0.821-0.746c1.562,0.67,2.751,2.014,3.124,1.045 c0.37-0.969,1.042-3.951,1.116-5.293c0.074-1.34,0.445-3.057,1.115-2.311c0.672,0.746,4.02,2.684,5.432,1.788 c1.414-0.896,1.637-3.28,1.859-1.788c0.224,1.488,0.597,3.131,2.159,2.459c1.563-0.668,1.563-0.443,1.785,0.299 c0.223,0.746,0.372,1.938,1.786,1.416c1.414-0.521,3.572-1.79,4.241-1.194c0.669,0.597,0.147,1.045-0.597,1.863 c-0.742,0.82-0.517,2.161,0.372,2.906c0.894,0.746,1.936,0.225,2.604,1.27c0.671,1.043,2.009,0.296,2.753-0.224 c0.746-0.523,3.795-1.193,5.208-1.566c1.313-0.345,1.536,0.593,3.109,0.312l0.383-0.103c-0.145-0.48-1.297-1.876-1.684-2.502 c-0.385-0.629-0.094-1.299,0.864-2.118c0.964-0.82,1.106-2.791,1.298-4.907c0.192-2.117,2.213-2.503,2.984-3.511 c0.77-1.013,0.625-1.104,1.202,0.771c0.578,1.875,1.299,0.912,1.635-0.049c0.337-0.963,0.672-0.865,1.249-0.338 c0.58,0.53,1.686-0.049,1.686-1.439c0-1.396,0.577-1.877,1.684-3.271c0.974-1.229,0.998-3.495,0.919-5.128l-0.057-0.98 c-0.095-1.489-0.433-2.26,0.436-2.838c0.863-0.576,1.248-1.153,0.192-2.116c-1.059-0.964-0.771-1.731-0.771-3.654 c0-1.922-0.625-3.224-0.864-5.291c-0.238-2.067,0-1.876,0.818-2.646c0.821-0.771,0.096-2.885,0.096-4.33 c0-1.443-0.096-2.5-0.865-2.887c-0.769-0.384-1.776-0.961-1.97-2.354c-0.192-1.394-0.913-0.479-1.925,0 c-1.01,0.479-2.583-5.083-2.583-5.083L109.72,248.705z"></path><path id="mapid-440200-outline" fill="none" stroke="#CC2B1F" stroke-width="0.25" stroke-miterlimit="10" d="M170.195,230.246 c-0.29,0.02-0.607-1.324-0.896-2.005c-0.32-0.765-0.4-0.644,0.242-0.925c0.641-0.28-0.08-0.724-0.64-1.084 c-0.561-0.363,0.56-0.684-0.04-1.166c-0.601-0.483-1.769-0.08-2.489-0.402c-0.721-0.323-1.645,0.242-3.007,0.48 c-1.363,0.241-2.063-0.891-2.846-1.82c-0.784-0.934-2.122-0.633-2.905,0.076c-0.783,0.707-2.646,0.822-3.985,1.603 c-1.34,0.782-1.75,1.903-1.822,2.838c-0.074,0.933-1.044,2.759-2.01,3.578c-0.523,0.447-1.023,0.599-1.625,0.487l0,0 c0,0-0.754,2.023-1.358,2.023s-2.878-0.305-3.484,1.362c-0.604,1.67-2.878,3.54-2.622,4.653c0.25,1.113,0.15,1.164-0.604,1.72 c-0.758,0.558-1.362,0.403-1.061,1.365c0.303,0.961,0.453,1.366-0.303,1.72c-0.757,0.355-0.96,1.266-0.101,1.924 c0.859,0.657,1.92,0.25,1.814,2.526c-0.1,2.274,0.253,1.973,1.265,1.973c1.011,0,2.823-0.252,3.532,1.517 c0.708,1.771,1.262,2.884,2.168,1.974c0.907-0.912,2.677-1.974,3.533-1.166c0.587,0.554,0.981,0.799,1.225,0.69l0.31-0.93 c0.059-0.682,0.135-1.54,0.991-1.736c1.109-0.25,2.624-0.605,2.676-1.969c0.052-1.365,1.263-1.925,2.623-2.227 c1.36-0.307,1.813-1.568,2.424-2.479c0.607-0.91,2.072-3.339,2.427-2.478c0.355,0.86,1.108,0.505,1.563,0.202 c0.454-0.305,1.776,0.003,1.94,0.762c0.173,0.757,1.217,0.969,1.217-0.251s0.671-2.396-0.25-2.608 c-0.924-0.209-2.937-1.513-3.441-2.187c-0.503-0.672-2.979-2.313-2.31-2.731s1.343-0.505,2.518-0.97 c1.175-0.462,1.051-0.841,1.764-1.682c0.715-0.841,1.176-0.925,2.014-1.345c0.84-0.42,1.218-0.801,1.551-1.263L170.195,230.246z"></path><path id="mapid-440400-outline" fill="none" stroke="#CC2B1F" stroke-width="0.25" stroke-miterlimit="10" d="M139.255,223.396 c0.105,0.595-0.23,1.248-0.438,1.821c-0.313,0.878-0.126,1.003,0.438,2.316c0.563,1.315,0.439,1.626-0.313,2.815 c-0.749,1.191-0.063,1.506-0.063,2.317s-1.563,1.25-2.188,1.25c-0.626,0-1.438,0.188-2.249,0.938 c-0.813,0.752-4.313,0.188-5.625-0.188c-1.314-0.376-1.689,0.125-2.503,0.688c-0.813,0.563-1.624-0.813-2.622-1.439 c-1.002-0.625-4.688,1.439-6.375,2.506c-1.688,1.064-1.815,0.501-2.001-0.563c-0.187-1.066-0.748-0.313-1.436,0.312 c-0.688,0.628-3.438-1.249-4.563-2.126c-1.126-0.876-1.313-0.816-2.001-0.314s0.126,0.563,0.063,1.506 c-0.063,0.938-1.188,1.127-2.25,0.938c-1.063-0.188,0.248,1.941,1.125,3.131c0.875,1.189,0.439,1.754,1.25,3.319 c0.812,1.565,1.563,1.877,2.438,2.503c0.875,0.625,1.935,1.189,1,2.503c-0.231,0.325-0.505,0.556-0.802,0.726l-0.424,0.349 c0,0,1.635,5.771,2.646,5.292c1.012-0.48,1.731-1.395,1.925,0c0.192,1.395,1.203,1.969,1.971,2.354 c0.768,0.387,0.865,1.444,0.865,2.887c0,1.441,0.721,3.558-0.096,4.33c-0.818,0.77-1.058,0.576-0.818,2.645 c0.241,2.068,0.864,3.367,0.864,5.292s-0.287,2.695,0.771,3.653c1.057,0.962,0.673,1.539-0.192,2.117 c-0.863,0.576-0.527,1.349-0.435,2.838c0.012,0.146,0.021,0.311,0.029,0.484l0.454-0.121c0.936-0.217,4.741,0.608,6.111,1.113 c1.369,0.508,3.893,0.508,6.418,0.508c2.522,0,4.976-0.795,5.98-1.734c1.014-0.938,1.807-0.795,3.174-0.649 c1.37,0.144,3.535-1.224,4.525-1.435c0.989-0.209,1.875-2.555,2.134-3.496c0.259-0.938,3.908-2.453,4.324-2.817 c0.415-0.362,1.772-2.296,1.303-4.748c-0.473-2.454,1.043-2.085,1.928-2.295c0.886-0.209,1.666,0.416,2.919,0.573 c1.248,0.156,1.93-2.768,2.235-3.65c0.153-0.431,0.463-0.748,0.634-1.048l0.127-0.397c-0.008-0.185-0.114-0.375-0.396-0.594 c-0.938-0.729-1.876,0.573-2.764,0.629c-0.887,0.053-1.403-0.68-1.403-1.67s-0.676-2.193-1.46-3.078 c-0.782-0.886-1.068-1.133-1.068-1.133l-0.391-0.379c-0.242,0.107-0.51-0.119-1.091-0.671c-0.861-0.81-2.624,0.252-3.535,1.165 c-0.907,0.91-1.463-0.204-2.168-1.972c-0.708-1.771-2.527-1.519-3.535-1.519c-1.011,0-1.363,0.307-1.262-1.97 c0.099-2.272-0.96-1.87-1.817-2.526c-0.856-0.66-0.656-1.566,0.103-1.924c0.756-0.355,0.604-0.761,0.303-1.721 c-0.303-0.96,0.302-0.809,1.061-1.362c0.754-0.557,0.857-0.606,0.604-1.72c-0.251-1.114,2.017-2.984,2.622-4.652 c0.605-1.671,2.881-1.367,3.482-1.367c0.605,0,1.364-2.022,1.364-2.022l-0.454-0.112c-0.383-0.133-0.763-0.361-1.123-0.673 c-1.047-0.896-1.603-2.647-1.751-4.065c-0.149-1.418-1.563-1.791-2.085-2.724c-0.519-0.935-3.037-0.918-3.037-0.918 L139.255,223.396z"></path><path id="mapid-440100-outline" fill="none" stroke="#CC2B1F" stroke-width="0.25" stroke-miterlimit="10" d="M159.391,260.798 c-0.174,0.3-0.483,0.618-0.635,1.048c-0.313,0.887-0.988,3.809-2.235,3.65c-1.248-0.156-2.034-0.783-2.92-0.573 c-0.887,0.21-2.394-0.155-1.927,2.298c0.467,2.45-0.888,4.381-1.303,4.747c-0.417,0.365-4.065,1.88-4.323,2.817 c-0.262,0.939-1.146,3.287-2.136,3.496c-0.99,0.21-3.153,1.576-4.523,1.433c-1.37-0.146-2.162-0.286-3.175,0.651 c-1.011,0.937-3.459,1.734-5.981,1.734c-2.525,0-5.048,0-6.417-0.509c-1.371-0.506-5.28-1.487-6.493-1.012l-0.069,0.743 c0.079,1.631,0.078,3.668-0.896,4.9c-1.106,1.395-1.684,1.877-1.684,3.27s-1.105,1.97-1.686,1.441 c-0.577-0.529-0.912-0.629-1.249,0.336c-0.336,0.963-1.058,1.926-1.635,0.047c-0.577-1.875-0.433-1.777-1.204-0.769 c-0.77,1.011-2.788,1.394-2.982,3.511c-0.191,2.117-0.334,4.088-1.298,4.906c-0.961,0.817-1.249,1.491-0.864,2.117 c0.386,0.626,1.539,2.02,1.684,2.502l0.713-0.118c1.73-0.211,3.508,0.413,4.424,0.807c1.043,0.446,0.954-0.25,2.082-0.896 c1.563-0.89,3.754,0.961,5.431,0.149c0.018-0.009,0.035-0.009,0.055-0.012l0.094-0.018c1.757-0.299,3.837,0.518,5.212-0.57 c1.414-1.118,4.911-2.607,6.25-2.46c1.34,0.149,1.709,1.49,2.679,0.669c0.968-0.821,1.934-2.011,3.271-1.042 c1.34,0.968,2.383,2.011,3.051,0.444c0.669-1.564,1.34-2.159,3.197-2.159c1.859,0,2.604-0.746,3.2,0.593 c0.521,1.186,0.761,1.267,1.422,0.96l0.631-0.315c1.439-0.759,5.733-3.146,6.95-4.297c1.34-1.269,2.309-1.119,3.496-0.149 c1.19,0.972,3.198,0.595,4.609,1.269c1.414,0.67,2.754,1.193,3.05,0.67c0.296-0.524,0.444-0.67,1.934,0.072 c1.487,0.746,2.678,0.897,3.941,0.149c1.268-0.747,5.285-2.312,3.798-3.651c-1.485-1.343-1.783-3.056-1.635-4.025 c0.148-0.969-0.822-1.342,1.931-1.862c2.752-0.521,2.31-1.192,3.497-1.269c1.19-0.073,3.195-1.64,2.977-2.532 c-0.167-0.652-1.586-2.171-1.778-3.236l-0.146-0.45c0,0-3.493-0.688-4.606-1.015c-1.117-0.324-3.305-0.604-4.7-1.442 c-1.395-0.838-0.976-2.978-0.557-4.279c0.419-1.305-1.115-2.047-2.327-3.305c-1.205-1.257-0.602-1.675,0.141-2.605 c0.744-0.934,0.14-1.305-0.515-2.84c-0.651-1.535-0.325-2.327,0.79-3.489c1.115-1.165-0.42-1.863-1.117-2.28 c-0.698-0.419-1.165,1.21-1.586,2.141c-0.416,0.933-0.744,0.605-1.394,0.188c-0.652-0.419-4.453-1.191-4.453-1.191 L159.391,260.798z"></path><path id="mapid-440500-outline" fill="none" stroke="#CC2B1F" stroke-width="0.25" stroke-miterlimit="10" d="M179.996,280.152 c0.072-0.131,0.191-0.243,0.365-0.329c1.488-0.745,2.606-2.981,3.646-1.49c1.043,1.49,2.383,1.192,3.198,1.786 c0.819,0.598,1.934,0.521,2.604-0.444c0.669-0.973-0.224-1.489-0.372-2.758c-0.146-1.271-0.816-2.313,0.521-2.687 c1.34-0.371,1.115-2.01,2.38-1.936c1.266,0.075,2.604-0.972,3.871-0.445c1.266,0.522,4.76,1.118,5.95,1.118 c1.192,0,1.859-0.745,2.008-1.417l-0.558-1.24c-0.229-0.552-0.441-1.19-0.735-1.824c-0.75-1.625,0.499-2.754,0.874-4.006 c0.374-1.25-0.813-1.25-2.313-1.25s-1.624-0.817-2.62-1.754c-1.004-0.938-0.44-3.068,0-4.133 c0.438-1.064,0.372-4.382,0.124-6.513c-0.248-2.128,0.313-4.448,1.188-5.761c0.876-1.314,1.064-2.693,1.002-3.944 c-0.062-1.252,0.563-3.256,1.063-4.821c0.5-1.564,2.188-3.945,3.438-5.824c1.249-1.877,3.622-10.955,3.31-11.582 c-0.313-0.627-0.688-4.383-0.688-6.574c0-0.362-0.052-0.243-0.063-0.508l-0.074-0.611c-1.121-0.225-3.763,1.57-4.792,2.557 c-1.03,0.986-2.421,1.525-3.987,2.063c-1.567,0.538-2.059,1.569-3.625,1.165c-1.566-0.403-3.268,0.447-3.58,0.808 c-0.313,0.359,0.668,0.897,1.391,0.763c0.719-0.133,1.783,0.545,2.676,1.127c0.894,0.584,1.243,1.943,0.659,3.459 c-0.582,1.515-3.143,1.787-3.491,2.643s0.077,1.322-1.706,1.438c-1.782,0.117-2.831,1.205-2.986,0.738 c-0.155-0.465-1.087-0.738-1.859-0.31c-0.776,0.427-1.009,0.778-1.703,0.31c-0.702-0.465-2.767-1.086-3.489-1.484 c-0.721-0.402-1.926,0.119-2.965,0.562c-1.045,0.44-1.929-0.726-3.168-0.242c-1.243,0.483-1.403,0.843-2.61,0.685 c-0.788-0.106-1.341,0.621-1.834,1.449l-0.851,1.377c-0.335,0.463-0.712,0.84-1.552,1.262c-0.839,0.42-1.301,0.505-2.014,1.346 s-0.589,1.221-1.764,1.682c-1.175,0.465-1.848,0.549-2.518,0.971c-0.671,0.419,1.807,2.059,2.309,2.73 c0.509,0.672,2.52,1.978,3.443,2.188c0.925,0.21,0.249,1.39,0.249,2.609c0,1.219-1.051,1.01-1.217,0.25 c-0.169-0.758-1.486-1.065-1.939-0.764c-0.455,0.305-1.209,0.66-1.565-0.201c-0.354-0.859-1.814,1.567-2.426,2.479 c-0.604,0.907-1.058,2.172-2.423,2.474c-1.361,0.307-2.579,0.861-2.624,2.229c-0.053,1.365-1.565,1.72-2.676,1.97 c-0.858,0.194-0.937,1.051-0.991,1.735l-0.438,0.91c0,0,0.677,0.627,1.461,1.512c0.782,0.889,1.457,2.089,1.457,3.078 c0,0.992,0.521,1.723,1.406,1.668c0.885-0.053,1.82-1.355,2.761-0.629l0.229,0.267c0,0,3.911,0.886,4.562,1.305 c0.652,0.419,0.978,0.746,1.396-0.187s0.882-2.561,1.583-2.142c0.697,0.419,2.233,1.118,1.116,2.28 c-1.116,1.162-1.439,1.954-0.788,3.488c0.651,1.537,1.254,1.908,0.514,2.84c-0.746,0.933-1.352,1.352-0.139,2.605 c1.209,1.256,2.746,2.004,2.326,3.307c-0.421,1.302-0.84,3.441,0.556,4.279c1.395,0.838,3.584,1.117,4.699,1.443 c1.119,0.325,4.608,1.014,4.608,1.014L179.996,280.152z"></path><path id="mapid-440700-outline" fill="none" stroke="#CC2B1F" stroke-width="0.25" stroke-miterlimit="10" d="M169.748,327.421 c0,0-1.766,0.18-3.305,0.498c-1.54,0.318-0.815-0.544-2.124-0.725c-1.315-0.18-1.267,0.092-3.033-0.544 c-1.767-0.632-1.269-0.092-2.124,0.451c-0.858,0.543-2.309,0.363-3.12-1.81c-0.813-2.17-1.445,1.584-2.531,1.54 c-1.09-0.046-0.546,0.405-1.721,1.491c-1.175,1.088-4.523-1.584-5.203-3.662c-0.677-2.081-1.4-2.173-2.352-2.125 c-0.949,0.047-2.169,0.18-2.532-1.402c-0.363-1.585-1.586-1.13-2.624-0.858c-1.04,0.271-1.04-0.317-0.948-2.17 c0.094-1.854,0.496-1.587,0.227-2.488c-0.272-0.902-0.921-2.301,0.816-2.703c1.735-0.405,0.687-1.254,0.687-1.981 c0-0.727,0.646,0.364,3.388,0.647s2.219-1.779,2.701-2.75c0.485-0.971,0.403-1.739,0.121-2.427s0-0.646,1.052-0.646 c1.05,0,1.089-1.334,1.534-1.816c0.44-0.485,1.207,0.688,1.653,1.171c0.445,0.483,1.776-1.496,1.776-3.271 s-1.133-1.268-2.465-1.172c-3.609,0.259-2.464-1.044-2.464-1.044l-0.841,0.402c-0.363,0.17-0.688,0.135-1.213-1.051 c-0.595-1.342-1.339-0.596-3.198-0.596c-1.858,0-2.529,0.596-3.198,2.161c-0.669,1.566-1.708,0.521-3.047-0.446 c-1.34-0.969-2.31,0.224-3.273,1.045c-0.968,0.821-1.34-0.521-2.68-0.669c-1.339-0.148-4.834,1.342-6.249,2.461 c-1.376,1.09-3.204,0.34-4.958,0.637l-1.013,0.142c0,0,1.561,2.641,1.396,4.197c-0.168,1.555-1.108,3.67,0.39,4.782 c1.499,1.111,3.608,2.278,2.5,3.28c-1.111,1.002-2.943,2.06-3.383,2.948c-0.444,0.889-0.169,1.89-0.502,2.668 c-0.331,0.779-0.831,1.893,0,2.391c0.832,0.499,1.889,1.333,1.442,2.002c-0.44,0.668-0.554,0.944,0,1.447 c0.556,0.5-0.222,1.665,0.223,2.667c0.443,1.004,1.109,2.561,0.833,4.28c-0.278,1.729-0.723,2.893-1.499,3.728 c-0.778,0.833-0.61,2.835,0.888,4.448c1.5,1.617,1.608,2.006,2.609,2.059c1,0.059,2.831,0.723,2.887,2.278 c0.055,1.559,0.167,2.004,0.666,2.671c0.501,0.667,0.722,2.165-0.167,1.663c-0.891-0.502-2.331-1.334-2.221-0.611 c0.111,0.724,0.777,1.396,1.553,2.058c0.777,0.67,2,2.115,1.278,3.06c-0.722,0.945-1.501,0.279-1.501,1.168 c0,0.892-0.609,1.112-2.052,1.224c-1.443,0.11-2.221,0.223-2.11,1.164c0.11,0.946,0.667,1.006-0.058,1.559 c-0.722,0.556,0.611,2.112,0.611,2.669c0,0.555,0.5,3.174,0.5,4.62l0.202,0.063c0.474,0.02,0.793-0.059,1.048-0.098 c1.126-0.188,1-1.128,1.248-1.939c0.249-0.813,1.688,0.188,2.811,1.128c1.126,0.937,1.438,0.375,2.063-0.251 c0.626-0.625,2.438-0.313,4.251-0.247c1.813,0.059,1.187,0.688,1.436,1.813c0.249,1.127,0.876,1.002,1.938,1.566 c1.061,0.563,1.875,1.313,2.623,2.127c0.748,0.814,1.937,1.624,3.063,1.624s1.188,0.188,1.748,0.939 c0.563,0.746,1.001,1.001,1.688,1.378c0.688,0.373,2.188,1.063,2.75,2.128c0.562,1.063,2.436,1.001,4.25,1.063 c1.813,0.061,3.877,2.252,5.252,3.256c1.376,1.003,2.063,1.504,2.688,2.314c0.628,0.815,1.127,1.505,2.003,1.505 c0.872,0,0.313,1.437,0.56,2.628c0.249,1.192,1.876,1.626,2.938,1.626c1.063,0,2.188-0.124,2.999-0.563 c0.813-0.439,3.875-0.188,5.186-0.188c1.314,0,1.314-0.184,1.188-1.062c-0.127-0.877,0-1.625,1.127-2.255 c1.127-0.628-1-3.004-1.5-3.632c-0.502-0.629,0-1.126,1.061-1.881c1.063-0.747,0.248-1.625-0.499-2.189 c-0.748-0.564-0.374-1.44-0.374-2.067c0-0.626,0.126-1.126,0.873-2.253c0.747-1.128-0.373-1.065-0.938-2.067 c-0.563-1.001,0-1.754,0.563-2.503c0.56-0.749,0.312-1.249-1.624-1.753c-1.937-0.503-1.001-1.752-1.813-2.439 c-0.815-0.688-0.5-1.25-0.629-2.569c-0.127-1.314,0.875-1.503,1.503-2.067c0.625-0.559,1.374-2.565,0.688-4.695 c-0.688-2.124,0.999-1.938,1.559-2.254c0.563-0.313,0.688-1,0.816-1.622c0.125-0.632,1.313,0.058,2.436,0.749 c1.126,0.688,1.936-0.374,2.811-0.817c0.874-0.438,0.563-0.125,1.75,0.941c1.188,1.062,1.063-0.441,1.563-1.321 c0.5-0.873,0.688-0.688,1.624-0.748c0.938-0.062,2.249,1.004,3,1.938c0.746,0.939,0.999,0.441,2.188-0.313 c1.188-0.75,1.875-1.314,2.063-2.38c0.188-1.064,1.374-0.063,1.938,0.563c0.561,0.626,1.249-0.188,1.687-1.063 c0.44-0.878-0.438-1.378-1.249-1.565c-0.811-0.188-0.186-1.879-0.186-3.317c0-1.44-0.061-1.378-0.748-1.754 c-0.688-0.375-0.373-0.249,0-1.064c0.374-0.813-1.749-1.69-2.749-2.126c-1.002-0.438-1.75-1.316-3.065-1.316 c-1.313,0-1.56-0.062-2.436-0.937c-0.874-0.876-2.373,0.249-3.813,0.937c-1.436,0.688-1.247-1.438-1.247-2.632 c0-1.188,0.127-1.563,0.5-3.566c0.374-2.009-2.376-2.316-3.625-2.695c-1.247-0.374-2.061-0.876-4.187-0.876 c-2.122,0-3.623-0.688-4.624-1.504C169.945,327.689,169.748,327.421,169.748,327.421z"></path><text transform="matrix(1 0 0 1 183.0662 107.8525)" fill="#040000" font-family="'MicrosoftYaHei'" font-size="7.3366">榆林市</text><text transform="matrix(1 0 0 1 172.7371 178.4688)" fill="#040000" font-family="'MicrosoftYaHei'" font-size="7.3366">延安市</text><text transform="matrix(1 0 0 1 172.7371 250.4248)" fill="#040000" font-family="'MicrosoftYaHei'" font-size="7.3366">渭南市</text><text transform="matrix(1 0 0 1 142.656 242.124)" fill="#040000" font-family="'MicrosoftYaHei'" font-size="7.3366">铜川市</text><text transform="matrix(1 0 0 1 127.9827 266.1738)" fill="#040000" font-family="'MicrosoftYaHei'" font-size="7.3366">咸阳市</text><text transform="matrix(1 0 0 1 78.6062 265.2568)" fill="#040000" font-family="'MicrosoftYaHei'" font-size="7.3366">宝鸡市</text><text transform="matrix(1 0 0 1 71.6609 323.0332)" fill="#040000" font-family="'MicrosoftYaHei'" font-size="7.3366">汉中市</text><text transform="matrix(1 0 0 1 138.0681 289.4063)" fill="#040000" font-family="'MicrosoftYaHei'" font-size="7.3366">西安市</text><text transform="matrix(1 0 0 1 190.4177 300.248)" fill="#040000" font-family="'MicrosoftYaHei'" font-size="7.3366">商洛市</text><text transform="matrix(1 0 0 1 144.8416 340.9053)" fill="#040000" font-family="'MicrosoftYaHei'" font-size="7.3366">安康市</text></g><path id="mapid-441800-outline" display="none" fill="#172E58" d="M149.535,280.523c0,1.045,0.487,1.992,2.078,1.992 c1.217-0.002,1.985-0.646,1.985-1.992c0-1.063-0.538-2.041-1.985-2.041C149.993,278.482,149.535,279.204,149.535,280.523z"></path><path id="mapid-449900-outline" display="none" fill="#172E58" d="M148.962,282.833c0,1.046,0.486,1.993,2.077,1.991 c1.218-0.002,1.987-0.645,1.987-1.991c0-1.062-0.54-2.041-1.987-2.041C149.42,280.794,148.962,281.514,148.962,282.833z"></path></g><g id="西安铁路"><circle id="mapid-441800-circle" fill="#040000" cx="156.871" cy="287.859" r="1.375"></circle></g><g id="陕西省高级人民法院"><circle id="mapid-449900-circle" fill="#040000" cx="150.992" cy="282.809" r="1.375"></circle></g><g id="榆林市"><circle id="mapid-441700-circle" fill="#E60012" cx="176.442" cy="117.964" r="1.376"></circle><circle id="_x34_41717" fill="#040000" cx="212.971" cy="140.118" r="1.376"></circle><circle id="_x34_41718" fill="#040000" cx="191.794" cy="156.626" r="1.376"></circle><circle id="_x34_41707" fill="#040000" cx="197.993" cy="138.064" r="1.375"></circle><circle id="_x34_41719" fill="#040000" cx="189.433" cy="133.02" r="1.375"></circle><circle id="_x34_41708" fill="#040000" cx="194.545" cy="125.149" r="1.376"></circle><circle id="_x34_41709" fill="#040000" cx="202.263" cy="114.832" r="1.375"></circle><circle id="_x34_41799" fill="#040000" cx="178.964" cy="100.464" r="1.376"></circle><circle id="_x34_41702" fill="#040000" cx="205.254" cy="74.862" r="1.375"></circle><circle id="_x34_41703" fill="#040000" cx="222.908" cy="70.888" r="1.375"></circle><circle id="_x34_41701" fill="#040000" cx="180.339" cy="102.527" r="1.375"></circle><circle id="_x34_41704" fill="#040000" cx="162.609" cy="116.589" r="1.376"></circle><circle id="_x34_41705" fill="#040000" cx="145.796" cy="134.013" r="1.376"></circle><circle id="_x34_41706" fill="#040000" cx="103.381" cy="134.013" r="1.376"></circle></g><g id="延安市"><circle id="mapid-440900-circle" fill="#E60012" cx="170.939" cy="186.024" r="1.376"></circle><circle id="_x34_40907" fill="#040000" cx="123.365" cy="162.901" r="1.375"></circle><circle id="_x34_40906" fill="#040000" cx="144.42" cy="167.713" r="1.375"></circle><circle id="_x34_40905" fill="#040000" cx="164.635" cy="165.653" r="1.376"></circle><circle id="_x34_40904" fill="#040000" cx="176.442" cy="153.157" r="1.376"></circle><circle id="_x34_40903" fill="#040000" cx="194.545" cy="164.962" r="1.376"></circle><circle id="_x34_40902" fill="#040000" cx="188.708" cy="178.469" r="1.376"></circle><circle id="_x34_40901" fill="#040000" cx="171.361" cy="175.718" r="1.376"></circle><circle id="_x34_40999" fill="#040000" cx="169.985" cy="177.689" r="1.376"></circle><circle id="_x34_40908" fill="#040000" cx="165.171" cy="191.56" r="1.375"></circle><circle id="_x34_40909" fill="#040000" cx="154.132" cy="202.565" r="1.376"></circle><circle id="_x34_40917" fill="#040000" cx="167.923" cy="213.455" r="1.376"></circle><circle id="_x34_40920" fill="#040000" cx="161.676" cy="222.021" r="1.376"></circle><circle id="_x34_40919" fill="#040000" cx="181.879" cy="221.257" r="1.376"></circle><circle id="_x34_40918" fill="#040000" cx="194.946" cy="201.189" r="1.375"></circle></g><g id="铜川市"><circle id="mapid-440200-circle" fill="#E60012" cx="153.415" cy="239.43" r="1.375"></circle><circle id="_x34_40204" fill="#040000" cx="156.766" cy="229.363" r="1.376"></circle><circle id="_x34_40299" fill="#040000" cx="149.289" cy="250.425" r="1.375"></circle><circle id="_x34_40203" fill="#040000" cx="152.04" cy="250.425" r="1.375"></circle><circle id="_x34_40201" fill="#040000" cx="155.043" cy="244.292" r="1.375"></circle><circle id="_x34_40202" fill="#040000" cx="156.419" cy="241.541" r="1.376"></circle></g><g id="渭南市"><circle id="mapid-440500-circle" fill="#E60012" cx="182.206" cy="249.916" r="1.375"></circle><circle id="_x34_40502" fill="#040000" cx="204.413" cy="226.611" r="1.375"></circle><circle id="_x34_40517" fill="#040000" cx="193.178" cy="237.96" r="1.375"></circle><circle id="_x34_40508" fill="#040000" cx="186.415" cy="240.166" r="1.375"></circle><circle id="_x34_40509" fill="#040000" cx="174.112" cy="239.336" r="1.375"></circle><circle id="_x34_40507" fill="#040000" cx="172.314" cy="249.05" r="1.376"></circle><circle id="_x34_40518" fill="#040000" cx="159.17" cy="257.607" r="1.375"></circle><circle id="_x34_40501" fill="#040000" cx="171.57" cy="268.957" r="1.376"></circle><circle id="_x34_40599" fill="#040000" cx="170.195" cy="269.396" r="1.375"></circle><circle id="_x34_40504" fill="#040000" cx="180.344" cy="270.229" r="1.375"></circle><circle id="_x34_40503" fill="#040000" cx="191.802" cy="266.632" r="1.375"></circle><circle id="_x34_40505" fill="#040000" cx="197.191" cy="266.632" r="1.375"></circle><circle id="_x34_40506" fill="#040000" cx="186.415" cy="256.231" r="1.376"></circle></g><g id="咸阳市"><circle id="mapid-440400-circle" fill="#E60012" cx="131.046" cy="257.94" r="1.376"></circle><circle id="_x34_40420" fill="#040000" cx="138.069" cy="256.231" r="1.376"></circle><circle id="_x34_40419" fill="#040000" cx="129.358" cy="241.541" r="1.376"></circle><circle id="_x34_40418" fill="#040000" cx="109.265" cy="237.414" r="1.376"></circle><circle id="_x34_40417" fill="#040000" cx="118.799" cy="245.842" r="1.376"></circle><circle id="_x34_40407" fill="#040000" cx="126.026" cy="266.632" r="1.375"></circle><circle id="_x34_40402" fill="#040000" cx="120.175" cy="278.109" r="1.375"></circle><circle id="_x34_40421" fill="#040000" cx="123.824" cy="278.109" r="1.375"></circle><circle id="_x34_40404" fill="#040000" cx="134.141" cy="278.109" r="1.375"></circle><circle id="_x34_40499" fill="#040000" cx="141.28" cy="276.734" r="1.375"></circle><circle id="_x34_40401" fill="#040000" cx="142.051" cy="273.982" r="1.375"></circle><circle id="_x34_40403" fill="#040000" cx="145.376" cy="273.982" r="1.375"></circle><circle id="_x34_40406" fill="#040000" cx="146.752" cy="267.104" r="1.376"></circle><circle id="_x34_40405" fill="#040000" cx="150.664" cy="263.322" r="1.375"></circle><circle id="_x34_40408" fill="#040000" cx="132.124" cy="268.957" r="1.376"></circle><circle id="_x34_40409" fill="#040000" cx="121.55" cy="259.654" r="1.375"></circle></g><g id="宝鸡市"><circle id="mapid-440300-circle" fill="#E60012" cx="89.911" cy="272.979" r="1.375"></circle><circle id="_x34_40318" fill="#040000" cx="62.513" cy="295.667" r="1.375"></circle><circle id="_x34_40319" fill="#040000" cx="91.287" cy="288.031" r="1.375"></circle><circle id="_x34_40301" fill="#040000" cx="85.406" cy="276.138" r="1.376"></circle><circle id="_x34_40302" fill="#040000" cx="85.406" cy="273.386" r="1.375"></circle><circle id="_x34_40309" fill="#040000" cx="84.963" cy="262.404" r="1.375"></circle><circle id="_x34_40308" fill="#040000" cx="75.04" cy="250.425" r="1.375"></circle><circle id="_x34_40303" fill="#040000" cx="94.037" cy="275.358" r="1.376"></circle><circle id="_x34_40399" fill="#040000" cx="89.204" cy="274.762" r="1.375"></circle><circle id="_x34_40304" fill="#040000" cx="94.037" cy="268.021" r="1.376"></circle><circle id="_x34_40305" fill="#040000" cx="103.36" cy="271.604" r="1.375"></circle><circle id="_x34_40317" fill="#040000" cx="108.748" cy="261.028" r="1.376"></circle><circle id="_x34_40307" fill="#040000" cx="108.367" cy="279.485" r="1.376"></circle><circle id="_x34_40306" fill="#040000" cx="113.621" cy="272.011" r="1.376"></circle></g><g id="西安市"><circle id="mapid-440100-circle" fill="#E60012" cx="144.842" cy="290.166" r="1.375"></circle><circle id="_x34_40118" fill="#040000" cx="123.824" cy="284.186" r="1.375"></circle><circle id="_x34_40117" fill="#040000" cx="160.546" cy="273.982" r="1.375"></circle><circle id="_x34_40104" fill="#040000" cx="155.449" cy="277.938" r="1.375"></circle><circle id="_x34_40199" fill="#040000" cx="152.698" cy="275.587" r="1.375"></circle><circle id="_x34_40105" fill="#040000" cx="150.19" cy="276.563" r="1.375"></circle><circle id="_x34_40103" fill="#040000" cx="149.289" cy="279.214" r="1.375"></circle><circle id="_x34_40102" fill="#040000" cx="149.289" cy="280.499" r="1.376"></circle><circle id="_x34_40108" fill="#040000" cx="149.946" cy="284.626" r="1.376"></circle><circle id="_x34_40106" fill="#040000" cx="151.322" cy="281.09" r="1.376"></circle><circle id="_x34_41899" fill="#040000" cx="151.566" cy="279.714" r="1.375"></circle><circle id="_x34_41802" fill="#040000" cx="153.415" cy="280.499" r="1.376"></circle><circle id="_x34_40101" fill="#040000" cx="152.04" cy="277.748" r="1.375"></circle><circle id="_x34_40120" fill="#040000" cx="156.177" cy="267.582" r="1.375"></circle><circle id="_x34_40107" fill="#040000" cx="160.546" cy="262.404" r="1.375"></circle><circle id="_x34_40109" fill="#040000" cx="165.208" cy="284.186" r="1.375"></circle><circle id="_x34_40119" fill="#040000" cx="138.009" cy="286.936" r="1.375"></circle></g><g id="汉中市"><circle id="mapid-440600-circle" fill="#E60012" cx="88.663" cy="329.657" r="1.375"></circle><circle id="_x34_40618" fill="#040000" cx="116.449" cy="309.863" r="1.376"></circle><circle id="_x34_40604" fill="#040000" cx="99.941" cy="322.703" r="1.375"></circle><circle id="_x34_40603" fill="#040000" cx="91.688" cy="326.447" r="1.375"></circle><circle id="_x34_40601" fill="#040000" cx="81.982" cy="329.657" r="1.375"></circle><circle id="_x34_40699" fill="#040000" cx="80.607" cy="329.657" r="1.375"></circle><circle id="_x34_40602" fill="#040000" cx="77.23" cy="333.096" r="1.375"></circle><circle id="_x34_40606" fill="#040000" cx="67.309" cy="326.447" r="1.375"></circle><circle id="_x34_40607" fill="#040000" cx="51.566" cy="340.906" r="1.376"></circle><circle id="_x34_40608" fill="#040000" cx="47.897" cy="318.055" r="1.376"></circle><circle id="_x34_40617" fill="#040000" cx="76.415" cy="305.292" r="1.375"></circle><circle id="_x34_40605" fill="#040000" cx="108.195" cy="333.701" r="1.375"></circle><circle id="_x34_40609" fill="#040000" cx="112.551" cy="354.036" r="1.376"></circle></g><g id="安康市"><circle id="mapid-440700-circle" fill="#E60012" cx="153.285" cy="349.474" r="1.376"></circle><circle id="_x34_40717" fill="#040000" cx="194.019" cy="342.282" r="1.375"></circle><circle id="_x34_40706" fill="#040000" cx="149.006" cy="363.81" r="1.375"></circle><circle id="_x34_40705" fill="#040000" cx="135.478" cy="354.639" r="1.375"></circle><circle id="_x34_40702" fill="#040000" cx="134.102" cy="339.531" r="1.375"></circle><circle id="_x34_40703" fill="#040000" cx="124.244" cy="333.111" r="1.375"></circle><circle id="_x34_40704" fill="#040000" cx="126.58" cy="320.959" r="1.375"></circle><circle id="_x34_41801" fill="#040000" cx="153.973" cy="345.347" r="1.376"></circle><circle id="_x34_40701" fill="#040000" cx="152.597" cy="346.722" r="1.375"></circle><circle id="_x34_40799" fill="#040000" cx="154.661" cy="347.256" r="1.375"></circle><circle id="_x34_40707" fill="#040000" cx="166.583" cy="360.456" r="1.376"></circle><circle id="_x34_40709" fill="#040000" cx="166.583" cy="341.732" r="1.376"></circle><circle id="_x34_40708" fill="#040000" cx="172.736" cy="382.542" r="1.376"></circle></g><g id="商洛市"><circle id="mapid-440800-circle" fill="#E60012" cx="186.477" cy="304.413" r="1.376"></circle><circle id="_x34_40804" fill="#040000" cx="222.449" cy="311.264" r="1.375"></circle><circle id="_x34_40805" fill="#040000" cx="185.46" cy="310.958" r="1.375"></circle><circle id="_x34_40803" fill="#040000" cx="202.579" cy="303.928" r="1.376"></circle><circle id="_x34_40807" fill="#040000" cx="156.825" cy="304.413" r="1.376"></circle><circle id="_x34_40806" fill="#040000" cx="158.201" cy="315.418" r="1.375"></circle><circle id="_x34_40801" fill="#040000" cx="187.853" cy="297.103" r="1.376"></circle><circle id="_x34_40899" fill="#040000" cx="188.695" cy="296.262" r="1.375"></circle><circle id="_x34_40802" fill="#040000" cx="195.19" cy="286.936" r="1.375"></circle></g></g></g></svg>