<?xml version="1.0" encoding="utf-8"?><!DOCTYPE svg PUBLIC "-//W3C//DTD SVG 1.1//EN" "http://www.w3.org/Graphics/SVG/1.1/DTD/svg11.dtd"><svg version="1.1" id="svgMap" xmlns="http://www.w3.org/2000/svg" xmlns:xlink="http://www.w3.org/1999/xlink" x="0px" y="0px" width="460px" height="460px" viewbox="45.436 -41.875 460 460" enable-background="new 45.436 -41.875 460 460" xml:space="preserve"><g id="perspective"><g id="svgMapBj"><path id="_x34_30000" fill="none" stroke="#CC2B1F" stroke-width="0.25" stroke-miterlimit="10" d="M448.262,216.616 c0-1.382,0.063-2.46-0.771-3.302c-0.838-0.84-0.725-5.574-0.725-7.313c0-1.735-1.854-9.655-1.978-10.256 c-0.122-0.603-1.495-4.261-1.02-5.642c0.479-1.379-0.357-2.039-1.076-2.459c-0.727-0.42-4.188-6.297-5.326-7.496 c-1.146-1.197-0.301-1.021-0.121-1.856c0.181-0.835,0.959-0.722,1.978-0.063c1.021,0.66,1.979,0.063,2.154-1.314 c0.176-1.379-2.216-3.239-4.369-4.314c-2.15-1.08-4.851-5.818-5.023-7.738c-0.186-1.918-0.723-2.521-1.799-3.355 s-2.271-1.738-2.566-3.418c-0.307-1.682-3.479-3.298-6.053-3.958c-2.566-0.659-5.438-1.68-6.521-1.68 c-1.076,0-1.854,0.479-3.593,0.479c-1.733,0-0.657,0.721,0,1.08c0.654,0.359,0.838,0.239,0.72,0.898 c-0.119,0.658,0.063,0.777,0.776,1.498c0.72,0.722-0.119,0.722,0,1.563c0.115,0.838-0.959,1.02-1.614,2.038 c-0.658,1.021,0.118,1.8,0.299,2.761c0.187,0.961-1.377,0.358-1.377,1.021c0,0.655-0.539,0.896-1.14,1.259 c-0.604,0.355-2.102,0.12-2.873-0.419c-0.776-0.54-0.838,0.659-1.438,1.8c-0.603,1.141-1.377-0.66-2.219-0.84 c-0.838-0.184-0.354,0.721,0,1.438c0.357,0.725,0.422,0.725,0.063,1.857c-0.356,1.141,1.141,1.438,1.438,2.04 c0.304,0.601-0.116,2.339-1.558,1.8c-1.44-0.541-3.354-1.08-5.028-1.56s-1.854-2.399-2.271-3.539 c-0.418-1.144-1.56-0.479-1.56,0.479c0,0.957-0.235,1.142-1.313,1.68c-1.072,0.541-0.604,0.779,0.237,1.438 c0.838,0.66,0.771,1.859,0.957,3.359c0.181,1.5-0.539,1.499-1.078,1.314c-0.537-0.182-0.72-1.801-1.313-2.699 c-0.604-0.896-1.682,0.724-2.271,0.24c-0.602-0.479-1.379-0.42-2.151-0.119c-0.774,0.304-1.142,0.184-2.396-0.776 c-1.262-0.959-1.613-0.724-3.354-0.479c-1.733,0.239-1.914-0.959-2.69-2.1c-0.771-1.145-0.957-1.318-0.479-1.919 c0.479-0.604,0.479-0.843,0.421-2.579c-0.063-1.738-1.074-2.039-2.03-2.458c-0.96-0.42-1.615-0.96-2.574-0.78 c-0.688,0.131-1.188-0.295-1.813-0.787l-0.319-0.25c-0.152-0.117-0.314-0.229-0.496-0.34c-1.076-0.66-1.563-1.5-2.271-2.221 c-0.721-0.723-1.075-1.379-2.571-1.919c-1.495-0.54-1.612-1.562-2.271-2.278c-0.658-0.719-2.153,0.602-3.595,1.738 c-1.438,1.139-2.151,0.839-2.69,0.896c-0.539,0.063-1.496,0.899-2.099,1.621c-0.603,0.719-3.058-0.602-4.131-0.422 c-1.078,0.182-1.496-0.359-2.757-1.26c-1.258-0.898-2.571,0.301-2.87,1.141c-0.304,0.84-1.382-0.601-2.757-0.601 c-1.377,0-1.73-0.239-2.637-1.198c-0.896-0.961-1.729-0.779-3.057-0.601c-1.313,0.18-1.797-0.479-2.57-1.08 c-0.773-0.603-1.68-0.183-3.293-0.42c-1.613-0.24-1.377-0.479-2.521-0.183c-1.144,0.299-3.411,0.42-5.508,0.479 c-2.101,0.062-2.271-0.66-2.873-1.919c-0.604-1.262-5.094-0.602-6.104-1.561c-1.021-0.959-0.841-0.779-2.1-1.021 c-1.258-0.242-2.396-1.438-3.83-2.521c-1.438-1.08-1.732-1.62-2.334-3.119c-0.604-1.5-0.479-0.72-1.195-1.438 c-0.721-0.72-1.979,0.181-2.873,1.14c-0.896,0.96-1.26,1.142-2.574,1.021c-1.313-0.12-0.719-0.24-1.854,0.66 c-1.141,0.898-1.73,1.439-2.873,1.679c-1.139,0.24-4.313-2.039-5.088-2.879c-0.775-0.839-0.775-0.3-1.979-0.78 c-1.19-0.479-2.754-3.777-2.936-4.857c-0.18-1.078-1.076-1.078-2.754-1.438c-1.678-0.359-1.561-2.818-2.152-4.317 c-0.6-1.499-1.021-1.68-2.336-1.857c-1.313-0.182-1.977-0.54-2.096-1.919c-0.121-1.379,0.355-2.579,0.479-3.061 c0.123-0.479,1.26,0.182,1.854-1.8c0.603-1.979,0.42-2.398,0.119-3.358c-0.299-0.959,0.063-2.157,0.182-3.298 c0.119-1.141-0.301-1.021-1.02-1.5c-0.722-0.479-1.076-0.897-0.539-1.438c0.539-0.54,1.021-1.318,1.315-2.521 c0.299-1.197-0.24-2.102-0.896-2.22c-0.658-0.119-0.722-0.119-1.978-0.54c-1.262-0.419-1.021-0.778-0.959-1.679 c0.063-0.898-0.119-1.919-1.262-3.119c-1.137-1.199-0.354-2.579-0.354-3.298c0-0.72-0.063-1.5,0.957-1.619 c1.021-0.12,0.603-0.359,2.154-1.08c1.56-0.719,1.193-1.319,0.479-1.919c-0.723-0.6-0.421-1.438,0.063-2.278 c0.479-0.839,0.603-1.919,0.84-3.236c0.234-1.319-1.797-0.9-3.11-1.439c-1.316-0.54-1.316-0.3-2.272-0.898 c-0.96-0.6,0.896-2.459,2.272-3.179c1.377-0.721-0.658-1.619-2.099-1.919c-1.438-0.301-2.69-1.438-3.354-2.101 c-0.658-0.66-2.454,0.358-3.23-0.062c-0.777-0.42-0.358-1.62-1.377-1.021c-1.02,0.601-1.438-0.54-2.272-1.74 c-0.838-1.199-0.539-1.259-1.316-1.259c-0.776,0-0.896,0.24-1.438-0.66c-0.54-0.899-0.539-0.54-1.616-0.18 c-1.077,0.358-3.054,0.358-4.607,0.358c-1.555,0-1.315,0.239-1.978,0.898c-0.658,0.66-1.615,0.479-2.873,0.181 c-1.257-0.301-1.734-0.181-2.813,0.659c-1.077,0.841-2.035,0.479-2.813-0.659c-0.776-1.14-0.659-0.84-1.676-0.301 c-1.02,0.54-3.831,1.379-4.489,1.68c-0.659,0.3-2.155,1.021-3.832,0.42c-1.676-0.601-2.215,0.182-3.053,0.96 c-0.838,0.779-4.071,0.839-5.867,0.839s-3.771,4.38-4.729,6.179c-0.958,1.799-4.489,2.339-5.927,2.579 c-1.437,0.238-0.958,0.778-1.796,1.799c-0.838,1.02-1.137,0.66-2.095-0.3c-0.958-0.96-2.515-0.842-3.173-1.74 c-0.659-0.898-1.198-0.479-2.215,0.063c-1.019,0.54-1.855,0.54-2.634,0.54c-0.779,0-2.515,0.66-3.174,1.142 c-0.657,0.479-0.896,0.959-1.735,1.08c-0.839,0.121-1.736,0.238-2.993,0.54c-1.257,0.3-1.676,0.3-2.514,1.919 c-0.839,1.617-3.232,1.857-4.909,1.737c-1.562-0.109-2.549-0.117-5.381,0.364c-0.195,0.032-0.451,0.077-0.665,0.115 c-3.353,0.601-7.542-0.12-8.021-0.3c-0.479-0.182-1.916-1.682-2.574-1.142s-1.676,0.12-3.112-1.199 c-1.438-1.318-1.258-1.858-1.138-2.938c0.12-1.078-0.777-1.14-1.437-1.919c-0.658-0.779-0.778-0.599-1.676-0.061 c-0.898,0.539-2.335,0.84-3.174,0.061c-0.838-0.778-1.615-0.54-2.514-0.419c-0.897,0.12-1.257,0.24-1.616,1.261 c-0.358,1.021-3.651,2.101-4.789,2.577c-1.137,0.479-1.196,0.479-1.257,1.439c-0.06,0.96-2.095,2.157-3.831,2.879 c-1.735,0.72-4.608-1.021-5.747-2.039c-1.138-1.021-1.677-0.722-2.874-0.66c-1.196,0.061-1.615-0.12-2.693-1.141 s-0.958-0.301-1.438,0.421c-0.479,0.72-1.854,1.379-2.753,0.898c-0.897-0.479-0.599-0.359-1.735-0.301 c-1.138,0.062-1.977,0.062-2.275-0.898s-1.02-0.959-1.856-1.857c-0.838-0.898-2.813,1.021-3.891,1.799 c-1.077,0.779-0.718,1.2-1.077,2.521c-0.358,1.321-3.232,3.659-4.37,4.14c-1.137,0.479-0.72,1.601-0.675,2.051 c0.045,0.451-0.271,1.173-1.172,1.173s-0.631,1.217-0.496,2.299s-1.487,2.839-1.893,4.146c-0.406,1.307-2.299,1.532-3.517,1.485 c-1.217-0.045-4.552,0.182-5.362,0.36c-0.812,0.178-2.75,0.359-3.562-0.181c-0.812-0.541-1.578,0.767-1.578,0.767 s-0.064,0.133,0.354,0.373c0.419,0.239-0.061,0.659-0.838,1.14c-0.778,0.479-0.897,1.739-1.317,2.579 c-0.419,0.841-1.137,0.841-1.855,0.841c-0.718,0-1.796,0.72-2.215,0.72s-0.658,0.358-0.18,1.259c0.479,0.9,0,1.739,0.539,2.521 c0.539,0.778,0,3.839-0.479,4.317c-0.479,0.479-0.119,1.141-0.539,2.339c-0.419,1.198,0.778,1.681,1.138,2.278 c0.359,0.601,0.777,1.5,1.557,2.04c0.778,0.54,0.898,1.68,1.556,2.159c0.659,0.479,0.42,1.5,1.438,2.159 c1.018,0.658,0.897,1.737,0.897,2.999c0,1.259,0.061,1.197,0.718,2.157c0.658,0.959,0.419,1.801-0.12,2.761 c-0.539,0.959,0.358,1.799,1.018,2.339c0.658,0.54,0.239,0.839-0.239,1.438c-0.479,0.602-0.12,1.619-0.12,2.521 c0,0.897-1.855,1.438-2.635,1.438c-0.778,0-0.419,0.897-0.838,1.857c-0.419,0.959-2.693,0.84-3.95,0.061 c-1.258-0.776-1.497-2.039-1.497-3.479c0-1.438-0.359-2.521-0.479-3.602s-1.916,0.603-3.113,1.318 c-1.196,0.721-2.095,0.842-2.813,1.563s-0.239,1.68,0.18,2.396c0.419,0.721,0.419,2.1,0.778,2.819 c0.358,0.72,0.3,1.021-0.539,1.499c-0.838,0.479-0.479,0.777-0.479,1.619c0,0.84,1.377,0.777,1.856,1.076 c0.479,0.303,0.659,1.32,0.838,1.92c0.18,0.603,1.557,1.263,2.455,1.682c0.896,0.42-0.18,0.96-1.317,1.919 c-1.137,0.959-0.658,1.739,0.12,2.521c0.778,0.778,0.898,1.803,1.497,2.578c0.6,0.778-0.958,1.379-1.676,1.92 c-0.718,0.539,0.18,1.021,0.659,1.563c0.479,0.542-0.299,1.26-0.479,2.274c-0.18,1.021,0.419,0.896,1.197,0.896 s1.197,1.619,1.796,2.579c0.6,0.961,0.239,1.619,0.6,2.938c0.358,1.313,1.257,1.021,1.796,1.08 c0.539,0.063,0.897,0.063,1.257,0.603c0.358,0.54,0.18,0.897,1.078,0.897c0.897,0,0.958-0.541,1.196-1.199 c0.239-0.658,0.838-0.358,1.438-0.959c0.599-0.604,0.299,0.959,1.018,1.199c0.719,0.234,0.897,0.535,1.496,1.193 c0.6,0.658,0.838,0.421,2.036,0.238c1.197-0.184,1.377,0.357,1.854,1.142c0.479,0.777,1.377,0.845,2.035,1.5 c0.658,0.659,1.197,1.265,1.019,2.521c-0.18,1.261,0.479,0.841,0.958,1.734c0.479,0.896,0.479,0.54,0.958,1.021 c0.479,0.479,0.897,0.721,1.855,0.42c0.958-0.305,2.934,1.379,4.012,2.037c1.076,0.658,1.976,1.438,3.711,1.438 c1.734,0,1.676,1.438,2.933,2.396s2.215,1.684,2.993,1.736c0.778,0.063,0.778,0.959,1.557,1.979s0.778,1.313,1.078,2.58 c0.3,1.262,0.718,1.08,1.736,1.142c1.018,0.063,1.796-0.658,1.854-1.5c0.061-0.839-0.12-1.021,0.6-1.08 c0.719-0.06,1.257-3.234,1.617-4.496c0.358-1.261,0.897-0.959,2.215-0.541c1.316,0.42,1.137-0.722,1.976-0.656 c0.838,0.063,2.753,1.313,3.771,1.438c1.018,0.117,1.018,0.354,1.735,1.197c0.107,0.125,0.219,0.219,0.331,0.279l0.796-0.17 c-0.017-0.023-0.021-0.06-0.036-0.086c0.198,0.021,0.889,0.063,1.363-0.023c0.898-0.186,0.6,0.959,0.6,1.682 s0.18,1.078,0.838,1.799c0.657,0.726,0.299,1.146,0.06,1.685s0,0.657,0.898,0.657c0.897,0,1.316,0.603,2.154,0.777 c0.838,0.182,1.317,0.959,1.796,1.682c0.479,0.722,0.6,0.422,1.497,0.236c0.898-0.182,1.317,0.66,1.317,1.92 c0,1.265,0.299,0.42,1.077,0.303c0.778-0.118,0.24,0.183,0.24,1.381c0,1.197,0.299,0.96,1.257,1.197 c0.958,0.238,1.018,0.842,1.676,0.842c0.659,0,0.778-0.063,1.437,0.355c0.658,0.42,1.438,0.896,2.216,1.264 c0.777,0.355,2.095,0.722,3.412,0.959c1.316,0.236,0.119,1.5,0.777,1.56c0.659,0.063,1.317,1.804,2.215,2.459 c0.898,0.66-0.12,0.845-0.12,1.739s1.317,1.5,1.797,2.158c0.479,0.654,0.777,1.076,1.557,1.142c0.778,0.063,1.197,0,1.376-0.776 c0.18-0.773,0.659-0.84,1.377-0.724c0.718,0.119,0.958-0.121,1.078-0.84c0.12-0.722,1.437-0.604,2.394-0.724 c0.957-0.117,0.958,1.318,1.796,1.318c0.839,0,0.839,0.354,2.096,0.418c1.257,0.063-0.12,1.92-0.061,3.063 c0.061,1.142,0.6,1.078,1.438,1.562c0.838,0.479-0.719,1.319-0.299,2.763c0.419,1.438,1.437,0.479,2.394,0.776 c0.958,0.304,0.599,1.021,0.778,1.918c0.179,0.897,1.018,0.358,2.754,0.604c1.736,0.238,1.736,0.896,2.035,1.854 s-0.061,0.779,1.137,0.727c1.197-0.063,0.18,0.66,1.257,1.197c1.077,0.535,2.275-0.238,3.472-1.078 c1.197-0.846,1.677-0.66,2.934-0.063c1.257,0.604,0,1.799-0.718,2.642c-0.72,0.842-0.479,1.262-0.239,2.696 c0.239,1.438,0.658,0.896,1.437,1.438c0.778,0.539,2.574,0.184,5.328-0.063c2.754-0.239,1.438,0.776,2.275,1.735 s0.958-1.803,1.796-2.396c0.838-0.604,0.539,0.959,0.958,2.275c0.419,1.315,1.376,1.384,2.214,2.882 c0.838,1.5,0.838,2.459,1.138,3.479c0.3,1.021,0.539,1.144,1.916,1.314c1.377,0.184,0.778-1.021,0.6-2.275 c-0.18-1.263,0.838-1.801,1.316-2.459c0.479-0.658,0.658-1.021,1.138-0.539c0.479,0.479-0.12,1.498-0.3,2.521 c-0.18,1.021,0,1.197,1.197,1.686c1.197,0.479,2.035,0.896,2.873,1.438c0.838,0.541,1.616-0.539,1.856-2.277 c0.238-1.732,0.838-0.773,1.616-0.654c0.777,0.119,0.777-0.356,1.377-1.078c0.6-0.727,0.958-0.358,1.196,0.841 c0.239,1.198,1.677,0.603,2.454,1.021c0.778,0.418,0.958,1.734,1.977,1.979c1.019,0.239,1.019,0.118,1.257,1.259 c0.239,1.145,0.658,1.08,1.796,1.021c1.138-0.063,1.197-0.604,2.274,0.063c1.078,0.662,0.839,0.479,1.796-0.119 c0.958-0.602,1.316,0.539,2.515,0.119s1.854,0.604,3.053,0.959c1.196,0.355,1.559-1.855,2.154-2.459 c0.6-0.604,1.677-1.021,2.274-0.3c0.6,0.72,1.496,0.655,2.993,0.774c1.496,0.121,0.896-0.119,1.138-0.724 c0.238-0.604,0.958,0.063,2.215,0.239c1.257,0.181,2.035-1.021,2.635-1.619c0.6-0.604,2.215-0.479,3.712-2.038 c1.496-1.563,2.272-0.301,3.054,0.776c0.777,1.078,0.6,3.841,0.6,4.8s-0.358,3.838-0.838,5.103 c-0.479,1.26,0.657,2.274,1.438,3.354c0.777,1.08,1.074,1.618,1.496,0.959c0.42-0.658,0.957-1.979,0.42-3.418 c-0.539-1.438,0.236-1.685,0.656-2.815c0.418-1.144,0.776-2.459,1.196-3.603c0.419-1.146,1.195-1.315,2.451-1.856 c1.261-0.537,1.439-1.683,1.979-2.697c0.539-1.021,1.197-1.563,1.141-2.154c-0.063-0.604,1.916-1.383,2.689-1.383 c0.777,0,0.777,0.119,1.801-0.775c1.02-0.896,2.096,0.18,2.87,0.775c0.777,0.604,1.021,0.725,2.337,0.725 c0.838,0,1.113-0.021,1.314-0.229l0.178-0.354l0.896,0.407c0.188,0.166,0.438,0.27,0.846,0.178c1.313-0.3,3.173,1.197,4.313,1.563 c1.137,0.356,2.029,0.845,3.41,0.539c1.377-0.303,2.516,0.541,3.527,1.379c1.021,0.845,2.334,1.267,3.948,1.687 c1.615,0.42,1.855-0.728,2.938-0.659c1.073,0.063,1.377-1.379,2.45-1.979c1.078-0.604,1.196,0.479,2.037,1.619 c0.838,1.146,1.614,1.197,2.938,1.197c1.313,0,0.302,0.479,0.063,0.842c-0.236,0.357,0.063,0.356,0.896,1.076 c0.836,0.725,0.418,3.42,0.354,4.498c-0.064,1.08,0.186,2.223,1.854,1.801c1.677-0.418,1.797,0.842,3.713,0.479 c1.914-0.357,2.033,1.021,2.753,1.854c0.727,0.842,1.021,1.316,0.358,1.918c-0.658,0.604-0.726,1.08-1.078,1.802 c-0.354,0.724-0.418,1.383,0.119,2.396c0.534,1.021,0.959,1.198,1.189,3.301c0.237,2.104,2.692,0.959,3.896,0.896 c1.194-0.063,3.771-1.2,4.604-1.5c0.839-0.302,1.979,0,2.573,0.479c0.6,0.479,2.396,0.722,3.83,0.117 c1.438-0.603,1.916,0.723,4.729,0.539c2.813-0.182,2.871,0.118,4.063-0.604c1.197-0.723,2.222-0.422,2.642-0.422 c0.418,0,2.215-0.723,4.604-1.5c2.396-0.775,1.313-1.682,1.313-3.063c0-1.379,0.84-2.877,1.563-3.538 c0.719-0.658,2.396-2.339,3.409-3.479c1.021-1.146,1.14-2.645,1.916-3.063c0.313-0.168,0.896-0.312,1.597-0.428l0.655-0.103 c0.896-0.127,1.882-0.229,2.652-0.313c1.611-0.185,2.454-1.315,3.354-2.103c0.896-0.777,1.979-0.724,2.52-1.197 c0.538-0.479,3.594-2.102,4.313-2.459c0.721-0.358,2.571-0.959,3.647-1.979c1.075-1.021,0.957-2.221,0.957-3.182 c0-0.96,1.495-1.979,2.334-2.104c0.84-0.119,2.639-1.08,4.37-2.103c1.729-1.021,2.335-0.356,3.173,0.119 c0.84,0.479,2.148,1.313,3.058,0.961c0.896-0.356,1.854-0.541,2.875-0.961c1.021-0.418,1.192,1.62,1.676,1.92 c0.479,0.3,1.259,0.42,2.153-0.185c0.896-0.604,1.979,0.418,2.99,0.959c1.021,0.537,5.207,2.695,6.521,3.233 c1.313,0.541,2.521,0.962,2.992,1.921c0.479,0.959-0.303,1.146,0.354,1.379c0.653,0.239,3.177-2.576,3.229-2.879 c0.063-0.302,1.021-1.197,1.734-0.66c0.713,0.539,0.771-0.479,0.771-1.438s-0.186-1.738-0.896-2.645 c-0.723-0.896-0.479-1.021,0.234-1.563c0.723-0.541-0.234-0.896,0.186-1.685c0.418-0.774,0.603-0.896,1.795-1.68 c1.197-0.779,0.304-2.104,0.304-3.119c0-1.021,0.957-1.682,2.396-1.563c1.438,0.119,1.438-0.119,1.438,1.078 c0,1.199,0,1.199,0.539,2.104c0.538,0.896,1.193,1.316,1.979,0c0.771-1.318,1.258,0.063,1.729,1.563 c0.479,1.5,1.685,0.896,3.113,1.617c1.438,0.726,1.557,0.119,2.635-0.84l0.812-1.063l-0.394-2.18c0.604,0,1.736,2.34,2.154,3.771 c0.42,1.438,0.959,1.197,1.498,0.844c0.535-0.355,0.895-0.959,2.334-1.265c1.438-0.302,1.613-0.185,2.334-1.979 c0.719-1.802-0.656-2.938-1.496-3.957c-0.838-1.021-1.496-4.498-0.838-5.459c0.653-0.959,0.063-2.814-0.185-4.021 c-0.233-1.2,1.261-1.856,2.15-1.921c0.895-0.063,0.723,2.521,1.26,2.88c0.537,0.354,1.496-0.063,1.496-1.263 c0-1.196,0.185-1.735,0.773-2.459c0.604-0.724,0.653-1.617,0.184-1.856c-0.479-0.233-1.021-1.142-0.721-2.038 c0.303-0.896,1.438-0.841,2.518-0.775C450.417,220.813,448.262,217.996,448.262,216.616z"></path></g><g id="图层_1_1_"><g id="图层_1_2_"><g id="西藏"><path fill="none" stroke="#CC2B1F" stroke-width="0.25" stroke-miterlimit="10" d="M448.262,216.616 c0-1.382,0.063-2.46-0.771-3.302c-0.838-0.84-0.725-5.574-0.725-7.313c0-1.735-1.854-9.655-1.978-10.256 c-0.122-0.603-1.495-4.261-1.02-5.642c0.479-1.379-0.357-2.039-1.076-2.459c-0.727-0.42-4.188-6.297-5.326-7.496 c-1.146-1.197-0.301-1.021-0.121-1.856c0.181-0.835,0.959-0.722,1.978-0.063c1.021,0.66,1.979,0.063,2.154-1.314 c0.176-1.379-2.216-3.239-4.369-4.314c-2.15-1.08-4.851-5.818-5.023-7.738c-0.186-1.918-0.723-2.521-1.799-3.355 s-2.271-1.738-2.566-3.418c-0.307-1.682-3.479-3.298-6.053-3.958c-2.566-0.659-5.438-1.68-6.521-1.68 c-1.076,0-1.854,0.479-3.593,0.479c-1.733,0-0.657,0.721,0,1.08c0.654,0.359,0.838,0.239,0.72,0.898 c-0.119,0.658,0.063,0.777,0.776,1.498c0.72,0.722-0.119,0.722,0,1.563c0.115,0.838-0.959,1.02-1.614,2.038 c-0.658,1.021,0.118,1.8,0.299,2.761c0.187,0.961-1.377,0.358-1.377,1.021c0,0.655-0.539,0.896-1.14,1.259 c-0.604,0.355-2.102,0.12-2.873-0.419c-0.776-0.54-0.838,0.659-1.438,1.8c-0.603,1.141-1.377-0.66-2.219-0.84 c-0.838-0.184-0.354,0.721,0,1.438c0.357,0.725,0.422,0.725,0.063,1.857c-0.356,1.141,1.141,1.438,1.438,2.04 c0.304,0.601-0.116,2.339-1.558,1.8c-1.44-0.541-3.354-1.08-5.028-1.56s-1.854-2.399-2.271-3.539 c-0.418-1.144-1.56-0.479-1.56,0.479c0,0.957-0.235,1.142-1.313,1.68c-1.072,0.541-0.604,0.779,0.237,1.438 c0.838,0.66,0.771,1.859,0.957,3.359c0.181,1.5-0.539,1.499-1.078,1.314c-0.537-0.182-0.72-1.801-1.313-2.699 c-0.604-0.896-1.682,0.724-2.271,0.24c-0.602-0.479-1.379-0.42-2.151-0.119c-0.774,0.304-1.142,0.184-2.396-0.776 c-1.262-0.959-1.613-0.724-3.354-0.479c-1.733,0.239-1.914-0.959-2.69-2.1c-0.771-1.145-0.957-1.318-0.479-1.919 c0.479-0.604,0.479-0.843,0.421-2.579c-0.063-1.738-1.074-2.039-2.03-2.458c-0.96-0.42-1.615-0.96-2.574-0.78 c-0.688,0.131-1.188-0.295-1.813-0.787l-0.319-0.25c-0.152-0.117-0.314-0.229-0.496-0.34c-1.076-0.66-1.563-1.5-2.271-2.221 c-0.721-0.723-1.075-1.379-2.571-1.919c-1.495-0.54-1.612-1.562-2.271-2.278c-0.658-0.719-2.153,0.602-3.595,1.738 c-1.438,1.139-2.151,0.839-2.69,0.896c-0.539,0.063-1.496,0.899-2.099,1.621c-0.603,0.719-3.058-0.602-4.131-0.422 c-1.078,0.182-1.496-0.359-2.757-1.26c-1.258-0.898-2.571,0.301-2.87,1.141c-0.304,0.84-1.382-0.601-2.757-0.601 c-1.377,0-1.73-0.239-2.637-1.198c-0.896-0.961-1.729-0.779-3.057-0.601c-1.313,0.18-1.797-0.479-2.57-1.08 c-0.773-0.603-1.68-0.183-3.293-0.42c-1.613-0.24-1.377-0.479-2.521-0.183c-1.144,0.299-3.411,0.42-5.508,0.479 c-2.101,0.062-2.271-0.66-2.873-1.919c-0.604-1.262-5.094-0.602-6.104-1.561c-1.021-0.959-0.841-0.779-2.1-1.021 c-1.258-0.242-2.396-1.438-3.83-2.521c-1.438-1.08-1.732-1.62-2.334-3.119c-0.604-1.5-0.479-0.72-1.195-1.438 c-0.721-0.72-1.979,0.181-2.873,1.14c-0.896,0.96-1.26,1.142-2.574,1.021c-1.313-0.12-0.719-0.24-1.854,0.66 c-1.141,0.898-1.73,1.439-2.873,1.679c-1.139,0.24-4.313-2.039-5.088-2.879c-0.775-0.839-0.775-0.3-1.979-0.78 c-1.19-0.479-2.754-3.777-2.936-4.857c-0.18-1.078-1.076-1.078-2.754-1.438c-1.678-0.359-1.561-2.818-2.152-4.317 c-0.6-1.499-1.021-1.68-2.336-1.857c-1.313-0.182-1.977-0.54-2.096-1.919c-0.121-1.379,0.355-2.579,0.479-3.061 c0.123-0.479,1.26,0.182,1.854-1.8c0.603-1.979,0.42-2.398,0.119-3.358c-0.299-0.959,0.063-2.157,0.182-3.298 c0.119-1.141-0.301-1.021-1.02-1.5c-0.722-0.479-1.076-0.897-0.539-1.438c0.539-0.54,1.021-1.318,1.315-2.521 c0.299-1.197-0.24-2.102-0.896-2.22c-0.658-0.119-0.722-0.119-1.978-0.54c-1.262-0.419-1.021-0.778-0.959-1.679 c0.063-0.898-0.119-1.919-1.262-3.119c-1.137-1.199-0.354-2.579-0.354-3.298c0-0.72-0.063-1.5,0.957-1.619 c1.021-0.12,0.603-0.359,2.154-1.08c1.56-0.719,1.193-1.319,0.479-1.919c-0.723-0.6-0.421-1.438,0.063-2.278 c0.479-0.839,0.603-1.919,0.84-3.236c0.234-1.319-1.797-0.9-3.11-1.439c-1.316-0.54-1.316-0.3-2.272-0.898 c-0.96-0.6,0.896-2.459,2.272-3.179c1.377-0.721-0.658-1.619-2.099-1.919c-1.438-0.301-2.69-1.438-3.354-2.101 c-0.658-0.66-2.454,0.358-3.23-0.062c-0.777-0.42-0.358-1.62-1.377-1.021c-1.02,0.601-1.438-0.54-2.272-1.74 c-0.838-1.199-0.539-1.259-1.316-1.259c-0.776,0-0.896,0.24-1.438-0.66c-0.54-0.899-0.539-0.54-1.616-0.18 c-1.077,0.358-3.054,0.358-4.607,0.358c-1.555,0-1.315,0.239-1.978,0.898c-0.658,0.66-1.615,0.479-2.873,0.181 c-1.257-0.301-1.734-0.181-2.813,0.659c-1.077,0.841-2.035,0.479-2.813-0.659c-0.776-1.14-0.659-0.84-1.676-0.301 c-1.02,0.54-3.831,1.379-4.489,1.68c-0.659,0.3-2.155,1.021-3.832,0.42c-1.676-0.601-2.215,0.182-3.053,0.96 c-0.838,0.779-4.071,0.839-5.867,0.839s-3.771,4.38-4.729,6.179c-0.958,1.799-4.489,2.339-5.927,2.579 c-1.437,0.238-0.958,0.778-1.796,1.799c-0.838,1.02-1.137,0.66-2.095-0.3c-0.958-0.96-2.515-0.842-3.173-1.74 c-0.659-0.898-1.198-0.479-2.215,0.063c-1.019,0.54-1.855,0.54-2.634,0.54c-0.779,0-2.515,0.66-3.174,1.142 c-0.657,0.479-0.896,0.959-1.735,1.08c-0.839,0.121-1.736,0.238-2.993,0.54c-1.257,0.3-1.676,0.3-2.514,1.919 c-0.839,1.617-3.232,1.857-4.909,1.737c-1.562-0.109-2.549-0.117-5.381,0.364c-0.195,0.032-0.451,0.077-0.665,0.115 c-3.353,0.601-7.542-0.12-8.021-0.3c-0.479-0.182-1.916-1.682-2.574-1.142s-1.676,0.12-3.112-1.199 c-1.438-1.318-1.258-1.858-1.138-2.938c0.12-1.078-0.777-1.14-1.437-1.919c-0.658-0.779-0.778-0.599-1.676-0.061 c-0.898,0.539-2.335,0.84-3.174,0.061c-0.838-0.778-1.615-0.54-2.514-0.419c-0.897,0.12-1.257,0.24-1.616,1.261 c-0.358,1.021-3.651,2.101-4.789,2.577c-1.137,0.479-1.196,0.479-1.257,1.439c-0.06,0.96-2.095,2.157-3.831,2.879 c-1.735,0.72-4.608-1.021-5.747-2.039c-1.138-1.021-1.677-0.722-2.874-0.66c-1.196,0.061-1.615-0.12-2.693-1.141 s-0.958-0.301-1.438,0.421c-0.479,0.72-1.854,1.379-2.753,0.898c-0.897-0.479-0.599-0.359-1.735-0.301 c-1.138,0.062-1.977,0.062-2.275-0.898s-1.02-0.959-1.856-1.857c-0.838-0.898-2.813,1.021-3.891,1.799 c-1.077,0.779-0.718,1.2-1.077,2.521c-0.358,1.321-3.232,3.659-4.37,4.14c-1.137,0.479-0.72,1.601-0.675,2.051 c0.045,0.451-0.271,1.173-1.172,1.173s-0.631,1.217-0.496,2.299s-1.487,2.839-1.893,4.146c-0.406,1.307-2.299,1.532-3.517,1.485 c-1.217-0.045-4.552,0.182-5.362,0.36c-0.812,0.178-2.75,0.359-3.562-0.181c-0.812-0.541-1.578,0.767-1.578,0.767 s-0.064,0.133,0.354,0.373c0.419,0.239-0.061,0.659-0.838,1.14c-0.778,0.479-0.897,1.739-1.317,2.579 c-0.419,0.841-1.137,0.841-1.855,0.841c-0.718,0-1.796,0.72-2.215,0.72s-0.658,0.358-0.18,1.259c0.479,0.9,0,1.739,0.539,2.521 c0.539,0.778,0,3.839-0.479,4.317c-0.479,0.479-0.119,1.141-0.539,2.339c-0.419,1.198,0.778,1.681,1.138,2.278 c0.359,0.601,0.777,1.5,1.557,2.04c0.778,0.54,0.898,1.68,1.556,2.159c0.659,0.479,0.42,1.5,1.438,2.159 c1.018,0.658,0.897,1.737,0.897,2.999c0,1.259,0.061,1.197,0.718,2.157c0.658,0.959,0.419,1.801-0.12,2.761 c-0.539,0.959,0.358,1.799,1.018,2.339c0.658,0.54,0.239,0.839-0.239,1.438c-0.479,0.602-0.12,1.619-0.12,2.521 c0,0.897-1.855,1.438-2.635,1.438c-0.778,0-0.419,0.897-0.838,1.857c-0.419,0.959-2.693,0.84-3.95,0.061 c-1.258-0.776-1.497-2.039-1.497-3.479c0-1.438-0.359-2.521-0.479-3.602s-1.916,0.603-3.113,1.318 c-1.196,0.721-2.095,0.842-2.813,1.563s-0.239,1.68,0.18,2.396c0.419,0.721,0.419,2.1,0.778,2.819 c0.358,0.72,0.3,1.021-0.539,1.499c-0.838,0.479-0.479,0.777-0.479,1.619c0,0.84,1.377,0.777,1.856,1.076 c0.479,0.303,0.659,1.32,0.838,1.92c0.18,0.603,1.557,1.263,2.455,1.682c0.896,0.42-0.18,0.96-1.317,1.919 c-1.137,0.959-0.658,1.739,0.12,2.521c0.778,0.778,0.898,1.803,1.497,2.578c0.6,0.778-0.958,1.379-1.676,1.92 c-0.718,0.539,0.18,1.021,0.659,1.563c0.479,0.542-0.299,1.26-0.479,2.274c-0.18,1.021,0.419,0.896,1.197,0.896 s1.197,1.619,1.796,2.579c0.6,0.961,0.239,1.619,0.6,2.938c0.358,1.313,1.257,1.021,1.796,1.08 c0.539,0.063,0.897,0.063,1.257,0.603c0.358,0.54,0.18,0.897,1.078,0.897c0.897,0,0.958-0.541,1.196-1.199 c0.239-0.658,0.838-0.358,1.438-0.959c0.599-0.604,0.299,0.959,1.018,1.199c0.719,0.234,0.897,0.535,1.496,1.193 c0.6,0.658,0.838,0.421,2.036,0.238c1.197-0.184,1.377,0.357,1.854,1.142c0.479,0.777,1.377,0.845,2.035,1.5 c0.658,0.659,1.197,1.265,1.019,2.521c-0.18,1.261,0.479,0.841,0.958,1.734c0.479,0.896,0.479,0.54,0.958,1.021 c0.479,0.479,0.897,0.721,1.855,0.42c0.958-0.305,2.934,1.379,4.012,2.037c1.076,0.658,1.976,1.438,3.711,1.438 c1.734,0,1.676,1.438,2.933,2.396s2.215,1.684,2.993,1.736c0.778,0.063,0.778,0.959,1.557,1.979s0.778,1.313,1.078,2.58 c0.3,1.262,0.718,1.08,1.736,1.142c1.018,0.063,1.796-0.658,1.854-1.5c0.061-0.839-0.12-1.021,0.6-1.08 c0.719-0.06,1.257-3.234,1.617-4.496c0.358-1.261,0.897-0.959,2.215-0.541c1.316,0.42,1.137-0.722,1.976-0.656 c0.838,0.063,2.753,1.313,3.771,1.438c1.018,0.117,1.018,0.354,1.735,1.197c0.107,0.125,0.219,0.219,0.331,0.279l0.796-0.17 c-0.017-0.023-0.021-0.06-0.036-0.086c0.198,0.021,0.889,0.063,1.363-0.023c0.898-0.186,0.6,0.959,0.6,1.682 s0.18,1.078,0.838,1.799c0.657,0.726,0.299,1.146,0.06,1.685s0,0.657,0.898,0.657c0.897,0,1.316,0.603,2.154,0.777 c0.838,0.182,1.317,0.959,1.796,1.682c0.479,0.722,0.6,0.422,1.497,0.236c0.898-0.182,1.317,0.66,1.317,1.92 c0,1.265,0.299,0.42,1.077,0.303c0.778-0.118,0.24,0.183,0.24,1.381c0,1.197,0.299,0.96,1.257,1.197 c0.958,0.238,1.018,0.842,1.676,0.842c0.659,0,0.778-0.063,1.437,0.355c0.658,0.42,1.438,0.896,2.216,1.264 c0.777,0.355,2.095,0.722,3.412,0.959c1.316,0.236,0.119,1.5,0.777,1.56c0.659,0.063,1.317,1.804,2.215,2.459 c0.898,0.66-0.12,0.845-0.12,1.739s1.317,1.5,1.797,2.158c0.479,0.654,0.777,1.076,1.557,1.142c0.778,0.063,1.197,0,1.376-0.776 c0.18-0.773,0.659-0.84,1.377-0.724c0.718,0.119,0.958-0.121,1.078-0.84c0.12-0.722,1.437-0.604,2.394-0.724 c0.957-0.117,0.958,1.318,1.796,1.318c0.839,0,0.839,0.354,2.096,0.418c1.257,0.063-0.12,1.92-0.061,3.063 c0.061,1.142,0.6,1.078,1.438,1.562c0.838,0.479-0.719,1.319-0.299,2.763c0.419,1.438,1.437,0.479,2.394,0.776 c0.958,0.304,0.599,1.021,0.778,1.918c0.179,0.897,1.018,0.358,2.754,0.604c1.736,0.238,1.736,0.896,2.035,1.854 s-0.061,0.779,1.137,0.727c1.197-0.063,0.18,0.66,1.257,1.197c1.077,0.535,2.275-0.238,3.472-1.078 c1.197-0.846,1.677-0.66,2.934-0.063c1.257,0.604,0,1.799-0.718,2.642c-0.72,0.842-0.479,1.262-0.239,2.696 c0.239,1.438,0.658,0.896,1.437,1.438c0.778,0.539,2.574,0.184,5.328-0.063c2.754-0.239,1.438,0.776,2.275,1.735 s0.958-1.803,1.796-2.396c0.838-0.604,0.539,0.959,0.958,2.275c0.419,1.315,1.376,1.384,2.214,2.882 c0.838,1.5,0.838,2.459,1.138,3.479c0.3,1.021,0.539,1.144,1.916,1.314c1.377,0.184,0.778-1.021,0.6-2.275 c-0.18-1.263,0.838-1.801,1.316-2.459c0.479-0.658,0.658-1.021,1.138-0.539c0.479,0.479-0.12,1.498-0.3,2.521 c-0.18,1.021,0,1.197,1.197,1.686c1.197,0.479,2.035,0.896,2.873,1.438c0.838,0.541,1.616-0.539,1.856-2.277 c0.238-1.732,0.838-0.773,1.616-0.654c0.777,0.119,0.777-0.356,1.377-1.078c0.6-0.727,0.958-0.358,1.196,0.841 c0.239,1.198,1.677,0.603,2.454,1.021c0.778,0.418,0.958,1.734,1.977,1.979c1.019,0.239,1.019,0.118,1.257,1.259 c0.239,1.145,0.658,1.08,1.796,1.021c1.138-0.063,1.197-0.604,2.274,0.063c1.078,0.662,0.839,0.479,1.796-0.119 c0.958-0.602,1.316,0.539,2.515,0.119s1.854,0.604,3.053,0.959c1.196,0.355,1.559-1.855,2.154-2.459 c0.6-0.604,1.677-1.021,2.274-0.3c0.6,0.72,1.496,0.655,2.993,0.774c1.496,0.121,0.896-0.119,1.138-0.724 c0.238-0.604,0.958,0.063,2.215,0.239c1.257,0.181,2.035-1.021,2.635-1.619c0.6-0.604,2.215-0.479,3.712-2.038 c1.496-1.563,2.272-0.301,3.054,0.776c0.777,1.078,0.6,3.841,0.6,4.8s-0.358,3.838-0.838,5.103 c-0.479,1.26,0.657,2.274,1.438,3.354c0.777,1.08,1.074,1.618,1.496,0.959c0.42-0.658,0.957-1.979,0.42-3.418 c-0.539-1.438,0.236-1.685,0.656-2.815c0.418-1.144,0.776-2.459,1.196-3.603c0.419-1.146,1.195-1.315,2.451-1.856 c1.261-0.537,1.439-1.683,1.979-2.697c0.539-1.021,1.197-1.563,1.141-2.154c-0.063-0.604,1.916-1.383,2.689-1.383 c0.777,0,0.777,0.119,1.801-0.775c1.02-0.896,2.096,0.18,2.87,0.775c0.777,0.604,1.021,0.725,2.337,0.725 c0.838,0,1.113-0.021,1.314-0.229l0.178-0.354l0.896,0.407c0.188,0.166,0.438,0.27,0.846,0.178 c1.313-0.3,3.173,1.197,4.313,1.563c1.137,0.356,2.029,0.845,3.41,0.539c1.377-0.303,2.516,0.541,3.527,1.379 c1.021,0.845,2.334,1.267,3.948,1.687c1.615,0.42,1.855-0.728,2.938-0.659c1.073,0.063,1.377-1.379,2.45-1.979 c1.078-0.604,1.196,0.479,2.037,1.619c0.838,1.146,1.614,1.197,2.938,1.197c1.313,0,0.302,0.479,0.063,0.842 c-0.236,0.357,0.063,0.356,0.896,1.076c0.836,0.725,0.418,3.42,0.354,4.498c-0.064,1.08,0.186,2.223,1.854,1.801 c1.677-0.418,1.797,0.842,3.713,0.479c1.914-0.357,2.033,1.021,2.753,1.854c0.727,0.842,1.021,1.316,0.358,1.918 c-0.658,0.604-0.726,1.08-1.078,1.802c-0.354,0.724-0.418,1.383,0.119,2.396c0.534,1.021,0.959,1.198,1.189,3.301 c0.237,2.104,2.692,0.959,3.896,0.896c1.194-0.063,3.771-1.2,4.604-1.5c0.839-0.302,1.979,0,2.573,0.479 c0.6,0.479,2.396,0.722,3.83,0.117c1.438-0.603,1.916,0.723,4.729,0.539c2.813-0.182,2.871,0.118,4.063-0.604 c1.197-0.723,2.222-0.422,2.642-0.422c0.418,0,2.215-0.723,4.604-1.5c2.396-0.775,1.313-1.682,1.313-3.063 c0-1.379,0.84-2.877,1.563-3.538c0.719-0.658,2.396-2.339,3.409-3.479c1.021-1.146,1.14-2.645,1.916-3.063 c0.313-0.168,0.896-0.312,1.597-0.428l0.655-0.103c0.896-0.127,1.882-0.229,2.652-0.313c1.611-0.185,2.454-1.315,3.354-2.103 c0.896-0.777,1.979-0.724,2.52-1.197c0.538-0.479,3.594-2.102,4.313-2.459c0.721-0.358,2.571-0.959,3.647-1.979 c1.075-1.021,0.957-2.221,0.957-3.182c0-0.96,1.495-1.979,2.334-2.104c0.84-0.119,2.639-1.08,4.37-2.103 c1.729-1.021,2.335-0.356,3.173,0.119c0.84,0.479,2.148,1.313,3.058,0.961c0.896-0.356,1.854-0.541,2.875-0.961 c1.021-0.418,1.192,1.62,1.676,1.92c0.479,0.3,1.259,0.42,2.153-0.185c0.896-0.604,1.979,0.418,2.99,0.959 c1.021,0.537,5.207,2.695,6.521,3.233c1.313,0.541,2.521,0.962,2.992,1.921c0.479,0.959-0.303,1.146,0.354,1.379 c0.653,0.239,3.177-2.576,3.229-2.879c0.063-0.302,1.021-1.197,1.734-0.66c0.713,0.539,0.771-0.479,0.771-1.438 s-0.186-1.738-0.896-2.645c-0.723-0.896-0.479-1.021,0.234-1.563c0.723-0.541-0.234-0.896,0.186-1.685 c0.418-0.774,0.603-0.896,1.795-1.68c1.197-0.779,0.304-2.104,0.304-3.119c0-1.021,0.957-1.682,2.396-1.563 c1.438,0.119,1.438-0.119,1.438,1.078c0,1.199,0,1.199,0.539,2.104c0.538,0.896,1.193,1.316,1.979,0 c0.771-1.318,1.258,0.063,1.729,1.563c0.479,1.5,1.685,0.896,3.113,1.617c1.438,0.726,1.557,0.119,2.635-0.84l0.812-1.063 l-0.394-2.18c0.604,0,1.736,2.34,2.154,3.771c0.42,1.438,0.959,1.197,1.498,0.844c0.535-0.355,0.895-0.959,2.334-1.265 c1.438-0.302,1.613-0.185,2.334-1.979c0.719-1.802-0.656-2.938-1.496-3.957c-0.838-1.021-1.496-4.498-0.838-5.459 c0.653-0.959,0.063-2.814-0.185-4.021c-0.233-1.2,1.261-1.856,2.15-1.921c0.895-0.063,0.723,2.521,1.26,2.88 c0.537,0.354,1.496-0.063,1.496-1.263c0-1.196,0.185-1.735,0.773-2.459c0.604-0.724,0.653-1.617,0.184-1.856 c-0.479-0.233-1.021-1.142-0.721-2.038c0.303-0.896,1.438-0.841,2.518-0.775C450.417,220.813,448.262,217.996,448.262,216.616z"></path></g><g id="分市区"><path id="mapid-430600-outline" fill="none" stroke="#CC2B1F" stroke-width="0.25" stroke-miterlimit="10" d="M179.786,97.931 c-0.195,0.032-0.451,0.077-0.665,0.115c-3.352,0.601-7.542-0.12-8.021-0.3c-0.479-0.182-1.916-1.682-2.574-1.142 c-0.659,0.54-1.676,0.12-3.113-1.198c-1.437-1.319-1.257-1.859-1.137-2.938c0.12-1.078-0.778-1.14-1.438-1.919 c-0.657-0.779-0.777-0.599-1.676-0.06c-0.897,0.538-2.335,0.839-3.173,0.06c-0.838-0.778-1.616-0.54-2.514-0.419 c-0.898,0.12-1.257,0.24-1.616,1.261s-3.652,2.101-4.789,2.577c-1.137,0.479-1.197,0.479-1.257,1.438 c-0.061,0.96-2.095,2.157-3.831,2.879c-1.736,0.72-4.609-1.021-5.747-2.039c-1.138-1.021-1.677-0.722-2.874-0.66 c-1.197,0.061-1.616-0.12-2.694-1.141s-0.958-0.301-1.437,0.421c-0.479,0.72-1.855,1.379-2.753,0.898 c-0.898-0.479-0.6-0.358-1.736-0.301c-1.137,0.061-1.976,0.061-2.275-0.899c-0.299-0.96-1.018-0.959-1.855-1.857 s-2.813,1.021-3.891,1.799c-1.077,0.779-0.719,1.2-1.077,2.521c-0.359,1.321-3.233,3.659-4.37,4.14 c-1.137,0.479-0.72,1.601-0.675,2.051c0.045,0.451-0.271,1.173-1.173,1.173c-0.9,0-0.631,1.217-0.495,2.299 c0.135,1.082-1.487,2.839-1.894,4.146c-0.406,1.308-2.298,1.532-3.516,1.485c-1.217-0.045-4.552,0.182-5.363,0.36 c-0.813,0.18-2.75,0.359-3.563-0.181c-0.812-0.541-1.578,0.767-1.578,0.767s-0.065,0.133,0.354,0.373 c0.419,0.239-0.06,0.659-0.838,1.142c-0.778,0.479-0.898,1.737-1.317,2.577c-0.419,0.841-1.137,0.841-1.854,0.841 s-1.796,0.72-2.215,0.72s-0.658,0.358-0.181,1.26c0.479,0.899,0,1.738,0.539,2.52c0.539,0.78,0,3.839-0.479,4.317 c-0.479,0.479-0.12,1.141-0.539,2.339c-0.419,1.199,0.778,1.681,1.137,2.278c0.36,0.603,0.778,1.5,1.558,2.04 c0.777,0.54,0.897,1.68,1.556,2.159c0.659,0.479,0.419,1.5,1.437,2.159c1.019,0.658,0.898,1.737,0.898,2.999 c0,1.259,0.06,1.197,0.718,2.157c0.658,0.959,0.419,1.801-0.12,2.761c-0.539,0.959,0.359,1.799,1.019,2.339 c0.658,0.54,0.239,0.839-0.24,1.438c-0.479,0.602-0.12,1.619-0.12,2.521c0,0.897-1.854,1.438-2.634,1.438 s-0.419,0.897-0.838,1.857c-0.419,0.959-2.694,0.84-3.951,0.061c-1.257-0.776-1.497-2.039-1.497-3.479 c0-1.438-0.359-2.521-0.479-3.602c-0.12-1.08-1.916,0.603-3.113,1.32c-1.197,0.719-2.095,0.84-2.813,1.559 c-0.718,0.723-0.238,1.682,0.181,2.4c0.419,0.717,0.419,2.098,0.777,2.817c0.359,0.719,0.301,1.021-0.539,1.499 c-0.838,0.479-0.479,0.777-0.479,1.62c0,0.839,1.377,0.776,1.855,1.077c0.479,0.302,0.659,1.32,0.839,1.92 c0.18,0.601,1.557,1.261,2.454,1.68c0.898,0.42-0.18,0.96-1.316,1.919s-0.659,1.739,0.12,2.521 c0.777,0.779,0.897,1.803,1.497,2.578c0.599,0.777-0.958,1.379-1.677,1.92c-0.718,0.539,0.181,1.021,0.659,1.563 c0.479,0.541-0.299,1.26-0.479,2.275c-0.181,1.021,0.419,0.896,1.196,0.896c0.778,0,1.197,1.618,1.797,2.578 c0.599,0.961,0.238,1.619,0.599,2.938c0.359,1.32,1.257,1.021,1.796,1.08c0.539,0.063,0.898,0.063,1.257,0.604 c0.359,0.541,0.181,0.896,1.078,0.896c0.898,0,0.958-0.539,1.197-1.193c0.239-0.66,0.838-0.36,1.437-0.963 c0.6-0.602,0.3,0.963,1.019,1.197c0.718,0.24,0.896,0.541,1.496,1.199c0.599,0.656,0.838,0.42,2.036,0.236 c1.196-0.184,1.377,0.355,1.854,1.145c0.479,0.774,1.377,0.84,2.036,1.5c0.658,0.66,1.197,1.26,1.018,2.521 c-0.18,1.26,0.479,0.84,0.958,1.734c0.479,0.897,0.479,0.539,0.958,1.021c0.479,0.479,0.898,0.726,1.856,0.419 c0.958-0.3,2.933,1.385,4.011,2.039c1.077,0.66,1.977,1.438,3.711,1.438c1.735,0,1.676,1.438,2.934,2.396 c1.257,0.959,2.215,1.682,2.992,1.734c0.778,0.063,0.778,0.959,1.558,1.979c0.777,1.021,0.777,1.315,1.078,2.577 c0.3,1.262,0.718,1.08,1.735,1.145c1.019,0.063,1.796-0.658,1.855-1.5s-0.12-1.021,0.599-1.078 c0.719-0.063,1.257-3.236,1.617-4.498c0.359-1.262,0.897-0.959,2.215-0.541c1.317,0.422,1.137-0.721,1.977-0.657 c0.838,0.063,2.753,1.315,3.771,1.438c1.019,0.123,1.019,0.356,1.736,1.197c0.106,0.125,0.218,0.221,0.331,0.28l0.796-0.168 c-0.477-0.835,0.083-1.699,0.679-1.583c0.595,0.117,1.311,0.42,2.322-0.063c1.012-0.479,2.024-0.063,3.097-0.354 c1.072-0.3,2.323-5.431,2.858-6.623c0.536-1.188,1.787-0.952,2.621,0.063c0.833,1.019,1.25,1.373,3.097,0.836 s-1.489-3.645-1.965-4.181c-0.477-0.534,0.715-0.834,2.799-1.554c2.084-0.719,1.191-1.787,1.191-2.979 c0-1.188,0-1.971,0.715-2.925c0.714-0.954-0.597-2.271-1.251-3.104c-0.655-0.834-0.238-1.438,0.654-1.373 c0.894,0.063,2.084-1.135,2.563-1.488c0.477-0.355,1.846-0.182,2.918,0.354s5.062,1.438,7.146,1.973 c2.085,0.535,3.753,0.535,5.122,0.3c1.37-0.235,6.61-0.354,7.861-0.117c1.251,0.234,1.906-0.118,2.145-1.021 c0.237-0.896,0-0.771,0.833-0.953c0.834-0.182,0.952,0.953,1.429,1.488c0.477,0.537,0.953,0.771,1.846,0.836 c0.895,0.063-0.119,0.896-0.833,1.972c-0.714,1.071-1.013,0.237-1.727,0.653c-0.715,0.418-1.37,0.302-1.37,1.373 c0,1.072,0.894-0.119,1.072,0.354c0.179,0.479,1.012,2.39,1.905,2.979c0.895,0.6,0.774,1.492,0.774,2.563 s0.536,2.688,1.131,3.76c0.596,1.072-0.655,2.09-1.25,2.863c-0.596,0.771-0.953,2.861-0.953,4.061 c0,1.191-0.119,1.553-0.714,2.271c-0.596,0.715,0.714,2.323,1.846,3.043c1.131,0.717,0.061,1.905,0.536,2.563 c0.478,0.652,0.417,1.791,0.238,4.596c-0.179,2.808,0.356,1.189,1.548,1.729c1.191,0.537,2.442,1.373,3.454,2.09 c1.013,0.717,2.857,2.271,4.883,2.442c2.025,0.181,1.906-1.606,2.501-1.971c0.596-0.354,1.489-0.896,2.68-1.671 c1.191-0.771,2.383-0.771,3.275-1.555c0.894-0.771,1.668-0.652,1.846-2.088c0.18-1.439,0.298-1.855-0.536-1.908 c-0.834-0.058-1.548-0.479-0.834-0.955c0.716-0.479,2.264-2.806,2.145-4.354c-0.119-1.554-0.357-1.972-1.429-3.161 c-1.072-1.189,0.417-2.443,0.654-3.398c0.238-0.951,1.489-0.297,2.681,0.119c1.19,0.418,1.548-2.207,1.548-3.162 c0-0.504,0.107-0.521,0.296-0.92l0.218-0.685c0.138-0.303,0.2-0.479,0.2-0.782c0-0.773,1.605-1.974,1.906-3.4 c0.298-1.434-5.122-2.387-7.087-2.805c-1.966-0.418-3.396-1.371-3.692-3.162c-0.298-1.789-2.084-1.189-2.979-2.207 c-0.894-1.018-0.771-1.554-2.024-1.554c-1.25,0-2.024,0.718-2.024-3.815s-0.894-3.58-1.251-6.023 c-0.356-2.445,1.312-2.326,1.431-3.697c0.118-1.373,0.833-3.283,2.978-3.283s1.728-0.237,3.216-1.072 c1.489-0.836,2.442-1.254,3.098-2.389c0.654-1.135,1.667-1.551,2.68-1.551c1.012,0,3.335-1.672,4.107-2.209 c0.774-0.537,1.37-1.433,0.597-2.387c-0.774-0.955-0.417-2.625-0.774-5.43c-0.356-2.807-1.846-3.999-2.857-4.416 c-1.013-0.417-2.204-3.521-2.441-4.535c-0.238-1.015-2.144-0.356-2.442-0.955c-0.298-0.598-1.727-1.969-2.62-2.388 c-0.894-0.417-2.023-0.18-2.502-2.088c-0.477-1.908-3.335-0.356-5.062-2.027c-1.727-1.671-3.335-1.073-5.122-0.716 c-1.786,0.356-3.037-2.028-4.645-3.4c-1.608-1.372,0.179-2.564,0.356-3.58c0.179-1.015,1.013-1.67,0.298-2.745 c-0.714-1.073,1.548-2.445,1.548-3.58c0-1.133-1.012-1.851-2.501-2.804c-1.488-0.954-0.773-1.193-1.071-2.387 c-0.298-1.192-0.119-2.146-0.833-2.507c-0.715-0.356-2.323,1.073-3.037,0.417c-0.715-0.655-1.43-2.326-2.621-3.281 c-1.19-0.954-0.834-2.208-0.238-3.28c0.596-1.074-0.042-3.852-0.042-3.852L179.786,97.931z"></path><path id="mapid-430500-outline" fill="none" stroke="#CC2B1F" stroke-width="0.25" stroke-miterlimit="10" d="M371.479,161.18 c-0.146-0.115-0.313-0.229-0.496-0.34c-1.07-0.658-1.561-1.5-2.271-2.22c-0.72-0.722-1.078-1.38-2.569-1.919 c-1.496-0.54-1.613-1.561-2.271-2.279c-0.657-0.718-2.155,0.602-3.599,1.739c-1.438,1.139-2.149,0.839-2.688,0.897 c-0.539,0.062-1.498,0.898-2.102,1.619s-3.058-0.601-4.131-0.421c-1.078,0.181-1.498-0.358-2.756-1.26 c-1.261-0.897-2.572,0.3-2.875,1.142c-0.302,0.84-1.378-0.602-2.753-0.602c-1.379,0-1.729-0.24-2.638-1.199 c-0.896-0.96-1.73-0.779-3.056-0.602c-1.313,0.182-1.798-0.479-2.571-1.078c-0.773-0.602-1.679-0.182-3.293-0.422 c-1.614-0.238-1.377-0.479-2.52-0.18c-1.144,0.297-3.41,0.42-5.51,0.479c-2.099,0.061-2.271-0.66-2.875-1.92 c-0.601-1.26-5.088-0.602-6.103-1.561c-1.021-0.959-0.84-0.779-2.1-1.021c-1.262-0.24-2.396-1.438-3.832-2.521 c-1.438-1.08-1.73-1.621-2.334-3.12c-0.604-1.5-0.479-0.72-1.194-1.438c-0.722-0.721-1.979,0.181-2.872,1.14 c-0.896,0.96-1.262,1.142-2.574,1.021c-1.313-0.121-0.719-0.24-1.854,0.659c-1.145,0.898-1.733,1.438-2.873,1.68 c-1.145,0.239-4.313-2.039-5.09-2.879c-0.774-0.839-0.774-0.301-1.979-0.78c-1.19-0.479-2.754-3.777-2.937-4.857 c-0.184-1.079-1.074-1.079-2.754-1.438c-1.682-0.359-1.561-2.818-2.151-4.317c-0.603-1.499-1.021-1.68-2.335-1.857 c-1.315-0.182-1.979-0.54-2.1-1.919c-0.119-1.379,0.357-2.579,0.479-3.061c0.122-0.479,1.258,0.182,1.854-1.8 c0.601-1.979,0.421-2.398,0.116-3.358c-0.301-0.959,0.063-2.157,0.186-3.298c0.119-1.141-0.302-1.021-1.021-1.5 c-0.719-0.479-1.074-0.897-0.537-1.438s1.021-1.318,1.314-2.521c0.299-1.199-0.238-2.1-0.896-2.22 c-0.655-0.119-0.719-0.119-1.977-0.54c-1.259-0.419-1.021-0.778-0.958-1.679c0.063-0.898-0.12-1.919-1.258-3.119 c-1.141-1.199-0.358-2.579-0.358-3.298c0-0.721-0.062-1.5,0.957-1.619c1.021-0.12,0.604-0.359,2.155-1.08 c1.558-0.719,1.197-1.319,0.479-1.919c-0.721-0.602-0.42-1.438,0.063-2.278c0.479-0.84,0.6-1.919,0.838-3.238 c0.237-1.317-1.796-0.898-3.113-1.438c-1.313-0.54-1.313-0.3-2.271-0.898c-0.957-0.6,0.896-2.459,2.271-3.179 c1.379-0.721-0.651-1.619-2.094-1.92c-1.439-0.3-2.691-1.438-3.355-2.1c-0.654-0.66-2.451,0.358-3.228-0.063 c-0.778-0.42-0.359-1.62-1.377-1.021c-1.02,0.601-1.438-0.54-2.274-1.74c-0.837-1.199-0.538-1.259-1.313-1.259 c-0.777,0-0.897,0.238-1.438-0.66c-0.54-0.899-0.539-0.54-1.614-0.18c-1.077,0.358-3.055,0.358-4.608,0.358 c-1.557,0-1.317,0.239-1.978,0.898c-0.657,0.66-1.614,0.479-2.872,0.181c-1.259-0.3-1.735-0.181-2.813,0.659 c-1.077,0.841-2.035,0.479-2.813-0.659c-0.778-1.14-0.659-0.84-1.677-0.301c-1.018,0.54-3.831,1.379-4.488,1.68 c-0.659,0.3-2.155,1.021-3.832,0.42c-1.677-0.601-2.216,0.182-3.054,0.96c-0.838,0.779-4.07,0.839-5.866,0.839 c-1.797,0-3.771,4.379-4.729,6.179c-0.958,1.799-4.489,2.339-5.926,2.579c-1.438,0.238-0.958,0.778-1.796,1.799 c-0.838,1.02-1.138,0.66-2.096-0.3c-0.958-0.961-2.515-0.842-3.173-1.74c-0.659-0.898-1.198-0.479-2.215,0.061 c-1.018,0.54-1.854,0.54-2.634,0.54s-2.514,0.659-3.173,1.142c-0.658,0.479-0.897,0.959-1.736,1.078 c-0.839,0.121-1.736,0.24-2.993,0.54c-1.257,0.302-1.676,0.302-2.514,1.921c-0.838,1.617-3.232,1.857-4.909,1.737 c-1.561-0.109-2.549-0.119-5.381,0.363l0.463,2.291c0,0,0.596,2.564,0,3.641c-0.596,1.075-0.952,2.327,0.238,3.28 c1.189,0.955,1.906,2.625,2.621,3.282c0.714,0.656,2.321-0.774,3.037-0.417c0.714,0.355,0.535,1.313,0.833,2.506 c0.297,1.193-0.417,1.433,1.071,2.387c1.489,0.954,2.501,1.671,2.501,2.806c0,1.134-2.263,2.506-1.548,3.578 c0.715,1.074-0.119,1.729-0.298,2.745c-0.178,1.016-1.965,2.208-0.357,3.58c1.608,1.373,2.859,3.759,4.646,3.4 c1.787-0.357,3.395-0.955,5.122,0.716c1.727,1.671,4.585,0.119,5.062,2.028c0.479,1.909,1.608,1.671,2.501,2.088 c0.896,0.417,2.323,1.79,2.621,2.388c0.298,0.597,2.204-0.061,2.442,0.954s1.429,4.117,2.44,4.535 c1.013,0.418,2.501,1.61,2.858,4.415c0.357,2.805,0,4.476,0.774,5.43c0.773,0.954,0.179,1.853-0.597,2.388 c-0.771,0.537-3.097,2.207-4.107,2.207c-1.014,0-2.025,0.418-2.681,1.553c-0.654,1.135-1.607,1.552-3.097,2.388 c-1.489,0.835-1.072,1.074-3.216,1.074c-2.145,0-2.858,1.909-2.979,3.278c-0.118,1.373-1.786,1.256-1.43,3.699 c0.357,2.443,1.251,1.489,1.251,6.023c0,4.533,0.774,3.816,2.024,3.816c1.251,0,1.132,0.537,2.024,1.553 c0.896,1.015,2.681,0.418,2.979,2.207c0.298,1.791,1.727,2.746,3.691,3.162c1.966,0.418,7.386,1.371,7.088,2.806 c-0.299,1.438-1.906,2.625-1.906,3.397c0,0.313-0.115,0.604-0.253,0.902c0,0,4.068-1.688,4.225-0.115 c0.157,1.563,0.313,4.771,1.33,5.238c1.017,0.473,0.861,1.1,0.782,2.271c-0.078,1.174,0.079,2.349,1.096,3.129 c1.017,0.781,1.644,1.879,2.66,0.393c1.017-1.479,1.252-2.503,2.504-1.645c1.251,0.854,3.208,0.938,2.582-0.474 c-0.626-1.403-4.146-4.69-3.677-5.558c0.469-0.857,1.485-1.955,2.425-1.646c0.938,0.313,1.799,0.625,1.643,1.563 c-0.155,0.938-1.017,1.726-0.155,1.803c0.859,0.074,1.173-1.481,1.721-1.955c0.548-0.473,0.704,0.229,1.33,1.646 c0.626,1.414,1.721,3.055,1.408,3.912c-0.313,0.856-0.392,1.021,1.095,1.021s4.929,0.396,4.929,1.406 c0,1.021-1.251,1.723,1.409,2.106c2.66,0.394,2.973,1.176,4.693,0.781c1.722-0.395,3.6-0.313,4.538,1.02 c0.938,1.334,1.801,1.563,3.757,1.563c1.955,0,2.813-0.155,2.813,1.175c0,1.327,0.078,3.284,1.33,1.801 c1.252-1.481,1.564-3.055,3.207-3.055c1.646,0,1.565-1.098,2.977-1.563c1.405-0.475,2.428,0.701,3.756,0.855 c1.328,0.155,0.856,0.396,2.271-0.154c1.408-0.549,2.112,0.154,3.363,1.098c1.104,0.832,5.414,4.488,6.646,5.854l0.144,0.276 c0,0,0.896-2.797,1.63-4.217c0.731-1.423,4.313-5.06,5.729-5.584c1.42-0.521,3.476-1.313,3.418-2.478 c-0.059-1.156,0.267-5.949,0.998-7.063c0.73-1.104,0.188-4.471,2.021-3.854c1.838,0.608,5.701,2.45,6.219,1.229 c0.521-1.229,0.611-2.355,1.461-2.121c0.854,0.23,1.365-0.379,1.789,2.023c0.43,2.408,2.451,5.479,4.387,5.664 c1.938,0.188,3.021-0.896,3.957,0c0.938,0.896,2.021,1.369,1.738,2.733c-0.277,1.369-0.938,2.403-0.229,3.308 c0.707,0.896,1.625,4.574,3.535,4.187c1.909-0.396,1.739-0.788,2.42-1.577c0.678-0.787,1.354-1.916,2.523-1.295 c1.186,0.617,5.688,0.227,6.134,0.563l0.608-0.447c1.104-0.625,1.664-1.893,1.616-2.586c-0.058-0.795-0.37-1.903,0.524-2.332 c0.896-0.424,1.381-2.063,2.021-1.903c0.638,0.153,2.274,0.896,2.599,2.017c0.317,1.11,1.483,2.6,2.065,1.594 c0.584-1.012,1.692-1.437,2.757-0.955c1.063,0.479,1.063-0.268,1.75,1.906c0.688,2.176,4.834,1.678,5.707,1.678 c0.875,0,2.122-1.313,3.187-0.875c1.063,0.438,1.813-0.625,2.563-1.375c0.082-0.084,0.148-0.184,0.218-0.285l1.332-2.383 c0,0-3.938-2.313-4.938-2.479c-1.017-0.171-4.771-2.022-5.107-2.931c-0.34-0.896-0.278-1.188-1.123-1.295 c-0.846-0.105-0.729-1.186,0.338-1.463c1.063-0.277,3.146-0.508,4.155,0.508c1.013,1.018,1.739,1.125,2.858,1.125 c1.125,0,3.369,0,3.938,0c0.563,0,2.86,0.449,2.354-1.854c-0.509-2.31-0.509-2.813-1.184-3.267 c-0.675-0.449-0.396-2.362,0.063-2.931c0.443-0.563,1.573-2.344,3.118-3.502c1.548-1.159,2.203-1.985,3.03-1.489 c0.826,0.495,0.33,1.771,1.214,1.821c0.888,0.06,1.547-0.559,1.547,0.06c0,0.604,0.226,0.99-0.165,1.983 c-0.391,0.996,0,2.769,0.887,2.935c0.886,0.166,1.213-0.996,2.146-1.056c0.938-0.059,2.314-0.27,1.938-0.938 c-0.393-0.664-1.152-0.83-0.496-1.55c0.662-0.72,0.104-2.153-0.49-2.541c-0.606-0.392-1.655-0.888-1.655-1.821 c0-0.938-0.989-2.268-1.935-2.709c-0.938-0.438-2.041-0.72-1.815-1.271c0.224-0.552,1.769-1.771,1.437-2.269 c-0.327-0.498-1.213-1.051-1.813-1.381c-0.604-0.332-1.271-0.938-0.604-1.55c0.666-0.604,0.498-2.815,0.498-3.758 c0-0.938,0.555-2.929,1.438-3.039c0.886-0.106,1.814-0.554,2.265-1.323c0.438-0.771,1.438-1.879,1.438-1.879L371.479,161.18z"></path><path id="mapid-430400-outline" fill="none" stroke="#CC2B1F" stroke-width="0.25" stroke-miterlimit="10" d="M215.537,194.178 c-0.188,0.398-0.389,0.82-0.389,1.326c0,0.955-0.357,3.58-1.548,3.162c-1.191-0.417-2.442-1.072-2.681-0.119 c-0.237,0.955-1.727,2.208-0.654,3.4c1.071,1.189,1.312,1.607,1.429,3.158c0.119,1.556-1.429,3.879-2.145,4.354 c-0.714,0.479,0,0.896,0.834,0.954s0.715,0.479,0.536,1.909c-0.178,1.434-0.953,1.313-1.846,2.088 c-0.895,0.771-2.084,0.771-3.275,1.553c-1.19,0.771-2.084,1.313-2.68,1.676c-0.596,0.354-0.477,2.146-2.501,1.969 c-2.023-0.176-3.871-1.729-4.883-2.442c-1.012-0.716-2.263-1.554-3.454-2.088c-1.191-0.537-1.729,1.069-1.548-1.729 c0.179-2.807,0.238-3.938-0.238-4.597c-0.476-0.653,0.596-1.854-0.536-2.563s-2.441-2.324-1.846-3.043 c0.595-0.715,0.714-1.065,0.714-2.269c0-1.19,0.357-3.28,0.953-4.062c0.596-0.771,1.846-1.791,1.25-2.86 c-0.595-1.074-1.131-2.688-1.131-3.763c0-1.071,0.119-1.971-0.774-2.563c-0.893-0.592-1.727-2.506-1.905-2.979 c-0.179-0.479-1.072,0.723-1.072-0.354c0-1.071,0.655-0.955,1.37-1.373c0.714-0.417,1.013,0.418,1.727-0.651 c0.715-1.074,1.728-1.91,0.833-1.974c-0.893-0.063-1.37-0.298-1.846-0.835c-0.477-0.537-0.595-1.67-1.429-1.492 c-0.833,0.184-0.596,0.063-0.833,0.955c-0.238,0.896-0.894,1.254-2.145,1.02c-1.25-0.233-6.491-0.116-7.861,0.119 c-1.369,0.234-3.036,0.234-5.122-0.303c-2.085-0.535-6.073-1.432-7.146-1.969s-2.442-0.717-2.918-0.355 c-0.476,0.355-1.667,1.551-2.562,1.488c-0.893-0.063-1.31,0.537-0.654,1.373c0.654,0.835,1.965,2.146,1.251,3.104 c-0.715,0.955-0.715,1.729-0.715,2.928c0,1.188,0.893,2.271-1.191,2.979c-2.084,0.715-3.275,1.02-2.799,1.551 c0.477,0.537,3.812,3.645,1.965,4.182c-1.847,0.535-2.263,0.179-3.097-0.836c-0.833-1.02-2.084-1.254-2.621-0.063 c-0.536,1.189-1.786,6.32-2.858,6.623c-1.072,0.299-2.084-0.119-3.097,0.354c-1.012,0.479-1.728,0.179-2.322,0.063 c-0.596-0.119-1.25,0.652-0.773,1.488c0,0,0.862,0.089,1.423-0.021c0.897-0.184,0.599,0.961,0.599,1.687 c0,0.724,0.18,1.079,0.838,1.799c0.658,0.726,0.299,1.146,0.061,1.685c-0.239,0.539,0,0.658,0.897,0.658 c0.898,0,1.317,0.604,2.155,0.776c0.838,0.185,1.317,0.959,1.796,1.683c0.479,0.723,0.599,0.422,1.497,0.236 c0.898-0.182,1.317,0.66,1.317,1.919c0,1.265,0.299,0.421,1.076,0.304c0.778-0.117,0.24,0.183,0.24,1.381 c0,1.195,0.299,0.959,1.257,1.195c0.958,0.239,1.019,0.842,1.677,0.842s0.777-0.063,1.438,0.356 c0.658,0.42,1.438,0.896,2.215,1.261c0.778,0.359,2.096,0.725,3.412,0.961c1.317,0.237,0.12,1.5,0.778,1.563 c0.659,0.063,1.316,1.801,2.215,2.459s-0.12,0.84-0.12,1.736c0,0.896,1.317,1.5,1.796,2.153c0.479,0.659,0.778,1.08,1.558,1.146 c0.777,0.063,1.196,0,1.376-0.775s0.658-0.841,1.377-0.725c0.718,0.121,0.958-0.116,1.078-0.838 c0.119-0.726,1.437-0.604,2.394-0.727c0.957-0.115,0.958,1.319,1.796,1.319s0.838,0.354,2.095,0.419 c1.258,0.063-0.12,1.919-0.06,3.063c0.06,1.145,0.599,1.076,1.437,1.563c0.839,0.479-0.719,1.313-0.299,2.758 c0.419,1.438,1.438,0.479,2.395,0.773c0.958,0.307,0.599,1.021,0.777,1.924c0.18,0.896,1.019,0.354,2.754,0.602 c1.736,0.24,1.736,0.898,2.035,1.859c0.299,0.959-0.06,0.773,1.138,0.72c1.196-0.063,0.18,0.66,1.257,1.198 c1.077,0.541,2.274-0.239,3.472-1.079c1.197-0.839,1.676-0.66,2.933-0.063c1.258,0.604,0,1.799-0.718,2.646 c-0.719,0.84-0.479,1.259-0.238,2.692c0.238,1.438,0.657,0.896,1.437,1.438c0.778,0.54,2.574,0.185,5.328-0.063 c2.754-0.236,1.437,0.774,2.274,1.734c0.839,0.965,0.958-1.8,1.797-2.396c0.838-0.604,0.539,0.961,0.958,2.277 c0.419,1.313,1.376,1.379,2.214,2.879s0.838,2.459,1.138,3.479c0.299,1.021,0.539,1.145,1.916,1.314 c1.377,0.185,0.778-1.021,0.599-2.274c-0.179-1.261,0.838-1.8,1.317-2.459c0.479-0.66,0.658-1.021,1.137-0.54 c0.479,0.48-0.12,1.499-0.299,2.521c-0.18,1.021,0,1.193,1.197,1.684c1.197,0.479,2.035,0.896,2.873,1.438 c0.838,0.535,1.616-0.541,1.855-2.279c0.239-1.733,0.838-0.774,1.616-0.654c0.778,0.113,0.778-0.355,1.377-1.079 c0.6-0.726,0.958-0.356,1.197,0.839c0.239,1.2,1.676,0.604,2.454,1.021c0.777,0.426,0.958,1.738,1.976,1.979 c1.019,0.241,1.019,0.12,1.257,1.262c0.239,1.146,0.658,1.08,1.796,1.021c1.139-0.063,1.197-0.604,2.275,0.063 c1.078,0.658,0.838,0.479,1.795-0.119c0.958-0.604,1.317,0.539,2.516,0.119c1.197-0.422,1.854,0.604,3.053,0.959 c1.197,0.357,1.559-1.854,2.154-2.459c0.6-0.603,1.677-1.021,2.275-0.303c0.599,0.723,1.496,0.66,2.991,0.78 c1.497,0.114,0.897-0.12,1.139-0.726c0.24-0.604,0.958,0.063,2.215,0.236c1.258,0.178,2.035-1.021,2.635-1.615 c0.601-0.604,2.215-0.479,3.712-2.039c1.496-1.563,2.273-0.305,3.055,0.774c0.776,1.08,0.599,3.839,0.599,4.798 c0,0.963-0.358,3.844-0.838,5.104c-0.479,1.265,0.658,2.277,1.438,3.354c0.778,1.08,1.077,1.619,1.497,0.959 c0.42-0.653,0.957-1.979,0.42-3.418c-0.539-1.438,0.237-1.68,0.657-2.813c0.419-1.144,0.777-2.459,1.197-3.604 c0.418-1.14,1.193-1.313,2.453-1.854c1.258-0.541,1.438-1.686,1.978-2.694c0.539-1.021,1.196-1.563,1.141-2.159 c-0.063-0.604,1.914-1.379,2.691-1.379c0.776,0,0.776,0.12,1.795-0.777c1.021-0.896,2.098,0.18,2.873,0.777 c0.776,0.604,1.021,0.723,2.335,0.723c0.838,0,1.115-0.021,1.316-0.229l0.178-0.354c-0.684-1.367-1.688-4.313-1.688-5.836 c0-1.521-0.306-3.269,0.149-6.15c0.452-2.887,1.063-2.887,1.979-5.235c0.721-1.862,2.104-2.157,2.393-2.95l-0.415-1.257 c-1.257-0.935-4.938-0.58-6.532-0.58c-1.819,0-2.203-0.763-3.27-1.896c-1.063-1.143,0.91-1.598,1.67-2.584 c0.762-0.982-0.76-3.188-1.82-4.562c-1.063-1.366,0.381-2.202,1.441-2.202c1.01,0,3.424-0.045,3.332-0.721l-0.354-0.521 c-1.232-1.364-5.543-5.021-6.646-5.854c-1.252-0.938-1.955-1.646-3.365-1.102c-1.404,0.553-0.938,0.313-2.27,0.154 c-1.328-0.154-2.351-1.328-3.758-0.854c-1.404,0.471-1.33,1.563-2.976,1.563c-1.643,0-1.955,1.563-3.207,3.053 c-1.252,1.486-1.33-0.473-1.33-1.801s-0.857-1.175-2.813-1.175c-1.956,0-2.816-0.231-3.758-1.563 c-0.938-1.328-2.814-1.4-4.536-1.02c-1.725,0.393-2.034-0.395-4.694-0.779c-2.66-0.394-1.409-1.098-1.409-2.108 c0-1.021-3.441-1.405-4.929-1.405s-1.408-0.154-1.095-1.021c0.313-0.856-0.782-2.504-1.408-3.912 c-0.626-1.402-0.782-2.105-1.33-1.645c-0.548,0.475-0.86,2.033-1.721,1.955c-0.861-0.076,0-0.855,0.156-1.8 c0.156-0.938-0.704-1.252-1.644-1.563c-0.938-0.313-1.956,0.78-2.425,1.646c-0.47,0.854,3.051,4.146,3.677,5.557 c0.626,1.409-1.33,1.33-2.582,0.475c-1.252-0.857-1.486,0.152-2.504,1.646c-1.017,1.485-1.643,0.393-2.66-0.396 c-1.017-0.776-1.174-1.953-1.096-3.131c0.079-1.174,0.235-1.799-0.782-2.271c-1.017-0.477-1.173-3.684-1.33-5.24 c-0.155-1.563-4.225,0.077-4.225,0.077L215.537,194.178z"></path><path id="mapid-430100-outline" fill="none" stroke="#CC2B1F" stroke-width="0.25" stroke-miterlimit="10" d="M330.137,208.309 c-2.056-0.256-4.949,0.062-6.131-0.563c-1.183-0.621-1.854,0.507-2.529,1.296c-0.678,0.789-0.506,1.187-2.418,1.578 c-1.912,0.394-2.83-3.285-3.537-4.185c-0.705-0.896-0.047-1.938,0.234-3.312c0.28-1.362-0.804-1.841-1.742-2.731 c-0.938-0.896-2.021,0.188-3.957,0c-1.935-0.188-3.957-3.256-4.384-5.662c-0.424-2.404-0.938-1.795-1.791-2.027 c-0.848-0.234-0.938,0.896-1.461,2.124c-0.518,1.229-4.379-0.614-6.217-1.229s-1.287,2.746-2.022,3.854 c-0.729,1.104-1.052,5.896-0.998,7.058c0.061,1.157-1.998,1.948-3.416,2.479c-1.42,0.521-4.994,4.156-5.729,5.58 c-0.733,1.427-1.631,4.218-1.631,4.218l0.211,0.233c0.092,0.68-2.322,0.725-3.332,0.725c-1.063,0-2.509,0.835-1.442,2.199 c1.063,1.365,2.583,3.566,1.821,4.562c-0.76,0.993-2.731,1.438-1.67,2.583c1.063,1.146,1.438,1.896,3.269,1.896 c1.593,0,5.276-0.352,6.532,0.58l0.396,0.604c0,0,2.395,1.619,5.016,0.313c2.621-1.313,3.547-1.002,5.017-1.313 c1.467-0.313,3.621-1.693,4.551-2.771c0.928-1.08,2.154-1.545,3.771-0.854c1.619,0.689,1.771-0.077,2.474-1.002 c0.688-0.925,1.467-1.393,2.545-0.391c1.078,1.007,2.471,0.771,3.623,0c1.15-0.771,0.148-0.612,3.232-0.229 c3.084,0.392,4.241-1.079,5.629-1.079c1.395,0,2.008,1.313,3.477,0.153c0.148-0.122,0.299-0.237,0.434-0.354l0.232-0.188 c0,0,0.152-2.859-0.854-3.553c-1.007-0.689-1.748-1.596-3.072-1.596c-1.32,0-2.971-1.59-2.229-2.063 c0.733-0.479,4.349-0.637,4.396-1.59c0.056-0.955,1.905-1.854,2.021-2.648c0.09-0.669,0.289-1.932,1.188-2.604L330.137,208.309z"></path><path id="mapid-430300-outline" fill="none" stroke="#CC2B1F" stroke-width="0.25" stroke-miterlimit="10" d="M288.211,230.816 c-0.285,0.795-1.672,1.092-2.394,2.951c-0.911,2.354-1.521,2.354-1.979,5.238c-0.457,2.891-0.147,4.639-0.147,6.15 c0,1.521,1.002,4.466,1.688,5.832l0.896,0.406c0.188,0.166,0.44,0.271,0.848,0.18c1.313-0.303,3.174,1.195,4.313,1.563 c1.14,0.354,2.031,0.84,3.408,0.538c1.379-0.304,2.518,0.541,3.531,1.38c1.021,0.84,2.334,1.262,3.951,1.684 c1.609,0.421,1.854-0.725,2.934-0.658c1.078,0.063,1.38-1.379,2.455-1.979c1.078-0.603,1.197,0.479,2.035,1.619 c0.839,1.145,1.614,1.197,2.937,1.197c1.315,0,0.301,0.479,0.063,0.842c-0.237,0.358,0.063,0.357,0.896,1.077 c0.838,0.724,0.42,3.418,0.356,4.498c-0.063,1.08,0.183,2.222,1.854,1.8c1.68-0.418,1.797,0.842,3.713,0.479 c1.914-0.358,2.035,1.021,2.756,1.857c0.724,0.838,1.021,1.313,0.355,1.918c-0.658,0.604-0.719,1.079-1.076,1.799 c-0.354,0.724-0.42,1.381,0.119,2.396c0.537,1.021,0.957,1.199,1.194,3.305c0.238,2.102,2.69,0.959,3.894,0.896 c1.197-0.063,3.771-1.2,4.606-1.5c0.839-0.304,1.979,0,2.574,0.479c0.599,0.479,2.396,0.721,3.828,0.116 c1.438-0.604,1.915,0.724,4.729,0.541c2.813-0.185,2.873,0.118,4.069-0.604c1.191-0.723,2.215-0.422,2.634-0.422 c0.42,0,2.22-0.722,4.606-1.5c2.396-0.774,1.313-1.681,1.313-3.063c0-1.38,0.842-2.877,1.563-3.539 c0.723-0.658,2.396-2.338,3.41-3.479c1.021-1.146,1.145-2.646,1.916-3.063c0.313-0.168,0.896-0.31,1.602-0.427l-0.289-1.581 c-0.391-0.854-0.153-2.623-0.391-3.625c-0.229-1.003-0.854-1.619-2.232-2.082c-1.393-0.464-1.465-1.771-1.465-3.396 s-1.541-2.396-1.934-3.236c-0.391-0.85-1.543-2.394-2.08-3.854c-0.539-1.469-3.773-1.155-5.396-1.155 c-1.618,0-5.779-0.461-7.17-1.002c-1.393-0.539-2.473-0.853-4.013,0.313c-1.544,1.153-1.854-0.313-3.774-0.854 c-1.922-0.537-2.695-1.617-2.62-3.547c0.075-1.932,1.618-2.621,2.62-4.238c1.003-1.617,1.932-2.155,2.697-3.16 c0.771-1.004,1.541-3.01,1.689-4.237c0.149-1.229,0-1.541-1.313-2.155c-1.313-0.615-0.852-1.08-1.619-2.47 c-0.771-1.394-1.771-1.08-2.696-0.313c-0.927,0.771-1.691,0.313-3.008,0.387c-0.739,0.044-1.188,0.263-1.696,0.646l-1.028,0.854 c-0.136,0.109-0.272,0.23-0.436,0.355c-1.468,1.15-2.082-0.152-3.472-0.152c-1.391,0-2.545,1.466-5.629,1.078 c-3.085-0.388-2.084-0.539-3.237,0.229c-1.152,0.771-2.546,1.002-3.625,0c-1.076-1.002-1.851-0.541-2.546,0.389 c-0.688,0.926-0.85,1.693-2.467,1.002c-1.619-0.689-2.854-0.229-3.775,0.853c-0.928,1.079-3.084,2.469-4.549,2.771 c-1.468,0.313-2.394,0-5.014,1.313c-2.622,1.313-5.017-0.312-5.017-0.312L288.211,230.816z"></path><path id="mapid-430700-outline" fill="none" stroke="#CC2B1F" stroke-width="0.25" stroke-miterlimit="10" d="M355.751,204.732 c-0.063,0.104-0.136,0.203-0.218,0.285c-0.748,0.752-1.498,1.813-2.563,1.377c-1.063-0.438-2.313,0.875-3.188,0.875 c-0.873,0-5.021,0.496-5.707-1.68c-0.688-2.177-0.688-1.436-1.75-1.904c-1.063-0.479-2.177-0.06-2.757,0.953 c-0.586,1.008-1.748-0.479-2.064-1.597c-0.313-1.106-1.961-1.854-2.6-2.017c-0.639-0.157-1.111,1.479-2.021,1.906 c-0.896,0.424-0.584,1.534-0.524,2.332c0.048,0.69-0.521,1.961-1.616,2.586l-1.108,0.534c-0.898,0.677-1.104,1.938-1.188,2.604 c-0.104,0.795-1.961,1.691-2.021,2.646c-0.054,0.952-3.651,1.11-4.396,1.593c-0.737,0.479,0.896,2.063,2.229,2.063 c1.332,0,2.065,0.899,3.074,1.59c1.006,0.688,0.851,3.558,0.851,3.558l0.799-0.658c0.52-0.396,0.957-0.604,1.697-0.646 c1.313-0.076,2.079,0.387,3.008-0.389c0.931-0.771,1.936-1.08,2.694,0.313c0.771,1.394,0.313,1.854,1.619,2.467 c1.313,0.617,1.465,0.931,1.313,2.16c-0.147,1.229-0.926,3.236-1.69,4.238c-0.771,1.002-1.695,1.541-2.697,3.158 c-1.002,1.62-2.545,2.313-2.62,4.238c-0.076,1.931,0.692,3.009,2.62,3.549c1.931,0.54,2.233,2.005,3.776,0.854 c1.543-1.158,2.617-0.854,4.011-0.313c1.39,0.539,5.554,1.002,7.17,1.002c1.619,0,4.854-0.313,5.396,1.152 c0.538,1.47,1.694,3.012,2.081,3.854c0.395,0.854,1.936,1.618,1.936,3.234c0,1.617,0.075,2.934,1.465,3.396 c1.393,0.463,2.008,1.077,2.231,2.081c0.229,1.005-0.132,2.362,0.263,3.214l0.418,1.993l0.646-0.104 c0.896-0.127,1.891-0.229,2.658-0.313c1.614-0.182,2.453-1.313,3.354-2.1c0.896-0.779,1.979-0.723,2.518-1.197 c0.539-0.479,3.594-2.104,4.313-2.459c0.72-0.355,2.567-0.96,3.646-1.979c1.075-1.021,0.959-2.225,0.959-3.184 c0-0.961,1.493-1.979,2.334-2.104c0.838-0.119,2.635-1.078,4.368-2.101c1.735-1.021,2.337-0.358,3.175,0.117 c0.838,0.479,2.153,1.319,3.054,0.963c0.896-0.358,1.854-0.541,2.875-0.963c1.021-0.42,1.194,1.618,1.683,1.922 c0.479,0.3,1.259,0.42,2.146-0.185c0.896-0.604,1.979,0.42,2.994,0.959c1.021,0.541,5.207,2.695,6.521,3.233 c1.313,0.538,2.518,0.962,2.993,1.921c0.479,0.961-0.304,1.143,0.354,1.381c0.655,0.234,3.174-2.578,3.229-2.881 c0.063-0.303,1.021-1.195,1.729-0.656c0.725,0.537,0.774-0.479,0.774-1.438s-0.183-1.737-0.896-2.642 c-0.729-0.897-0.479-1.021,0.229-1.563c0.728-0.539-0.229-0.896,0.188-1.683c0.42-0.774,0.602-0.895,1.797-1.682 c1.191-0.777,0.301-2.102,0.301-3.117c0-1.021,0.959-1.684,2.396-1.563c1.438,0.119,1.438-0.121,1.438,1.078 c0,1.197,0,1.197,0.539,2.102c0.537,0.896,1.195,1.318,1.978,0c0.776-1.315,1.257,0.063,1.733,1.563 c0.479,1.5,1.679,0.896,3.113,1.618c1.438,0.723,1.557,0.117,2.635-0.842l0.808-1.063c-0.125-1.563-1.687-3.438-2.873-4.129 c-1.187-0.688-2.062-3.688-2.745-5.13c-0.688-1.438,0.063-3.878,1.188-5.257c1.125-1.375-1.688-2.313-2.498-1.752 c-0.813,0.563-1.063,0.438-3.063,0.125c-1.998-0.313-2.746-1.688-2.996-2.502s-1.063-1.127-1.938-0.625 s-0.313,1.188,0.125,1.752c0.438,0.563,0.747,1,0,1.688c-0.75,0.688,0,1.688-0.875,1.688c-0.873,0-0.623-2.438-0.813-3.254 c-0.188-0.813-1.313-2.252-1.313-3.629c0-1.375-1.125-0.813-2.248-0.5c-1.123,0.313-2.123-0.375-3.313-1.5 c-1.189-1.125-1.563-0.625-2.496-0.063c-0.938,0.563,0.125,2.002,0.313,2.938c0.188,0.938-0.5,3.813-1.248,5.504 c-0.75,1.688-1.746,0.752-2.746-0.375c-0.998-1.125-1.871-1.625-3.063-1.875c-1.188-0.25-1.813-2.063-3.437-2.438 s0.25-3.688,1.372-5.004c1.125-1.313-1.313-3.563-0.313-4.131c0.998-0.563,0.998-1.688,1.188-3.002 c0.188-1.313,0.5-1.188,1.123-2.688c0.625-1.502-1.498-1.877-1.995-3.063c-0.5-1.188-2.438-2.188-3.188-2.688 s-1.873,1.063-3.246,2.375c-1.375,1.313-2.997,1.13-4.245,1.188c-1.244,0.063-3.062-2.754-3.615-3.438 c-0.563-0.688-1.497-0.938-1.497-2.063s-1.063-1.377-2.373-1.813c-1.313-0.438-2.246-0.375-3.494,0.063 c-1.25,0.438-2.748-0.375-3.871-0.438c-1.122-0.063-0.997,1.438-2.372,1.688c-1.373,0.25-3.938-0.813-5.436-1.502 c-1.497-0.688-3.063,0.5-4.245,1.627c-1.188,1.125-1.563,1.188-2.621,0.375c-1.063-0.813-2.438,1.313-3.869,1.563 c-0.104,0.021-0.188,0.041-0.271,0.07l-0.442,0.139L355.751,204.732z"></path><path id="mapid-430200-outline" fill="none" stroke="#CC2B1F" stroke-width="0.25" stroke-miterlimit="10" d="M357.083,202.35 c0,0-3.937-2.309-4.94-2.477c-1.014-0.169-4.771-2.025-5.107-2.93c-0.342-0.897-0.276-1.185-1.121-1.295 c-0.85-0.108-0.729-1.186,0.339-1.465c1.063-0.275,3.146-0.506,4.151,0.508c1.017,1.018,1.738,1.125,2.86,1.125s3.37,0,3.938,0 c0.563,0,2.858,0.449,2.354-1.854c-0.51-2.31-0.51-2.813-1.185-3.265c-0.677-0.45-0.396-2.363,0.06-2.932 c0.447-0.563,1.574-2.341,3.119-3.502c1.547-1.158,2.205-1.984,3.032-1.49c0.826,0.498,0.33,1.771,1.214,1.822 c0.889,0.061,1.545-0.558,1.545,0.061c0,0.604,0.229,0.99-0.166,1.984c-0.388,0.993,0,2.768,0.889,2.934 c0.887,0.166,1.215-0.995,2.146-1.055c0.938-0.056,2.313-0.271,1.935-0.938c-0.39-0.662-1.156-0.828-0.494-1.547 c0.66-0.721,0.104-2.152-0.496-2.542c-0.604-0.39-1.65-0.886-1.65-1.823s-0.991-2.266-1.934-2.707 c-0.938-0.438-2.041-0.72-1.816-1.271c0.222-0.555,1.768-1.77,1.438-2.267s-1.216-1.053-1.813-1.384 c-0.604-0.332-1.271-0.938-0.604-1.547c0.659-0.605,0.493-2.814,0.493-3.758c0-0.938,0.557-2.93,1.438-3.039 c0.888-0.106,1.819-0.555,2.266-1.325c0.438-0.771,1.438-1.879,1.438-1.879l1.104-1.321l0.316,0.25 c0.625,0.493,1.13,0.918,1.813,0.788c0.957-0.181,1.614,0.36,2.573,0.78c0.957,0.419,1.978,0.719,2.032,2.457 c0.063,1.738,0.063,1.98-0.422,2.58c-0.479,0.6-0.301,0.777,0.479,1.918c0.776,1.141,0.957,2.34,2.692,2.102 c1.729-0.238,2.097-0.479,3.354,0.479c1.258,0.961,1.611,1.078,2.396,0.777c0.771-0.299,1.558-0.355,2.147,0.121 c0.604,0.479,1.685-1.143,2.271-0.24c0.604,0.897,0.775,2.521,1.313,2.699c0.539,0.182,1.263,0.182,1.078-1.318 c-0.184-1.5-0.121-2.695-0.959-3.355c-0.841-0.659-1.313-0.896-0.236-1.438c1.074-0.541,1.313-0.722,1.313-1.681 c0-0.962,1.14-1.618,1.562-0.479c0.419,1.141,0.604,3.06,2.271,3.537c1.685,0.479,3.599,1.021,5.028,1.562 c1.438,0.54,1.854-1.196,1.56-1.799c-0.299-0.604-1.799-0.897-1.438-2.04c0.354-1.145,0.304-1.145-0.063-1.857 c-0.354-0.721-0.839-1.619,0-1.438c0.841,0.18,1.616,1.979,2.218,0.839c0.604-1.145,0.654-2.339,1.438-1.799 c0.771,0.539,2.271,0.775,2.872,0.419c0.6-0.356,1.138-0.604,1.138-1.261c0-0.657,1.563-0.063,1.378-1.021 c-0.182-0.96-0.957-1.737-0.3-2.759s1.729-1.2,1.616-2.039c-0.12-0.84,0.718-0.84,0-1.563c-0.725-0.72-0.896-0.838-0.778-1.498 c0.119-0.658-0.063-0.539-0.72-0.898c-0.657-0.359-1.732-1.08,0-1.08c1.73,0,2.518-0.479,3.593-0.479 c1.078,0,3.951,1.021,6.521,1.681c2.572,0.659,5.746,2.276,6.049,3.958c0.302,1.679,1.494,2.578,2.57,3.418 c1.073,0.84,1.612,1.438,1.799,3.355c0.183,1.918,2.871,6.656,5.021,7.734c2.155,1.079,4.551,2.938,4.371,4.318 c-0.183,1.38-1.14,1.979-2.156,1.313c-1.016-0.657-1.795-0.776-1.976,0.063c-0.182,0.84-1.021,0.658,0.119,1.855 s4.604,7.075,5.328,7.495c0.719,0.421,1.558,1.08,1.074,2.459c-0.479,1.382,0.896,5.039,1.021,5.642 c0.119,0.604,1.978,8.521,1.978,10.258s-0.115,6.479,0.723,7.313c0.842,0.842,0.771,1.92,0.771,3.301 c0,1.379,2.155,4.194,1.078,4.14c-1.078-0.063-2.216-0.119-2.517,0.778c-0.299,0.896,0.234,1.801,0.722,2.039 c0.479,0.237,0.418,1.141-0.183,1.854c-0.604,0.722-0.776,1.263-0.776,2.459s-0.957,1.616-1.496,1.263 c-0.539-0.357-0.354-2.938-1.259-2.88c-0.896,0.063-2.396,0.722-2.153,1.918c0.239,1.196,0.838,3.062,0.186,4.021 c-0.656,0.961,0,4.438,0.84,5.459c0.841,1.02,2.216,2.156,1.494,3.957c-0.725,1.802-0.896,1.681-2.334,1.979 c-1.438,0.305-1.799,0.896-2.334,1.266c-0.539,0.354-1.076,0.601-1.498-0.844c-0.418-1.439-1.563-3.773-2.151-3.773l0.389,2.181 c-0.125-1.563-1.688-3.438-2.873-4.131c-1.186-0.688-2.061-3.688-2.742-5.129c-0.688-1.438,0.063-3.878,1.188-5.255 c1.125-1.375-1.688-2.313-2.496-1.75c-0.813,0.563-1.063,0.438-3.063,0.125c-2-0.313-2.746-1.688-2.996-2.502 c-0.25-0.814-1.063-1.127-1.938-0.625c-0.875,0.5-0.313,1.188,0.125,1.75c0.438,0.563,0.75,1,0,1.688 c-0.748,0.688,0,1.688-0.873,1.688s-0.623-2.438-0.813-3.254c-0.188-0.813-1.313-2.252-1.313-3.629 c0-1.375-1.123-0.813-2.246-0.5c-1.123,0.313-2.123-0.375-3.312-1.5s-1.563-0.625-2.498-0.063c-0.938,0.563,0.125,2,0.313,2.938 c0.188,0.938-0.5,3.813-1.248,5.504c-0.748,1.689-1.745,0.752-2.745-0.375c-0.998-1.127-1.871-1.627-3.063-1.877 c-1.188-0.25-1.813-2.063-3.438-2.438s0.25-3.688,1.372-5.009c1.125-1.313-1.313-3.563-0.313-4.13 c1-0.563,0.998-1.688,1.188-3.002c0.188-1.313,0.5-1.188,1.123-2.688c0.625-1.502-1.498-1.877-1.996-3.063 c-0.5-1.188-2.438-2.188-3.188-2.688s-1.871,1.063-3.244,2.375c-1.375,1.313-2.998,1.127-4.246,1.188 c-1.248,0.063-3.063-2.754-3.621-3.438c-0.563-0.688-1.496-0.938-1.496-2.063s-1.063-1.375-2.371-1.813 c-1.313-0.438-2.244-0.375-3.492,0.063c-1.25,0.438-2.748-0.375-3.871-0.438c-1.122-0.063-0.997,1.438-2.37,1.688 c-1.375,0.25-3.938-0.813-5.438-1.5s-3.063,0.5-4.241,1.625c-1.188,1.125-1.563,1.188-2.623,0.375 c-1.063-0.813-2.438,1.313-3.868,1.563c-0.104,0.019-0.188,0.041-0.271,0.065L357.083,202.35z"></path><text transform="matrix(1 0 0 1 136.2097 152.4434)" font-family="'MicrosoftYaHei'" font-size="6">阿里</text><text transform="matrix(1 0 0 1 268.9597 166.3652)" font-family="'MicrosoftYaHei'" font-size="6">那曲</text><text transform="matrix(1 0 0 1 222.2097 233.3867)" font-family="'MicrosoftYaHei'" font-size="6">日喀则</text><text transform="matrix(1 0 0 1 294.2097 214.3613)" font-family="'MicrosoftYaHei'" font-size="6">拉萨</text><text transform="matrix(1 0 0 1 321.1267 251.3613)" font-family="'MicrosoftYaHei'" font-size="6">山南</text><text transform="matrix(1 0 0 1 370.6267 230.4121)" font-family="'MicrosoftYaHei'" font-size="6">林芝</text><text transform="matrix(1 0 0 1 410.6267 194.8711)" font-family="'MicrosoftYaHei'" font-size="6">昌都</text><path id="mapid-439900-outline" fill="none" stroke="#FF0000" stroke-width="0.25" stroke-miterlimit="10" d="M301.146,220.094 l-0.467,0.514c0,0-0.035,5.146,1.715,3.437s1.814-3.938,1.814-3.938l-1.383-0.662L301.146,220.094z"></path></g></g><g id="西藏自治区高级人民法院"><circle id="mapid-439900-circle" fill="#040000" cx="302.646" cy="221.913" r="1.5"></circle></g><g id="阿里"><circle id="mapid-430600-circle" fill="#E60012" cx="150.708" cy="150.943" r="1.5"></circle><circle id="_x34_30605" fill="#040000" cx="144.519" cy="166.438" r="1.5"></circle><circle id="_x34_30607" fill="#040000" cx="198.459" cy="198.288" r="1.5"></circle><circle id="_x34_30601" fill="#040000" cx="126.459" cy="202.663" r="1.5"></circle><circle id="_x34_30602" fill="#040000" cx="104.769" cy="175.878" r="1.5"></circle><circle id="_x34_30699" fill="#040000" cx="110.084" cy="154.811" r="1.5"></circle><circle id="_x34_30603" fill="#040000" cx="112.459" cy="155.413" r="1.5"></circle><circle id="_x34_30604" fill="#040000" cx="124.084" cy="123.913" r="1.5"></circle><circle id="_x34_30606" fill="#040000" cx="186.584" cy="130.413" r="1.5"></circle></g><g id="那曲_1_"><circle id="mapid-430500-circle" fill="#E60012" cx="267.459" cy="164.865" r="1.5"></circle><circle id="_x34_30517" fill="#040000" cx="263.642" cy="142.038" r="1.5"></circle><circle id="_x34_30506" fill="#040000" cx="262.142" cy="194.171" r="1.5"></circle><circle id="_x34_30508" fill="#040000" cx="285.209" cy="183.741" r="1.5"></circle><circle id="_x34_30503_1_" fill="#040000" cx="344.208" cy="182.241" r="1.5"></circle><circle id="_x34_30505" fill="#040000" cx="318.126" cy="176.538" r="1.5"></circle><circle id="_x34_30519" fill="#040000" cx="316.626" cy="181.663" r="1.5"></circle><circle id="_x34_30501" fill="#040000" cx="319.626" cy="183.163" r="1.5"></circle><circle id="_x34_30599_1_" fill="#040000" cx="320.343" cy="180.741" r="1.5"></circle><circle id="_x34_30502" fill="#040000" cx="341.208" cy="200.29" r="1.5"></circle><circle id="_x34_30507" fill="#040000" cx="351.206" cy="171.471" r="1.5"></circle><circle id="_x34_30504" fill="#040000" cx="325.343" cy="166.365" r="1.5"></circle><circle id="_x34_30509" fill="#040000" cx="355.583" cy="170.663" r="1.5"></circle></g><g id="日咯则市"><circle id="mapid-430400-circle" fill="#E60012" cx="223.709" cy="230.982" r="1.5"></circle><circle id="_x34_30424" fill="#040000" cx="199.959" cy="228.361" r="1.5"></circle><circle id="_x34_30499" fill="#040000" cx="264.459" cy="228.913" r="1.5"></circle><circle id="_x34_30402" fill="#040000" cx="267.459" cy="222.413" r="1.5"></circle><circle id="_x34_30408" fill="#040000" cx="253.209" cy="226.861" r="1.5"></circle><circle id="_x34_30423" fill="#040000" cx="214.677" cy="242.986" r="1.5"></circle><circle id="_x34_30425" fill="#040000" cx="257.177" cy="249.861" r="1.5"></circle><circle id="_x34_30422" fill="#040000" cx="200.709" cy="237.486" r="1.5"></circle><circle id="_x34_30420" fill="#040000" cx="262.959" cy="230.982" r="1.5"></circle><circle id="_x34_30401" fill="#040000" cx="264.459" cy="232.482" r="1.5"></circle><circle id="_x34_30418" fill="#040000" cx="274.452" cy="246.125" r="1.5"></circle><circle id="_x34_30417" fill="#040000" cx="280.459" cy="230.982" r="1.5"></circle><circle id="_x34_30409" fill="#040000" cx="270.459" cy="233.288" r="1.5"></circle><circle id="_x34_30403" fill="#040000" cx="275.952" cy="237.986" r="1.5"></circle><circle id="_x34_30421" fill="#040000" cx="265.959" cy="259.361" r="1.5"></circle><circle id="_x34_30405" fill="#040000" cx="248.084" cy="237.486" r="1.5"></circle><circle id="_x34_30419" fill="#040000" cx="243.959" cy="247.625" r="1.5"></circle><circle id="_x34_30406" fill="#040000" cx="241.584" cy="234.003" r="1.5"></circle><circle id="_x34_30404" fill="#040000" cx="232.709" cy="242.038" r="1.5"></circle><circle id="_x34_30407" fill="#040000" cx="234.918" cy="229.482" r="1.5"></circle></g><g id="拉萨"><circle id="mapid-430100-circle" fill="#E60012" cx="302.303" cy="214.361" r="1.5"></circle><circle id="_x34_30108" fill="#040000" cx="314.579" cy="218.277" r="1.5"></circle><circle id="_x34_30102" fill="#040000" cx="305.303" cy="217.215" r="1.5"></circle><circle id="_x34_30107" fill="#040000" cx="307.553" cy="222.225" r="1.5"></circle><circle id="_x34_30199" fill="#040000" cx="305.303" cy="223.162" r="1.5"></circle><circle id="_x34_30101" fill="#040000" cx="304.553" cy="222.225" r="1.5"></circle><circle id="_x34_30103" fill="#040000" cx="302.303" cy="204.1" r="1.5"></circle><circle id="_x34_30104" fill="#040000" cx="284.021" cy="223.725" r="1.5"></circle><circle id="_x34_30105" fill="#040000" cx="295.709" cy="228.361" r="1.5"></circle><circle id="_x34_30106" fill="#040000" cx="299.896" cy="222.663" r="1.5"></circle></g><g id="昌都地区"><circle id="mapid-430200-circle" fill="#E60012" cx="414.409" cy="194.295" r="1.5"></circle><circle id="_x34_30205" fill="#040000" cx="381.876" cy="180.741" r="1.5"></circle><circle id="_x34_30218" fill="#040000" cx="363.654" cy="193.371" r="1.5"></circle><circle id="_x34_30217" fill="#040000" cx="386.325" cy="194.871" r="1.5"></circle><circle id="_x34_30204" fill="#040000" cx="401.241" cy="182.705" r="1.5"></circle><circle id="_x34_30201" fill="#040000" cx="412.909" cy="177.378" r="1.5"></circle><circle id="_x34_30299" fill="#040000" cx="412.126" cy="184.205" r="1.5"></circle><circle id="_x34_30202" fill="#040000" cx="430.792" cy="175.878" r="1.5"></circle><circle id="_x34_30206" fill="#040000" cx="424.292" cy="195.795" r="1.5"></circle><circle id="_x34_30209" fill="#040000" cx="440.458" cy="215.277" r="1.5"></circle><circle id="_x34_30208" fill="#040000" cx="426.626" cy="215.861" r="1.5"></circle><circle id="_x34_30207" fill="#040000" cx="409.126" cy="208.621" r="1.5"></circle><circle id="_x34_30203" fill="#040000" cx="435.542" cy="190.705" r="1.5"></circle></g><g id="芝林"><circle id="mapid-430700-circle" fill="#E60012" cx="379.384" cy="230.413" r="1.5"></circle><circle id="_x34_30706" fill="#040000" cx="418.001" cy="237.366" r="1.5"></circle><circle id="_x34_30705" fill="#040000" cx="386.325" cy="212.861" r="1.5"></circle><circle id="_x34_30704" fill="#040000" cx="379.384" cy="225.098" r="1.5"></circle><circle id="_x34_30707" fill="#040000" cx="338.208" cy="233.038" r="1.5"></circle><circle id="_x34_30702" fill="#040000" cx="341.208" cy="215.277" r="1.5"></circle><circle id="_x34_30701" fill="#040000" cx="360.958" cy="220.096" r="1.5"></circle><circle id="_x34_30799" fill="#040000" cx="360.958" cy="217.361" r="1.5"></circle><circle id="_x34_30703" fill="#040000" cx="351.958" cy="228.361" r="1.5"></circle></g><g id="山南"><circle id="mapid-430300-circle" fill="#E60012" cx="331.292" cy="250.625" r="1.5"></circle><circle id="_x34_30318" fill="#040000" cx="319.042" cy="254.871" r="1.5"></circle><circle id="_x34_30317" fill="#040000" cx="328.292" cy="246.303" r="1.5"></circle><circle id="_x34_30309" fill="#040000" cx="330.708" cy="231.887" r="1.5"></circle><circle id="_x34_30307" fill="#040000" cx="309.053" cy="246.125" r="1.5"></circle><circle id="_x34_30308" fill="#040000" cx="298.396" cy="246.741" r="1.5"></circle><circle id="_x34_30319" fill="#040000" cx="289.792" cy="236.038" r="1.5"></circle><circle id="_x34_30303" fill="#040000" cx="299.646" cy="230.982" r="1.5"></circle><circle id="_x34_30302" fill="#040000" cx="308.303" cy="229.861" r="1.5"></circle><circle id="_x34_30305" fill="#040000" cx="313.079" cy="234.538" r="1.5"></circle><circle id="_x34_30399" fill="#040000" cx="315.495" cy="230.387" r="1.5"></circle><circle id="_x34_30301" fill="#040000" cx="316.079" cy="231.538" r="1.5"></circle><circle id="_x34_30304" fill="#040000" cx="320.542" cy="228.887" r="1.5"></circle><circle id="_x34_30306" fill="#040000" cx="323.343" cy="233.038" r="1.5"></circle></g></g></g></svg>