<?xml version="1.0" encoding="utf-8"?><!DOCTYPE svg PUBLIC "-//W3C//DTD SVG 1.1//EN" "http://www.w3.org/Graphics/SVG/1.1/DTD/svg11.dtd"><svg version="1.1" id="svgMap" xmlns="http://www.w3.org/2000/svg" xmlns:xlink="http://www.w3.org/1999/xlink" x="0px" y="0px" width="390px" height="469.573px" viewbox="-9 -21.427 390 469.573" enable-background="new -9 -21.427 390 469.573" xml:space="preserve"><g id="perspective"><g id="svgMapBj"><path id="安徽省" fill="none" stroke="#CD2D1F" stroke-width="0.25" stroke-miterlimit="10" d="M136.306,114.826l-0.283-0.292 c-1.313,0.657-2.894,1.218-3.435,1.413c-0.99,0.363-2.438,0.363-2.953,1.246c-0.519,0.881-1.867,1.658-3.527,1.658 c-1.659,0-2.126,0.52-3.89,0.986c-1.764,0.467-6.949-5.238-6.949-7.363c0-2.124-0.357-3.472-0.357-5.133 c0-1.66-2.022-0.62-3.168-0.779c-1.141-0.153-0.984-1.45-0.571-2.694c0.414-1.244,0.208-1.661-0.311-3.472 c-0.517-1.816-1.608-1.192-2.541-1.192c-0.933,0-2.022-0.467-3.007-1.503c-0.984-1.035-0.779-0.414-2.075,0.52 c-1.296,0.934-3.006-3.267-3.991-4.045c-0.992-0.775-3.63-0.155-5.607,0.054c-1.97,0.207-3.059,1.035-3.364,1.66 c-0.315,0.621-1.918,1.294-2.955,1.711c-1.037,0.413-2.282,9.282-2.488,10.371c-0.208,1.09,3.364,0,4.252-0.155 c0.88-0.156,0.26,2.022-0.208,4.977c-0.467,2.956-2.275,1.919-3.317,2.384c-1.042,0.468,0.934,3.112,1.502,3.995 c0.57,0.88,0.26,2.539,0.157,3.941c-0.105,1.4,0.933,3.111,1.504,4.511c0.341,0.842,0.093,0.971,0.007,1.345l0.057,0.346 c-0.046-0.184-0.071-0.296-0.071-0.296l-0.233,0.015c-0.261,0.067-0.526,0.046-1.108,0.046c-1.659,0-2.12,0.156-3.112,0.934 c-0.985,0.777-3.885,1.192-4.713,0.883c-0.829-0.31-2.178-0.57-3.681-0.518c-1.503,0.054-1.296,1.606-1.406,3.009 c-0.097,1.401-2.178,0.053-2.902,0.414c-0.726,0.361-0.157,2.954-0.881,3.629c-0.732,0.673-0.884,1.4-1.147,3.42 c-0.26,2.023,0.518,3.581,1.816,4.825c1.296,1.246-0.206,3.422-0.513,4.254c-0.316,0.828-0.57,3.576-1.452,4.301 c-0.881,0.727-1.504,4.2-2.126,5.499c-0.619,1.295-0.358,1.658-2.646,1.558c-2.281-0.102-3.94,1.557-4.926,2.538 c-0.985,0.986-3.837,0.831-7.363,0.416c-3.525-0.417-4.718-2.955-5.346-4.975c-0.619-2.022-2.229,0.467-3.104,2.384 c-0.883,1.917,0.05,4.719,1.088,6.532c1.032,1.817-0.835,2.852-1.712,3.527c-0.877,0.673,0.727,1.711,1.453,2.332 c0.726,0.622,2.645,0.571,5.082,0.622c2.438,0.053,1.535,0.844,1.606,1.865c0.073,1.022,2.66,1.095,4.919,1.095 c2.259,0,1.604,0.695,1.821,2.009c0.218,1.313,1.276,1.167,2.262,1.204c0.985,0.038,0.876,0.183,0.543,1.788 c-0.327,1.604-0.073,1.459,0.365,2.226c0.43,0.77-0.329,0.985-0.771,1.57c-0.43,0.581,0.255,1.351-0.543,2.846 c-0.808,1.495-0.489,3.572-0.266,4.467c0.224,0.893-0.415,1.116,0.575,1.055c0.989-0.064,1.341,0.254,1.469,1.022 c0.131,0.768-0.544,0.639-1.245,0.671c-0.704,0.031-0.257,0.99-0.065,1.372c0.192,0.381,0.166,0.828-0.352,1.145 c-0.512,0.32-0.319,0.606,0.192,0.509c0.512-0.095,0.127,0.321,1.213,0.702c1.085,0.385,3.385,0.799,4.086,0.255 c0.703-0.544,1.218,0.892,1.246,1.755c0.033,0.863,1.564,0.732,2.047,0.093c0.479-0.637,2.396-0.093,3.161-0.287 c0.768-0.191,1.266,0.333,1.406,1.1c0.137,0.769,2.083,1.461,2.916,2.018c0.835,0.556,1.877,0.627,2.293,2.507 c0.416,1.879,2.159,3.272,2.917,3.827c0.764,0.556,1.321,0.836,1.251,1.742c-0.07,0.906,0.771,0.417,1.256-0.208 c0.487-0.625,3.196,0.208,4.657,0.208c1.453,0,1.181-1.045,1.181-1.948c0-0.905,0.069-1.671,0.974-3.062 c0.903-1.393,1.389-0.35,2.362,0.35c0.974,0.695,1.596-0.489,2.433-0.904c0.833-0.42,0.133,1.671,1.037,1.88 c0.902,0.206,2.432-1.814,2.715-2.786c0.278-0.975,2.497-3.622,4.028-4.523c0.315-0.188,0.471-0.181,0.512-0.051l0.354-0.039 c-0.185,0.041-0.301,0.059-0.301,0.059l-0.044,0.131c-0.095,0.727-1.456,2.799-2.122,3.306c-0.903,0.696-0.065,0.975,0.556,1.742 c0.625,0.767,0.208,2.16,0.139,3.134c-0.069,0.973,0.487,3.341,1.25,5.153c0.77,1.81,0.556,10.302,0.556,11.277 c0,0.975,1.112,3.547,1.598,5.427c0.484,1.882-0.483,2.573-0.135,4.313c0.348,1.744,0.903,2.995,0,4.318 c-0.902,1.325-1.32,3.759-1.32,4.939c0,1.184-0.417,3.969-1.112,5.644c-0.694,1.669,0.557,5.151,0.903,5.987 c0.348,0.834-0.626,1.529-2.78,1.043c-2.153-0.488-1.736,0.066-2.569,0.556c-0.84,0.489-2.647-0.769-4.726-0.694 c-2.083,0.07-3.195,1.109-4.377,1.109c-1.181,0-4.86,1.396-6.323,3.343c-1.459,1.949-3.681,2.991-5.211,3.548 c-1.529,0.561-2.432,1.815-2.432,3.063c0,1.253-0.834,2.16-2.084,3.342c-1.257,1.186-2.085,3.549-2.085,4.939 c0,1.394,0.416,3.272-0.277,4.599c-0.696,1.326-0.696,3.344-1.113,4.87c-0.416,1.527,1.39,0.77,2.434,0.623 c1.043-0.137,1.527,1.181,2.497,3.479c0.973,2.299,1.743,2.437,3.06,2.992c1.319,0.557,0.972,2.784,0.972,2.784 s1.042,3.136,1.946,4.454c0.902,1.321,2.291-0.421,3.057-1.396c0.765-0.976,1.599-2.363,3.752-2.363 c2.154,0,4.585,3.339,4.864,4.729c0.278,1.396,0.903,3.762,1.869,4.181c0.974,0.417,3.132-2.298,4.378-3.272 c1.25-0.972,2.362-0.068,2.5,1.324c0.132,1.392,0.765,1.949,1.737,2.787c0.973,0.836,1.595,0.623,1.875,1.601 c0.279,0.974,0.626,1.252,1.947,0.901c1.32-0.352,0.903,0.351,1.736,1.111c0.396,0.357,1.018,0.506,1.644,0.551l-0.002,0.003 l0.07,0.008c0.01,0,0.018,0.002,0.022,0.002l0,0l0.171,0.015c0.604,0.023,1.174-0.019,1.495-0.019c0.694,0,1.25,2.924,1.454,3.83 c0.209,0.905-1.596,0.488-2.57,0.694c-0.973,0.205-2.224,1.257-3.473,1.257c-1.253,0-2.084,0.623-2.084,1.881 c0,1.253-0.973,1.319-2.502,1.253c-1.521-0.066-3.196,1.324-3.613,2.229c-0.416,0.908-0.277,2.573,0.486,3.83 c0.764,1.259-0.347,1.813-0.486,3.203c-0.14,1.393-0.833,1.393-2.573,0.978c-1.742-0.422-2.293,0.903-2.57,3.271 c-0.278,2.367,1.042,3.204,1.528,4.523c0.486,1.325,1.944,3.062,2.708,3.206c0.765,0.135,1.184,0.349,2.153,1.668 c0.974,1.328,0.696,4.944,0.974,6.339c0.282,1.391,0.282,2.852,1.528,3.76c1.251,0.904,1.043,1.459-0.765,1.81 c-1.808,0.354-0.972,4.454-0.555,5.503c0.416,1.037,2.083,1.741,2.847,1.741c0.765,0,3.887,3.896,5.276,5.153 c1.389,1.255,1.876,2.365,1.945,3.76c0.069,1.392,0,2.298,0.417,3.477c0.417,1.187,0.625,2.019,0.625,3.136 c0,1.114,0,1.813,0.486,2.574c0.486,0.767-0.281,2.435-0.556,4.938c-0.281,2.502,1.806,1.527,2.5,2.718 c0.696,1.183,0.418,7.588,0.207,8.354c-0.207,0.768,3.472,0.134,5.28,0.349c1.807,0.205,2.498,2.924,3.473,3.41 c0.975,0.488,5.211-2.991,7.783-4.802c2.572-1.813,6.739-2.924,8.201-3.55c1.461-0.623,2.917-2.438,2.984-3.761 c0.071-1.324,1.327-4.938,2.434-6.398c1.11-1.462,1.671-1.949,4.584-2.021c1.62-0.04,3.448,0.631,4.863,1.405 c-0.039,0.042-0.06,0.063-0.06,0.063l0.613,0.253c0.87,0.533,1.515,1.084,1.746,1.476c0.625,1.042,1.809,1.324,1.809,1.324 s1.458-0.553,1.458,0.625c0,1.182,1.043,1.323,1.669,1.042c0.622-0.282,0.972,0.838,2.085,2.016 c1.108,1.184-1.738,5.426-2.431,6.062c-0.696,0.622-3.616,4.802-4.587,4.597c-0.971-0.206-2.571,0.065-2.78,0.838 c-0.206,0.769-1.25,2.573-2.847,3.624c-1.595,1.042-1.389,1.391-1.321,2.92c0.07,1.531-0.623,2.994-1.108,4.317 c-0.483,1.325,1.392,3.134,2.986,3.896c1.594,0.77,2.225-0.066,3.197-0.77c0.972-0.694,3.06,2.231,4.036,2.504 c0.968,0.281,2.01-0.489,2.156-1.812c0.138-1.323,2.085-2.159,3.475-2.924c1.384-0.769,3.682-2.16,4.649-3.134 c0.973-0.975,0.771-1.11,1.671-1.044c0.903,0.068,1.807,0.137,2.917-0.207c1.106-0.349,3.751-1.671,3.544-2.717 c-0.205-1.045-0.205-2.23,0.904-3.409c1.109-1.188-0.207-1.88-2.084-2.574c-1.875-0.693-0.973-1.745,0.349-2.923 c1.321-1.182,1.107-3.135,2.985-4.315c0.817-0.516,1.813-0.714,2.797-0.741h0.432c0,0,0.001-0.031,0.008-0.08l0.229,0.049 c1.107,0.019,1.965,0.255,2.72,0.433c1.53,0.352,0.837,2.084,0.837,3.829c0,1.74,0.351,2.297,2.011,2.646 c1.672,0.354,1.944-1.811,3.128-1.945c1.186-0.138,0.906,0.694,1.67,1.812c0.766,1.108,1.877-1.107,2.781-1.107 s0.557,2.228,0.419,3.76c-0.14,1.531,1.038,2.159,2.222,2.784c1.184,0.626,0.557,3.967,1.043,5.154 c0.486,1.183,1.391,0.841,2.78,0.975c1.388,0.136,1.039,1.948,0.552,2.788c-0.482,0.838,0.069,1.391,0.695,1.391 c0.625,0,1.322,0.137,2.361,1.109c1.043,0.975,1.598,0.905,2.646,0.068c1.039-0.838,2.157-0.907,3.752-0.976 c1.596-0.067,1.25,0.906,1.738,2.992c0.486,2.085,2.916,0.622,5.273-0.069c2.362-0.693,2.78,0,5.629,0.904 c2.849,0.907,4.86-0.766,6.814-1.322c1.943-0.557,6.045,1.531,9.173,3.621c3.128,2.086,0.138,5.015,1.319,6.195 c1.186,1.184,4.169,2.234,4.793,1.043c0.62-1.181,1.254-0.904,4.102-0.768c2.846,0.136,2.014-1.813,2.014-3.479 c0-1.671,0.768-0.487,2.779-0.487c2.008,0,4.237,0.418,4.52-0.695c0.279-1.11,0.348-1.11,2.429-1.325 c2.084-0.205,1.942-1.879,1.942-3.136c0-1.261,3.617-4.18,4.449-5.573c0.836-1.394,1.736-2.569,3.404-1.671 c1.668,0.905,3.751-2.719,6.25-4.869c2.499-2.162,0.207-4.038,0.696-6.479c0.487-2.437,4.101-3.764,5.202-4.178 c1.113-0.423,1.812-2.854,1.599-3.829c-0.209-0.976,0.554-2.229,1.945-2.229c1.389,0,1.321-1.533,1.595-3.829 c0.282-2.301-0.551-4.038-1.521-5.156c-0.975-1.105,0.063-2.716,0.836-4.109c0.766-1.393-0.905-1.393-2.014-1.812 c-0.097-0.039-0.383-0.128-0.43-0.177c0.083-0.096,0.143-0.155,0.143-0.155l0.834-1.032c0.711-0.616,1.765-1.326,2.646-1.972 c1.808-1.325,0.694-1.396-0.281-1.671c-0.967-0.282-2.082-2.854-2.013-4.178c0.072-1.323,1.597-3.761,3.337-4.872 c1.735-1.11,3.194,0.905,5.69,1.948c2.5,1.044,2.849,1.044,3.752,0.07c0.904-0.976,1.108-0.488,2.227,0.62 c1.105,1.11,3.129,0.837,5.208,1.324c2.084,0.487,3.133-0.905,3.133-3.204c0-2.3,1.871-1.528,3.96-2.3 c2.086-0.77,2.016,1.186,4.17,0.419c2.16-0.769,0.77-1.881-1.32-3.136c-2.082-1.259-1.875-6.683-1.875-7.94 c0-1.256-1.672-0.694-3.613-0.206c-1.945,0.489-2.085-1.461-2.085-3.062c0-1.595,0.207-1.523,0.067-2.851 c-0.137-1.327,2.014-0.838,3.402-1.112c1.391-0.279,2.985-3.059,4.239-4.384c1.25-1.324,2.008-0.768,2.496,1.461 c0.487,2.232,1.457,0.837,3.614-1.182c2.16-2.017,0.695-4.666,0.554-6.059c-0.136-1.392,1.672-0.971,2.432-1.043 c0.769-0.067,1.671-0.554,3.062-3.409c1.389-2.853,0-2.989-0.066-4.313c-0.066-1.327,1.035-7.242,2.155-8.355 c1.108-1.108,1.459-1.256,1.459-3.137c0-1.877,0.834-2.716,0.973-3.547c0.134-0.841-0.282-2.505-1.391-2.505 c-1.109,0-3.062-0.559-4.586-1.6c-1.527-1.044-3.062-1.046-3.55-0.768s-1.596,0.278-2.571-0.624 c-0.974-0.907-1.597-0.769-2.646-0.488c-1.039,0.279-1.106-0.353-2.008-1.183c-0.906-0.839-1.113-1.672-0.695-2.506 c0.414-0.835,0.481-2.717,0.138-3.896c-0.351-1.184-1.526-0.977-1.878,0.485c-0.348,1.463-1.254,1.045-3.059,1.604 c-1.809,0.554-3.818-1.463-6.463-2.439c-2.644-0.975-4.586,2.854-5.004,3.55c-0.417,0.694-7.297,1.524-9.936,0.767 c-2.639-0.77-3.678-0.416-5.904,0.559s-3.268-0.696-5.141-2.436c-1.875-1.744-2.984-1.881-3.332-2.785 c-0.065-0.17-0.127-0.213-0.096-0.443l-0.121-0.154c0.08,0.004,0.131,0.006,0.131,0.006l0.056-0.142 c0.217-0.999,1.399-2.413,4.269-3.442c3.683-1.326,4.858-4.664,5.42-6.89c0.556-2.229-0.484-5.848-0.694-8.007 c-0.206-2.159-0.067-2.503-0.622-3.206c-0.553-0.696-1.04-0.972-3.061,0.976c-2.011,1.946-1.32,0.068-1.32-1.183 c0-1.259,0.352-1.528-1.318-2.019c-1.67-0.487-1.043,0.353-2.158,1.949c-1.107,1.598-4.236,0.28-5.01-0.422 c-0.764-0.693-0.279-2.158,1.744-3.548c2.009-1.392-1.04-1.741-2.432-3.204c-1.389-1.461-1.67-0.77-4.03-0.066 c-2.365,0.695-3.267-0.625-3.55-2.162c-0.031-0.18-0.061-0.369-0.092-0.563l-0.242-1.03l-0.01-0.771 c-0.146-0.846-0.371-1.594-0.847-1.956c-0.901-0.694-2.571-1.601-3.815-3.201c-1.257-1.6-0.973-1.185-2.16-1.259 c-1.182-0.068-2.643-1.252-2.571-2.366c0.063-1.11,0.063-3.134,1.737-4.036c1.67-0.904,0.35-2.019-0.623-3.341 c-0.041-0.06-0.064-0.114-0.09-0.175l0.047-0.488l0.02-0.016c0.665-1.492,5.107-3.842,5.993-4.612 c1.044-0.905,1.11-3.206,1.327-4.11c0.203-0.904,1.318-1.672,3.326-1.672c2.015,0,2.5-0.279,4.237-0.834 c1.744-0.557,1.876-0.77,2.779-2.301c0.903-1.529,0-4.176,0.139-5.011c0.14-0.834,1.39-0.418,1.946-1.045 c0.553-0.625,0.418-2.645,0.279-3.133c-0.133-0.488,0.486-1.113-0.62-1.602c-1.111-0.487-0.206-3.898-0.07-5.152 c0.136-1.255,0.07-1.322-1.041-0.972c-1.104,0.348-2.983-0.071-4.446-0.35c-1.461-0.281-0.557-1.672-0.14-2.718 c0.419-1.047,0-2.228-1.25-3.06c-1.259-0.839-1.392-1.744-0.556-2.3c0.832-0.556,4.031-0.068,4.935,0.281 c0.904,0.348,2.229-0.556,2.71-1.114c0.488-0.556,1.045-1.111,1.875,0.209c0.84,1.32,1.393-0.209,2.363-0.557 c0.972-0.348,1.6,2.018,2.429,1.392c0.839-0.626,2.919,0.209,3.892,0.209s1.67,0.068,1.875,0.835 c0.209,0.766,0.418,1.252,1.254,0.766c0.836-0.487,1.738,0.282,2.848,2.233c1.107,1.947,1.669,1.321,3.886,1.108 c2.228-0.207,2.161,1.672,3.128,3.968c0.975,2.296,1.108-0.768,2.646-1.602c1.53-0.835,2.157-2.297,2.294-4.383 c0.135-2.087,0.971-1.88,3.058-2.995c2.087-1.113,0.771-4.316,0.21-5.012c-0.555-0.694-0.35-2.436-0.35-4.108 c0-1.67-0.902-5.569-1.389-8.076c-0.486-2.505-2.293-1.256-3.616-1.043c-1.324,0.207-4.448-3.482-5.493-4.387 c-1.038-0.903-1.182,0.07-1.391-2.158c-0.205-2.23-0.069-0.837-1.522-1.67c-1.457-0.836-3.962,0.695-4.521,0.695 c-0.551,0-1.183,0.418-1.875-0.977c-0.693-1.392-0.553-1.043-1.808-0.694c-1.254,0.351-2.911,5.848-3.062,7.102 c-0.135,1.255-1.459,1.461-2.848,1.113c-1.389-0.348-1.806-0.14-1.25,1.253c0.547,1.394-0.07,2.575,0.277,4.179 c0.35,1.599-0.277,2.503-1.107,3.343c-0.836,0.835-3.129,0.835-4.234-0.557c-1.11-1.393-1.389-1.114-2.083-0.418 c-0.695,0.694-2.497,1.044-3.474,1.255c-0.972,0.208-5.283,0-6.883-0.906c-1.595-0.905-2.082,0.696-2.984,1.67 c-0.901,0.976-2.361-0.769-2.984-2.716c-0.621-1.949-0.904-1.183-2.57-1.112c-1.672,0.068-1.393-1.53-1.393-3.76 c0-2.228-0.621-2.085-1.945-2.299c-1.318-0.204-1.318-0.693-1.252-3.548c0.068-2.853,1.038-1.879,2.985-2.925 c1.944-1.042,0.903-1.531-1.106-1.742c-2.016-0.206-2.084-1.6-2.503-3.828c-0.414-2.229-0.901-3.341-1.25-4.596 c-0.352-1.254,0.069-1.74,0.349-2.786c0.281-1.044-0.693-2.504-0.904-3.619c-0.207-1.113-0.766-2.089-1.389-2.786 c-0.623-0.694-1.524,1.811-1.739,2.852c-0.206,1.045-2.646,1.671-4.587,2.648c-1.051,0.528-1.45,0.77-1.707,0.705l-0.096-0.059 l-0.36-0.462c-0.058-0.094-0.121-0.207-0.196-0.325c-0.695-1.11-1.258-1.043-2.429-1.46c-1.187-0.417-1.187-1.044-1.187-2.297 c0-1.252-1.67-1.809-2.229-2.923c-0.553-1.111-0.414-1.95,0.976-3.132c1.39-1.183,1.04-1.95,0.484-3.692 c-0.007-0.023-0.021-0.05-0.021-0.073l-0.119-0.244l0.154-0.237c-0.314-1.482,1.295-1.068,2.348-1.462 c1.104-0.417,1.252-2.297,0.767-4.316c-0.485-2.02,0.554-2.159,1.256-4.11c0.695-1.949,3.267-1.183,4.236-0.488 c0.973,0.697,0.026-6.262,0.026-7.188c0-0.928-0.809-2.086-0.115-2.319c0.695-0.233,1.619-1.217,2.541-2.957 c0.926-1.739,0.408-3.07,0.289-4.521c-0.113-1.45,0.92-0.174,2.026-1.332c1.101-1.158-2.198-0.694-3.704-1.218 c-1.502-0.521-1.97-1.449-2.775-1.391c-0.809,0.058-3.698,1.507-5.148,1.45c-1.445-0.059-2.142,0.403-2.834,1.217 c-0.695,0.812-1.102,0.871-2.145,0.174c-1.033-0.695-2.422,0.058-3.696,0.058c-1.276,0-3.36,0.058-4.687,0.347 c-1.336,0.288-1.562,0.233-2.724-0.289c-1.151-0.521-1.218-0.754-0.517-1.449c0.693-0.694,0.517-1.798,0.517-3.13 c0-1.333,0.326-3.473,0.756-5.59c0.425-2.121-0.481-1.454-1.819-1.212c-1.332,0.245-1.576,0.18-1.633-1.271 c-0.062-1.454-0.431-1.454-1.453-1.696c-1.033-0.244-0.847-1.332-0.908-3.21c-0.061-1.877-0.361-1.575-1.451-2.544 c-1.092-0.965-1.818-0.604-2.848,1.09c-1.03,1.696-2.356,0.426-2.838-1.45c-0.483-1.876-0.305-1.574-1.572-2.482 c-1.271-0.911-4.002,1.45-5.631,1.816c-1.635,0.363-2.983-2.656-3.367-3.831c-0.393-1.174-4.968,0.506-8.204,0.784 c-3.243,0.282-4.3-0.952-5.804-2.685c-1.507-1.733-3.238-3.02-5.802-4.415c-2.57-1.401-0.889-1.791,0.777-3.746 c1.676-1.958-1.506-2.069-2.791-2.46s-1.732-3.299-2.009-5.985c-0.279-2.685-0.695-2.82-1.108-4.248 c-0.407-1.425-3.361-0.815-5.137,0c-1.784,0.815-4.325-2.192-6.103-4.535c-1.783-2.345-2.693-1.784-5.088-1.784 c-2.391,0-5.06-2.199-6.695-3.172c-1.634-0.968-3.451-1.693-4.541-3.268c-1.09-1.575-2.968-4.904-5.089-5.875 c-2.119-0.966-1.878,1.03-3.997,1.878c-2.121,0.845-3.09,1.393-4.361,2.784c-1.27,1.394-1.633,1.333-3.448,0.606 c-1.821-0.728-1.034,2.3-1.034,2.3s-0.3,0.931,0.018,1.639c0.309,0.705-0.801,1.326-1.724,2.296 c-0.929,0.973,1.59,5.479,2.696,6.673c1.106,1.19,2.383,2.827,5.257,3.756c2.873,0.925,3.916,3.412,3.96,5.017 c0.058,1.607,1.09,0.157,3.999,0.056c2.906-0.104,4.975-1.193,6.432-1.453c1.447-0.258,1.709,1.919,1.447,2.648 c-0.257,0.726-0.673,1.763-0.415,3.578c0.257,1.815-0.258,2.955-1.033,3.681c-0.776,0.726-0.518,3.733,0.83,4.925 c1.105,0.977,2.172,2.874,2.871,4.559l0.201,0.768l0.334,0.733c0.018,0.062,0.043,0.123,0.056,0.177 c0.471,1.399,1.034,1.607,1.762,1.762c0.728,0.157-0.102,2.125,0.416,4.253c0.516,2.125-2.178,1.556-3.525,1.348 c-1.348-0.208-2.334,0-3.472,1.244c-1.146,1.246-3.167,1.503-4.563,1.142c-1.401-0.362-1.607,2.281-1.56,3.472 c0.02,0.513-0.792,1.097-1.808,1.622l-0.029,0.079 M287.367,373.433c0.252-0.307,0.477-0.551,0.617-0.704L287.367,373.433z"></path></g><g id="图层"><path id="安徽省01" fill="none" stroke="#CD2D1F" stroke-width="0.25" stroke-miterlimit="10" d="M136.306,114.826 l-0.283-0.292c-1.313,0.657-2.894,1.218-3.435,1.413c-0.99,0.363-2.438,0.363-2.953,1.246c-0.519,0.881-1.867,1.658-3.527,1.658 c-1.659,0-2.126,0.52-3.89,0.986c-1.764,0.467-6.949-5.238-6.949-7.363c0-2.124-0.357-3.472-0.357-5.133 c0-1.66-2.022-0.62-3.168-0.779c-1.141-0.153-0.984-1.45-0.571-2.694c0.414-1.244,0.208-1.661-0.311-3.472 c-0.517-1.816-1.608-1.192-2.541-1.192c-0.933,0-2.022-0.467-3.007-1.503c-0.984-1.035-0.779-0.414-2.075,0.52 c-1.296,0.934-3.006-3.267-3.991-4.045c-0.992-0.775-3.63-0.155-5.607,0.054c-1.97,0.207-3.059,1.035-3.364,1.66 c-0.315,0.621-1.918,1.294-2.955,1.711c-1.037,0.413-2.282,9.282-2.488,10.371c-0.208,1.09,3.364,0,4.252-0.155 c0.88-0.156,0.26,2.022-0.208,4.977c-0.467,2.956-2.275,1.919-3.317,2.384c-1.042,0.468,0.934,3.112,1.502,3.995 c0.57,0.88,0.26,2.539,0.157,3.941c-0.105,1.4,0.933,3.111,1.504,4.511c0.341,0.842,0.093,0.971,0.007,1.345l0.057,0.346 c-0.046-0.184-0.071-0.296-0.071-0.296l-0.233,0.015c-0.261,0.067-0.526,0.046-1.108,0.046c-1.659,0-2.12,0.156-3.112,0.934 c-0.985,0.777-3.885,1.192-4.713,0.883c-0.829-0.31-2.178-0.57-3.681-0.518c-1.503,0.054-1.296,1.606-1.406,3.009 c-0.097,1.401-2.178,0.053-2.902,0.414c-0.726,0.361-0.157,2.954-0.881,3.629c-0.732,0.673-0.884,1.4-1.147,3.42 c-0.26,2.023,0.518,3.581,1.816,4.825c1.296,1.246-0.206,3.422-0.513,4.254c-0.316,0.828-0.57,3.576-1.452,4.301 c-0.881,0.727-1.504,4.2-2.126,5.499c-0.619,1.295-0.358,1.658-2.646,1.558c-2.281-0.102-3.94,1.557-4.926,2.538 c-0.985,0.986-3.837,0.831-7.363,0.416c-3.525-0.417-4.718-2.955-5.346-4.975c-0.619-2.022-2.229,0.467-3.104,2.384 c-0.883,1.917,0.05,4.719,1.088,6.532c1.032,1.817-0.835,2.852-1.712,3.527c-0.877,0.673,0.727,1.711,1.453,2.332 c0.726,0.622,2.645,0.571,5.082,0.622c2.438,0.053,1.535,0.844,1.606,1.865c0.073,1.022,2.66,1.095,4.919,1.095 c2.259,0,1.604,0.695,1.821,2.009c0.218,1.313,1.276,1.167,2.262,1.204c0.985,0.038,0.876,0.183,0.543,1.788 c-0.327,1.604-0.073,1.459,0.365,2.226c0.43,0.77-0.329,0.985-0.771,1.57c-0.43,0.581,0.255,1.351-0.543,2.846 c-0.808,1.495-0.489,3.572-0.266,4.467c0.224,0.893-0.415,1.116,0.575,1.055c0.989-0.064,1.341,0.254,1.469,1.022 c0.131,0.768-0.544,0.639-1.245,0.671c-0.704,0.031-0.257,0.99-0.065,1.372c0.192,0.381,0.166,0.828-0.352,1.145 c-0.512,0.32-0.319,0.606,0.192,0.509c0.512-0.095,0.127,0.321,1.213,0.702c1.085,0.385,3.385,0.799,4.086,0.255 c0.703-0.544,1.218,0.892,1.246,1.755c0.033,0.863,1.564,0.732,2.047,0.093c0.479-0.637,2.396-0.093,3.161-0.287 c0.768-0.191,1.266,0.333,1.406,1.1c0.137,0.769,2.083,1.461,2.916,2.018c0.835,0.556,1.877,0.627,2.293,2.507 c0.416,1.879,2.159,3.272,2.917,3.827c0.764,0.556,1.321,0.836,1.251,1.742c-0.07,0.906,0.771,0.417,1.256-0.208 c0.487-0.625,3.196,0.208,4.657,0.208c1.453,0,1.181-1.045,1.181-1.948c0-0.905,0.069-1.671,0.974-3.062 c0.903-1.393,1.389-0.35,2.362,0.35c0.974,0.695,1.596-0.489,2.433-0.904c0.833-0.42,0.133,1.671,1.037,1.88 c0.902,0.206,2.432-1.814,2.715-2.786c0.278-0.975,2.497-3.622,4.028-4.523c0.315-0.188,0.471-0.181,0.512-0.051l0.354-0.039 c-0.185,0.041-0.301,0.059-0.301,0.059l-0.044,0.131c-0.095,0.727-1.456,2.799-2.122,3.306c-0.903,0.696-0.065,0.975,0.556,1.742 c0.625,0.767,0.208,2.16,0.139,3.134c-0.069,0.973,0.487,3.341,1.25,5.153c0.77,1.81,0.556,10.302,0.556,11.277 c0,0.975,1.112,3.547,1.598,5.427c0.484,1.882-0.483,2.573-0.135,4.313c0.348,1.744,0.903,2.995,0,4.318 c-0.902,1.325-1.32,3.759-1.32,4.939c0,1.184-0.417,3.969-1.112,5.644c-0.694,1.669,0.557,5.151,0.903,5.987 c0.348,0.834-0.626,1.529-2.78,1.043c-2.153-0.488-1.736,0.066-2.569,0.556c-0.84,0.489-2.647-0.769-4.726-0.694 c-2.083,0.07-3.195,1.109-4.377,1.109c-1.181,0-4.86,1.396-6.323,3.343c-1.459,1.949-3.681,2.991-5.211,3.548 c-1.529,0.561-2.432,1.815-2.432,3.063c0,1.253-0.834,2.16-2.084,3.342c-1.257,1.186-2.085,3.549-2.085,4.939 c0,1.394,0.416,3.272-0.277,4.599c-0.696,1.326-0.696,3.344-1.113,4.87c-0.416,1.527,1.39,0.77,2.434,0.623 c1.043-0.137,1.527,1.181,2.497,3.479c0.973,2.299,1.743,2.437,3.06,2.992c1.319,0.557,0.972,2.784,0.972,2.784 s1.042,3.136,1.946,4.454c0.902,1.321,2.291-0.421,3.057-1.396c0.765-0.976,1.599-2.363,3.752-2.363 c2.154,0,4.585,3.339,4.864,4.729c0.278,1.396,0.903,3.762,1.869,4.181c0.974,0.417,3.132-2.298,4.378-3.272 c1.25-0.972,2.362-0.068,2.5,1.324c0.132,1.392,0.765,1.949,1.737,2.787c0.973,0.836,1.595,0.623,1.875,1.601 c0.279,0.974,0.626,1.252,1.947,0.901c1.32-0.352,0.903,0.351,1.736,1.111c0.396,0.357,1.018,0.506,1.644,0.551l-0.002,0.003 l0.07,0.008c0.01,0,0.018,0.002,0.022,0.002l0,0l0.171,0.015c0.604,0.023,1.174-0.019,1.495-0.019c0.694,0,1.25,2.924,1.454,3.83 c0.209,0.905-1.596,0.488-2.57,0.694c-0.973,0.205-2.224,1.257-3.473,1.257c-1.253,0-2.084,0.623-2.084,1.881 c0,1.253-0.973,1.319-2.502,1.253c-1.521-0.066-3.196,1.324-3.613,2.229c-0.416,0.908-0.277,2.573,0.486,3.83 c0.764,1.259-0.347,1.813-0.486,3.203c-0.14,1.393-0.833,1.393-2.573,0.978c-1.742-0.422-2.293,0.903-2.57,3.271 c-0.278,2.367,1.042,3.204,1.528,4.523c0.486,1.325,1.944,3.062,2.708,3.206c0.765,0.135,1.184,0.349,2.153,1.668 c0.974,1.328,0.696,4.944,0.974,6.339c0.282,1.391,0.282,2.852,1.528,3.76c1.251,0.904,1.043,1.459-0.765,1.81 c-1.808,0.354-0.972,4.454-0.555,5.503c0.416,1.037,2.083,1.741,2.847,1.741c0.765,0,3.887,3.896,5.276,5.153 c1.389,1.255,1.876,2.365,1.945,3.76c0.069,1.392,0,2.298,0.417,3.477c0.417,1.187,0.625,2.019,0.625,3.136 c0,1.114,0,1.813,0.486,2.574c0.486,0.767-0.281,2.435-0.556,4.938c-0.281,2.502,1.806,1.527,2.5,2.718 c0.696,1.183,0.418,7.588,0.207,8.354c-0.207,0.768,3.472,0.134,5.28,0.349c1.807,0.205,2.498,2.924,3.473,3.41 c0.975,0.488,5.211-2.991,7.783-4.802c2.572-1.813,6.739-2.924,8.201-3.55c1.461-0.623,2.917-2.438,2.984-3.761 c0.071-1.324,1.327-4.938,2.434-6.398c1.11-1.462,1.671-1.949,4.584-2.021c1.62-0.04,3.448,0.631,4.863,1.405 c-0.039,0.042-0.06,0.063-0.06,0.063l0.613,0.253c0.87,0.533,1.515,1.084,1.746,1.476c0.625,1.042,1.809,1.324,1.809,1.324 s1.458-0.553,1.458,0.625c0,1.182,1.043,1.323,1.669,1.042c0.622-0.282,0.972,0.838,2.085,2.016 c1.108,1.184-1.738,5.426-2.431,6.062c-0.696,0.622-3.616,4.802-4.587,4.597c-0.971-0.206-2.571,0.065-2.78,0.838 c-0.206,0.769-1.25,2.573-2.847,3.624c-1.595,1.042-1.389,1.391-1.321,2.92c0.07,1.531-0.623,2.994-1.108,4.317 c-0.483,1.325,1.392,3.134,2.986,3.896c1.594,0.77,2.225-0.066,3.197-0.77c0.972-0.694,3.06,2.231,4.036,2.504 c0.968,0.281,2.01-0.489,2.156-1.812c0.138-1.323,2.085-2.159,3.475-2.924c1.384-0.769,3.682-2.16,4.649-3.134 c0.973-0.975,0.771-1.11,1.671-1.044c0.903,0.068,1.807,0.137,2.917-0.207c1.106-0.349,3.751-1.671,3.544-2.717 c-0.205-1.045-0.205-2.23,0.904-3.409c1.109-1.188-0.207-1.88-2.084-2.574c-1.875-0.693-0.973-1.745,0.349-2.923 c1.321-1.182,1.107-3.135,2.985-4.315c0.817-0.516,1.813-0.714,2.797-0.741h0.432c0,0,0.001-0.031,0.008-0.08l0.229,0.049 c1.107,0.019,1.965,0.255,2.72,0.433c1.53,0.352,0.837,2.084,0.837,3.829c0,1.74,0.351,2.297,2.011,2.646 c1.672,0.354,1.944-1.811,3.128-1.945c1.186-0.138,0.906,0.694,1.67,1.812c0.766,1.108,1.877-1.107,2.781-1.107 s0.557,2.228,0.419,3.76c-0.14,1.531,1.038,2.159,2.222,2.784c1.184,0.626,0.557,3.967,1.043,5.154 c0.486,1.183,1.391,0.841,2.78,0.975c1.388,0.136,1.039,1.948,0.552,2.788c-0.482,0.838,0.069,1.391,0.695,1.391 c0.625,0,1.322,0.137,2.361,1.109c1.043,0.975,1.598,0.905,2.646,0.068c1.039-0.838,2.157-0.907,3.752-0.976 c1.596-0.067,1.25,0.906,1.738,2.992c0.486,2.085,2.916,0.622,5.273-0.069c2.362-0.693,2.78,0,5.629,0.904 c2.849,0.907,4.86-0.766,6.814-1.322c1.943-0.557,6.045,1.531,9.173,3.621c3.128,2.086,0.138,5.015,1.319,6.195 c1.186,1.184,4.169,2.234,4.793,1.043c0.62-1.181,1.254-0.904,4.102-0.768c2.846,0.136,2.014-1.813,2.014-3.479 c0-1.671,0.768-0.487,2.779-0.487c2.008,0,4.237,0.418,4.52-0.695c0.279-1.11,0.348-1.11,2.429-1.325 c2.084-0.205,1.942-1.879,1.942-3.136c0-1.261,3.617-4.18,4.449-5.573c0.836-1.394,1.736-2.569,3.404-1.671 c1.668,0.905,3.751-2.719,6.25-4.869c2.499-2.162,0.207-4.038,0.696-6.479c0.487-2.437,4.101-3.764,5.202-4.178 c1.113-0.423,1.812-2.854,1.599-3.829c-0.209-0.976,0.554-2.229,1.945-2.229c1.389,0,1.321-1.533,1.595-3.829 c0.282-2.301-0.551-4.038-1.521-5.156c-0.975-1.105,0.063-2.716,0.836-4.109c0.766-1.393-0.905-1.393-2.014-1.812 c-0.097-0.039-0.383-0.128-0.43-0.177c0.083-0.096,0.143-0.155,0.143-0.155l0.834-1.032c0.711-0.616,1.765-1.326,2.646-1.972 c1.808-1.325,0.694-1.396-0.281-1.671c-0.967-0.282-2.082-2.854-2.013-4.178c0.072-1.323,1.597-3.761,3.337-4.872 c1.735-1.11,3.194,0.905,5.69,1.948c2.5,1.044,2.849,1.044,3.752,0.07c0.904-0.976,1.108-0.488,2.227,0.62 c1.105,1.11,3.129,0.837,5.208,1.324c2.084,0.487,3.133-0.905,3.133-3.204c0-2.3,1.871-1.528,3.96-2.3 c2.086-0.77,2.016,1.186,4.17,0.419c2.16-0.769,0.77-1.881-1.32-3.136c-2.082-1.259-1.875-6.683-1.875-7.94 c0-1.256-1.672-0.694-3.613-0.206c-1.945,0.489-2.085-1.461-2.085-3.062c0-1.595,0.207-1.523,0.067-2.851 c-0.137-1.327,2.014-0.838,3.402-1.112c1.391-0.279,2.985-3.059,4.239-4.384c1.25-1.324,2.008-0.768,2.496,1.461 c0.487,2.232,1.457,0.837,3.614-1.182c2.16-2.017,0.695-4.666,0.554-6.059c-0.136-1.392,1.672-0.971,2.432-1.043 c0.769-0.067,1.671-0.554,3.062-3.409c1.389-2.853,0-2.989-0.066-4.313c-0.066-1.327,1.035-7.242,2.155-8.355 c1.108-1.108,1.459-1.256,1.459-3.137c0-1.877,0.834-2.716,0.973-3.547c0.134-0.841-0.282-2.505-1.391-2.505 c-1.109,0-3.062-0.559-4.586-1.6c-1.527-1.044-3.062-1.046-3.55-0.768s-1.596,0.278-2.571-0.624 c-0.974-0.907-1.597-0.769-2.646-0.488c-1.039,0.279-1.106-0.353-2.008-1.183c-0.906-0.839-1.113-1.672-0.695-2.506 c0.414-0.835,0.481-2.717,0.138-3.896c-0.351-1.184-1.526-0.977-1.878,0.485c-0.348,1.463-1.254,1.045-3.059,1.604 c-1.809,0.554-3.818-1.463-6.463-2.439c-2.644-0.975-4.586,2.854-5.004,3.55c-0.417,0.694-7.297,1.524-9.936,0.767 c-2.639-0.77-3.678-0.416-5.904,0.559s-3.268-0.696-5.141-2.436c-1.875-1.744-2.984-1.881-3.332-2.785 c-0.065-0.17-0.127-0.213-0.096-0.443l-0.121-0.154c0.08,0.004,0.131,0.006,0.131,0.006l0.056-0.142 c0.217-0.999,1.399-2.413,4.269-3.442c3.683-1.326,4.858-4.664,5.42-6.89c0.556-2.229-0.484-5.848-0.694-8.007 c-0.206-2.159-0.067-2.503-0.622-3.206c-0.553-0.696-1.04-0.972-3.061,0.976c-2.011,1.946-1.32,0.068-1.32-1.183 c0-1.259,0.352-1.528-1.318-2.019c-1.67-0.487-1.043,0.353-2.158,1.949c-1.107,1.598-4.236,0.28-5.01-0.422 c-0.764-0.693-0.279-2.158,1.744-3.548c2.009-1.392-1.04-1.741-2.432-3.204c-1.389-1.461-1.67-0.77-4.03-0.066 c-2.365,0.695-3.267-0.625-3.55-2.162c-0.031-0.18-0.061-0.369-0.092-0.563l-0.242-1.03l-0.01-0.771 c-0.146-0.846-0.371-1.594-0.847-1.956c-0.901-0.694-2.571-1.601-3.815-3.201c-1.257-1.6-0.973-1.185-2.16-1.259 c-1.182-0.068-2.643-1.252-2.571-2.366c0.063-1.11,0.063-3.134,1.737-4.036c1.67-0.904,0.35-2.019-0.623-3.341 c-0.041-0.06-0.064-0.114-0.09-0.175l0.047-0.488l0.02-0.016c0.665-1.492,5.107-3.842,5.993-4.612 c1.044-0.905,1.11-3.206,1.327-4.11c0.203-0.904,1.318-1.672,3.326-1.672c2.015,0,2.5-0.279,4.237-0.834 c1.744-0.557,1.876-0.77,2.779-2.301c0.903-1.529,0-4.176,0.139-5.011c0.14-0.834,1.39-0.418,1.946-1.045 c0.553-0.625,0.418-2.645,0.279-3.133c-0.133-0.488,0.486-1.113-0.62-1.602c-1.111-0.487-0.206-3.898-0.07-5.152 c0.136-1.255,0.07-1.322-1.041-0.972c-1.104,0.348-2.983-0.071-4.446-0.35c-1.461-0.281-0.557-1.672-0.14-2.718 c0.419-1.047,0-2.228-1.25-3.06c-1.259-0.839-1.392-1.744-0.556-2.3c0.832-0.556,4.031-0.068,4.935,0.281 c0.904,0.348,2.229-0.556,2.71-1.114c0.488-0.556,1.045-1.111,1.875,0.209c0.84,1.32,1.393-0.209,2.363-0.557 c0.972-0.348,1.6,2.018,2.429,1.392c0.839-0.626,2.919,0.209,3.892,0.209s1.67,0.068,1.875,0.835 c0.209,0.766,0.418,1.252,1.254,0.766c0.836-0.487,1.738,0.282,2.848,2.233c1.107,1.947,1.669,1.321,3.886,1.108 c2.228-0.207,2.161,1.672,3.128,3.968c0.975,2.296,1.108-0.768,2.646-1.602c1.53-0.835,2.157-2.297,2.294-4.383 c0.135-2.087,0.971-1.88,3.058-2.995c2.087-1.113,0.771-4.316,0.21-5.012c-0.555-0.694-0.35-2.436-0.35-4.108 c0-1.67-0.902-5.569-1.389-8.076c-0.486-2.505-2.293-1.256-3.616-1.043c-1.324,0.207-4.448-3.482-5.493-4.387 c-1.038-0.903-1.182,0.07-1.391-2.158c-0.205-2.23-0.069-0.837-1.522-1.67c-1.457-0.836-3.962,0.695-4.521,0.695 c-0.551,0-1.183,0.418-1.875-0.977c-0.693-1.392-0.553-1.043-1.808-0.694c-1.254,0.351-2.911,5.848-3.062,7.102 c-0.135,1.255-1.459,1.461-2.848,1.113c-1.389-0.348-1.806-0.14-1.25,1.253c0.547,1.394-0.07,2.575,0.277,4.179 c0.35,1.599-0.277,2.503-1.107,3.343c-0.836,0.835-3.129,0.835-4.234-0.557c-1.11-1.393-1.389-1.114-2.083-0.418 c-0.695,0.694-2.497,1.044-3.474,1.255c-0.972,0.208-5.283,0-6.883-0.906c-1.595-0.905-2.082,0.696-2.984,1.67 c-0.901,0.976-2.361-0.769-2.984-2.716c-0.621-1.949-0.904-1.183-2.57-1.112c-1.672,0.068-1.393-1.53-1.393-3.76 c0-2.228-0.621-2.085-1.945-2.299c-1.318-0.204-1.318-0.693-1.252-3.548c0.068-2.853,1.038-1.879,2.985-2.925 c1.944-1.042,0.903-1.531-1.106-1.742c-2.016-0.206-2.084-1.6-2.503-3.828c-0.414-2.229-0.901-3.341-1.25-4.596 c-0.352-1.254,0.069-1.74,0.349-2.786c0.281-1.044-0.693-2.504-0.904-3.619c-0.207-1.113-0.766-2.089-1.389-2.786 c-0.623-0.694-1.524,1.811-1.739,2.852c-0.206,1.045-2.646,1.671-4.587,2.648c-1.051,0.528-1.45,0.77-1.707,0.705l-0.096-0.059 l-0.36-0.462c-0.058-0.094-0.121-0.207-0.196-0.325c-0.695-1.11-1.258-1.043-2.429-1.46c-1.187-0.417-1.187-1.044-1.187-2.297 c0-1.252-1.67-1.809-2.229-2.923c-0.553-1.111-0.414-1.95,0.976-3.132c1.39-1.183,1.04-1.95,0.484-3.692 c-0.007-0.023-0.021-0.05-0.021-0.073l-0.119-0.244l0.154-0.237c-0.314-1.482,1.295-1.068,2.348-1.462 c1.104-0.417,1.252-2.297,0.767-4.316c-0.485-2.02,0.554-2.159,1.256-4.11c0.695-1.949,3.267-1.183,4.236-0.488 c0.973,0.697,0.026-6.262,0.026-7.188c0-0.928-0.809-2.086-0.115-2.319c0.695-0.233,1.619-1.217,2.541-2.957 c0.926-1.739,0.408-3.07,0.289-4.521c-0.113-1.45,0.92-0.174,2.026-1.332c1.101-1.158-2.198-0.694-3.704-1.218 c-1.502-0.521-1.97-1.449-2.775-1.391c-0.809,0.058-3.698,1.507-5.148,1.45c-1.445-0.059-2.142,0.403-2.834,1.217 c-0.695,0.812-1.102,0.871-2.145,0.174c-1.033-0.695-2.422,0.058-3.696,0.058c-1.276,0-3.36,0.058-4.687,0.347 c-1.336,0.288-1.562,0.233-2.724-0.289c-1.151-0.521-1.218-0.754-0.517-1.449c0.693-0.694,0.517-1.798,0.517-3.13 c0-1.333,0.326-3.473,0.756-5.59c0.425-2.121-0.481-1.454-1.819-1.212c-1.332,0.245-1.576,0.18-1.633-1.271 c-0.062-1.454-0.431-1.454-1.453-1.696c-1.033-0.244-0.847-1.332-0.908-3.21c-0.061-1.877-0.361-1.575-1.451-2.544 c-1.092-0.965-1.818-0.604-2.848,1.09c-1.03,1.696-2.356,0.426-2.838-1.45c-0.483-1.876-0.305-1.574-1.572-2.482 c-1.271-0.911-4.002,1.45-5.631,1.816c-1.635,0.363-2.983-2.656-3.367-3.831c-0.393-1.174-4.968,0.506-8.204,0.784 c-3.243,0.282-4.3-0.952-5.804-2.685c-1.507-1.733-3.238-3.02-5.802-4.415c-2.57-1.401-0.889-1.791,0.777-3.746 c1.676-1.958-1.506-2.069-2.791-2.46s-1.732-3.299-2.009-5.985c-0.279-2.685-0.695-2.82-1.108-4.248 c-0.407-1.425-3.361-0.815-5.137,0c-1.784,0.815-4.325-2.192-6.103-4.535c-1.783-2.345-2.693-1.784-5.088-1.784 c-2.391,0-5.06-2.199-6.695-3.172c-1.634-0.968-3.451-1.693-4.541-3.268c-1.09-1.575-2.968-4.904-5.089-5.875 c-2.119-0.966-1.878,1.03-3.997,1.878c-2.121,0.845-3.09,1.393-4.361,2.784c-1.27,1.394-1.633,1.333-3.448,0.606 c-1.821-0.728-1.034,2.3-1.034,2.3s-0.3,0.931,0.018,1.639c0.309,0.705-0.801,1.326-1.724,2.296 c-0.929,0.973,1.59,5.479,2.696,6.673c1.106,1.19,2.383,2.827,5.257,3.756c2.873,0.925,3.916,3.412,3.96,5.017 c0.058,1.607,1.09,0.157,3.999,0.056c2.906-0.104,4.975-1.193,6.432-1.453c1.447-0.258,1.709,1.919,1.447,2.648 c-0.257,0.726-0.673,1.763-0.415,3.578c0.257,1.815-0.258,2.955-1.033,3.681c-0.776,0.726-0.518,3.733,0.83,4.925 c1.105,0.977,2.172,2.874,2.871,4.559l0.201,0.768l0.334,0.733c0.018,0.062,0.043,0.123,0.056,0.177 c0.471,1.399,1.034,1.607,1.762,1.762c0.728,0.157-0.102,2.125,0.416,4.253c0.516,2.125-2.178,1.556-3.525,1.348 c-1.348-0.208-2.334,0-3.472,1.244c-1.146,1.246-3.167,1.503-4.563,1.142c-1.401-0.362-1.607,2.281-1.56,3.472 c0.02,0.513-0.792,1.097-1.808,1.622l-0.029,0.079 M287.367,373.433c0.252-0.307,0.477-0.551,0.617-0.704L287.367,373.433z"></path><path id="mapid-292400-outline" fill="none" stroke="#CD2D1F" stroke-width="0.25" stroke-miterlimit="10" d="M88.73,128.961 c0.093-0.373,0.335-0.504-0.007-1.344c-0.572-1.402-1.608-3.111-1.504-4.511c0.104-1.4,0.415-3.061-0.156-3.941 c-0.57-0.882-2.542-3.526-1.502-3.995c1.037-0.468,2.851,0.572,3.317-2.381c0.47-2.958,1.089-5.134,0.208-4.979 c-0.882,0.156-4.459,1.245-4.252,0.156c0.206-1.091,1.446-9.956,2.488-10.371c1.037-0.417,2.644-1.089,2.955-1.711 c0.311-0.621,1.4-1.452,3.365-1.661c1.972-0.206,4.615-0.83,5.606-0.053c0.985,0.778,2.688,4.977,3.992,4.044 c1.295-0.934,1.089-1.557,2.075-0.519c0.986,1.036,2.075,1.503,3.007,1.503c0.935,0,2.022-0.621,2.541,1.193 c0.52,1.814,0.727,2.231,0.311,3.472c-0.414,1.245-0.57,2.54,0.572,2.695c1.144,0.158,3.167-0.882,3.167,0.777 s0.357,3.007,0.357,5.132c0,2.126,5.185,7.83,6.949,7.362c1.764-0.465,2.235-0.984,3.89-0.984c1.655,0,3.007-0.778,3.527-1.659 c0.518-0.882,1.971-0.882,2.953-1.247c0.541-0.199,2.12-0.754,3.435-1.412l0.283,0.292c0,0,0.776,1.539,2.113,2.313 c1.331,0.775,2.104,0.997,2.159,2.938c0.056,1.939,0.056,4.878,0.885,6.209c0.832,1.332,1.107,2.271,1.107,3.825 s0.616,2.827,0.664,4.713c0.057,1.886-0.5,4.044,1.717,3.324c2.219-0.721,5.099-0.775,6.099-0.61 c0.998,0.168,3.325,0.226,4.152,1.314c0.828,1.087,2.382,1.503,3.467,2.075c1.085,0.57,2.385,1.296,2.173,3.109 c-0.208,1.814-1.679,4.6-0.958,6.261l-0.362,1.432c0.056,0.476,0.188,1.009,0.464,1.534c0.696,1.333,2.169,4.619,0.696,5.668 c-1.468,1.051-3.079,0.98-3.567,2.798c-0.491,1.821-1.597,6.371-0.071,6.788c1.521,0.416,2.632,1.456,1.597,2.358 c-1.035,0.901-2.081,0.278-2.565,1.25c-0.486,0.972-1.537,3.198-1.537,3.198l-0.052,0.495c-1.395-0.381-3.248-0.312-4.268-0.653 c-1.419-0.473-2.446,0.946-3.548,1.262c-1.108,0.318-2.761,0-4.108-1.342c-1.34-1.341-4.894-2.369-7.182-2.526 c-2.289-0.159-0.948,2.606-0.948,4.657c0,0.282-0.054,0.541-0.14,0.77l-0.226,0.396c-0.826,1.106-2.98,1.439-5.79,1.439 c-3.63,0-4.42-2.051-5.209-4.499c-0.79-2.447-2.841-2.92-4.105-3.396c-1.263-0.471-6.63-1.262-4.03-2.21 c2.611-0.947,0-4.024-2.047-5.05c-2.052-1.023-6.478-1.895-8.445-1.971c-1.974-0.079-3.946-2.762-5.764-4.498 c-1.815-1.737-0.63-2.447,0.632-3.473c1.262-1.026,0.078-2.684,0.078-4.104c0-1.422,1.691-0.572,2.74,0.205 c1.047,0.775,2.234,2.328,2.686-0.456c0.456-2.783-0.69-3.481-0.508-6.386c0.18-2.905-0.491-1.521-1.162-2.547 c-0.669-1.029-0.804-2.415-1.922-2.459c-1.117-0.045-3.398-1.833-4.022-2.639c-0.626-0.807-2.37-1.746-4.789-1.608 c-2.415,0.131-3.633-5.425-3.633-5.425L88.73,128.961z"></path><path id="mapid-291800-outline" fill="none" stroke="#CD2D1F" stroke-width="0.25" stroke-miterlimit="10" d="M231.375,147.944 c0,0-6.096-0.351-6.721,0.629c-0.625,0.979-1.049,2.31-2.658,2.52c-1.607,0.21-2.796,0.21-3.219,0.981 c-0.42,0.77-1.047,1.607-1.607,0.627c-0.561-0.979-1.258-0.979-1.891-0.979s-1.893-1.259-2.239-2.239 c-0.351-0.98,0.284-1.748-1.96-1.68c-2.238,0.071-3.43,0.63-6.298-0.069c-2.869-0.7-4.898-0.7-5.949-2.52 c-1.049-1.82-2.237-4.899-2.59-5.878c-0.356-0.979-1.05-0.698-1.608-0.77c-0.561-0.07-2.8-1.188-3.639-2.1 c-0.842-0.91-0.56-1.048-2.729-0.91c-2.165,0.137-1.674,0.91-1.82,1.749c-0.141,0.84-0.979,2.449-2.1,2.94 c-1.118,0.491-2.238,0.771-3.217,0.629c-0.982-0.137-1.471-0.35-1.609,0.769c-0.134,1.12-0.207,2.729-1.471,2.451 c-1.257-0.281-2.235-0.839-2.725,0.7c-0.491,1.539,1.115,1.048,0.352,2.099c-0.769,1.049,0,1.469,0.63,2.098 c0.627,0.628,2.233,2.099,0,2.311c-2.239,0.209-5.18-0.21-7.565-0.913c-0.205-0.059-0.411-0.112-0.603-0.153l-0.577-0.115 c0,0-2.129-1.019-0.873-2.232c1.258-1.213,0.144-1.893,1.21-2.864c1.068-0.969,2.469-3.493,1.357-4.413 c-1.109-0.92-3.68-3.782-2.567-6.355c1.109-2.571,1.745-3.103,0.339-3.637c-1.409-0.536-2.91-1.554-2.91-3.349 c0-1.794-0.194-3.783,1.111-3.928c1.306-0.143,2.808,0.245,2.808-1.26c0-1.504-0.968-2.328,0.049-3.588 c1.018-1.26,0.534-3.929,0.534-4.708c0-0.774-0.389-4.705,0.822-6.063c1.211-1.357,2.423-5.917,1.597-6.696 c-0.822-0.774-0.877-1.26-0.877-1.989c0-0.728-0.34-1.164-1.018-1.599c-0.678-0.435-1.107-0.873-0.822-1.6 c0.29-0.728,0.394-0.874-0.625-0.874c-1.016,0-1.5-0.292-1.935-0.919c-0.431-0.63-0.729-0.97-1.646-0.291 c-0.919,0.679-3.34,1.939-3.773,3.153c-0.434,1.213,0.625,1.649-2.468,1.698c-3.1,0.047-9.347,0.095-9.347,0.095l-0.205-0.754 c-0.696-1.682-1.767-3.581-2.874-4.557c-1.348-1.193-1.606-4.2-0.831-4.927c0.778-0.728,1.295-1.864,1.036-3.681 c-0.257-1.815,0.158-2.851,0.416-3.578c0.258-0.727,0-2.905-1.451-2.648c-1.451,0.258-3.525,1.348-6.428,1.45 c-2.911,0.102-3.942,1.556-4-0.054c-0.052-1.607-1.092-4.092-3.959-5.02c-2.874-0.927-4.152-2.564-5.259-3.757 c-1.107-1.192-3.625-5.699-2.695-6.671c0.928-0.971,2.031-1.593,1.722-2.298c-0.308-0.707-0.01-1.637-0.01-1.637 s-0.788-3.027,1.03-2.302c1.814,0.729,2.178,0.788,3.451-0.604c1.271-1.393,2.236-1.936,4.357-2.786 c2.121-0.846,1.877-2.843,4-1.877c2.121,0.969,3.999,4.301,5.088,5.875c1.09,1.573,2.907,2.3,4.541,3.271 c1.632,0.967,4.298,3.17,6.694,3.17c2.391,0,3.308-0.56,5.088,1.784c1.781,2.344,4.325,5.352,6.101,4.536 c1.784-0.813,4.73-1.427,5.137,0c0.407,1.426,0.828,1.561,1.107,4.248c0.281,2.685,0.729,5.592,2.009,5.985 c1.283,0.393,4.465,0.506,2.791,2.461c-1.67,1.958-3.348,2.345-0.775,3.745c2.568,1.398,4.297,2.683,5.799,4.416 c1.508,1.733,2.571,2.964,5.805,2.686c3.236-0.28,7.813-1.958,8.204-0.782c0.396,1.174,1.735,4.192,3.367,3.83 c1.633-0.363,4.356-2.722,5.629-1.818c1.271,0.909,1.089,0.607,1.575,2.482c0.481,1.875,1.814,3.146,2.844,1.451 c1.029-1.694,1.748-2.058,2.841-1.09c1.087,0.969,1.392,0.667,1.449,2.544c0.058,1.878-0.121,2.967,0.912,3.21 c1.03,0.243,1.389,0.243,1.448,1.695c0.057,1.451,0.304,1.516,1.634,1.271c1.335-0.245,2.237-0.908,1.821,1.212 c-0.433,2.12-0.752,4.259-0.752,5.591s0.168,2.433-0.521,3.131c-0.697,0.695-0.637,0.927,0.521,1.448 c1.151,0.521,1.387,0.581,2.721,0.289s3.414-0.347,4.685-0.347c1.272,0,2.662-0.754,3.7-0.057c1.04,0.694,1.447,0.638,2.145-0.173 c0.693-0.811,1.387-1.274,2.836-1.22c1.441,0.059,4.336-1.392,5.146-1.447c0.81-0.057,1.272,0.871,2.776,1.393 c1.506,0.521,4.805,0.057,3.699,1.216c-1.1,1.16-2.139-0.115-2.022,1.333c0.116,1.447,0.638,2.783-0.288,4.522 c-0.92,1.741-1.854,2.725-2.543,2.957c-0.694,0.232,0.117,1.39,0.117,2.317c0,0.926,0.947,7.891-0.026,7.19 c-0.972-0.693-3.549-1.461-4.237,0.489c-0.695,1.948-1.736,2.087-1.254,4.109c0.485,2.017,0.352,3.897-0.769,4.314 c-1.06,0.396-2.662-0.018-2.345,1.463L231.375,147.944z"></path><path id="mapid-291900-outline" fill="none" stroke="#CD2D1F" stroke-width="0.25" stroke-miterlimit="10" d="M181.746,192.834 c-1.117,1.551-0.422,2.872,0.047,4.04c0.123,0.302,0.179,0.424,0.357,0.763l0.178,0.352c0.504,0.963,1.041,1.986,1.041,3.07 c0,1.499,1.107,2.208,0.631,3.945c-0.473,1.737-0.318,5.684,2.368,6.079c2.684,0.394,4.185-1.028,5.127-0.161 c0.95,0.87,1.579,0.633,2.45,0.161c0.867-0.472,1.337-0.08,0.236,2.05c-1.107,2.131-1.582,3.549,0.079,3.473 c1.656-0.079,3.787-0.471,3.945,1.5c0.165,1.972-0.313,4.42-2.124,5.05c-1.818,0.632-0.875,1.262,0.625,2.288 c1.499,1.027,5.129,5.052,7.342,3.789c2.207-1.26,3.077-2.131,3.626-2.92c0.548-0.789,1.66-0.396,3.075-0.789 c1.422-0.396,1.26-1.026,4.032-0.396c2.76,0.634,3.235,0.318,4.26,1.422c1.03,1.106,2.368,1.106,2.368,1.106 s1.972-1.344,2.919-0.161c0.948,1.187,1.343,4.578,0.552,6.867c-0.788,2.288,1.026,4.737-1.343,6.396 c-1.106,0.772-1.351,1.504-1.468,2.057l-0.192,0.752c0,0,3.063,3.121,3.063,4.078c0,0.963,1.056,1.152,2.06,1.152 c1.006,0,2.253,0.479,3.592,1.821c1.343,1.345,4.507,3.886,5.705,3.651c1.196-0.244,2.64-1.299,3.31-2.114 c0.668-0.814,0.912-1.729,1.969-1.729c1.055,0,1.594,0.84,4.482-1.291c2.877-2.123,6.805-4.535,7.893-6.097 c1.086-1.56,2.381-2.59,2.381-2.59l0.518-0.433c0.67-1.492,5.111-3.84,6-4.613c1.041-0.904,1.106-3.201,1.321-4.108 c0.21-0.901,1.319-1.668,3.331-1.668c2.014,0,2.501-0.28,4.239-0.837c1.737-0.555,1.876-0.766,2.78-2.296 c0.902-1.533,0-4.177,0.137-5.013c0.134-0.838,1.39-0.419,1.941-1.042c0.553-0.627,0.418-2.648,0.281-3.138 c-0.139-0.486,0.487-1.11-0.627-1.597c-1.105-0.489-0.203-3.897-0.064-5.153c0.137-1.256,0.064-1.324-1.037-0.973 c-1.11,0.35-2.985-0.067-4.45-0.351c-1.459-0.278-0.556-1.671-0.134-2.715c0.416-1.044,0-2.229-1.256-3.063 c-1.252-0.834-1.392-1.739-0.556-2.296c0.837-0.557,4.037-0.069,4.938,0.28c0.902,0.348,2.224-0.557,2.711-1.112 c0.486-0.557,1.041-1.114,1.875,0.206c0.835,1.325,1.391-0.206,2.363-0.555c0.972-0.35,1.595,2.016,2.429,1.392 c0.836-0.626,2.915,0.208,3.887,0.208s1.67,0.068,1.876,0.836c0.206,0.767,0.416,1.253,1.257,0.767 c0.835-0.487,1.738,0.281,2.845,2.228c1.109,1.948,1.672,1.324,3.89,1.112c2.223-0.206,2.157,1.67,3.127,3.967 c0.972,2.299,1.11-0.768,2.642-1.6c1.531-0.834,2.161-2.295,2.295-4.386c0.135-2.087,0.971-1.878,3.06-2.992 c2.085-1.112,0.769-4.316,0.206-5.013c-0.549-0.694-0.35-2.437-0.35-4.109c0-1.67-0.904-5.57-1.388-8.075 c-0.487-2.503-2.296-1.254-3.614-1.042c-1.322,0.207-4.453-3.482-5.492-4.386c-1.041-0.905-1.184,0.07-1.39-2.158 c-0.207-2.229-0.069-0.838-1.526-1.671c-1.459-0.836-3.961,0.695-4.519,0.695c-0.556,0-1.183,0.417-1.875-0.976 c-0.694-1.393-0.556-1.044-1.808-0.696c-1.258,0.348-2.918,5.847-3.061,7.1c-0.135,1.255-1.455,1.462-2.844,1.112 c-1.391-0.351-1.813-0.138-1.259,1.254c0.558,1.391-0.065,2.575,0.282,4.178c0.351,1.6-0.282,2.503-1.109,3.34 c-0.834,0.835-3.13,0.835-4.237-0.556c-1.106-1.392-1.39-1.113-2.084-0.418c-0.694,0.694-2.5,1.044-3.474,1.256 c-0.975,0.207-5.274,0-6.879-0.907c-1.598-0.906-2.084,0.694-2.985,1.67c-0.905,0.975-2.358-0.768-2.983-2.715 c-0.623-1.951-0.903-1.184-2.572-1.114c-1.672,0.068-1.391-1.529-1.391-3.76c0-2.227-0.621-2.086-1.94-2.297 c-1.321-0.208-1.321-0.694-1.261-3.549c0.07-2.854,1.043-1.88,2.985-2.923c1.947-1.042,0.904-1.53-1.108-1.742 c-2.01-0.207-2.082-1.599-2.496-3.829c-0.416-2.227-0.902-3.34-1.26-4.595c-0.348-1.253,0.07-1.741,0.356-2.785 c0.276-1.044-0.694-2.505-0.905-3.621c-0.207-1.114-0.771-2.088-1.39-2.784c-0.625-0.697-1.526,1.809-1.743,2.854 c-0.204,1.044-2.643,1.671-4.586,2.646c-1.054,0.527-1.455,0.769-1.709,0.703l-0.094-0.057c0,0-1.145,2.131-1.313,3.225 c-0.168,1.093-1.369,2.13-0.875,2.732c0.49,0.602,0.706,0.819,0.49,2.079c-0.217,1.256-2.021-0.438-3.281-0.601 c-1.258-0.167-2.191,1.858-4.043,2.404c-1.859,0.546-1.42-2.022-1.479-2.679c-0.058-0.658-4.146,0.195-5.534-0.437 c-1.389-0.632-1.745,0.989-2.73,1.899c-0.992,0.912-2.687,1.305-2.933,3.761c-0.237,2.456-2.815,2.705-4.612,2.649 c-1.801-0.056-3.873-2.347-4.688-3.387c-0.816-1.038-2.568,1.859-3.323,5.135c-0.764,3.277-4.854,4.206-6.544,5.188 c-1.689,0.984-5.456-0.657-7.039-0.982c-1.582-0.329-1.964,3.821-2.611,5.298c-0.659,1.476-3.925,2.837-3.925,2.837 L181.746,192.834"></path><path id="mapid-290400-outline" fill="none" stroke="#CD2D1F" stroke-width="0.25" stroke-miterlimit="10" d="M133.982,178.533 c0,0,1.412-0.041,1.012,1.015c-0.402,1.052-0.97,2.393,0.041,2.271c1.012-0.124,1.582-0.206,1.939,0.892 c0.364,1.097,0.77,2.185,0.509,3.904c-0.265,1.718-0.396,4.433-0.331,5.69c0.066,1.257,0.395,2.118,2.647,2.647 c2.245,0.529,2.647,1.06,3.308,3.174c0.657,2.119,0.838,3.368,2.111,3.368c1.273,0,2.778,0.057,2.487,2.494l1.933-0.313 c1.312-0.157,2.833-1.071,2.985-1.485c0.175-0.464,3.341-2.384,3.341-3.852c0-1.469-0.583-1.879,0.292-2.292 c0.881-0.409,1.229,0.176,1.583,1.059c0.357,0.881,1.296,2.348,1.822,4.169c0.375,1.295,1.67,2.535,3.106,2.797l0.77,0.044 c0.331-0.022,0.662-0.106,0.986-0.259c1.994-0.941,3.399-1.059,4.045-2.349c0.645-1.293,0.938-1.878,3.398-1.82 c2.46,0.059,5.703,0.991,7.68,0.192c1.971-0.798,2.683-1.896,2.683-1.896l-0.08-0.15c-0.171-0.339-0.335-0.661-0.46-0.962 c-0.47-1.17-1.165-2.491-0.047-4.039l0.251-1.321c-0.421-1.06-2.234-1.931-3.84-2.215c-2.21-0.395-2.29,2.683-3.157,1.815 c-0.869-0.868-2.76-3.235-4.261-3.473c-1.5-0.239-10.655-8.364-11.444-9.391c-0.714-0.926-2.01-0.63-3.122-1.438l-1.686-0.989 c-1.395-0.382-3.248-0.312-4.268-0.652c-1.42-0.473-2.448,0.946-3.548,1.26c-1.108,0.317-2.763,0-4.109-1.342 c-1.338-1.341-4.896-2.368-7.185-2.525c-2.29-0.159-0.947,2.607-0.947,4.656c0,0.282-0.055,0.542-0.142,0.77l-0.289,0.479"></path><path id="mapid-291700-outline" fill="none" stroke="#CD2D1F" stroke-width="0.25" stroke-miterlimit="10" d="M103.975,202.163 c-0.042-0.131-0.198-0.136-0.506,0.051c-1.529,0.903-3.752,3.547-4.03,4.521c-0.281,0.976-1.813,2.995-2.715,2.788 c-0.902-0.206-0.207-2.298-1.036-1.879c-0.839,0.417-1.459,1.599-2.432,0.905c-0.974-0.697-1.461-1.742-2.364-0.352 c-0.903,1.393-0.972,2.16-0.972,3.061c0,0.906,0.279,1.949-1.182,1.949c-1.461,0-4.168-0.835-4.656-0.206 c-0.486,0.624-1.327,1.114-1.257,0.206c0.069-0.905-0.487-1.181-1.25-1.739c-0.764-0.557-2.502-1.948-2.919-3.831 c-0.415-1.877-1.458-1.947-2.291-2.504c-0.834-0.557-2.779-1.256-2.919-2.018c-0.132-0.767-0.638-1.291-1.403-1.099 c-0.767,0.189-2.682-0.354-3.162,0.285c-0.478,0.638-2.012,0.77-2.046-0.095c-0.027-0.863-0.542-2.297-1.245-1.755 c-0.703,0.545-3.001,0.129-4.087-0.256c-1.086-0.383-0.696-0.798-1.213-0.698c-0.512,0.092-0.702-0.192-0.191-0.511 c0.505-0.319,0.541-0.768,0.35-1.148c-0.192-0.381-0.638-1.339,0.064-1.371c0.703-0.029,1.37,0.093,1.245-0.667 c-0.127-0.769-0.479-1.088-1.469-1.025c-0.99,0.062-0.351-0.16-0.574-1.055c-0.224-0.894-0.542-2.97,0.266-4.466 c0.803-1.497,0.109-2.266,0.543-2.847c0.438-0.582,1.202-0.804,0.77-1.567c-0.438-0.768-0.696-0.621-0.365-2.231 c0.329-1.602,0.438-1.747-0.546-1.785c-0.983-0.037-2.039,0.109-2.258-1.204c-0.221-1.313,0.437-2.01-1.821-2.01 c-2.258,0-4.845-0.073-4.92-1.096c-0.073-1.022,0.831-1.813-1.607-1.864c-2.436-0.052-4.354,0-5.081-0.621 c-0.732-0.62-2.337-1.658-1.452-2.333c0.882-0.672,2.748-1.709,1.711-3.526c-1.037-1.814-1.971-4.614-1.089-6.532 c0.882-1.918,2.489-4.41,3.105-2.384c0.623,2.023,1.82,4.563,5.346,4.977c3.526,0.413,6.378,0.569,7.363-0.414 c0.985-0.986,2.645-2.647,4.926-2.539c2.281,0.102,2.021-0.26,2.644-1.558c0.623-1.296,1.25-4.77,2.127-5.498 c0.882-0.729,1.14-3.472,1.451-4.303c0.311-0.83,1.815-3.006,0.512-4.252c-1.294-1.245-2.074-2.798-1.814-4.825 c0.26-2.021,0.414-2.748,1.146-3.423c0.725-0.673,0.155-3.266,0.881-3.627c0.726-0.364,2.801,0.984,2.903-0.417 c0.104-1.4-0.097-2.954,1.406-3.008c1.505-0.051,2.853,0.207,3.681,0.519c0.829,0.311,3.733-0.105,4.713-0.882 c0.99-0.777,1.452-0.934,3.112-0.934c0.583,0,0.844,0.021,1.107-0.046l0.232-0.015c0,0,1.295,5.856,3.712,5.723 c2.412-0.133,4.15,0.806,4.783,1.607c0.624,0.808,2.91,2.595,4.022,2.64c1.117,0.043,1.258,1.429,1.924,2.458 c0.669,1.029,1.339-0.357,1.161,2.549c-0.172,2.907,0.961,3.603,0.508,6.385c-0.456,2.783-1.641,1.232-2.688,0.457 c-1.042-0.773-2.74-1.625-2.74-0.205s1.185,3.077-0.08,4.105c-1.256,1.028-2.445,1.736-0.626,3.472 c1.816,1.738,3.784,4.417,5.762,4.499c1.972,0.08,6.393,0.946,8.446,1.972c2.053,1.025,4.657,4.104,2.053,5.05 c-2.61,0.947,2.76,1.736,4.024,2.208c1.259,0.475,3.315,0.947,4.105,3.396c0.791,2.45,1.578,4.5,5.209,4.5 c2.814,0,4.963-0.332,5.789-1.438l0.563,0.146c0,0,0.875,0.246,0.363,1.014c-0.626,0.94-0.973,2.392,0.041,2.271 s1.58-0.205,1.941,0.894c0.361,1.095,0.77,2.185,0.504,3.904c-0.265,1.718-0.394,4.433-0.331,5.688 c0.066,1.257,0.396,2.118,2.648,2.647c2.25,0.529,2.647,1.06,3.31,3.175c0.656,2.117,0.838,3.367,2.111,3.367 s2.961-0.202,2.673,2.234v0.172c-1.025,0.335-2.1,0.999-3.211,1.434c-1.589,0.62-2.464,2.648-2.553,3.481 c-0.095,0.838-0.958,2.012-1.446,1.696c-0.493-0.32-0.599,0.21-0.986,1.198c-0.39,0.989-1.588,0.811-2.223,0.319 c-0.634-0.494-2.685-0.21-3.351-0.531c-0.667-0.319-2.753-2.818-3.173-3.844c-0.425-1.021-2.735-1.175-3.525-1.175 c-0.79,0-1.033,1.582-1.579,2.225c-0.544,0.645-0.643,0.741-0.05,1.436c0.586,0.693-1.484,1.236-2.664,1.136 c-1.186-0.099-1.385-0.099-2.078,0.695c-0.692,0.79-0.143,1.288-1.972-0.445c-1.825-1.731-2.713-5.142-3.059-5.983 c-0.346-0.842-0.586-1.288-1.58-1.237c-0.986,0.052-2.269,0.098-2.714-1.037c-0.443-1.138-1.232-2.521-1.925-3.113 c-0.695-0.595-1.678-0.2-2.467,0.694c-0.79,0.887-3.004,1.271-3.004,1.271L103.975,202.163z"></path><path id="mapid-290800-outline" fill="none" stroke="#CD2D1F" stroke-width="0.25" stroke-miterlimit="10" d="M173.216,293.667 c-1.116,0.544-2.316,0.867-2.552,1.634c-0.32,1.029-2.763,3.235-2.763,4.657c0,1.42,0,1.656-2.128,2.76 c-2.126,1.108-4.26,1.263-4.578,1.973c-0.315,0.71-2.196,3.268-3.584,3.511c-1.396,0.245-3.362,0.49-3.692,1.228 c-0.326,0.736-2.459-0.493-4.187-0.325c-1.719,0.165-1.392-2.294-2.788-1.395c-1.393,0.901-4.262,4.836-4.92,3.774 c-0.658-1.068-0.409-2.873,0.657-3.852c1.071-0.985,1.639-6.476,0.657-6.396c-0.985,0.084-2.873,2.54-4.51,2.54 c-1.639,0-4.836-3.439-6.89-2.873c-2.048,0.573-4.675,1.636-5.741,3.85c-1.065,2.214-4.918,5.904-5.651,4.595 c-0.738-1.311-0.409-3.607-3.286-3.523c-2.869,0.084-2.947-0.169-4.019,1.558c-1.066,1.722-2.253,3.726-2.253,3.726l-0.393,0.678 l0.269,0.018c0.604,0.021,1.176-0.018,1.495-0.018c0.694,0,1.251,2.919,1.459,3.826c0.206,0.905-1.597,0.488-2.572,0.694 c-0.973,0.206-2.222,1.258-3.472,1.258c-1.257,0-2.085,0.621-2.085,1.877s-0.973,1.325-2.497,1.256 c-1.528-0.066-3.202,1.326-3.618,2.232c-0.416,0.905-0.277,2.571,0.487,3.829c0.771,1.257-0.346,1.811-0.487,3.204 c-0.134,1.391-0.834,1.391-2.571,0.977c-1.737-0.421-2.291,0.903-2.571,3.271c-0.277,2.364,1.043,3.201,1.529,4.523 s1.944,3.061,2.708,3.205c0.771,0.136,1.185,0.351,2.16,1.669c0.972,1.327,0.694,4.942,0.972,6.335 c0.279,1.392,0.279,2.854,1.523,3.761c1.255,0.903,1.042,1.462-0.765,1.81c-1.805,0.354-0.973,4.454-0.556,5.502 c0.416,1.041,2.084,1.739,2.849,1.739s3.885,3.897,5.278,5.156c1.39,1.256,1.874,2.365,1.942,3.757 c0.069,1.393,0,2.301,0.417,3.479c0.423,1.185,0.626,2.018,0.626,3.135c0,1.114,0,1.814,0.486,2.573 c0.488,0.766-0.277,2.436-0.555,4.939c-0.278,2.502,1.806,1.528,2.502,2.717c0.694,1.184,0.417,7.587,0.205,8.354 c-0.205,0.77,3.475,0.136,5.281,0.35c1.807,0.207,2.5,2.924,3.472,3.411c0.969,0.488,5.209-2.991,7.786-4.802 c2.57-1.814,6.738-2.925,8.198-3.55c1.459-0.624,2.917-2.436,2.985-3.761c0.065-1.323,1.32-4.937,2.427-6.397 c1.109-1.461,1.67-1.949,4.588-2.021c1.677-0.041,3.589,0.686,5.029,1.501l0.471-0.503c0,0,4.207-4.508,5.247-5.771 c1.035-1.259,2.527-5.649,3.643-6.987c1.108-1.335,3.046-4.012,2.453-5.726c-0.593-1.707-1.559-2.827-1.11-4.311 c0.442-1.48-0.593-2.975,0.74-3.938c1.335-0.964,6.026-6.025,9.816-4.902c3.79,1.113,6.617,3.491,8.47,0.298 c1.859-3.197,1.859-5.878,1.411-7.359c-0.448-1.483-0.521-4.088,0.888-4.237c1.411-0.148,4.978-3.271,6.769-3.197 c1.781,0.075,5.048,1.711,6.317,0.964c1.263-0.738,2.456-3.489,4.013-4.756c1.557-1.261,8.691-1.707,10.557-4.013 c0.484-0.602,0.873-1.277,1.182-1.991l0.063-0.152c0.82-1.985,1.037-4.191,0.988-5.586c-0.047-1.137-0.194-2.587-0.233-3.826 l-0.004-0.729c0,0-0.169-0.51-0.976-0.395c-0.807,0.117-2.195,0.52-3.117,0.924c-0.92,0.402-0.92,0.23-1.444-0.752 c-0.521-0.986-2.72-0.464-4.39,0.116c-1.672,0.58-2.537-1.91-3.75-2.724c-1.219-0.807-2.023,0.117-2.836,1.104 c-0.809,0.981-3.754,0.806-4.674,0.981c-0.921,0.174-1.789,0-2.654-0.92c-0.867-0.922-1.502-0.518-3.172,0.055 c-1.673,0.582-1.735-0.055-2.539-1.04c-0.808-0.984-4.038-3.529-4.333-4.564c-0.288-1.04-0.75-0.988-1.559-0.582 c-0.808,0.406-0.983,0.695-1.734,0.35c-0.75-0.349-0.171-2.837-0.114-4.632c0.055-1.792-0.52-1.792-1.098-3.528 c-0.584-1.736-0.809-2.721-2.084-3.528c-1.268-0.808-2.537-2.546-2.537-2.546L173.216,293.667"></path><path id="mapid-290500-outline" fill="none" stroke="#CD2D1F" stroke-width="0.25" stroke-miterlimit="10" d="M257.15,275.517 c0.591-1.877,1.182-6.307,2.074-8.895c0.89-2.602,0.221-3.566,1.262-4.456c1.037-0.89,4.681-4.534,4.681-4.534l0.241,1.031 c0.021,0.195,0.056,0.388,0.09,0.564c0.281,1.529,1.186,2.853,3.549,2.158c2.361-0.693,2.641-1.391,4.032,0.07 c1.389,1.459,4.45,1.814,2.431,3.204c-2.015,1.392-2.502,2.854-1.738,3.549c0.766,0.694,3.887,2.017,5.004,0.419 c1.108-1.597,0.488-2.434,2.156-1.949c1.672,0.489,1.326,0.77,1.326,2.014c0,1.262-0.695,3.137,1.319,1.186 c2.01-1.949,2.496-1.67,3.06-0.975c0.559,0.693,0.418,1.039,0.624,3.203c0.205,2.158,1.253,5.776,0.694,8.006 c-0.551,2.234-1.738,5.574-5.421,6.89c-2.871,1.031-4.052,2.442-4.269,3.438l-0.055,0.143c0,0-2.861-0.116-4.374,0.391 c-0.087,0.026-0.168,0.057-0.243,0.09l-0.721,0.262c-0.9,0.32-1.523,0.484-2.571-0.02c-1.37-0.66-1.886-1.682-1.886-3.213 c0-1.527,0.055-1.889-1.527-3.264c-1.578-1.376-1.672-1.176-3.812,0.411c-2.14,1.579-2.04-1.786-2.752-5.158 c-0.712-3.362-3.257-4.149-3.257-4.149L257.15,275.517"></path><path id="mapid-290200-outline" fill="none" stroke="#CD2D1F" stroke-width="0.25" stroke-miterlimit="10" d="M257.044,275.786 c0,0,2.546,0.919,3.256,4.288c0.714,3.364,0.616,6.739,2.755,5.155c2.139-1.582,2.236-1.783,3.815-0.406 c1.579,1.373,1.524,1.736,1.524,3.266c0,1.526,0.508,2.549,1.885,3.212c1.046,0.505,1.673,0.343,2.574,0.019l0.498-0.178 c0,0-0.164,2.143,0.477,2.783c0.645,0.645,0.27,1.499,1.072,2.729s4.166,3.642,3.735,4.601c-0.429,0.959-2.61,2.033-2.084,2.997 c0.534,0.961,1.708,1.976,0.208,3.636c-1.49,1.664-2.46,3.747-3.472,3.209c-1.015-0.533-2.241-1.763-3.364-0.693 c-1.115,1.068-0.316,3.478-1.923,4.071c-1.601,0.586-3.579,1.708-2.618,2.518c0.963,0.806,1.559,1.555,0.434,2.302 c-1.121,0.751-0.907,0.964-0.803,1.604c0.104,0.645-0.212,1.661,0,2.57c0.211,0.914,0.693,2.683-0.104,3.479 c-0.81,0.804-1.122,3.051-2.085,2.352c-0.956-0.695-2.193-3.055-2.457-4.282c-0.271-1.229,0.158-2.141-1.447-1.869 c-1.6,0.266-3.205,1.604-4.061,2.031c-0.854,0.431-1.926-0.27-1.926,0.807c0,1.071-0.16,1.98-1.119,2.46 c-0.961,0.48-0.213,1.288,0.479,1.767c0.695,0.48,1.973,1.766,0.32,1.557c-1.656-0.215-1.973-0.696-3.151,0.056 c-1.176,0.75-4.222,2.518-4.748,3.475c-0.536,0.962-0.269,0.962-1.868,2.2c-1.603,1.226-2.393,1.707-3.887,1.819l0.1-0.168 c0.39-0.705,0.771-1.446,1.17-2.161c1.299-2.332,1.313-4.013,0.619-4.713c-0.697-0.697-2.568-0.765-3.263-1.575 c-0.696-0.816-1.283-1.461-3.146-1.814c-1.66-0.313-1.795-1.22-1.972-2.278l-0.358-1.107c-0.06-1.051,0.115-0.815,2.502-0.695 c2.385,0.116,1.861-0.697,2.502-1.52c0.642-0.817,0.932-1.226,3.85-1.403c2.91-0.176,2.797-2.858,2.797-3.967 c0-1.106-0.057-2.217-1.691-2.217c-1.633,0-2.271-1.285-4.896-3.971c-2.62-2.684-2.967-6.794-2.967-6.794l-0.035-0.76 c0.021-0.075,0.128-0.365,0.146-0.444c0.746-2.678,0.371-2.007,3.05-4.161c2.676-2.156,5.053-3.42,5.425-4.014 c0.368-0.593,4.012-3.719,6.617-3.568c2.604,0.148,6.32,0.668,6.395-0.37c0.074-1.035-0.963-7.063-1.56-7.65 c-0.595-0.596-4.386-1.937-1.858-2.757c2.16-0.693,3.672-2.979,4.437-4.784L257.044,275.786"></path><path id="mapid-290700-outline" fill="none" stroke="#CD2D1F" stroke-width="0.25" stroke-miterlimit="10" d="M217.197,314.627 c-0.021-0.808,0.031-0.711,0.176-1.179c0.37-1.187,1.331-9.89,4.9-9.666c3.565,0.224,4.011,1.185,4.531,2.457 c0.521,1.261,1.408,2.526,3.047,2.083c1.446-0.396,3.248-1.602,4.151-3.732l0.129-0.175c0,0,0.405,4.608,3.027,7.296 c2.622,2.685,3.263,3.968,4.897,3.968c1.633,0,1.688,1.107,1.688,2.22c0,1.106,0.114,3.794-2.797,3.967 c-2.913,0.173-3.21,0.582-3.851,1.402c-0.64,0.814-0.115,1.636-2.5,1.521c-2.386-0.12-2.567-0.354-2.502,0.698l-0.021,0.098 c-0.254-0.058-0.583,0.426-0.846,0.545c-0.406,0.174-1.166-0.058-2.57-0.173c-1.4-0.116-3.436,1.222-3.73,2.339 c-0.291,1.104-2.908,1.809-4.545,3.672c-1.635,1.866-1.518-1.633-1.979-3.849c-0.471-2.219-1.635-2.827-1.635-2.827l-0.317-0.311 c0.817-1.982,1.037-4.186,0.987-5.579c-0.049-1.145-0.193-2.589-0.234-3.829L217.197,314.627z"></path><path id="mapid-292100-outline" fill="none" stroke="#CD2D1F" stroke-width="0.25" stroke-miterlimit="10" d="M273.573,291.056 c0.079-0.027,0.165-0.06,0.245-0.09c1.51-0.507,4.185-0.468,4.185-0.468l0.181,0.226c-0.027,0.233,0.021,0.278,0.096,0.442 c0.349,0.906,1.457,1.046,3.332,2.784c1.875,1.744,2.914,3.412,5.143,2.438c2.225-0.975,3.264-1.324,5.906-0.557 c2.641,0.768,9.52-0.066,9.932-0.768c0.416-0.696,2.361-4.524,5.01-3.549c2.639,0.971,4.649,2.988,6.461,2.432 c1.807-0.551,2.711-0.135,3.061-1.598c0.348-1.461,1.525-1.67,1.876-0.488c0.347,1.185,0.278,3.062-0.14,3.899 c-0.416,0.834-0.205,1.671,0.695,2.503c0.902,0.837,0.973,1.462,2.014,1.184c1.037-0.282,1.671-0.418,2.643,0.486 c0.973,0.905,2.082,0.905,2.571,0.625c0.485-0.281,2.014-0.281,3.549,0.768c1.521,1.045,3.474,1.601,4.586,1.601 c1.108,0,1.524,1.67,1.39,2.503c-0.138,0.836-0.972,1.671-0.972,3.549c0,1.88-0.351,2.018-1.455,3.136 c-1.11,1.111-2.227,7.033-2.159,8.354c0.069,1.324,1.459,1.464,0.069,4.317c-1.392,2.854-2.294,3.339-3.062,3.409 c-0.769,0.067-2.572-0.354-2.432,1.041c0.139,1.395,1.598,4.037-0.552,6.059c-2.159,2.02-3.13,3.409-3.617,1.183 c-0.487-2.229-1.253-2.784-2.498-1.462c-1.255,1.326-2.847,4.111-4.237,4.386c-1.389,0.28-3.543-0.205-3.401,1.11 c0.144,1.319-0.063,1.256-0.063,2.854c0,1.599,0.135,3.548,2.082,3.061c1.945-0.488,3.614-1.043,3.614,0.207 c0,1.253-0.205,6.682,1.876,7.937c2.083,1.261,3.475,2.37,1.321,3.136c-2.155,0.77-2.084-1.182-4.171-0.415 c-2.084,0.767-3.961,0-3.961,2.295c0,2.301-1.041,3.695-3.127,3.206c-2.084-0.487-4.106-0.204-5.211-1.325 c-1.108-1.11-1.319-1.599-2.229-0.622c-0.904,0.975-1.254,0.975-3.747-0.065c-2.499-1.042-3.961-3.06-5.696-1.947 c-1.738,1.107-3.268,3.547-3.334,4.869c-0.065,1.323,1.039,3.896,2.014,4.181c0.972,0.28,2.085,0.348,0.279,1.67 c-0.883,0.649-1.934,1.364-2.646,1.971l-0.835,1.034c0,0-1.527,1.603-1.934,2.517c-0.395,0.918-1.022,2.374-2.261,1.746 c-1.235-0.62-1.091-1.563-1.819-1.094c-0.732,0.471-2.873,2.627-3.133,3.505c-0.257,0.878-0.187,1.349-1.277,1.493 c-1.094,0.146-2.295,0.293-2.658,1.208c-0.359,0.913-1.492,1.722-2.421,1.94c-0.931,0.218-0.931,0.49-1.095,1.258 c-0.168,0.771-1.369,1.201-2.898,1.201c-1.525,0-2.949-0.321-2.792-1.857c0.17-1.527,1.262-6.667-3.226-7.979 c-4.484-1.313-9.236-1.747-9.892-4.32c-0.655-2.571-1.149-3.661-1.972-4.044c-0.813-0.384-0.604-1.97,0.107-2.513 c0.711-0.542,4.043-0.878,3.396-3.394c-0.659-2.514-0.712-4.702-1.915-4.702s-2.569-0.218-3.331-1.638 c-0.771-1.416-1.168-2.909-2.949-2.909c-1.773,0-4.734,1.146-5.617,0.088c-0.888-1.063-0.549-2.159,0.086-2.88 c0.635-0.72,0.844-3.473-1.269-3.01c-2.114,0.471-2.96,2.499-3.976,2.42c-0.653-0.057-1.594-0.354-2.5-0.634l-0.168-0.396 c0,0-0.276-2.335,0.343-4.047c0.62-1.713,1.782-1.577,3.286-2.059c0.691-0.223,1.132-0.636,1.73-1.553l0.971-1.602 c1.492-0.104,2.283-0.587,3.886-1.821c1.601-1.227,1.332-1.227,1.864-2.196c0.539-0.959,3.584-2.726,4.758-3.475 c1.174-0.75,1.486-0.27,3.147-0.058c1.66,0.21,0.372-1.07-0.319-1.555c-0.693-0.48-1.443-1.287-0.479-1.77 c0.961-0.478,1.124-1.392,1.124-2.46c0-1.067,1.071-0.373,1.927-0.805c0.85-0.431,2.455-1.767,4.063-2.036 c1.598-0.269,1.176,0.645,1.443,1.874c0.271,1.229,1.496,3.584,2.461,4.282c0.957,0.694,1.283-1.556,2.084-2.353 c0.804-0.808,0.318-2.572,0.105-3.475c-0.211-0.914,0.105-1.933,0-2.574c-0.105-0.641-0.32-0.852,0.803-1.604 c1.118-0.749,0.536-1.498-0.43-2.306c-0.959-0.804,1.016-1.926,2.611-2.518c1.601-0.583,0.807-2.994,1.929-4.065 c1.121-1.07,2.347,0.16,3.36,0.694c1.014,0.539,1.974-1.555,3.472-3.211c1.496-1.658,0.321-2.678-0.21-3.637 c-0.534-0.965,1.658-2.034,2.085-2.996c0.426-0.964-2.94-3.372-3.739-4.601c-0.803-1.229-0.428-2.084-1.068-2.729 c-0.645-0.642-0.481-2.784-0.481-2.784L273.573,291.056z"></path><path id="mapid-292300-outline" fill="none" stroke="#CD2D1F" stroke-width="0.25" stroke-miterlimit="10" d="M216.396,325.133 c-0.314,0.714-0.694,1.396-1.185,1.993c-1.858,2.31-8.989,2.752-10.555,4.015c-1.56,1.261-2.751,4.013-4.015,4.756 c-1.257,0.739-4.531-0.892-6.317-0.968c-1.784-0.071-5.351,3.054-6.764,3.199c-1.412,0.147-1.338,2.752-0.892,4.234 c0.445,1.48,0.445,4.162-1.411,7.36c-1.861,3.195-4.679,0.814-8.469-0.297c-3.791-1.11-8.472,3.937-9.818,4.902 c-1.332,0.964-0.298,2.456-0.738,3.938c-0.446,1.48,0.514,2.604,1.11,4.31c0.593,1.707-1.334,4.384-2.455,5.725 c-1.114,1.338-2.604,5.728-3.643,6.989c-1.04,1.262-5.951,6.248-5.951,6.248l0.615,0.252c0.868,0.54,1.514,1.087,1.747,1.479 c0.623,1.039,1.806,1.323,1.806,1.323s1.457-0.556,1.457,0.624c0,1.184,1.043,1.323,1.671,1.04 c0.621-0.281,0.97,0.839,2.084,2.017c1.11,1.183-1.736,5.429-2.431,6.057c-0.694,0.625-3.614,4.808-4.585,4.601 c-0.973-0.204-2.571,0.069-2.78,0.839c-0.207,0.77-1.252,2.572-2.848,3.622c-1.595,1.047-1.389,1.392-1.321,2.923 c0.069,1.527-0.62,2.99-1.107,4.313c-0.487,1.325,1.391,3.136,2.984,3.896c1.598,0.771,2.226-0.065,3.199-0.77 c0.971-0.697,3.062,2.231,4.034,2.502c0.973,0.283,2.011-0.483,2.157-1.812c0.14-1.324,2.083-2.159,3.473-2.922 c1.39-0.771,3.684-2.158,4.657-3.137c0.971-0.975,0.766-1.108,1.669-1.041c0.902,0.065,1.806,0.138,2.917-0.206 c1.106-0.353,3.751-1.67,3.547-2.722c-0.208-1.039-0.208-2.229,0.902-3.406c1.111-1.183-0.206-1.877-2.084-2.571 c-1.875-0.694-0.971-1.744,0.349-2.922c1.32-1.183,1.111-3.136,2.988-4.316c0.813-0.512,1.808-0.714,2.793-0.744h0.432 c0,0,0.16-2.47,0.16-3.419c0-0.95,3.156-1.053,4-1.635c0.846-0.582,0.846-0.63,1.946-0.208c1.108,0.424,3,0.317,3.367-0.104 c0.367-0.424,0.525-0.687,1.846-0.687c1.314,0,1.207-0.526,1.783-1.314c0.578-0.792,0.627,0.057,1.631,0.366 c0.998,0.318,1.314-0.895,1.842-1.478c0.525-0.582,0.473,0.468,3.053,0.688c2.581,0.207,1.536-3.032,1.26-3.715 c-0.281-0.684-1.141-1.878,0.732-1.821c1.873,0.059,0.228-0.736,1.369-1.37c1.136-0.625,2.102-0.111,3.062,0.968 c0.964,1.076,1.759-0.116,2.271-0.346c0.51-0.228,1.139,0.229,1.762,0.799c0.619,0.571,1.076-1.533,1.188-2.448 c0.114-0.912,0.738-1.079,1.534-1.026c0.796,0.06,1.028-0.572,2.047-0.851c1.021-0.283,6.701-1.483,7.896-2.107 c1.191-0.622-0.17-1.421-0.85-2.273c-0.683-0.853,0.684-2.104,1.988-2.384c1.305-0.282,1.141-1.648,1.141-2.792 c0-1.142,0.732-1.192,2.496-0.966c1.762,0.229,0.113-1.369-0.565-1.821c-0.687-0.454-0.077-1.477,0.85-1.857 c0.925-0.385-0.338-4.071-0.549-5.504c-0.206-1.445-0.128-3.646,0.549-4.488c0.228-0.28,0.621-0.28,1.099-0.15l0.092-0.318 c0,0-0.244-1.97,0.373-3.684c0.619-1.709,1.781-1.577,3.283-2.059c0.694-0.221,1.326-0.919,1.924-1.827l0.882-1.494 c0.388-0.701,0.771-1.444,1.172-2.161c1.297-2.33,1.31-4.009,0.614-4.71c-0.695-0.697-2.565-0.765-3.262-1.578 c-0.694-0.813-1.283-1.458-3.145-1.813c-1.661-0.313-1.792-1.222-1.975-2.279l-0.385-0.996c-0.256-0.059-0.582,0.425-0.851,0.542 c-0.407,0.174-1.163-0.059-2.565-0.171c-1.402-0.119-3.436,1.22-3.73,2.335c-0.29,1.108-2.91,1.811-4.547,3.679 c-1.631,1.863-1.518-1.636-1.976-3.854c-0.471-2.219-1.928-3.031-1.928-3.031L216.396,325.133z"></path><path id="mapid-290900-outline" fill="none" stroke="#CD2D1F" stroke-width="0.25" stroke-miterlimit="10" d="M232.511,348.517 c-0.47-0.132-0.872-0.132-1.101,0.149c-0.678,0.844-0.766,3.053-0.546,4.487c0.208,1.441,1.479,5.124,0.546,5.502 c-0.93,0.385-1.532,1.404-0.852,1.857c0.682,0.46,2.328,2.046,0.568,1.822c-1.759-0.229-2.498-0.169-2.498,0.963 c0,1.146,0.168,2.505-1.143,2.792c-1.305,0.282-2.67,1.536-1.987,2.387c0.685,0.851,2.049,1.65,0.851,2.272 c-1.192,0.622-6.871,1.822-7.897,2.106c-1.024,0.281-1.253,0.914-2.045,0.852c-0.796-0.057-1.419,0.113-1.532,1.023 c-0.113,0.92-0.566,3.022-1.188,2.452c-0.621-0.572-1.254-1.025-1.761-0.8c-0.509,0.229-1.307,1.421-2.272,0.345 c-0.965-1.077-1.932-1.598-3.061-0.966c-1.141,0.621,0.508,1.423-1.369,1.37c-1.873-0.058-1.023,1.142-0.731,1.82 c0.28,0.682,1.329,3.923-1.259,3.712c-2.573-0.204-2.525-1.259-3.055-0.688c-0.525,0.582-0.844,1.784-1.842,1.479 c-0.997-0.321-1.051-1.159-1.634-0.367c-0.579,0.79-0.468,1.316-1.781,1.316s-1.479,0.26-1.844,0.681 c-0.365,0.428-2.266,0.528-3.365,0.107c-1.106-0.424-1.106-0.367-1.947,0.207c-0.842,0.579-3.999,0.688-3.999,1.634 c0,0.95-0.319,3.305-0.319,3.305l0.396,0.09c1.107,0.02,1.965,0.252,2.721,0.432c1.529,0.351,0.835,2.082,0.835,3.826 c0,1.742,0.352,2.299,2.013,2.646c1.67,0.354,1.943-1.812,3.128-1.946s0.903,0.693,1.67,1.813c0.765,1.107,1.875-1.112,2.78-1.112 c0.904,0,0.556,2.232,0.418,3.762c-0.141,1.527,1.038,2.16,2.223,2.786c1.184,0.622,0.557,3.963,1.043,5.152 c0.484,1.186,1.389,0.84,2.779,0.973c1.388,0.14,1.039,1.949,0.552,2.79c-0.481,0.837,0.068,1.393,0.695,1.393 c0.625,0,1.321,0.135,2.362,1.108c1.041,0.975,1.597,0.904,2.646,0.069c1.038-0.838,2.158-0.906,3.751-0.977 c1.596-0.067,1.252,0.906,1.737,2.99c0.487,2.087,2.913,0.625,5.276-0.064c2.361-0.697,2.779,0,5.627,0.903 c2.85,0.908,4.861-0.769,6.814-1.323c1.943-0.558,6.047,1.529,9.175,3.621c3.128,2.083,0.138,5.015,1.318,6.193 c1.184,1.186,4.169,2.231,4.794,1.043c0.619-1.185,1.253-0.906,4.102-0.77c2.846,0.14,2.012-1.812,2.012-3.478 c0-1.671,0.769-0.49,2.779-0.49c2.008,0,4.238,0.423,4.52-0.693c0.279-1.108,0.349-1.11,2.43-1.322 c2.085-0.209,1.944-1.88,1.944-3.138c0-1.257,3.616-4.178,4.448-5.571c0.834-1.393,1.735-2.572,3.401-1.672 c1.668,0.905,3.751-2.718,6.251-4.868c2.501-2.161,0.205-4.038,0.695-6.479c0.486-2.436,4.102-3.759,5.204-4.177 c1.11-0.421,1.81-2.856,1.597-3.83c-0.21-0.971,0.555-2.229,1.945-2.229c1.39,0,1.32-1.53,1.596-3.831 c0.28-2.297-0.556-4.035-1.525-5.152c-0.971-1.105,0.068-2.716,0.84-4.106c0.766-1.396-0.904-1.396-2.014-1.814 c-0.097-0.037-0.386-0.128-0.43-0.176l-0.657,0.732c0,0-0.731,0.714-1.137,1.631c-0.397,0.916-1.021,2.372-2.259,1.746 c-1.239-0.619-1.094-1.566-1.823-1.096s-2.871,2.626-3.132,3.504c-0.256,0.88-0.184,1.349-1.275,1.494 c-1.091,0.146-2.292,0.29-2.656,1.204c-0.357,0.915-1.496,1.726-2.42,1.944c-0.933,0.215-0.933,0.491-1.097,1.258 c-0.17,0.77-1.372,1.201-2.899,1.201s-2.947-0.321-2.791-1.858c0.166-1.527,1.261-6.666-3.225-7.979 c-4.484-1.313-9.24-1.745-9.895-4.318c-0.658-2.571-1.146-3.661-1.973-4.041c-0.818-0.388-0.603-1.975,0.107-2.517 c0.711-0.543,4.048-0.876,3.395-3.393c-0.656-2.514-0.711-4.704-1.914-4.704s-2.572-0.216-3.328-1.632 c-0.771-1.421-1.168-2.912-2.946-2.912c-1.777,0-4.737,1.146-5.626,0.089c-0.881-1.063-0.544-2.159,0.094-2.877 c0.633-0.724,0.844-3.474-1.27-3.01c-2.115,0.466-2.961,2.499-3.975,2.418c-0.654-0.057-1.439-0.306-2.346-0.583L232.511,348.517z"></path><path id="mapid-290300-outline" fill="none" stroke="#CD2D1F" stroke-width="0.25" stroke-miterlimit="10" d="M167.202,150.095 c-1.408-0.112-2.271,0.314-3.018,0.58c-0.947,0.337-3.952-0.619-4.298-0.376l-0.365,1.433c0.056,0.477,0.189,1.01,0.465,1.533 c0.698,1.331,2.169,4.619,0.698,5.668c-1.47,1.051-3.08,0.98-3.569,2.798c-0.491,1.822-1.596,6.372-0.071,6.788 c1.521,0.417,2.633,1.455,1.597,2.356c-1.034,0.903-2.08,0.28-2.566,1.25c-0.484,0.973-1.73,3.61-1.73,3.61l1.83,1.071 c1.109,0.807,2.407,0.508,3.122,1.437c0.79,1.026,9.944,9.156,11.442,9.393c1.499,0.237,3.396,2.607,4.262,3.473 c0.867,0.868,0.947-2.21,3.158-1.817c1.603,0.286,3.421,1.157,3.837,2.216l0.592-0.093c0,0,2.693-1.105,3.351-2.576 c0.657-1.476,1.034-5.625,2.617-5.298c1.582,0.325,5.344,1.968,7.034,0.982c1.689-0.982,5.78-1.91,6.551-5.188 c0.762-3.28,2.504-6.174,3.321-5.135c0.813,1.037,2.89,3.332,4.687,3.386c1.8,0.056,4.381-0.197,4.615-2.648 c0.243-2.456,1.941-2.85,2.934-3.763c0.992-0.911,1.343-2.535,2.729-1.898c1.387,0.636,5.477-0.217,5.534,0.436 c0.058,0.657-0.385,3.226,1.479,2.681c1.861-0.546,2.791-2.57,4.041-2.406c1.259,0.166,3.06,1.86,3.287,0.602 c0.215-1.258,0-1.477-0.494-2.079c-0.493-0.601,0.709-1.639,0.877-2.732c0.168-1.092,1.313-3.224,1.313-3.224l-0.362-0.466 c-0.057-0.093-0.121-0.203-0.197-0.322c-0.694-1.112-1.25-1.044-2.432-1.461c-1.18-0.418-1.181-1.042-1.181-2.297 c0-1.253-1.672-1.811-2.228-2.923c-0.551-1.112-0.42-1.947,0.969-3.132c1.391-1.185,1.043-1.951,0.488-3.69 c-0.012-0.026-0.021-0.051-0.021-0.074l-0.117-0.245c0,0-6.099-0.351-6.722,0.629c-0.626,0.979-1.048,2.309-2.658,2.52 c-1.606,0.21-2.797,0.21-3.219,0.979c-0.419,0.771-1.048,1.608-1.607,0.628c-0.559-0.979-1.257-0.979-1.892-0.979 s-1.895-1.259-2.237-2.239c-0.354-0.979,0.281-1.749-1.962-1.679c-2.236,0.069-3.43,0.629-6.298-0.071 c-2.87-0.699-4.899-0.699-5.951-2.52c-1.047-1.821-2.237-4.9-2.586-5.879c-0.358-0.98-1.054-0.699-1.61-0.771 c-0.562-0.07-2.799-1.188-3.64-2.097c-0.841-0.911-0.561-1.05-2.728-0.911c-2.168,0.138-1.675,0.911-1.821,1.749 c-0.142,0.84-0.979,2.449-2.102,2.94c-1.117,0.491-2.234,0.77-3.216,0.629c-0.981-0.138-1.471-0.35-1.608,0.769 c-0.135,1.12-0.206,2.73-1.472,2.451c-1.256-0.28-2.234-0.839-2.724,0.7c-0.49,1.539,1.117,1.048,0.351,2.1 c-0.77,1.049,0,1.469,0.63,2.099c0.625,0.626,2.233,2.097,0,2.31c-2.239,0.209-5.179-0.209-7.564-0.912 c-0.207-0.059-0.41-0.112-0.604-0.153L167.202,150.095"></path><path id="mapid-290600-outline" fill="none" stroke="#CD2D1F" stroke-width="0.25" stroke-miterlimit="10" d="M148.863,99.439 c0.022,0.061,0.043,0.123,0.06,0.175c0.467,1.401,1.032,1.607,1.758,1.762c0.732,0.158-0.098,2.125,0.419,4.253 c0.514,2.126-2.177,1.557-3.526,1.349c-1.347-0.205-2.339,0-3.473,1.244c-1.142,1.244-3.163,1.504-4.563,1.142 c-1.404-0.363-1.604,2.28-1.558,3.473c0.021,0.513-0.793,1.095-1.808,1.621l-0.028,0.078c0,0,0.941,1.83,2.271,2.605 c1.331,0.776,2.105,0.998,2.158,2.939c0.058,1.94,0.058,4.878,0.886,6.208c0.832,1.332,1.107,2.271,1.107,3.826 c0,1.552,0.615,2.827,0.663,4.711c0.057,1.885-0.499,4.045,1.719,3.322c2.216-0.719,5.097-0.774,6.098-0.608 c0.996,0.167,3.324,0.224,4.151,1.314c0.827,1.087,2.382,1.503,3.468,2.074c1.086,0.572,2.384,1.297,2.171,3.111 c-0.207,1.814-1.657,4.457-0.929,6.114l0.431,0.021c0.343-0.241,2.893,0.837,3.84,0.501c0.742-0.265,1.604-0.692,3.017-0.58 l0.357,0.03c0,0-2.13-1.018-0.872-2.232c1.257-1.215,0.139-1.894,1.212-2.864c1.067-0.968,2.469-3.492,1.357-4.413 c-1.113-0.919-3.68-3.781-2.567-6.355c1.108-2.571,1.743-3.103,0.338-3.638c-1.408-0.535-2.91-1.555-2.91-3.348 c0-1.796-0.195-3.783,1.111-3.929c1.307-0.144,2.807,0.244,2.807-1.26s-0.967-2.329,0.05-3.589 c1.017-1.26,0.533-3.928,0.533-4.707c0-0.774-0.387-4.706,0.824-6.063c1.212-1.357,2.421-5.916,1.595-6.693 c-0.82-0.776-0.874-1.26-0.874-1.991c0-0.73-0.34-1.164-1.017-1.6c-0.678-0.436-1.109-0.874-0.823-1.6 c0.29-0.728,0.392-0.873-0.627-0.873c-1.02,0-1.499-0.292-1.933-0.92c-0.435-0.631-0.728-0.971-1.646-0.291 c-0.92,0.679-3.341,1.939-3.774,3.153c-0.435,1.214,0.625,1.649-2.467,1.699c-3.099,0.048-9.346,0.096-9.346,0.096L148.863,99.439 z"></path><g id="mapid-290100-outline"><path id="mapid-290109" fill="#D6D3CE" stroke="#CD2D1F" stroke-width="0.25" stroke-miterlimit="10" d="M257.15,275.517 c0.591-1.877,1.182-6.307,2.074-8.895c0.89-2.602,0.221-3.566,1.262-4.456c1.037-0.89,4.681-4.534,4.681-4.534l-0.013-0.771 c-0.148-0.844-0.375-1.592-0.846-1.955c-0.902-0.695-2.572-1.598-3.822-3.2s-0.973-1.185-2.156-1.257 c-1.184-0.069-2.645-1.254-2.571-2.366c0.068-1.11,0.068-3.134,1.738-4.036c1.67-0.904,0.353-2.02-0.62-3.342 c-0.04-0.059-0.068-0.113-0.093-0.173l0.053-0.509c0,0-1.795,1.465-2.883,3.022c-1.086,1.558-5.013,3.968-7.892,6.097 c-2.883,2.127-3.424,1.293-4.485,1.293c-1.056,0-1.296,0.914-1.97,1.728c-0.668,0.813-2.108,1.872-3.306,2.114 c-1.198,0.246-4.362-2.307-5.704-3.65c-1.34-1.342-2.588-1.822-3.593-1.822c-1.001,0-2.062-0.19-2.062-1.147 c0-0.962-2.276-3.248-2.276-3.248l-0.972-0.636c-0.133,0.088-0.319,0.135-0.6,0.149c-1.658,0.081-4.263,0.472-5.053,2.448 c-0.787,1.971-2.995,6.396-4.025,7.025c-1.026,0.631-1.656,1.105-1.656,2.287c0,1.183-0.473,4.498-1.898,4.739 c-1.412,0.234-1.896,1.576-1.896,2.445c0,0.868-0.549,2.606-1.655,3.077c-1.108,0.473-0.631,2.762-1.822,3.549 c-1.182,0.791-4.973,2.527-7.021,3.709c-2.047,1.184-4.502,2.447-6.081,2.759c-0.656,0.134-0.89,0.632-1.585,0.834L187,276.767 c-0.761,0.226-1.017,0.313-1.435,0.385c-0.871,0.162-3.949-0.867-4.656-0.161c-0.712,0.712-2.761,5.69-3.71,7.579 c-0.948,1.896-1.42,2.841-1.42,3.947c0,1.108-0.302,3.526-1.563,4.553l0.67,1.115c0,0,0.571,0.715,1.84,1.524 c1.272,0.808,1.501,1.791,2.085,3.527c0.578,1.737,1.149,1.737,1.097,3.53c-0.059,1.791-0.636,4.28,0.115,4.63 c0.75,0.348,0.923,0.058,1.734-0.35c0.809-0.403,1.269-0.464,1.559,0.577c0.283,1.042,3.516,3.588,4.331,4.571 c0.811,0.981,0.867,1.623,2.54,1.042c1.672-0.581,2.309-0.983,3.172-0.061c0.865,0.931,1.733,1.102,2.654,0.929 c0.92-0.172,3.869,0,4.674-0.984c0.809-0.989,1.621-1.909,2.836-1.105c1.213,0.811,2.078,3.301,3.75,2.724 c1.67-0.581,3.871-1.101,4.391-0.115c0.52,0.986,0.52,1.157,1.445,0.747c0.92-0.399,1.691-0.692,2.5-0.805l1.183-0.229 c0.396-0.546,0.418-0.423,0.56-0.883c0.373-1.186,1.338-9.89,4.903-9.669c3.571,0.225,4.015,1.189,4.535,2.459 c0.517,1.26,1.409,2.531,3.049,2.084c1.442-0.396,3.241-1.603,4.146-3.731l0.248-0.651c0.018-0.078,0.047-0.155,0.066-0.233 c0.738-2.678,0.368-2.01,3.046-4.165c2.681-2.156,5.05-3.416,5.427-4.012c0.371-0.591,4.014-3.716,6.621-3.566 c2.603,0.146,6.317,0.668,6.393-0.367c0.076-1.043-0.963-7.067-1.557-7.656c-0.59-0.594-4.381-1.934-1.862-2.758 c2.159-0.693,3.673-2.975,4.436-4.781L257.15,275.517z"></path><path id="合肥" fill="none" stroke="#CD2D1F" stroke-width="0.25" stroke-miterlimit="10" d="M182.295,197.926 c0.503,0.964,1.074,2.047,1.074,3.133c0,1.499,1.107,2.208,0.631,3.945c-0.473,1.738-0.318,5.685,2.368,6.079 c2.684,0.394,4.185-1.029,5.125-0.159c0.954,0.869,1.581,0.631,2.452,0.159c0.869-0.473,1.337-0.08,0.236,2.049 c-1.107,2.13-1.58,3.55,0.08,3.473c1.657-0.077,3.787-0.47,3.944,1.5c0.159,1.972-0.313,4.42-2.123,5.05 c-1.819,0.63-0.874,1.262,0.624,2.29c1.499,1.027,5.129,5.05,7.342,3.789c2.205-1.265,3.077-2.133,3.623-2.922 c0.553-0.791,1.661-0.395,3.078-0.791c1.421-0.395,1.26-1.025,4.032-0.395c2.759,0.633,3.235,0.316,4.259,1.42 c1.031,1.107,2.37,1.107,2.37,1.107s1.972-1.342,2.919-0.158c0.949,1.186,1.343,4.576,0.552,6.865 c-0.788,2.289,1.025,4.738-1.343,6.396c-1.105,0.771-1.333,1.408-1.441,1.973l-0.398,1.033c-0.131,0.086-0.319,0.137-0.6,0.15 c-1.656,0.076-4.264,0.47-5.052,2.445c-0.79,1.971-2.993,6.396-4.028,7.022c-1.025,0.629-1.656,1.106-1.656,2.29 s-0.473,4.497-1.896,4.737c-1.417,0.235-1.896,1.581-1.896,2.448c0,0.865-0.551,2.607-1.655,3.078 c-1.106,0.469-0.631,2.758-1.823,3.547c-1.179,0.791-4.974,2.528-7.021,3.709c-2.045,1.186-4.496,2.446-6.078,2.762 c-0.656,0.131-1.39,0.332-2.08,0.535l-0.033-0.084c0,0-0.961-0.438-2.047-1.44c-1.083-1.005-5.216-0.479-6.739,0 c-1.52,0.478-2.346-0.396-3.173-0.522c-0.826-0.133-1.04,1.179-1.91,1.045c-0.876-0.131-1.069-2.157-2.511-2.42 c-1.446-0.254-1.095,0.808-1.068,1.608c0.032,0.808-3.798,0.582-5.05,0.515c-1.258-0.063-2.347,0.318-2.797,0.582 c-0.451,0.26-0.75,0.02-2.943-1.035c-2.192-1.053-3.593-4.742-2.54-6.494c1.052-1.756,0.699-2.637-0.696-4.747 c-1.407-2.108-1.933-3.863-3.511-5.706c-1.578-1.846-0.526-3.249,0.882-3.428c1.402-0.172,1.666-1.318,1.314-2.898 c-0.356-1.579,3.223-4.104,5.204-4.104c1.985,0,3.294-1.276,3.855-1.649c0.56-0.376,2.996-1.579,3.782-2.778 c0.787-1.199,2.245,0.038,4.375-0.301c2.134-0.336-1.708-6.854-2.684-8.305c-0.981-1.447,1.393-1.756,2.479-1.859 c1.082-0.104,0.98-1.242,0.927-2.225c-0.058-0.981-0.883-2.067-0.256-3.773c0.619-1.709,0.619-2.795,0.309-4.342 c-0.309-1.551,0.62-4.069,0.455-5.156c-0.165-1.084-5.295-0.919-7.127-0.709c-1.833,0.207-2.207-1.336-2.003-3.383 c0.205-2.048,0.042-3.593,0.042-5.013c0-1.424-1.626-3.761-1.626-3.761l0.705-0.007c0.328-0.024,0.661-0.107,0.99-0.26 c1.993-0.939,3.398-1.057,4.04-2.35c0.648-1.292,0.938-1.878,3.399-1.82c2.459,0.056,5.704,0.989,7.678,0.192 c1.972-0.799,2.523-1.679,2.523-1.679L182.295,197.926z"></path></g><path id="mapid-292000-outline" fill="none" stroke="#CD2D1F" stroke-width="0.25" stroke-miterlimit="10" d="M147.887,203.906 c-1.026,0.334-2.099,0.999-3.213,1.434c-1.587,0.618-2.458,2.646-2.552,3.48c-0.09,0.839-0.955,2.012-1.445,1.698 c-0.494-0.321-0.599,0.207-0.989,1.197c-0.394,0.986-1.59,0.81-2.224,0.317c-0.631-0.493-2.681-0.209-3.351-0.528 c-0.667-0.321-2.75-2.82-3.172-3.843c-0.429-1.023-2.735-1.178-3.524-1.178c-0.79,0-1.035,1.581-1.579,2.226 c-0.544,0.643-0.641,0.74-0.054,1.434c0.592,0.694-1.481,1.237-2.664,1.136c-1.182-0.097-1.379-0.097-2.075,0.698 c-0.69,0.79-0.147,1.286-1.971-0.446c-1.826-1.731-2.719-5.142-3.061-5.984c-0.345-0.841-0.59-1.288-1.577-1.238 c-0.988,0.053-2.271,0.099-2.715-1.035c-0.444-1.14-1.234-2.522-1.926-3.117c-0.694-0.592-1.677-0.198-2.466,0.695 c-0.789,0.888-3.307,1.333-3.307,1.333l-0.044,0.131c-0.093,0.724-1.456,2.798-2.12,3.304c-0.904,0.694-0.068,0.975,0.557,1.743 c0.624,0.766,0.204,2.158,0.137,3.132c-0.068,0.974,0.487,3.341,1.251,5.154c0.767,1.809,0.557,10.303,0.557,11.277 c0,0.976,1.108,3.55,1.595,5.427c0.487,1.881-0.486,2.574-0.134,4.318c0.347,1.741,0.902,2.989,0,4.313 c-0.904,1.326-1.324,3.758-1.324,4.942s-0.418,3.966-1.11,5.638c-0.695,1.672,0.557,5.154,0.903,5.988 c0.348,0.836-0.625,1.531-2.778,1.043c-2.156-0.486-1.736,0.066-2.572,0.555s-2.643-0.769-4.722-0.695 c-2.085,0.068-3.199,1.113-4.377,1.113c-1.183,0-4.863,1.391-6.323,3.342c-1.459,1.945-3.684,2.99-5.211,3.548 c-1.529,0.556-2.433,1.812-2.433,3.062c0,1.254-0.833,2.16-2.084,3.342c-1.254,1.183-2.084,3.549-2.084,4.938 c0,1.393,0.417,3.274-0.279,4.602c-0.695,1.32-0.695,3.34-1.112,4.865c-0.416,1.531,1.39,0.77,2.432,0.627 c1.041-0.139,1.525,1.185,2.497,3.478c0.971,2.296,1.741,2.437,3.061,2.993c1.32,0.553,0.972,2.783,0.972,2.783 s1.039,3.136,1.943,4.45c0.904,1.326,2.293-0.416,3.06-1.391c0.764-0.974,1.594-2.368,3.751-2.368 c2.154,0,4.586,3.343,4.862,4.734c0.283,1.391,0.903,3.758,1.876,4.179c0.972,0.42,3.131-2.299,4.375-3.273 c1.251-0.976,2.363-0.067,2.5,1.325c0.135,1.394,0.767,1.948,1.738,2.786c0.975,0.836,1.598,0.623,1.877,1.598 c0.278,0.977,0.622,1.259,1.943,0.907c1.322-0.351,0.905,0.352,1.739,1.109c0.414,0.382,1.085,0.521,1.739,0.565l0.184-0.49 c0,0,1.303-2.196,2.368-3.916c1.07-1.721,1.148-1.478,4.018-1.56c2.873-0.085,2.543,2.216,3.286,3.528 c0.732,1.313,4.592-2.38,5.651-4.594c1.071-2.212,3.691-3.281,5.739-3.854c2.049-0.576,5.249,2.872,6.889,2.872 s3.525-2.46,4.515-2.538c0.984-0.085,0.409,5.411-0.658,6.397s-1.312,2.79-0.656,3.85c0.656,1.071,3.525-2.871,4.92-3.772 c1.394-0.902,1.067,1.56,2.789,1.394c1.721-0.167,3.85,1.067,4.183,0.327c0.326-0.736,2.3-0.988,3.695-1.229 c1.394-0.245,3.275-2.8,3.585-3.514c0.32-0.709,2.447-0.865,4.576-1.97c2.132-1.108,2.132-1.343,2.132-2.762 c0-1.418,2.446-3.627,2.759-4.655c0.242-0.767,1.441-1.093,2.553-1.636l0.657-0.356c0.148-0.093,0.29-0.19,0.424-0.299 c1.263-1.03,1.5-3.397,1.5-4.497c0-1.104,0.474-2.05,1.421-3.947c0.949-1.896,2.999-6.869,3.709-7.578 c0.71-0.711,3.79,0.317,4.657,0.161c0.417-0.075,1.092-0.282,1.856-0.508l0.453-0.226c0,0-0.961-0.438-2.046-1.441 c-1.086-1.001-5.217-0.477-6.739,0c-1.521,0.475-2.347-0.396-3.172-0.523c-0.828-0.129-1.045,1.179-1.914,1.047 c-0.871-0.131-1.069-2.159-2.511-2.418c-1.447-0.26-1.094,0.808-1.063,1.606c0.027,0.808-3.803,0.583-5.053,0.515 c-1.256-0.063-2.347,0.318-2.796,0.582c-0.451,0.262-0.75,0.021-2.947-1.033c-2.19-1.053-3.592-4.741-2.539-6.495 c1.052-1.755,0.698-2.634-0.696-4.745c-1.409-2.109-1.934-3.864-3.511-5.708c-1.577-1.847-0.526-3.248,0.884-3.427 c1.401-0.172,1.664-1.317,1.314-2.897c-0.357-1.582,3.224-4.104,5.204-4.104c1.985,0,3.294-1.275,3.853-1.65 c0.563-0.376,2.996-1.578,3.784-2.777c0.786-1.201,2.246,0.036,4.376-0.302c2.133-0.336-1.708-6.854-2.683-8.304 c-0.982-1.446,1.393-1.758,2.478-1.859c1.083-0.104,0.98-1.242,0.929-2.226c-0.057-0.98-0.883-2.066-0.258-3.772 c0.62-1.71,0.62-2.795,0.31-4.341c-0.31-1.553,0.623-4.072,0.457-5.156c-0.168-1.087-5.297-0.92-7.129-0.711 c-1.83,0.206-2.205-1.335-2.002-3.384c0.205-2.048,0.042-3.591,0.042-5.012c0-1.421-1.212-3.113-1.212-3.113l-0.476-0.695 c-1.435-0.267-2.734-1.503-3.109-2.8c-0.526-1.818-1.465-3.288-1.818-4.169c-0.355-0.881-0.703-1.469-1.583-1.056 c-0.882,0.41-0.292,0.822-0.292,2.29c0,1.467-3.168,3.392-3.341,3.853c-0.154,0.412-1.679,1.329-2.99,1.485L147.887,203.906z"></path><text transform="matrix(1 0 0 1 116.9761 264.4541)" fill="#040000" font-family="'MicrosoftYaHei'" font-size="7.2089">六安市</text><text transform="matrix(1 0 0 1 180.5088 249.8145)" fill="#040000" font-family="'MicrosoftYaHei'" font-size="7.2089">合肥市</text><text transform="matrix(1 0 0 1 117.1865 150.2979)" fill="#040000" font-family="'MicrosoftYaHei'" font-size="7.2089">毫州市</text><text transform="matrix(1 0 0 1 185.9331 124.7676)" fill="#040000" font-family="'MicrosoftYaHei'" font-size="7.2089">宿州市</text><text transform="matrix(1 0 0 1 226.3223 212.3477)" fill="#040000" font-family="'MicrosoftYaHei'" font-size="7.2089">滁州市</text><text transform="matrix(1 0 0 1 142.4951 190.8477)" fill="#040000" font-family="'MicrosoftYaHei'" font-size="7.2089">淮南市</text><text transform="matrix(1 0 0 1 80.4385 182.5322)" fill="#040000" font-family="'MicrosoftYaHei'" font-size="7.2089">阜阳市</text><text transform="matrix(1 0 0 1 130.6665 348.9189)" fill="#040000" font-family="'MicrosoftYaHei'" font-size="7.2089">安庆市</text><text transform="matrix(1 0 0 1 259.2227 278.2773)" fill="#040000" font-family="'MicrosoftYaHei'" font-size="7.2089">马鞍山市</text><text transform="matrix(1 0 0 1 244.9336 306.2607)" fill="#040000" font-family="'MicrosoftYaHei'" font-size="7.2089">芜湖市</text><text transform="matrix(1 0 0 1 209.2539 284.0068)" fill="#040000" font-family="'MicrosoftYaHei'" font-size="7.2089">巢湖市</text><text transform="matrix(1 0 0 1 219.2471 321.0361)" fill="#040000" font-family="'MicrosoftYaHei'" font-size="7.2089">铜陵市</text><text transform="matrix(1 0 0 1 277.2207 338.4277)" fill="#040000" font-family="'MicrosoftYaHei'" font-size="7.2089">宣城市</text><text transform="matrix(1 0 0 1 190.8896 362.6914)" fill="#040000" font-family="'MicrosoftYaHei'" font-size="7.2089">池州市</text><text transform="matrix(1 0 0 1 230.1094 397.5361)" fill="#040000" font-family="'MicrosoftYaHei'" font-size="7.2089">黄山市</text><text transform="matrix(1 0 0 1 178.0874 167.8809)" fill="#040000" font-family="'MicrosoftYaHei'" font-size="7.2089">蚌埠市</text><text transform="matrix(1 0 0 1 143.3975 122.0645)" fill="#040000" font-family="'MicrosoftYaHei'" font-size="7.2089">淮北市</text></g><g id="bozhou"><circle id="mapid-292400-circle" fill="#182F5B" cx="126.372" cy="144.587" r="1.351"></circle><circle id="_x32_92404" fill="#182F5B" cx="125.774" cy="160.808" r="1.351"></circle><circle id="_x32_92403" fill="#182F5B" cx="147.471" cy="153.147" r="1.351"></circle><circle id="_x32_92402" fill="#182F5B" cx="124.423" cy="134.157" r="1.352"></circle><circle id="_x32_92401" fill="#182F5B" cx="98.159" cy="110.759" r="1.351"></circle><circle id="_x32_92499" fill="#182F5B" cx="96.808" cy="108.955" r="1.352"></circle></g><g id="chizhou"><circle id="mapid-292300-circle" fill="#182F5B" cx="199.732" cy="359.077" r="1.352"></circle><circle id="_x32_92305" fill="#182F5B" cx="221.047" cy="346.458" r="1.351"></circle><path id="_x32_92304"  visibility="hidden" fill="#182F5B" d="M225.102,336.549c0.746,0,1.353,0.604,1.353,1.354c0,0.745-0.604,1.35-1.353,1.35 c-0.744,0-1.352-0.604-1.352-1.35C223.75,337.152,224.357,336.549,225.102,336.549z"></path><circle id="_x32_92303" fill="#182F5B" cx="201.083" cy="369.35" r="1.351"></circle><circle id="_x32_92302" fill="#182F5B" cx="171.522" cy="383.317" r="1.352"></circle><circle id="_x32_92301" fill="#182F5B" cx="204.689" cy="338.405" r="1.352"></circle><circle id="_x32_92399" fill="#182F5B" cx="203.786" cy="336.549" r="1.353"></circle></g><g id="chaohu"><circle id="mapid-ch0000-circle" fill="#182F5B" cx="220.6" cy="281.751" r="1.352"></circle><circle id="_x32_90506" fill="#182F5B" cx="256.738" cy="260.781" r="1.352"></circle><circle id="_x32_90505" fill="#182F5B" cx="240.52" cy="260.781" r="1.352"></circle><circle id="_x32_90209" fill="#182F5B" cx="227.674" cy="290.948" r="1.351"></circle><circle id="_x32_90117" fill="#182F5B" cx="190.89" cy="293.911" r="1.352"></circle><circle id="_x32_90109" fill="#182F5B" cx="226.66" cy="268.646" r="1.351"></circle></g><g id="xuancheng"><circle id="mapid-292100-circle" fill="#182F5B" cx="284.449" cy="341.501" r="1.352"></circle><circle id="_x32_92107" fill="#182F5B" cx="261.023" cy="333.845" r="1.351"></circle><circle id="_x32_92106" fill="#182F5B" cx="264.818" cy="365.605" r="1.353"></circle><circle id="_x32_92105" fill="#182F5B" cx="271.799" cy="378.028" r="1.351"></circle><circle id="_x32_92104" fill="#182F5B" cx="294.445" cy="337.071" r="1.351"></circle><circle id="_x32_92103" fill="#182F5B" cx="323.723" cy="322.385" r="1.352"></circle><circle id="_x32_92102" fill="#182F5B" cx="310.434" cy="304.414" r="1.352"></circle><circle id="_x32_92101" fill="#182F5B" cx="278.678" cy="317.438" r="1.352"></circle><path id="_x32_92199"  visibility="hidden" fill="#182F5B" d="M278.678,314.225c0.745,0,1.352,0.606,1.352,1.354c0,0.743-0.605,1.35-1.352,1.35 s-1.354-0.605-1.354-1.35C277.324,314.832,277.932,314.225,278.678,314.225z"></path></g><g id="liuan"><circle id="mapid-292000-circle" fill="#182F5B" cx="126.372" cy="263.824" r="1.353"></circle><circle id="_x32_92007" fill="#182F5B" cx="141.532" cy="264.454" r="1.352"></circle><circle id="_x32_92006" fill="#182F5B" cx="134.999" cy="285.807" r="1.351"></circle><circle id="_x32_92005" fill="#182F5B" cx="96.741" cy="281.751" r="1.352"></circle><circle id="_x32_92004" fill="#182F5B" cx="168.063" cy="280.4" r="1.352"></circle><circle id="_x32_92003" fill="#182F5B" cx="129.076" cy="221.261" r="1.352"></circle><circle id="_x32_92002" fill="#182F5B" cx="158.157" cy="203.03" r="1.352"></circle><circle id="_x32_92001" fill="#182F5B" cx="145.198" cy="263.034" r="1.352"></circle><circle id="_x32_92099" fill="#182F5B" cx="143.395" cy="265.805" r="1.351"></circle></g><g id="chuzhou"><circle id="mapid-291900-circle" fill="#182F5B" cx="236.455" cy="208.196" r="1.35"></circle><circle id="_x32_91908" fill="#182F5B" cx="252.689" cy="219.91" r="1.351"></circle><circle id="_x32_91907" fill="#182F5B" cx="232.096" cy="183.883" r="1.351"></circle><circle id="_x32_91906" fill="#182F5B" cx="205.555" cy="182.53" r="1.351"></circle><circle id="_x32_91905" fill="#182F5B" cx="217.455" cy="201.678" r="1.352"></circle><circle id="_x32_91904" fill="#182F5B" cx="249.229" cy="238.563" r="1.352"></circle><circle id="_x32_91903" fill="#182F5B" cx="263.275" cy="212.344" r="1.352"></circle><circle id="_x32_91902" fill="#182F5B" cx="294.768" cy="190.159" r="1.352"></circle><circle id="_x32_91901" fill="#182F5B" cx="255.387" cy="222.613" r="1.352"></circle><circle id="_x32_91999" fill="#182F5B" cx="256.738" cy="224.866" r="1.352"></circle></g><g id="suzhou"><circle id="mapid-291800-circle" fill="#182F5B" cx="194.048" cy="115.714" r="1.352"></circle><circle id="_x32_91805" fill="#182F5B" cx="219.248" cy="135.509" r="1.352"></circle><circle id="_x32_91804" fill="#182F5B" cx="205.555" cy="132.806" r="1.351"></circle><circle id="_x32_91803" fill="#182F5B" cx="171.314" cy="85.519" r="1.353"></circle><circle id="_x32_91802" fill="#182F5B" cx="130.667" cy="69.2" r="1.352"></circle><circle id="_x32_91801" fill="#182F5B" cx="171.314" cy="129.01" r="1.351"></circle><circle id="_x32_91899" fill="#182F5B" cx="171.314" cy="124.766" r="1.351"></circle></g><g id="fuyang"><circle id="mapid-291700-circle" fill="#182F5B" cx="91.24" cy="181.178" r="1.351"></circle><circle id="_x32_91719" fill="#182F5B" cx="95.456" cy="176.61" r="1.351"></circle><circle id="_x32_91718" fill="#182F5B" cx="99.444" cy="179.137" r="1.353"></circle><circle id="_x32_91708" fill="#182F5B" cx="127.723" cy="197.926" r="1.352"></circle><circle id="_x32_91707" fill="#182F5B" cx="86.176" cy="200.629" r="1.352"></circle><circle id="_x32_91704" fill="#182F5B" cx="84.825" cy="160.808" r="1.351"></circle><circle id="_x32_91703" fill="#182F5B" cx="66.966" cy="166.527" r="1.351"></circle><circle id="_x32_91702" fill="#182F5B" cx="72.598" cy="153.147" r="1.351"></circle><circle id="_x32_91701" fill="#182F5B" cx="94.394" cy="181.629" r="1.352"></circle><circle id="_x32_91799" fill="#182F5B" cx="93.945" cy="183.831" r="1.352"></circle></g><g id="huangshan"><circle id="mapid-290900-circle" fill="#182F5B" cx="241.313" cy="394.83" r="1.353"></circle><circle id="_x32_90907" fill="#182F5B" cx="216.46" cy="396.182" r="1.353"></circle><circle id="_x32_90906" fill="#182F5B" cx="226.66" cy="390.445" r="1.352"></circle><circle id="_x32_90905" fill="#182F5B" cx="244.932" cy="402.003" r="1.351"></circle><circle id="_x32_90904" fill="#182F5B" cx="259.221" cy="390.445" r="1.352"></circle><circle id="_x32_90903" fill="#182F5B" cx="255.387" cy="396.182" r="1.353"></circle><circle id="_x32_90902" fill="#182F5B" cx="256.738" cy="406.437" r="1.352"></circle><circle id="_x32_90901" fill="#182F5B" cx="242.661" cy="365.605" r="1.353"></circle><circle id="_x32_90999" fill="#182F5B" cx="256.738" cy="404.185" r="1.352"></circle></g><g id="anqing"><circle id="mapid-290800-circle" fill="#182F5B" cx="142.494" cy="342.854" r="1.351"></circle><circle id="_x32_90818" fill="#182F5B" cx="134.999" cy="319.681" r="1.352"></circle><circle id="_x32_90817" fill="#182F5B" cx="152.106" cy="376.676" r="1.352"></circle><circle id="_x32_90809" fill="#182F5B" cx="115.625" cy="373.973" r="1.351"></circle><circle id="_x32_90808" fill="#182F5B" cx="130.667" cy="354.826" r="1.352"></circle><circle id="_x32_90807" fill="#182F5B" cx="138.828" cy="328.836" r="1.351"></circle><circle id="_x32_90806" fill="#182F5B" cx="184.8" cy="332.494" r="1.352"></circle><circle id="_x32_90805" fill="#182F5B" cx="149.521" cy="358.428" r="1.352"></circle><circle id="_x32_90804" fill="#182F5B" cx="168.565" cy="311.669" r="1.352"></circle><circle id="_x32_90803" fill="#182F5B" cx="173.325" cy="344.204" r="1.351"></circle><circle id="_x32_90802" fill="#182F5B" cx="173.325" cy="346.458" r="1.351"></circle><circle id="_x32_90801" fill="#182F5B" cx="175.576" cy="347.809" r="1.351"></circle><circle id="_x32_90899" fill="#182F5B" cx="176.029" cy="345.557" r="1.351"></circle></g><g id="tongling"><circle id="mapid-290700-circle" fill="#182F5B" cx="229.684" cy="317.438" r="1.352"></circle><circle id="_x32_90704" fill="#182F5B" cx="220.6" cy="316.086" r="1.352"></circle><circle id="_x32_90703" fill="#182F5B" cx="221.047" cy="327.485" r="1.352"></circle><circle id="_x32_90702" fill="#182F5B" cx="225.309" cy="316.086" r="1.352"></circle><circle id="_x32_90701" fill="#182F5B" cx="222.398" cy="318.79" r="1.352"></circle><circle id="_x32_90799" fill="#182F5B" cx="223.75" cy="314.735" r="1.351"></circle></g><g id="huaibei"><circle id="mapid-290600-circle" fill="#182F5B" cx="155.08" cy="123.415" r="1.352"></circle><circle id="_x32_90604" fill="#182F5B" cx="151.784" cy="114.361" r="1.352"></circle><circle id="_x32_90603" fill="#182F5B" cx="155.08" cy="115.714" r="1.352"></circle><circle id="_x32_90602" fill="#182F5B" cx="154.782" cy="110.306" r="1.353"></circle><circle id="_x32_90601" fill="#182F5B" cx="155.08" cy="105.865" r="1.352"></circle><circle id="_x32_90699" fill="#182F5B" cx="153.433" cy="111.658" r="1.351"></circle></g><g id="maanshan"><circle id="mapid-290500-circle" fill="#182F5B" cx="272.575" cy="274.62" r="1.352"></circle><path id="_x32_90504"  visibility="hidden" fill="#182F5B" d="M265.164,272.716c0.747,0,1.354,0.605,1.354,1.354c0,0.746-0.605,1.352-1.354,1.352 c-0.744,0-1.35-0.605-1.35-1.352C263.814,273.322,264.42,272.716,265.164,272.716z"></path><path id="_x32_90503"  visibility="hidden" fill="#182F5B" d="M266.17,267.878c0.744,0,1.35,0.604,1.35,1.352c0,0.746-0.604,1.352-1.35,1.352 c-0.749,0-1.354-0.604-1.354-1.352C264.818,268.481,265.421,267.878,266.17,267.878z"></path><circle id="_x32_90502" fill="#182F5B" cx="266.883" cy="265.175" r="1.352"></circle><circle id="_x32_90507" fill="#182F5B" cx="264.818" cy="263.824" r="1.353"></circle><circle id="_x32_90599" fill="#182F5B" cx="268.579" cy="267.295" r="1.353"></circle></g><g id="huainan"><circle id="mapid-290400-circle" fill="#182F5B" cx="153.869" cy="188.808" r="1.351"></circle><circle id="_x32_90406" fill="#182F5B" cx="152.106" cy="194.565" r="1.352"></circle><circle id="_x32_90405" fill="#182F5B" cx="158.157" cy="186.985" r="1.351"></circle><circle id="_x32_90404" fill="#182F5B" cx="158.157" cy="194.565" r="1.352"></circle><circle id="_x32_90403" fill="#182F5B" cx="159.509" cy="197.926" r="1.352"></circle><circle id="_x32_90402" fill="#182F5B" cx="168.063" cy="191.511" r="1.352"></circle><circle id="_x32_90401" fill="#182F5B" cx="172.874" cy="193.214" r="1.351"></circle><circle id="_x32_90499" fill="#182F5B" cx="166.71" cy="194.565" r="1.352"></circle></g><g id="bengbu"><circle id="mapid-290300-circle" fill="#182F5B" cx="188.186" cy="163.511" r="1.352"></circle><circle id="_x32_90307" fill="#182F5B" cx="195.4" cy="149.392" r="1.352"></circle><circle id="_x32_90306" fill="#182F5B" cx="226.322" cy="159.455" r="1.352"></circle><circle id="_x32_90305" fill="#182F5B" cx="182.388" cy="167.436" r="1.352"></circle><circle id="_x32_90304" fill="#182F5B" cx="191.792" cy="164.862" r="1.352"></circle><circle id="_x32_90303" fill="#182F5B" cx="189.538" cy="179.137" r="1.353"></circle><circle id="_x32_90302" fill="#182F5B" cx="194.044" cy="173.907" r="1.352"></circle><circle id="_x32_90301" fill="#182F5B" cx="197.198" cy="167.879" r="1.352"></circle><circle id="_x32_90399" fill="#182F5B" cx="197.658" cy="173.907" r="1.352"></circle></g><g id="wuhu"><circle id="mapid-290200-circle" fill="#182F5B" cx="255.391" cy="307.994" r="1.351"></circle><circle id="_x32_90208" fill="#182F5B" cx="252.689" cy="303.064" r="1.352"></circle><circle id="_x32_90217" fill="#182F5B" cx="261.023" cy="290.948" r="1.351"></circle><circle id="_x32_90207" fill="#182F5B" cx="255.387" cy="319.681" r="1.352"></circle><circle id="_x32_90206" fill="#182F5B" cx="250.581" cy="313.021" r="1.352"></circle><circle id="_x32_90205" fill="#182F5B" cx="270.447" cy="302.434" r="1.351"></circle><circle id="_x32_90204" fill="#182F5B" cx="261.924" cy="287.415" r="1.352"></circle><circle id="_x32_90202" fill="#182F5B" cx="259.221" cy="296.615" r="1.352"></circle><circle id="_x32_90201" fill="#182F5B" cx="261.924" cy="293.911" r="1.352"></circle><circle id="_x32_90299" fill="#182F5B" cx="259.672" cy="289.597" r="1.351"></circle></g><g id="hefei"><circle id="mapid-290100-circle" fill="#182F5B" cx="187.286" cy="238.563" r="1.352"></circle><circle id="_x32_90118" fill="#182F5B" cx="191.792" cy="252.066" r="1.351"></circle><circle id="_x32_90108" fill="#182F5B" cx="184.8" cy="254.302" r="1.352"></circle><circle id="_x32_90107" fill="#182F5B" cx="181.862" cy="263.034" r="1.352"></circle><circle id="_x32_90106" fill="#182F5B" cx="200.361" cy="247.559" r="1.352"></circle><circle id="_x32_90105" fill="#182F5B" cx="174.226" cy="205.286" r="1.351"></circle><circle id="_x32_90104" fill="#182F5B" cx="194.495" cy="252.95" r="1.352"></circle><circle id="_x32_90103" fill="#182F5B" cx="180.51" cy="252.95" r="1.352"></circle><circle id="_x32_90102" fill="#182F5B" cx="189.538" cy="249.814" r="1.353"></circle><circle id="_x32_90101" fill="#182F5B" cx="190.89" cy="248.01" r="1.351"></circle><circle id="_x32_90199" fill="#182F5B" cx="187.286" cy="258.079" r="1.352"></circle><circle id="_x32_99900" fill="#182F5B" cx="189.538" cy="252.066" r="1.351"></circle></g></g></svg>